M48
; DRILL file {KiCad (6.0.5)} date Tue Jan  3 16:46:25 2023
; FORMAT={-:-/ absolute / metric / decimal}
; #@! TF.CreationDate,2023-01-03T16:46:25+01:00
; #@! TF.GenerationSoftware,Kicad,Pcbnew,(6.0.5)
; #@! TF.FileFunction,Plated,1,2,PTH
FMAT,2
METRIC
; #@! TA.AperFunction,Plated,PTH,ViaDrill
T1C0.400
; #@! TA.AperFunction,Plated,PTH,ComponentDrill
T2C0.500
; #@! TA.AperFunction,Plated,PTH,ComponentDrill
T3C0.800
; #@! TA.AperFunction,Plated,PTH,ComponentDrill
T4C1.000
; #@! TA.AperFunction,Plated,PTH,ComponentDrill
T5C1.100
; #@! TA.AperFunction,Plated,PTH,ComponentDrill
T6C2.500
%
G90
G05
T1
X115.164Y-79.654
X134.262Y-89.037
T2
X106.125Y-84.2
X106.674Y-82.874
X106.674Y-85.526
X108.0Y-82.325
X108.0Y-86.075
X109.326Y-82.874
X109.326Y-85.526
X109.875Y-84.2
X118.125Y-84.2
X118.674Y-82.874
X118.674Y-85.526
X120.0Y-82.325
X120.0Y-86.075
X121.326Y-82.874
X121.326Y-85.526
X121.875Y-84.2
T3
X132.25Y-78.1
X132.25Y-80.6
X132.25Y-83.1
T4
X82.58Y-106.7
X82.58Y-111.7
X83.75Y-79.645
X83.75Y-82.185
X83.75Y-84.725
X83.75Y-87.265
X83.75Y-89.805
X83.75Y-92.345
X83.75Y-94.885
X83.75Y-97.425
X86.4Y-101.2
X87.66Y-106.7
X87.66Y-111.7
X88.94Y-101.2
X91.48Y-101.2
X92.74Y-106.7
X92.74Y-111.7
X94.02Y-101.2
X96.45Y-79.645
X96.45Y-82.185
X96.45Y-84.725
X96.45Y-87.265
X96.45Y-89.805
X96.45Y-92.345
X96.45Y-94.885
X96.45Y-97.425
X97.82Y-106.7
X97.82Y-111.7
X102.685Y-88.56
X102.685Y-91.1
X102.685Y-93.64
X102.685Y-96.18
X102.685Y-98.72
X102.685Y-101.26
X102.685Y-103.8
X102.685Y-106.34
X125.545Y-88.56
X125.545Y-91.1
X125.545Y-93.64
X125.545Y-96.18
X125.545Y-98.72
X125.545Y-101.26
X125.545Y-103.8
X125.545Y-106.34
T5
X131.35Y-87.15
X131.35Y-93.65
X131.35Y-96.85
X131.35Y-103.35
X131.35Y-106.55
X131.35Y-113.05
X135.85Y-87.15
X135.85Y-93.65
X135.85Y-96.85
X135.85Y-103.35
X135.85Y-106.55
X135.85Y-113.05
T6
X108.0Y-84.2
X120.0Y-84.2
T0
M30
