%FSLAX45Y45*%
G04 Gerber Fmt 4.5, Leading zero omitted, Abs format (unit mm)*
G04 Created by KiCad (PCBNEW (6.0.5)) date 2022-11-03 10:24:22*
%MOMM*%
%LPD*%
G01*
G04 APERTURE LIST*
%TA.AperFunction,Profile*%
%ADD10C,0.100000*%
%TD*%
%ADD11C,0.200000*%
%ADD12C,0.040000*%
%ADD13C,0.050000*%
%ADD14C,0.080000*%
%ADD15C,0.100000*%
%ADD16C,0.110000*%
%ADD17C,0.250000*%
G04 APERTURE END LIST*
D10*
X13900000Y-11535000D02*
X7900000Y-11535000D01*
X13900000Y-7520000D02*
X13900000Y-11535000D01*
X7900000Y-7520000D02*
X7900000Y-11535000D01*
X7900000Y-7520000D02*
X13900000Y-7520000D01*
D11*
D12*
X13406250Y-8883750D02*
X13446250Y-8923750D01*
X13446250Y-8883750D02*
X13406250Y-8923750D01*
D13*
X10637500Y-8420000D02*
G75*
G03*
X10637500Y-8420000I-25000J0D01*
G01*
X10692418Y-8287417D02*
G75*
G03*
X10692418Y-8287417I-25000J0D01*
G01*
X10692418Y-8552583D02*
G75*
G03*
X10692418Y-8552583I-25000J0D01*
G01*
X10825000Y-8232500D02*
G75*
G03*
X10825000Y-8232500I-25000J0D01*
G01*
X10825000Y-8607500D02*
G75*
G03*
X10825000Y-8607500I-25000J0D01*
G01*
X10957583Y-8287417D02*
G75*
G03*
X10957583Y-8287417I-25000J0D01*
G01*
X10957583Y-8552583D02*
G75*
G03*
X10957583Y-8552583I-25000J0D01*
G01*
X11012500Y-8420000D02*
G75*
G03*
X11012500Y-8420000I-25000J0D01*
G01*
X11837500Y-8420000D02*
G75*
G03*
X11837500Y-8420000I-25000J0D01*
G01*
X11892417Y-8287417D02*
G75*
G03*
X11892417Y-8287417I-25000J0D01*
G01*
X11892417Y-8552583D02*
G75*
G03*
X11892417Y-8552583I-25000J0D01*
G01*
X12025000Y-8232500D02*
G75*
G03*
X12025000Y-8232500I-25000J0D01*
G01*
X12025000Y-8607500D02*
G75*
G03*
X12025000Y-8607500I-25000J0D01*
G01*
X12157582Y-8287417D02*
G75*
G03*
X12157582Y-8287417I-25000J0D01*
G01*
X12157582Y-8552583D02*
G75*
G03*
X12157582Y-8552583I-25000J0D01*
G01*
X12212500Y-8420000D02*
G75*
G03*
X12212500Y-8420000I-25000J0D01*
G01*
D14*
X13225000Y-7770000D02*
X13225000Y-7850000D01*
X13185000Y-7810000D02*
X13265000Y-7810000D01*
X13225000Y-8020000D02*
X13225000Y-8100000D01*
X13185000Y-8060000D02*
X13265000Y-8060000D01*
X13225000Y-8270000D02*
X13225000Y-8350000D01*
X13185000Y-8310000D02*
X13265000Y-8310000D01*
D15*
X8293356Y-10705356D02*
X8293356Y-10634644D01*
X8222644Y-10634644D01*
X8222644Y-10705356D01*
X8293356Y-10705356D01*
X8293356Y-11205356D02*
X8293356Y-11134644D01*
X8222644Y-11134644D01*
X8222644Y-11205356D01*
X8293356Y-11205356D01*
X8410356Y-7999856D02*
X8410356Y-7929144D01*
X8339644Y-7929144D01*
X8339644Y-7999856D01*
X8410356Y-7999856D01*
X8410356Y-8253856D02*
X8410356Y-8183144D01*
X8339644Y-8183144D01*
X8339644Y-8253856D01*
X8410356Y-8253856D01*
X8410356Y-8507856D02*
X8410356Y-8437144D01*
X8339644Y-8437144D01*
X8339644Y-8507856D01*
X8410356Y-8507856D01*
X8410356Y-8761856D02*
X8410356Y-8691144D01*
X8339644Y-8691144D01*
X8339644Y-8761856D01*
X8410356Y-8761856D01*
X8410356Y-9015856D02*
X8410356Y-8945144D01*
X8339644Y-8945144D01*
X8339644Y-9015856D01*
X8410356Y-9015856D01*
X8410356Y-9269856D02*
X8410356Y-9199144D01*
X8339644Y-9199144D01*
X8339644Y-9269856D01*
X8410356Y-9269856D01*
X8410356Y-9523856D02*
X8410356Y-9453144D01*
X8339644Y-9453144D01*
X8339644Y-9523856D01*
X8410356Y-9523856D01*
X8410356Y-9777856D02*
X8410356Y-9707144D01*
X8339644Y-9707144D01*
X8339644Y-9777856D01*
X8410356Y-9777856D01*
X8675356Y-10155356D02*
X8675356Y-10084644D01*
X8604644Y-10084644D01*
X8604644Y-10155356D01*
X8675356Y-10155356D01*
X8801356Y-10705356D02*
X8801356Y-10634644D01*
X8730644Y-10634644D01*
X8730644Y-10705356D01*
X8801356Y-10705356D01*
X8801356Y-11205356D02*
X8801356Y-11134644D01*
X8730644Y-11134644D01*
X8730644Y-11205356D01*
X8801356Y-11205356D01*
X8929356Y-10155356D02*
X8929356Y-10084644D01*
X8858644Y-10084644D01*
X8858644Y-10155356D01*
X8929356Y-10155356D01*
X9183356Y-10155356D02*
X9183356Y-10084644D01*
X9112644Y-10084644D01*
X9112644Y-10155356D01*
X9183356Y-10155356D01*
X9309356Y-10705356D02*
X9309356Y-10634644D01*
X9238644Y-10634644D01*
X9238644Y-10705356D01*
X9309356Y-10705356D01*
X9309356Y-11205356D02*
X9309356Y-11134644D01*
X9238644Y-11134644D01*
X9238644Y-11205356D01*
X9309356Y-11205356D01*
X9437356Y-10155356D02*
X9437356Y-10084644D01*
X9366644Y-10084644D01*
X9366644Y-10155356D01*
X9437356Y-10155356D01*
X9680356Y-7999856D02*
X9680356Y-7929144D01*
X9609644Y-7929144D01*
X9609644Y-7999856D01*
X9680356Y-7999856D01*
X9680356Y-8253856D02*
X9680356Y-8183144D01*
X9609644Y-8183144D01*
X9609644Y-8253856D01*
X9680356Y-8253856D01*
X9680356Y-8507856D02*
X9680356Y-8437144D01*
X9609644Y-8437144D01*
X9609644Y-8507856D01*
X9680356Y-8507856D01*
X9680356Y-8761856D02*
X9680356Y-8691144D01*
X9609644Y-8691144D01*
X9609644Y-8761856D01*
X9680356Y-8761856D01*
X9680356Y-9015856D02*
X9680356Y-8945144D01*
X9609644Y-8945144D01*
X9609644Y-9015856D01*
X9680356Y-9015856D01*
X9680356Y-9269856D02*
X9680356Y-9199144D01*
X9609644Y-9199144D01*
X9609644Y-9269856D01*
X9680356Y-9269856D01*
X9680356Y-9523856D02*
X9680356Y-9453144D01*
X9609644Y-9453144D01*
X9609644Y-9523856D01*
X9680356Y-9523856D01*
X9680356Y-9777856D02*
X9680356Y-9707144D01*
X9609644Y-9707144D01*
X9609644Y-9777856D01*
X9680356Y-9777856D01*
X9817356Y-10705356D02*
X9817356Y-10634644D01*
X9746644Y-10634644D01*
X9746644Y-10705356D01*
X9817356Y-10705356D01*
X9817356Y-11205356D02*
X9817356Y-11134644D01*
X9746644Y-11134644D01*
X9746644Y-11205356D01*
X9817356Y-11205356D01*
X10303856Y-8891356D02*
X10303856Y-8820644D01*
X10233144Y-8820644D01*
X10233144Y-8891356D01*
X10303856Y-8891356D01*
X10303856Y-9145356D02*
X10303856Y-9074644D01*
X10233144Y-9074644D01*
X10233144Y-9145356D01*
X10303856Y-9145356D01*
X10303856Y-9399356D02*
X10303856Y-9328644D01*
X10233144Y-9328644D01*
X10233144Y-9399356D01*
X10303856Y-9399356D01*
X10303856Y-9653356D02*
X10303856Y-9582644D01*
X10233144Y-9582644D01*
X10233144Y-9653356D01*
X10303856Y-9653356D01*
X10303856Y-9907356D02*
X10303856Y-9836644D01*
X10233144Y-9836644D01*
X10233144Y-9907356D01*
X10303856Y-9907356D01*
X10303856Y-10161356D02*
X10303856Y-10090644D01*
X10233144Y-10090644D01*
X10233144Y-10161356D01*
X10303856Y-10161356D01*
X10303856Y-10415356D02*
X10303856Y-10344644D01*
X10233144Y-10344644D01*
X10233144Y-10415356D01*
X10303856Y-10415356D01*
X10303856Y-10669356D02*
X10303856Y-10598644D01*
X10233144Y-10598644D01*
X10233144Y-10669356D01*
X10303856Y-10669356D01*
X12589856Y-8891356D02*
X12589856Y-8820644D01*
X12519144Y-8820644D01*
X12519144Y-8891356D01*
X12589856Y-8891356D01*
X12589856Y-9145356D02*
X12589856Y-9074644D01*
X12519144Y-9074644D01*
X12519144Y-9145356D01*
X12589856Y-9145356D01*
X12589856Y-9399356D02*
X12589856Y-9328644D01*
X12519144Y-9328644D01*
X12519144Y-9399356D01*
X12589856Y-9399356D01*
X12589856Y-9653356D02*
X12589856Y-9582644D01*
X12519144Y-9582644D01*
X12519144Y-9653356D01*
X12589856Y-9653356D01*
X12589856Y-9907356D02*
X12589856Y-9836644D01*
X12519144Y-9836644D01*
X12519144Y-9907356D01*
X12589856Y-9907356D01*
X12589856Y-10161356D02*
X12589856Y-10090644D01*
X12519144Y-10090644D01*
X12519144Y-10161356D01*
X12589856Y-10161356D01*
X12589856Y-10415356D02*
X12589856Y-10344644D01*
X12519144Y-10344644D01*
X12519144Y-10415356D01*
X12589856Y-10415356D01*
X12589856Y-10669356D02*
X12589856Y-10598644D01*
X12519144Y-10598644D01*
X12519144Y-10669356D01*
X12589856Y-10669356D01*
D16*
X13135000Y-8770000D02*
X13190000Y-8715000D01*
X13135000Y-8660000D01*
X13080000Y-8715000D01*
X13135000Y-8770000D01*
X13135000Y-9420000D02*
X13190000Y-9365000D01*
X13135000Y-9310000D01*
X13080000Y-9365000D01*
X13135000Y-9420000D01*
X13135000Y-9740000D02*
X13190000Y-9685000D01*
X13135000Y-9630000D01*
X13080000Y-9685000D01*
X13135000Y-9740000D01*
X13135000Y-10390000D02*
X13190000Y-10335000D01*
X13135000Y-10280000D01*
X13080000Y-10335000D01*
X13135000Y-10390000D01*
X13135000Y-10710000D02*
X13190000Y-10655000D01*
X13135000Y-10600000D01*
X13080000Y-10655000D01*
X13135000Y-10710000D01*
X13135000Y-11360000D02*
X13190000Y-11305000D01*
X13135000Y-11250000D01*
X13080000Y-11305000D01*
X13135000Y-11360000D01*
X13585000Y-8770000D02*
X13640000Y-8715000D01*
X13585000Y-8660000D01*
X13530000Y-8715000D01*
X13585000Y-8770000D01*
X13585000Y-9420000D02*
X13640000Y-9365000D01*
X13585000Y-9310000D01*
X13530000Y-9365000D01*
X13585000Y-9420000D01*
X13585000Y-9740000D02*
X13640000Y-9685000D01*
X13585000Y-9630000D01*
X13530000Y-9685000D01*
X13585000Y-9740000D01*
X13585000Y-10390000D02*
X13640000Y-10335000D01*
X13585000Y-10280000D01*
X13530000Y-10335000D01*
X13585000Y-10390000D01*
X13585000Y-10710000D02*
X13640000Y-10655000D01*
X13585000Y-10600000D01*
X13530000Y-10655000D01*
X13585000Y-10710000D01*
X13585000Y-11360000D02*
X13640000Y-11305000D01*
X13585000Y-11250000D01*
X13530000Y-11305000D01*
X13585000Y-11360000D01*
D17*
X10675000Y-8295000D02*
X10925000Y-8545000D01*
X10925000Y-8295000D02*
X10675000Y-8545000D01*
X10925000Y-8420000D02*
G75*
G03*
X10925000Y-8420000I-125000J0D01*
G01*
X11875000Y-8295000D02*
X12125000Y-8545000D01*
X12125000Y-8295000D02*
X11875000Y-8545000D01*
X12125000Y-8420000D02*
G75*
G03*
X12125000Y-8420000I-125000J0D01*
G01*
D11*
X8152619Y-11850476D02*
X8152619Y-11650476D01*
X8200238Y-11650476D01*
X8228809Y-11660000D01*
X8247857Y-11679048D01*
X8257381Y-11698095D01*
X8266905Y-11736190D01*
X8266905Y-11764762D01*
X8257381Y-11802857D01*
X8247857Y-11821905D01*
X8228809Y-11840952D01*
X8200238Y-11850476D01*
X8152619Y-11850476D01*
X8352619Y-11850476D02*
X8352619Y-11717143D01*
X8352619Y-11755238D02*
X8362143Y-11736190D01*
X8371667Y-11726667D01*
X8390714Y-11717143D01*
X8409762Y-11717143D01*
X8476429Y-11850476D02*
X8476429Y-11717143D01*
X8476429Y-11650476D02*
X8466905Y-11660000D01*
X8476429Y-11669524D01*
X8485952Y-11660000D01*
X8476429Y-11650476D01*
X8476429Y-11669524D01*
X8600238Y-11850476D02*
X8581190Y-11840952D01*
X8571667Y-11821905D01*
X8571667Y-11650476D01*
X8705000Y-11850476D02*
X8685952Y-11840952D01*
X8676429Y-11821905D01*
X8676429Y-11650476D01*
X8933571Y-11850476D02*
X8933571Y-11650476D01*
X9000238Y-11793333D01*
X9066905Y-11650476D01*
X9066905Y-11850476D01*
X9247857Y-11850476D02*
X9247857Y-11745714D01*
X9238333Y-11726667D01*
X9219286Y-11717143D01*
X9181190Y-11717143D01*
X9162143Y-11726667D01*
X9247857Y-11840952D02*
X9228810Y-11850476D01*
X9181190Y-11850476D01*
X9162143Y-11840952D01*
X9152619Y-11821905D01*
X9152619Y-11802857D01*
X9162143Y-11783809D01*
X9181190Y-11774286D01*
X9228810Y-11774286D01*
X9247857Y-11764762D01*
X9343095Y-11717143D02*
X9343095Y-11917143D01*
X9343095Y-11726667D02*
X9362143Y-11717143D01*
X9400238Y-11717143D01*
X9419286Y-11726667D01*
X9428810Y-11736190D01*
X9438333Y-11755238D01*
X9438333Y-11812381D01*
X9428810Y-11831428D01*
X9419286Y-11840952D01*
X9400238Y-11850476D01*
X9362143Y-11850476D01*
X9343095Y-11840952D01*
X9524048Y-11831428D02*
X9533571Y-11840952D01*
X9524048Y-11850476D01*
X9514524Y-11840952D01*
X9524048Y-11831428D01*
X9524048Y-11850476D01*
X9524048Y-11726667D02*
X9533571Y-11736190D01*
X9524048Y-11745714D01*
X9514524Y-11736190D01*
X9524048Y-11726667D01*
X9524048Y-11745714D01*
D12*
X7855000Y-12160000D02*
X7895000Y-12200000D01*
X7895000Y-12160000D02*
X7855000Y-12200000D01*
D11*
X8190714Y-12070476D02*
X8209762Y-12070476D01*
X8228809Y-12080000D01*
X8238333Y-12089524D01*
X8247857Y-12108571D01*
X8257381Y-12146667D01*
X8257381Y-12194286D01*
X8247857Y-12232381D01*
X8238333Y-12251428D01*
X8228809Y-12260952D01*
X8209762Y-12270476D01*
X8190714Y-12270476D01*
X8171667Y-12260952D01*
X8162143Y-12251428D01*
X8152619Y-12232381D01*
X8143095Y-12194286D01*
X8143095Y-12146667D01*
X8152619Y-12108571D01*
X8162143Y-12089524D01*
X8171667Y-12080000D01*
X8190714Y-12070476D01*
X8343095Y-12251428D02*
X8352619Y-12260952D01*
X8343095Y-12270476D01*
X8333571Y-12260952D01*
X8343095Y-12251428D01*
X8343095Y-12270476D01*
X8524048Y-12137143D02*
X8524048Y-12270476D01*
X8476429Y-12060952D02*
X8428810Y-12203809D01*
X8552619Y-12203809D01*
X8666905Y-12070476D02*
X8685952Y-12070476D01*
X8705000Y-12080000D01*
X8714524Y-12089524D01*
X8724048Y-12108571D01*
X8733571Y-12146667D01*
X8733571Y-12194286D01*
X8724048Y-12232381D01*
X8714524Y-12251428D01*
X8705000Y-12260952D01*
X8685952Y-12270476D01*
X8666905Y-12270476D01*
X8647857Y-12260952D01*
X8638333Y-12251428D01*
X8628810Y-12232381D01*
X8619286Y-12194286D01*
X8619286Y-12146667D01*
X8628810Y-12108571D01*
X8638333Y-12089524D01*
X8647857Y-12080000D01*
X8666905Y-12070476D01*
X8857381Y-12070476D02*
X8876429Y-12070476D01*
X8895476Y-12080000D01*
X8905000Y-12089524D01*
X8914524Y-12108571D01*
X8924048Y-12146667D01*
X8924048Y-12194286D01*
X8914524Y-12232381D01*
X8905000Y-12251428D01*
X8895476Y-12260952D01*
X8876429Y-12270476D01*
X8857381Y-12270476D01*
X8838333Y-12260952D01*
X8828810Y-12251428D01*
X8819286Y-12232381D01*
X8809762Y-12194286D01*
X8809762Y-12146667D01*
X8819286Y-12108571D01*
X8828810Y-12089524D01*
X8838333Y-12080000D01*
X8857381Y-12070476D01*
X9009762Y-12270476D02*
X9009762Y-12137143D01*
X9009762Y-12156190D02*
X9019286Y-12146667D01*
X9038333Y-12137143D01*
X9066905Y-12137143D01*
X9085952Y-12146667D01*
X9095476Y-12165714D01*
X9095476Y-12270476D01*
X9095476Y-12165714D02*
X9105000Y-12146667D01*
X9124048Y-12137143D01*
X9152619Y-12137143D01*
X9171667Y-12146667D01*
X9181190Y-12165714D01*
X9181190Y-12270476D01*
X9276429Y-12270476D02*
X9276429Y-12137143D01*
X9276429Y-12156190D02*
X9285952Y-12146667D01*
X9305000Y-12137143D01*
X9333571Y-12137143D01*
X9352619Y-12146667D01*
X9362143Y-12165714D01*
X9362143Y-12270476D01*
X9362143Y-12165714D02*
X9371667Y-12146667D01*
X9390714Y-12137143D01*
X9419286Y-12137143D01*
X9438333Y-12146667D01*
X9447857Y-12165714D01*
X9447857Y-12270476D01*
X9838333Y-12060952D02*
X9666905Y-12318095D01*
X10095476Y-12070476D02*
X10114524Y-12070476D01*
X10133571Y-12080000D01*
X10143095Y-12089524D01*
X10152619Y-12108571D01*
X10162143Y-12146667D01*
X10162143Y-12194286D01*
X10152619Y-12232381D01*
X10143095Y-12251428D01*
X10133571Y-12260952D01*
X10114524Y-12270476D01*
X10095476Y-12270476D01*
X10076429Y-12260952D01*
X10066905Y-12251428D01*
X10057381Y-12232381D01*
X10047857Y-12194286D01*
X10047857Y-12146667D01*
X10057381Y-12108571D01*
X10066905Y-12089524D01*
X10076429Y-12080000D01*
X10095476Y-12070476D01*
X10247857Y-12251428D02*
X10257381Y-12260952D01*
X10247857Y-12270476D01*
X10238333Y-12260952D01*
X10247857Y-12251428D01*
X10247857Y-12270476D01*
X10381190Y-12070476D02*
X10400238Y-12070476D01*
X10419286Y-12080000D01*
X10428810Y-12089524D01*
X10438333Y-12108571D01*
X10447857Y-12146667D01*
X10447857Y-12194286D01*
X10438333Y-12232381D01*
X10428810Y-12251428D01*
X10419286Y-12260952D01*
X10400238Y-12270476D01*
X10381190Y-12270476D01*
X10362143Y-12260952D01*
X10352619Y-12251428D01*
X10343095Y-12232381D01*
X10333571Y-12194286D01*
X10333571Y-12146667D01*
X10343095Y-12108571D01*
X10352619Y-12089524D01*
X10362143Y-12080000D01*
X10381190Y-12070476D01*
X10638333Y-12270476D02*
X10524048Y-12270476D01*
X10581190Y-12270476D02*
X10581190Y-12070476D01*
X10562143Y-12099048D01*
X10543095Y-12118095D01*
X10524048Y-12127619D01*
X10819286Y-12070476D02*
X10724048Y-12070476D01*
X10714524Y-12165714D01*
X10724048Y-12156190D01*
X10743095Y-12146667D01*
X10790714Y-12146667D01*
X10809762Y-12156190D01*
X10819286Y-12165714D01*
X10828810Y-12184762D01*
X10828810Y-12232381D01*
X10819286Y-12251428D01*
X10809762Y-12260952D01*
X10790714Y-12270476D01*
X10743095Y-12270476D01*
X10724048Y-12260952D01*
X10714524Y-12251428D01*
X10895476Y-12070476D02*
X11028810Y-12070476D01*
X10943095Y-12270476D01*
X11095476Y-12070476D02*
X11095476Y-12108571D01*
X11171667Y-12070476D02*
X11171667Y-12108571D01*
X11466905Y-12346667D02*
X11457381Y-12337143D01*
X11438333Y-12308571D01*
X11428809Y-12289524D01*
X11419286Y-12260952D01*
X11409762Y-12213333D01*
X11409762Y-12175238D01*
X11419286Y-12127619D01*
X11428809Y-12099048D01*
X11438333Y-12080000D01*
X11457381Y-12051428D01*
X11466905Y-12041905D01*
X11647857Y-12270476D02*
X11533571Y-12270476D01*
X11590714Y-12270476D02*
X11590714Y-12070476D01*
X11571667Y-12099048D01*
X11552619Y-12118095D01*
X11533571Y-12127619D01*
X11885952Y-12270476D02*
X11885952Y-12070476D01*
X11971667Y-12270476D02*
X11971667Y-12165714D01*
X11962143Y-12146667D01*
X11943095Y-12137143D01*
X11914524Y-12137143D01*
X11895476Y-12146667D01*
X11885952Y-12156190D01*
X12095476Y-12270476D02*
X12076428Y-12260952D01*
X12066905Y-12251428D01*
X12057381Y-12232381D01*
X12057381Y-12175238D01*
X12066905Y-12156190D01*
X12076428Y-12146667D01*
X12095476Y-12137143D01*
X12124048Y-12137143D01*
X12143095Y-12146667D01*
X12152619Y-12156190D01*
X12162143Y-12175238D01*
X12162143Y-12232381D01*
X12152619Y-12251428D01*
X12143095Y-12260952D01*
X12124048Y-12270476D01*
X12095476Y-12270476D01*
X12276428Y-12270476D02*
X12257381Y-12260952D01*
X12247857Y-12241905D01*
X12247857Y-12070476D01*
X12428809Y-12260952D02*
X12409762Y-12270476D01*
X12371667Y-12270476D01*
X12352619Y-12260952D01*
X12343095Y-12241905D01*
X12343095Y-12165714D01*
X12352619Y-12146667D01*
X12371667Y-12137143D01*
X12409762Y-12137143D01*
X12428809Y-12146667D01*
X12438333Y-12165714D01*
X12438333Y-12184762D01*
X12343095Y-12203809D01*
X12505000Y-12346667D02*
X12514524Y-12337143D01*
X12533571Y-12308571D01*
X12543095Y-12289524D01*
X12552619Y-12260952D01*
X12562143Y-12213333D01*
X12562143Y-12175238D01*
X12552619Y-12127619D01*
X12543095Y-12099048D01*
X12533571Y-12080000D01*
X12514524Y-12051428D01*
X12505000Y-12041905D01*
D13*
X7895000Y-12444000D02*
G75*
G03*
X7895000Y-12444000I-25000J0D01*
G01*
D11*
X8190714Y-12334476D02*
X8209762Y-12334476D01*
X8228809Y-12344000D01*
X8238333Y-12353524D01*
X8247857Y-12372571D01*
X8257381Y-12410667D01*
X8257381Y-12458286D01*
X8247857Y-12496381D01*
X8238333Y-12515428D01*
X8228809Y-12524952D01*
X8209762Y-12534476D01*
X8190714Y-12534476D01*
X8171667Y-12524952D01*
X8162143Y-12515428D01*
X8152619Y-12496381D01*
X8143095Y-12458286D01*
X8143095Y-12410667D01*
X8152619Y-12372571D01*
X8162143Y-12353524D01*
X8171667Y-12344000D01*
X8190714Y-12334476D01*
X8343095Y-12515428D02*
X8352619Y-12524952D01*
X8343095Y-12534476D01*
X8333571Y-12524952D01*
X8343095Y-12515428D01*
X8343095Y-12534476D01*
X8533571Y-12334476D02*
X8438333Y-12334476D01*
X8428810Y-12429714D01*
X8438333Y-12420190D01*
X8457381Y-12410667D01*
X8505000Y-12410667D01*
X8524048Y-12420190D01*
X8533571Y-12429714D01*
X8543095Y-12448762D01*
X8543095Y-12496381D01*
X8533571Y-12515428D01*
X8524048Y-12524952D01*
X8505000Y-12534476D01*
X8457381Y-12534476D01*
X8438333Y-12524952D01*
X8428810Y-12515428D01*
X8666905Y-12334476D02*
X8685952Y-12334476D01*
X8705000Y-12344000D01*
X8714524Y-12353524D01*
X8724048Y-12372571D01*
X8733571Y-12410667D01*
X8733571Y-12458286D01*
X8724048Y-12496381D01*
X8714524Y-12515428D01*
X8705000Y-12524952D01*
X8685952Y-12534476D01*
X8666905Y-12534476D01*
X8647857Y-12524952D01*
X8638333Y-12515428D01*
X8628810Y-12496381D01*
X8619286Y-12458286D01*
X8619286Y-12410667D01*
X8628810Y-12372571D01*
X8638333Y-12353524D01*
X8647857Y-12344000D01*
X8666905Y-12334476D01*
X8857381Y-12334476D02*
X8876429Y-12334476D01*
X8895476Y-12344000D01*
X8905000Y-12353524D01*
X8914524Y-12372571D01*
X8924048Y-12410667D01*
X8924048Y-12458286D01*
X8914524Y-12496381D01*
X8905000Y-12515428D01*
X8895476Y-12524952D01*
X8876429Y-12534476D01*
X8857381Y-12534476D01*
X8838333Y-12524952D01*
X8828810Y-12515428D01*
X8819286Y-12496381D01*
X8809762Y-12458286D01*
X8809762Y-12410667D01*
X8819286Y-12372571D01*
X8828810Y-12353524D01*
X8838333Y-12344000D01*
X8857381Y-12334476D01*
X9009762Y-12534476D02*
X9009762Y-12401143D01*
X9009762Y-12420190D02*
X9019286Y-12410667D01*
X9038333Y-12401143D01*
X9066905Y-12401143D01*
X9085952Y-12410667D01*
X9095476Y-12429714D01*
X9095476Y-12534476D01*
X9095476Y-12429714D02*
X9105000Y-12410667D01*
X9124048Y-12401143D01*
X9152619Y-12401143D01*
X9171667Y-12410667D01*
X9181190Y-12429714D01*
X9181190Y-12534476D01*
X9276429Y-12534476D02*
X9276429Y-12401143D01*
X9276429Y-12420190D02*
X9285952Y-12410667D01*
X9305000Y-12401143D01*
X9333571Y-12401143D01*
X9352619Y-12410667D01*
X9362143Y-12429714D01*
X9362143Y-12534476D01*
X9362143Y-12429714D02*
X9371667Y-12410667D01*
X9390714Y-12401143D01*
X9419286Y-12401143D01*
X9438333Y-12410667D01*
X9447857Y-12429714D01*
X9447857Y-12534476D01*
X9838333Y-12324952D02*
X9666905Y-12582095D01*
X10095476Y-12334476D02*
X10114524Y-12334476D01*
X10133571Y-12344000D01*
X10143095Y-12353524D01*
X10152619Y-12372571D01*
X10162143Y-12410667D01*
X10162143Y-12458286D01*
X10152619Y-12496381D01*
X10143095Y-12515428D01*
X10133571Y-12524952D01*
X10114524Y-12534476D01*
X10095476Y-12534476D01*
X10076429Y-12524952D01*
X10066905Y-12515428D01*
X10057381Y-12496381D01*
X10047857Y-12458286D01*
X10047857Y-12410667D01*
X10057381Y-12372571D01*
X10066905Y-12353524D01*
X10076429Y-12344000D01*
X10095476Y-12334476D01*
X10247857Y-12515428D02*
X10257381Y-12524952D01*
X10247857Y-12534476D01*
X10238333Y-12524952D01*
X10247857Y-12515428D01*
X10247857Y-12534476D01*
X10381190Y-12334476D02*
X10400238Y-12334476D01*
X10419286Y-12344000D01*
X10428810Y-12353524D01*
X10438333Y-12372571D01*
X10447857Y-12410667D01*
X10447857Y-12458286D01*
X10438333Y-12496381D01*
X10428810Y-12515428D01*
X10419286Y-12524952D01*
X10400238Y-12534476D01*
X10381190Y-12534476D01*
X10362143Y-12524952D01*
X10352619Y-12515428D01*
X10343095Y-12496381D01*
X10333571Y-12458286D01*
X10333571Y-12410667D01*
X10343095Y-12372571D01*
X10352619Y-12353524D01*
X10362143Y-12344000D01*
X10381190Y-12334476D01*
X10638333Y-12534476D02*
X10524048Y-12534476D01*
X10581190Y-12534476D02*
X10581190Y-12334476D01*
X10562143Y-12363048D01*
X10543095Y-12382095D01*
X10524048Y-12391619D01*
X10733571Y-12534476D02*
X10771667Y-12534476D01*
X10790714Y-12524952D01*
X10800238Y-12515428D01*
X10819286Y-12486857D01*
X10828810Y-12448762D01*
X10828810Y-12372571D01*
X10819286Y-12353524D01*
X10809762Y-12344000D01*
X10790714Y-12334476D01*
X10752619Y-12334476D01*
X10733571Y-12344000D01*
X10724048Y-12353524D01*
X10714524Y-12372571D01*
X10714524Y-12420190D01*
X10724048Y-12439238D01*
X10733571Y-12448762D01*
X10752619Y-12458286D01*
X10790714Y-12458286D01*
X10809762Y-12448762D01*
X10819286Y-12439238D01*
X10828810Y-12420190D01*
X10895476Y-12334476D02*
X11028810Y-12334476D01*
X10943095Y-12534476D01*
X11095476Y-12334476D02*
X11095476Y-12372571D01*
X11171667Y-12334476D02*
X11171667Y-12372571D01*
X11466905Y-12610667D02*
X11457381Y-12601143D01*
X11438333Y-12572571D01*
X11428809Y-12553524D01*
X11419286Y-12524952D01*
X11409762Y-12477333D01*
X11409762Y-12439238D01*
X11419286Y-12391619D01*
X11428809Y-12363048D01*
X11438333Y-12344000D01*
X11457381Y-12315428D01*
X11466905Y-12305905D01*
X11647857Y-12534476D02*
X11533571Y-12534476D01*
X11590714Y-12534476D02*
X11590714Y-12334476D01*
X11571667Y-12363048D01*
X11552619Y-12382095D01*
X11533571Y-12391619D01*
X11819286Y-12334476D02*
X11781190Y-12334476D01*
X11762143Y-12344000D01*
X11752619Y-12353524D01*
X11733571Y-12382095D01*
X11724048Y-12420190D01*
X11724048Y-12496381D01*
X11733571Y-12515428D01*
X11743095Y-12524952D01*
X11762143Y-12534476D01*
X11800238Y-12534476D01*
X11819286Y-12524952D01*
X11828809Y-12515428D01*
X11838333Y-12496381D01*
X11838333Y-12448762D01*
X11828809Y-12429714D01*
X11819286Y-12420190D01*
X11800238Y-12410667D01*
X11762143Y-12410667D01*
X11743095Y-12420190D01*
X11733571Y-12429714D01*
X11724048Y-12448762D01*
X12076428Y-12534476D02*
X12076428Y-12334476D01*
X12162143Y-12534476D02*
X12162143Y-12429714D01*
X12152619Y-12410667D01*
X12133571Y-12401143D01*
X12105000Y-12401143D01*
X12085952Y-12410667D01*
X12076428Y-12420190D01*
X12285952Y-12534476D02*
X12266905Y-12524952D01*
X12257381Y-12515428D01*
X12247857Y-12496381D01*
X12247857Y-12439238D01*
X12257381Y-12420190D01*
X12266905Y-12410667D01*
X12285952Y-12401143D01*
X12314524Y-12401143D01*
X12333571Y-12410667D01*
X12343095Y-12420190D01*
X12352619Y-12439238D01*
X12352619Y-12496381D01*
X12343095Y-12515428D01*
X12333571Y-12524952D01*
X12314524Y-12534476D01*
X12285952Y-12534476D01*
X12466905Y-12534476D02*
X12447857Y-12524952D01*
X12438333Y-12505905D01*
X12438333Y-12334476D01*
X12619286Y-12524952D02*
X12600238Y-12534476D01*
X12562143Y-12534476D01*
X12543095Y-12524952D01*
X12533571Y-12505905D01*
X12533571Y-12429714D01*
X12543095Y-12410667D01*
X12562143Y-12401143D01*
X12600238Y-12401143D01*
X12619286Y-12410667D01*
X12628809Y-12429714D01*
X12628809Y-12448762D01*
X12533571Y-12467809D01*
X12705000Y-12524952D02*
X12724048Y-12534476D01*
X12762143Y-12534476D01*
X12781190Y-12524952D01*
X12790714Y-12505905D01*
X12790714Y-12496381D01*
X12781190Y-12477333D01*
X12762143Y-12467809D01*
X12733571Y-12467809D01*
X12714524Y-12458286D01*
X12705000Y-12439238D01*
X12705000Y-12429714D01*
X12714524Y-12410667D01*
X12733571Y-12401143D01*
X12762143Y-12401143D01*
X12781190Y-12410667D01*
X12857381Y-12610667D02*
X12866905Y-12601143D01*
X12885952Y-12572571D01*
X12895476Y-12553524D01*
X12905000Y-12524952D01*
X12914524Y-12477333D01*
X12914524Y-12439238D01*
X12905000Y-12391619D01*
X12895476Y-12363048D01*
X12885952Y-12344000D01*
X12866905Y-12315428D01*
X12857381Y-12305905D01*
D14*
X7855000Y-12668000D02*
X7855000Y-12748000D01*
X7815000Y-12708000D02*
X7895000Y-12708000D01*
D11*
X8190714Y-12598476D02*
X8209762Y-12598476D01*
X8228809Y-12608000D01*
X8238333Y-12617524D01*
X8247857Y-12636571D01*
X8257381Y-12674667D01*
X8257381Y-12722286D01*
X8247857Y-12760381D01*
X8238333Y-12779428D01*
X8228809Y-12788952D01*
X8209762Y-12798476D01*
X8190714Y-12798476D01*
X8171667Y-12788952D01*
X8162143Y-12779428D01*
X8152619Y-12760381D01*
X8143095Y-12722286D01*
X8143095Y-12674667D01*
X8152619Y-12636571D01*
X8162143Y-12617524D01*
X8171667Y-12608000D01*
X8190714Y-12598476D01*
X8343095Y-12779428D02*
X8352619Y-12788952D01*
X8343095Y-12798476D01*
X8333571Y-12788952D01*
X8343095Y-12779428D01*
X8343095Y-12798476D01*
X8466905Y-12684190D02*
X8447857Y-12674667D01*
X8438333Y-12665143D01*
X8428810Y-12646095D01*
X8428810Y-12636571D01*
X8438333Y-12617524D01*
X8447857Y-12608000D01*
X8466905Y-12598476D01*
X8505000Y-12598476D01*
X8524048Y-12608000D01*
X8533571Y-12617524D01*
X8543095Y-12636571D01*
X8543095Y-12646095D01*
X8533571Y-12665143D01*
X8524048Y-12674667D01*
X8505000Y-12684190D01*
X8466905Y-12684190D01*
X8447857Y-12693714D01*
X8438333Y-12703238D01*
X8428810Y-12722286D01*
X8428810Y-12760381D01*
X8438333Y-12779428D01*
X8447857Y-12788952D01*
X8466905Y-12798476D01*
X8505000Y-12798476D01*
X8524048Y-12788952D01*
X8533571Y-12779428D01*
X8543095Y-12760381D01*
X8543095Y-12722286D01*
X8533571Y-12703238D01*
X8524048Y-12693714D01*
X8505000Y-12684190D01*
X8666905Y-12598476D02*
X8685952Y-12598476D01*
X8705000Y-12608000D01*
X8714524Y-12617524D01*
X8724048Y-12636571D01*
X8733571Y-12674667D01*
X8733571Y-12722286D01*
X8724048Y-12760381D01*
X8714524Y-12779428D01*
X8705000Y-12788952D01*
X8685952Y-12798476D01*
X8666905Y-12798476D01*
X8647857Y-12788952D01*
X8638333Y-12779428D01*
X8628810Y-12760381D01*
X8619286Y-12722286D01*
X8619286Y-12674667D01*
X8628810Y-12636571D01*
X8638333Y-12617524D01*
X8647857Y-12608000D01*
X8666905Y-12598476D01*
X8857381Y-12598476D02*
X8876429Y-12598476D01*
X8895476Y-12608000D01*
X8905000Y-12617524D01*
X8914524Y-12636571D01*
X8924048Y-12674667D01*
X8924048Y-12722286D01*
X8914524Y-12760381D01*
X8905000Y-12779428D01*
X8895476Y-12788952D01*
X8876429Y-12798476D01*
X8857381Y-12798476D01*
X8838333Y-12788952D01*
X8828810Y-12779428D01*
X8819286Y-12760381D01*
X8809762Y-12722286D01*
X8809762Y-12674667D01*
X8819286Y-12636571D01*
X8828810Y-12617524D01*
X8838333Y-12608000D01*
X8857381Y-12598476D01*
X9009762Y-12798476D02*
X9009762Y-12665143D01*
X9009762Y-12684190D02*
X9019286Y-12674667D01*
X9038333Y-12665143D01*
X9066905Y-12665143D01*
X9085952Y-12674667D01*
X9095476Y-12693714D01*
X9095476Y-12798476D01*
X9095476Y-12693714D02*
X9105000Y-12674667D01*
X9124048Y-12665143D01*
X9152619Y-12665143D01*
X9171667Y-12674667D01*
X9181190Y-12693714D01*
X9181190Y-12798476D01*
X9276429Y-12798476D02*
X9276429Y-12665143D01*
X9276429Y-12684190D02*
X9285952Y-12674667D01*
X9305000Y-12665143D01*
X9333571Y-12665143D01*
X9352619Y-12674667D01*
X9362143Y-12693714D01*
X9362143Y-12798476D01*
X9362143Y-12693714D02*
X9371667Y-12674667D01*
X9390714Y-12665143D01*
X9419286Y-12665143D01*
X9438333Y-12674667D01*
X9447857Y-12693714D01*
X9447857Y-12798476D01*
X9838333Y-12588952D02*
X9666905Y-12846095D01*
X10095476Y-12598476D02*
X10114524Y-12598476D01*
X10133571Y-12608000D01*
X10143095Y-12617524D01*
X10152619Y-12636571D01*
X10162143Y-12674667D01*
X10162143Y-12722286D01*
X10152619Y-12760381D01*
X10143095Y-12779428D01*
X10133571Y-12788952D01*
X10114524Y-12798476D01*
X10095476Y-12798476D01*
X10076429Y-12788952D01*
X10066905Y-12779428D01*
X10057381Y-12760381D01*
X10047857Y-12722286D01*
X10047857Y-12674667D01*
X10057381Y-12636571D01*
X10066905Y-12617524D01*
X10076429Y-12608000D01*
X10095476Y-12598476D01*
X10247857Y-12779428D02*
X10257381Y-12788952D01*
X10247857Y-12798476D01*
X10238333Y-12788952D01*
X10247857Y-12779428D01*
X10247857Y-12798476D01*
X10381190Y-12598476D02*
X10400238Y-12598476D01*
X10419286Y-12608000D01*
X10428810Y-12617524D01*
X10438333Y-12636571D01*
X10447857Y-12674667D01*
X10447857Y-12722286D01*
X10438333Y-12760381D01*
X10428810Y-12779428D01*
X10419286Y-12788952D01*
X10400238Y-12798476D01*
X10381190Y-12798476D01*
X10362143Y-12788952D01*
X10352619Y-12779428D01*
X10343095Y-12760381D01*
X10333571Y-12722286D01*
X10333571Y-12674667D01*
X10343095Y-12636571D01*
X10352619Y-12617524D01*
X10362143Y-12608000D01*
X10381190Y-12598476D01*
X10514524Y-12598476D02*
X10638333Y-12598476D01*
X10571667Y-12674667D01*
X10600238Y-12674667D01*
X10619286Y-12684190D01*
X10628810Y-12693714D01*
X10638333Y-12712762D01*
X10638333Y-12760381D01*
X10628810Y-12779428D01*
X10619286Y-12788952D01*
X10600238Y-12798476D01*
X10543095Y-12798476D01*
X10524048Y-12788952D01*
X10514524Y-12779428D01*
X10828810Y-12798476D02*
X10714524Y-12798476D01*
X10771667Y-12798476D02*
X10771667Y-12598476D01*
X10752619Y-12627048D01*
X10733571Y-12646095D01*
X10714524Y-12655619D01*
X11009762Y-12598476D02*
X10914524Y-12598476D01*
X10905000Y-12693714D01*
X10914524Y-12684190D01*
X10933571Y-12674667D01*
X10981190Y-12674667D01*
X11000238Y-12684190D01*
X11009762Y-12693714D01*
X11019286Y-12712762D01*
X11019286Y-12760381D01*
X11009762Y-12779428D01*
X11000238Y-12788952D01*
X10981190Y-12798476D01*
X10933571Y-12798476D01*
X10914524Y-12788952D01*
X10905000Y-12779428D01*
X11095476Y-12598476D02*
X11095476Y-12636571D01*
X11171667Y-12598476D02*
X11171667Y-12636571D01*
X11466905Y-12874667D02*
X11457381Y-12865143D01*
X11438333Y-12836571D01*
X11428809Y-12817524D01*
X11419286Y-12788952D01*
X11409762Y-12741333D01*
X11409762Y-12703238D01*
X11419286Y-12655619D01*
X11428809Y-12627048D01*
X11438333Y-12608000D01*
X11457381Y-12579428D01*
X11466905Y-12569905D01*
X11524048Y-12598476D02*
X11647857Y-12598476D01*
X11581190Y-12674667D01*
X11609762Y-12674667D01*
X11628809Y-12684190D01*
X11638333Y-12693714D01*
X11647857Y-12712762D01*
X11647857Y-12760381D01*
X11638333Y-12779428D01*
X11628809Y-12788952D01*
X11609762Y-12798476D01*
X11552619Y-12798476D01*
X11533571Y-12788952D01*
X11524048Y-12779428D01*
X11885952Y-12798476D02*
X11885952Y-12598476D01*
X11971667Y-12798476D02*
X11971667Y-12693714D01*
X11962143Y-12674667D01*
X11943095Y-12665143D01*
X11914524Y-12665143D01*
X11895476Y-12674667D01*
X11885952Y-12684190D01*
X12095476Y-12798476D02*
X12076428Y-12788952D01*
X12066905Y-12779428D01*
X12057381Y-12760381D01*
X12057381Y-12703238D01*
X12066905Y-12684190D01*
X12076428Y-12674667D01*
X12095476Y-12665143D01*
X12124048Y-12665143D01*
X12143095Y-12674667D01*
X12152619Y-12684190D01*
X12162143Y-12703238D01*
X12162143Y-12760381D01*
X12152619Y-12779428D01*
X12143095Y-12788952D01*
X12124048Y-12798476D01*
X12095476Y-12798476D01*
X12276428Y-12798476D02*
X12257381Y-12788952D01*
X12247857Y-12769905D01*
X12247857Y-12598476D01*
X12428809Y-12788952D02*
X12409762Y-12798476D01*
X12371667Y-12798476D01*
X12352619Y-12788952D01*
X12343095Y-12769905D01*
X12343095Y-12693714D01*
X12352619Y-12674667D01*
X12371667Y-12665143D01*
X12409762Y-12665143D01*
X12428809Y-12674667D01*
X12438333Y-12693714D01*
X12438333Y-12712762D01*
X12343095Y-12731809D01*
X12514524Y-12788952D02*
X12533571Y-12798476D01*
X12571667Y-12798476D01*
X12590714Y-12788952D01*
X12600238Y-12769905D01*
X12600238Y-12760381D01*
X12590714Y-12741333D01*
X12571667Y-12731809D01*
X12543095Y-12731809D01*
X12524048Y-12722286D01*
X12514524Y-12703238D01*
X12514524Y-12693714D01*
X12524048Y-12674667D01*
X12543095Y-12665143D01*
X12571667Y-12665143D01*
X12590714Y-12674667D01*
X12666905Y-12874667D02*
X12676428Y-12865143D01*
X12695476Y-12836571D01*
X12705000Y-12817524D01*
X12714524Y-12788952D01*
X12724048Y-12741333D01*
X12724048Y-12703238D01*
X12714524Y-12655619D01*
X12705000Y-12627048D01*
X12695476Y-12608000D01*
X12676428Y-12579428D01*
X12666905Y-12569905D01*
D15*
X7880356Y-13007356D02*
X7880356Y-12936644D01*
X7809644Y-12936644D01*
X7809644Y-13007356D01*
X7880356Y-13007356D01*
D11*
X8257381Y-13062476D02*
X8143095Y-13062476D01*
X8200238Y-13062476D02*
X8200238Y-12862476D01*
X8181190Y-12891048D01*
X8162143Y-12910095D01*
X8143095Y-12919619D01*
X8343095Y-13043428D02*
X8352619Y-13052952D01*
X8343095Y-13062476D01*
X8333571Y-13052952D01*
X8343095Y-13043428D01*
X8343095Y-13062476D01*
X8476429Y-12862476D02*
X8495476Y-12862476D01*
X8514524Y-12872000D01*
X8524048Y-12881524D01*
X8533571Y-12900571D01*
X8543095Y-12938667D01*
X8543095Y-12986286D01*
X8533571Y-13024381D01*
X8524048Y-13043428D01*
X8514524Y-13052952D01*
X8495476Y-13062476D01*
X8476429Y-13062476D01*
X8457381Y-13052952D01*
X8447857Y-13043428D01*
X8438333Y-13024381D01*
X8428810Y-12986286D01*
X8428810Y-12938667D01*
X8438333Y-12900571D01*
X8447857Y-12881524D01*
X8457381Y-12872000D01*
X8476429Y-12862476D01*
X8666905Y-12862476D02*
X8685952Y-12862476D01*
X8705000Y-12872000D01*
X8714524Y-12881524D01*
X8724048Y-12900571D01*
X8733571Y-12938667D01*
X8733571Y-12986286D01*
X8724048Y-13024381D01*
X8714524Y-13043428D01*
X8705000Y-13052952D01*
X8685952Y-13062476D01*
X8666905Y-13062476D01*
X8647857Y-13052952D01*
X8638333Y-13043428D01*
X8628810Y-13024381D01*
X8619286Y-12986286D01*
X8619286Y-12938667D01*
X8628810Y-12900571D01*
X8638333Y-12881524D01*
X8647857Y-12872000D01*
X8666905Y-12862476D01*
X8857381Y-12862476D02*
X8876429Y-12862476D01*
X8895476Y-12872000D01*
X8905000Y-12881524D01*
X8914524Y-12900571D01*
X8924048Y-12938667D01*
X8924048Y-12986286D01*
X8914524Y-13024381D01*
X8905000Y-13043428D01*
X8895476Y-13052952D01*
X8876429Y-13062476D01*
X8857381Y-13062476D01*
X8838333Y-13052952D01*
X8828810Y-13043428D01*
X8819286Y-13024381D01*
X8809762Y-12986286D01*
X8809762Y-12938667D01*
X8819286Y-12900571D01*
X8828810Y-12881524D01*
X8838333Y-12872000D01*
X8857381Y-12862476D01*
X9009762Y-13062476D02*
X9009762Y-12929143D01*
X9009762Y-12948190D02*
X9019286Y-12938667D01*
X9038333Y-12929143D01*
X9066905Y-12929143D01*
X9085952Y-12938667D01*
X9095476Y-12957714D01*
X9095476Y-13062476D01*
X9095476Y-12957714D02*
X9105000Y-12938667D01*
X9124048Y-12929143D01*
X9152619Y-12929143D01*
X9171667Y-12938667D01*
X9181190Y-12957714D01*
X9181190Y-13062476D01*
X9276429Y-13062476D02*
X9276429Y-12929143D01*
X9276429Y-12948190D02*
X9285952Y-12938667D01*
X9305000Y-12929143D01*
X9333571Y-12929143D01*
X9352619Y-12938667D01*
X9362143Y-12957714D01*
X9362143Y-13062476D01*
X9362143Y-12957714D02*
X9371667Y-12938667D01*
X9390714Y-12929143D01*
X9419286Y-12929143D01*
X9438333Y-12938667D01*
X9447857Y-12957714D01*
X9447857Y-13062476D01*
X9838333Y-12852952D02*
X9666905Y-13110095D01*
X10095476Y-12862476D02*
X10114524Y-12862476D01*
X10133571Y-12872000D01*
X10143095Y-12881524D01*
X10152619Y-12900571D01*
X10162143Y-12938667D01*
X10162143Y-12986286D01*
X10152619Y-13024381D01*
X10143095Y-13043428D01*
X10133571Y-13052952D01*
X10114524Y-13062476D01*
X10095476Y-13062476D01*
X10076429Y-13052952D01*
X10066905Y-13043428D01*
X10057381Y-13024381D01*
X10047857Y-12986286D01*
X10047857Y-12938667D01*
X10057381Y-12900571D01*
X10066905Y-12881524D01*
X10076429Y-12872000D01*
X10095476Y-12862476D01*
X10247857Y-13043428D02*
X10257381Y-13052952D01*
X10247857Y-13062476D01*
X10238333Y-13052952D01*
X10247857Y-13043428D01*
X10247857Y-13062476D01*
X10381190Y-12862476D02*
X10400238Y-12862476D01*
X10419286Y-12872000D01*
X10428810Y-12881524D01*
X10438333Y-12900571D01*
X10447857Y-12938667D01*
X10447857Y-12986286D01*
X10438333Y-13024381D01*
X10428810Y-13043428D01*
X10419286Y-13052952D01*
X10400238Y-13062476D01*
X10381190Y-13062476D01*
X10362143Y-13052952D01*
X10352619Y-13043428D01*
X10343095Y-13024381D01*
X10333571Y-12986286D01*
X10333571Y-12938667D01*
X10343095Y-12900571D01*
X10352619Y-12881524D01*
X10362143Y-12872000D01*
X10381190Y-12862476D01*
X10514524Y-12862476D02*
X10638333Y-12862476D01*
X10571667Y-12938667D01*
X10600238Y-12938667D01*
X10619286Y-12948190D01*
X10628810Y-12957714D01*
X10638333Y-12976762D01*
X10638333Y-13024381D01*
X10628810Y-13043428D01*
X10619286Y-13052952D01*
X10600238Y-13062476D01*
X10543095Y-13062476D01*
X10524048Y-13052952D01*
X10514524Y-13043428D01*
X10733571Y-13062476D02*
X10771667Y-13062476D01*
X10790714Y-13052952D01*
X10800238Y-13043428D01*
X10819286Y-13014857D01*
X10828810Y-12976762D01*
X10828810Y-12900571D01*
X10819286Y-12881524D01*
X10809762Y-12872000D01*
X10790714Y-12862476D01*
X10752619Y-12862476D01*
X10733571Y-12872000D01*
X10724048Y-12881524D01*
X10714524Y-12900571D01*
X10714524Y-12948190D01*
X10724048Y-12967238D01*
X10733571Y-12976762D01*
X10752619Y-12986286D01*
X10790714Y-12986286D01*
X10809762Y-12976762D01*
X10819286Y-12967238D01*
X10828810Y-12948190D01*
X11000238Y-12929143D02*
X11000238Y-13062476D01*
X10952619Y-12852952D02*
X10905000Y-12995809D01*
X11028810Y-12995809D01*
X11095476Y-12862476D02*
X11095476Y-12900571D01*
X11171667Y-12862476D02*
X11171667Y-12900571D01*
X11466905Y-13138667D02*
X11457381Y-13129143D01*
X11438333Y-13100571D01*
X11428809Y-13081524D01*
X11419286Y-13052952D01*
X11409762Y-13005333D01*
X11409762Y-12967238D01*
X11419286Y-12919619D01*
X11428809Y-12891048D01*
X11438333Y-12872000D01*
X11457381Y-12843428D01*
X11466905Y-12833905D01*
X11628809Y-12929143D02*
X11628809Y-13062476D01*
X11581190Y-12852952D02*
X11533571Y-12995809D01*
X11657381Y-12995809D01*
X11819286Y-12929143D02*
X11819286Y-13062476D01*
X11771667Y-12852952D02*
X11724048Y-12995809D01*
X11847857Y-12995809D01*
X12076428Y-13062476D02*
X12076428Y-12862476D01*
X12162143Y-13062476D02*
X12162143Y-12957714D01*
X12152619Y-12938667D01*
X12133571Y-12929143D01*
X12105000Y-12929143D01*
X12085952Y-12938667D01*
X12076428Y-12948190D01*
X12285952Y-13062476D02*
X12266905Y-13052952D01*
X12257381Y-13043428D01*
X12247857Y-13024381D01*
X12247857Y-12967238D01*
X12257381Y-12948190D01*
X12266905Y-12938667D01*
X12285952Y-12929143D01*
X12314524Y-12929143D01*
X12333571Y-12938667D01*
X12343095Y-12948190D01*
X12352619Y-12967238D01*
X12352619Y-13024381D01*
X12343095Y-13043428D01*
X12333571Y-13052952D01*
X12314524Y-13062476D01*
X12285952Y-13062476D01*
X12466905Y-13062476D02*
X12447857Y-13052952D01*
X12438333Y-13033905D01*
X12438333Y-12862476D01*
X12619286Y-13052952D02*
X12600238Y-13062476D01*
X12562143Y-13062476D01*
X12543095Y-13052952D01*
X12533571Y-13033905D01*
X12533571Y-12957714D01*
X12543095Y-12938667D01*
X12562143Y-12929143D01*
X12600238Y-12929143D01*
X12619286Y-12938667D01*
X12628809Y-12957714D01*
X12628809Y-12976762D01*
X12533571Y-12995809D01*
X12705000Y-13052952D02*
X12724048Y-13062476D01*
X12762143Y-13062476D01*
X12781190Y-13052952D01*
X12790714Y-13033905D01*
X12790714Y-13024381D01*
X12781190Y-13005333D01*
X12762143Y-12995809D01*
X12733571Y-12995809D01*
X12714524Y-12986286D01*
X12705000Y-12967238D01*
X12705000Y-12957714D01*
X12714524Y-12938667D01*
X12733571Y-12929143D01*
X12762143Y-12929143D01*
X12781190Y-12938667D01*
X12857381Y-13138667D02*
X12866905Y-13129143D01*
X12885952Y-13100571D01*
X12895476Y-13081524D01*
X12905000Y-13052952D01*
X12914524Y-13005333D01*
X12914524Y-12967238D01*
X12905000Y-12919619D01*
X12895476Y-12891048D01*
X12885952Y-12872000D01*
X12866905Y-12843428D01*
X12857381Y-12833905D01*
D16*
X7840000Y-13291000D02*
X7895000Y-13236000D01*
X7840000Y-13181000D01*
X7785000Y-13236000D01*
X7840000Y-13291000D01*
D11*
X8257381Y-13326476D02*
X8143095Y-13326476D01*
X8200238Y-13326476D02*
X8200238Y-13126476D01*
X8181190Y-13155048D01*
X8162143Y-13174095D01*
X8143095Y-13183619D01*
X8343095Y-13307428D02*
X8352619Y-13316952D01*
X8343095Y-13326476D01*
X8333571Y-13316952D01*
X8343095Y-13307428D01*
X8343095Y-13326476D01*
X8543095Y-13326476D02*
X8428810Y-13326476D01*
X8485952Y-13326476D02*
X8485952Y-13126476D01*
X8466905Y-13155048D01*
X8447857Y-13174095D01*
X8428810Y-13183619D01*
X8666905Y-13126476D02*
X8685952Y-13126476D01*
X8705000Y-13136000D01*
X8714524Y-13145524D01*
X8724048Y-13164571D01*
X8733571Y-13202667D01*
X8733571Y-13250286D01*
X8724048Y-13288381D01*
X8714524Y-13307428D01*
X8705000Y-13316952D01*
X8685952Y-13326476D01*
X8666905Y-13326476D01*
X8647857Y-13316952D01*
X8638333Y-13307428D01*
X8628810Y-13288381D01*
X8619286Y-13250286D01*
X8619286Y-13202667D01*
X8628810Y-13164571D01*
X8638333Y-13145524D01*
X8647857Y-13136000D01*
X8666905Y-13126476D01*
X8857381Y-13126476D02*
X8876429Y-13126476D01*
X8895476Y-13136000D01*
X8905000Y-13145524D01*
X8914524Y-13164571D01*
X8924048Y-13202667D01*
X8924048Y-13250286D01*
X8914524Y-13288381D01*
X8905000Y-13307428D01*
X8895476Y-13316952D01*
X8876429Y-13326476D01*
X8857381Y-13326476D01*
X8838333Y-13316952D01*
X8828810Y-13307428D01*
X8819286Y-13288381D01*
X8809762Y-13250286D01*
X8809762Y-13202667D01*
X8819286Y-13164571D01*
X8828810Y-13145524D01*
X8838333Y-13136000D01*
X8857381Y-13126476D01*
X9009762Y-13326476D02*
X9009762Y-13193143D01*
X9009762Y-13212190D02*
X9019286Y-13202667D01*
X9038333Y-13193143D01*
X9066905Y-13193143D01*
X9085952Y-13202667D01*
X9095476Y-13221714D01*
X9095476Y-13326476D01*
X9095476Y-13221714D02*
X9105000Y-13202667D01*
X9124048Y-13193143D01*
X9152619Y-13193143D01*
X9171667Y-13202667D01*
X9181190Y-13221714D01*
X9181190Y-13326476D01*
X9276429Y-13326476D02*
X9276429Y-13193143D01*
X9276429Y-13212190D02*
X9285952Y-13202667D01*
X9305000Y-13193143D01*
X9333571Y-13193143D01*
X9352619Y-13202667D01*
X9362143Y-13221714D01*
X9362143Y-13326476D01*
X9362143Y-13221714D02*
X9371667Y-13202667D01*
X9390714Y-13193143D01*
X9419286Y-13193143D01*
X9438333Y-13202667D01*
X9447857Y-13221714D01*
X9447857Y-13326476D01*
X9838333Y-13116952D02*
X9666905Y-13374095D01*
X10095476Y-13126476D02*
X10114524Y-13126476D01*
X10133571Y-13136000D01*
X10143095Y-13145524D01*
X10152619Y-13164571D01*
X10162143Y-13202667D01*
X10162143Y-13250286D01*
X10152619Y-13288381D01*
X10143095Y-13307428D01*
X10133571Y-13316952D01*
X10114524Y-13326476D01*
X10095476Y-13326476D01*
X10076429Y-13316952D01*
X10066905Y-13307428D01*
X10057381Y-13288381D01*
X10047857Y-13250286D01*
X10047857Y-13202667D01*
X10057381Y-13164571D01*
X10066905Y-13145524D01*
X10076429Y-13136000D01*
X10095476Y-13126476D01*
X10247857Y-13307428D02*
X10257381Y-13316952D01*
X10247857Y-13326476D01*
X10238333Y-13316952D01*
X10247857Y-13307428D01*
X10247857Y-13326476D01*
X10381190Y-13126476D02*
X10400238Y-13126476D01*
X10419286Y-13136000D01*
X10428810Y-13145524D01*
X10438333Y-13164571D01*
X10447857Y-13202667D01*
X10447857Y-13250286D01*
X10438333Y-13288381D01*
X10428810Y-13307428D01*
X10419286Y-13316952D01*
X10400238Y-13326476D01*
X10381190Y-13326476D01*
X10362143Y-13316952D01*
X10352619Y-13307428D01*
X10343095Y-13288381D01*
X10333571Y-13250286D01*
X10333571Y-13202667D01*
X10343095Y-13164571D01*
X10352619Y-13145524D01*
X10362143Y-13136000D01*
X10381190Y-13126476D01*
X10619286Y-13193143D02*
X10619286Y-13326476D01*
X10571667Y-13116952D02*
X10524048Y-13259809D01*
X10647857Y-13259809D01*
X10705000Y-13126476D02*
X10828810Y-13126476D01*
X10762143Y-13202667D01*
X10790714Y-13202667D01*
X10809762Y-13212190D01*
X10819286Y-13221714D01*
X10828810Y-13240762D01*
X10828810Y-13288381D01*
X10819286Y-13307428D01*
X10809762Y-13316952D01*
X10790714Y-13326476D01*
X10733571Y-13326476D01*
X10714524Y-13316952D01*
X10705000Y-13307428D01*
X10895476Y-13126476D02*
X11019286Y-13126476D01*
X10952619Y-13202667D01*
X10981190Y-13202667D01*
X11000238Y-13212190D01*
X11009762Y-13221714D01*
X11019286Y-13240762D01*
X11019286Y-13288381D01*
X11009762Y-13307428D01*
X11000238Y-13316952D01*
X10981190Y-13326476D01*
X10924048Y-13326476D01*
X10905000Y-13316952D01*
X10895476Y-13307428D01*
X11095476Y-13126476D02*
X11095476Y-13164571D01*
X11171667Y-13126476D02*
X11171667Y-13164571D01*
X11466905Y-13402667D02*
X11457381Y-13393143D01*
X11438333Y-13364571D01*
X11428809Y-13345524D01*
X11419286Y-13316952D01*
X11409762Y-13269333D01*
X11409762Y-13231238D01*
X11419286Y-13183619D01*
X11428809Y-13155048D01*
X11438333Y-13136000D01*
X11457381Y-13107428D01*
X11466905Y-13097905D01*
X11647857Y-13326476D02*
X11533571Y-13326476D01*
X11590714Y-13326476D02*
X11590714Y-13126476D01*
X11571667Y-13155048D01*
X11552619Y-13174095D01*
X11533571Y-13183619D01*
X11724048Y-13145524D02*
X11733571Y-13136000D01*
X11752619Y-13126476D01*
X11800238Y-13126476D01*
X11819286Y-13136000D01*
X11828809Y-13145524D01*
X11838333Y-13164571D01*
X11838333Y-13183619D01*
X11828809Y-13212190D01*
X11714524Y-13326476D01*
X11838333Y-13326476D01*
X12076428Y-13326476D02*
X12076428Y-13126476D01*
X12162143Y-13326476D02*
X12162143Y-13221714D01*
X12152619Y-13202667D01*
X12133571Y-13193143D01*
X12105000Y-13193143D01*
X12085952Y-13202667D01*
X12076428Y-13212190D01*
X12285952Y-13326476D02*
X12266905Y-13316952D01*
X12257381Y-13307428D01*
X12247857Y-13288381D01*
X12247857Y-13231238D01*
X12257381Y-13212190D01*
X12266905Y-13202667D01*
X12285952Y-13193143D01*
X12314524Y-13193143D01*
X12333571Y-13202667D01*
X12343095Y-13212190D01*
X12352619Y-13231238D01*
X12352619Y-13288381D01*
X12343095Y-13307428D01*
X12333571Y-13316952D01*
X12314524Y-13326476D01*
X12285952Y-13326476D01*
X12466905Y-13326476D02*
X12447857Y-13316952D01*
X12438333Y-13297905D01*
X12438333Y-13126476D01*
X12619286Y-13316952D02*
X12600238Y-13326476D01*
X12562143Y-13326476D01*
X12543095Y-13316952D01*
X12533571Y-13297905D01*
X12533571Y-13221714D01*
X12543095Y-13202667D01*
X12562143Y-13193143D01*
X12600238Y-13193143D01*
X12619286Y-13202667D01*
X12628809Y-13221714D01*
X12628809Y-13240762D01*
X12533571Y-13259809D01*
X12705000Y-13316952D02*
X12724048Y-13326476D01*
X12762143Y-13326476D01*
X12781190Y-13316952D01*
X12790714Y-13297905D01*
X12790714Y-13288381D01*
X12781190Y-13269333D01*
X12762143Y-13259809D01*
X12733571Y-13259809D01*
X12714524Y-13250286D01*
X12705000Y-13231238D01*
X12705000Y-13221714D01*
X12714524Y-13202667D01*
X12733571Y-13193143D01*
X12762143Y-13193143D01*
X12781190Y-13202667D01*
X12857381Y-13402667D02*
X12866905Y-13393143D01*
X12885952Y-13364571D01*
X12895476Y-13345524D01*
X12905000Y-13316952D01*
X12914524Y-13269333D01*
X12914524Y-13231238D01*
X12905000Y-13183619D01*
X12895476Y-13155048D01*
X12885952Y-13136000D01*
X12866905Y-13107428D01*
X12857381Y-13097905D01*
X7695000Y-13400000D02*
X7895000Y-13600000D01*
X7895000Y-13400000D02*
X7695000Y-13600000D01*
X7895000Y-13500000D02*
G75*
G03*
X7895000Y-13500000I-100000J0D01*
G01*
X8143095Y-13409524D02*
X8152619Y-13400000D01*
X8171667Y-13390476D01*
X8219286Y-13390476D01*
X8238333Y-13400000D01*
X8247857Y-13409524D01*
X8257381Y-13428571D01*
X8257381Y-13447619D01*
X8247857Y-13476190D01*
X8133571Y-13590476D01*
X8257381Y-13590476D01*
X8343095Y-13571428D02*
X8352619Y-13580952D01*
X8343095Y-13590476D01*
X8333571Y-13580952D01*
X8343095Y-13571428D01*
X8343095Y-13590476D01*
X8533571Y-13390476D02*
X8438333Y-13390476D01*
X8428810Y-13485714D01*
X8438333Y-13476190D01*
X8457381Y-13466667D01*
X8505000Y-13466667D01*
X8524048Y-13476190D01*
X8533571Y-13485714D01*
X8543095Y-13504762D01*
X8543095Y-13552381D01*
X8533571Y-13571428D01*
X8524048Y-13580952D01*
X8505000Y-13590476D01*
X8457381Y-13590476D01*
X8438333Y-13580952D01*
X8428810Y-13571428D01*
X8666905Y-13390476D02*
X8685952Y-13390476D01*
X8705000Y-13400000D01*
X8714524Y-13409524D01*
X8724048Y-13428571D01*
X8733571Y-13466667D01*
X8733571Y-13514286D01*
X8724048Y-13552381D01*
X8714524Y-13571428D01*
X8705000Y-13580952D01*
X8685952Y-13590476D01*
X8666905Y-13590476D01*
X8647857Y-13580952D01*
X8638333Y-13571428D01*
X8628810Y-13552381D01*
X8619286Y-13514286D01*
X8619286Y-13466667D01*
X8628810Y-13428571D01*
X8638333Y-13409524D01*
X8647857Y-13400000D01*
X8666905Y-13390476D01*
X8857381Y-13390476D02*
X8876429Y-13390476D01*
X8895476Y-13400000D01*
X8905000Y-13409524D01*
X8914524Y-13428571D01*
X8924048Y-13466667D01*
X8924048Y-13514286D01*
X8914524Y-13552381D01*
X8905000Y-13571428D01*
X8895476Y-13580952D01*
X8876429Y-13590476D01*
X8857381Y-13590476D01*
X8838333Y-13580952D01*
X8828810Y-13571428D01*
X8819286Y-13552381D01*
X8809762Y-13514286D01*
X8809762Y-13466667D01*
X8819286Y-13428571D01*
X8828810Y-13409524D01*
X8838333Y-13400000D01*
X8857381Y-13390476D01*
X9009762Y-13590476D02*
X9009762Y-13457143D01*
X9009762Y-13476190D02*
X9019286Y-13466667D01*
X9038333Y-13457143D01*
X9066905Y-13457143D01*
X9085952Y-13466667D01*
X9095476Y-13485714D01*
X9095476Y-13590476D01*
X9095476Y-13485714D02*
X9105000Y-13466667D01*
X9124048Y-13457143D01*
X9152619Y-13457143D01*
X9171667Y-13466667D01*
X9181190Y-13485714D01*
X9181190Y-13590476D01*
X9276429Y-13590476D02*
X9276429Y-13457143D01*
X9276429Y-13476190D02*
X9285952Y-13466667D01*
X9305000Y-13457143D01*
X9333571Y-13457143D01*
X9352619Y-13466667D01*
X9362143Y-13485714D01*
X9362143Y-13590476D01*
X9362143Y-13485714D02*
X9371667Y-13466667D01*
X9390714Y-13457143D01*
X9419286Y-13457143D01*
X9438333Y-13466667D01*
X9447857Y-13485714D01*
X9447857Y-13590476D01*
X9838333Y-13380952D02*
X9666905Y-13638095D01*
X10095476Y-13390476D02*
X10114524Y-13390476D01*
X10133571Y-13400000D01*
X10143095Y-13409524D01*
X10152619Y-13428571D01*
X10162143Y-13466667D01*
X10162143Y-13514286D01*
X10152619Y-13552381D01*
X10143095Y-13571428D01*
X10133571Y-13580952D01*
X10114524Y-13590476D01*
X10095476Y-13590476D01*
X10076429Y-13580952D01*
X10066905Y-13571428D01*
X10057381Y-13552381D01*
X10047857Y-13514286D01*
X10047857Y-13466667D01*
X10057381Y-13428571D01*
X10066905Y-13409524D01*
X10076429Y-13400000D01*
X10095476Y-13390476D01*
X10247857Y-13571428D02*
X10257381Y-13580952D01*
X10247857Y-13590476D01*
X10238333Y-13580952D01*
X10247857Y-13571428D01*
X10247857Y-13590476D01*
X10381190Y-13390476D02*
X10400238Y-13390476D01*
X10419286Y-13400000D01*
X10428810Y-13409524D01*
X10438333Y-13428571D01*
X10447857Y-13466667D01*
X10447857Y-13514286D01*
X10438333Y-13552381D01*
X10428810Y-13571428D01*
X10419286Y-13580952D01*
X10400238Y-13590476D01*
X10381190Y-13590476D01*
X10362143Y-13580952D01*
X10352619Y-13571428D01*
X10343095Y-13552381D01*
X10333571Y-13514286D01*
X10333571Y-13466667D01*
X10343095Y-13428571D01*
X10352619Y-13409524D01*
X10362143Y-13400000D01*
X10381190Y-13390476D01*
X10543095Y-13590476D02*
X10581190Y-13590476D01*
X10600238Y-13580952D01*
X10609762Y-13571428D01*
X10628810Y-13542857D01*
X10638333Y-13504762D01*
X10638333Y-13428571D01*
X10628810Y-13409524D01*
X10619286Y-13400000D01*
X10600238Y-13390476D01*
X10562143Y-13390476D01*
X10543095Y-13400000D01*
X10533571Y-13409524D01*
X10524048Y-13428571D01*
X10524048Y-13476190D01*
X10533571Y-13495238D01*
X10543095Y-13504762D01*
X10562143Y-13514286D01*
X10600238Y-13514286D01*
X10619286Y-13504762D01*
X10628810Y-13495238D01*
X10638333Y-13476190D01*
X10752619Y-13476190D02*
X10733571Y-13466667D01*
X10724048Y-13457143D01*
X10714524Y-13438095D01*
X10714524Y-13428571D01*
X10724048Y-13409524D01*
X10733571Y-13400000D01*
X10752619Y-13390476D01*
X10790714Y-13390476D01*
X10809762Y-13400000D01*
X10819286Y-13409524D01*
X10828810Y-13428571D01*
X10828810Y-13438095D01*
X10819286Y-13457143D01*
X10809762Y-13466667D01*
X10790714Y-13476190D01*
X10752619Y-13476190D01*
X10733571Y-13485714D01*
X10724048Y-13495238D01*
X10714524Y-13514286D01*
X10714524Y-13552381D01*
X10724048Y-13571428D01*
X10733571Y-13580952D01*
X10752619Y-13590476D01*
X10790714Y-13590476D01*
X10809762Y-13580952D01*
X10819286Y-13571428D01*
X10828810Y-13552381D01*
X10828810Y-13514286D01*
X10819286Y-13495238D01*
X10809762Y-13485714D01*
X10790714Y-13476190D01*
X11000238Y-13457143D02*
X11000238Y-13590476D01*
X10952619Y-13380952D02*
X10905000Y-13523809D01*
X11028810Y-13523809D01*
X11095476Y-13390476D02*
X11095476Y-13428571D01*
X11171667Y-13390476D02*
X11171667Y-13428571D01*
X11466905Y-13666667D02*
X11457381Y-13657143D01*
X11438333Y-13628571D01*
X11428809Y-13609524D01*
X11419286Y-13580952D01*
X11409762Y-13533333D01*
X11409762Y-13495238D01*
X11419286Y-13447619D01*
X11428809Y-13419048D01*
X11438333Y-13400000D01*
X11457381Y-13371428D01*
X11466905Y-13361905D01*
X11533571Y-13409524D02*
X11543095Y-13400000D01*
X11562143Y-13390476D01*
X11609762Y-13390476D01*
X11628809Y-13400000D01*
X11638333Y-13409524D01*
X11647857Y-13428571D01*
X11647857Y-13447619D01*
X11638333Y-13476190D01*
X11524048Y-13590476D01*
X11647857Y-13590476D01*
X11885952Y-13590476D02*
X11885952Y-13390476D01*
X11971667Y-13590476D02*
X11971667Y-13485714D01*
X11962143Y-13466667D01*
X11943095Y-13457143D01*
X11914524Y-13457143D01*
X11895476Y-13466667D01*
X11885952Y-13476190D01*
X12095476Y-13590476D02*
X12076428Y-13580952D01*
X12066905Y-13571428D01*
X12057381Y-13552381D01*
X12057381Y-13495238D01*
X12066905Y-13476190D01*
X12076428Y-13466667D01*
X12095476Y-13457143D01*
X12124048Y-13457143D01*
X12143095Y-13466667D01*
X12152619Y-13476190D01*
X12162143Y-13495238D01*
X12162143Y-13552381D01*
X12152619Y-13571428D01*
X12143095Y-13580952D01*
X12124048Y-13590476D01*
X12095476Y-13590476D01*
X12276428Y-13590476D02*
X12257381Y-13580952D01*
X12247857Y-13561905D01*
X12247857Y-13390476D01*
X12428809Y-13580952D02*
X12409762Y-13590476D01*
X12371667Y-13590476D01*
X12352619Y-13580952D01*
X12343095Y-13561905D01*
X12343095Y-13485714D01*
X12352619Y-13466667D01*
X12371667Y-13457143D01*
X12409762Y-13457143D01*
X12428809Y-13466667D01*
X12438333Y-13485714D01*
X12438333Y-13504762D01*
X12343095Y-13523809D01*
X12514524Y-13580952D02*
X12533571Y-13590476D01*
X12571667Y-13590476D01*
X12590714Y-13580952D01*
X12600238Y-13561905D01*
X12600238Y-13552381D01*
X12590714Y-13533333D01*
X12571667Y-13523809D01*
X12543095Y-13523809D01*
X12524048Y-13514286D01*
X12514524Y-13495238D01*
X12514524Y-13485714D01*
X12524048Y-13466667D01*
X12543095Y-13457143D01*
X12571667Y-13457143D01*
X12590714Y-13466667D01*
X12666905Y-13666667D02*
X12676428Y-13657143D01*
X12695476Y-13628571D01*
X12705000Y-13609524D01*
X12714524Y-13580952D01*
X12724048Y-13533333D01*
X12724048Y-13495238D01*
X12714524Y-13447619D01*
X12705000Y-13419048D01*
X12695476Y-13400000D01*
X12676428Y-13371428D01*
X12666905Y-13361905D01*
M02*
