%TF.GenerationSoftware,KiCad,Pcbnew,(6.0.5)*%
%TF.CreationDate,2022-11-03T10:23:46+01:00*%
%TF.ProjectId,Photo_table,50686f74-6f5f-4746-9162-6c652e6b6963,rev?*%
%TF.SameCoordinates,Original*%
%TF.FileFunction,Legend,Top*%
%TF.FilePolarity,Positive*%
%FSLAX46Y46*%
G04 Gerber Fmt 4.6, Leading zero omitted, Abs format (unit mm)*
G04 Created by KiCad (PCBNEW (6.0.5)) date 2022-11-03 10:23:46*
%MOMM*%
%LPD*%
G01*
G04 APERTURE LIST*
G04 Aperture macros list*
%AMRoundRect*
0 Rectangle with rounded corners*
0 $1 Rounding radius*
0 $2 $3 $4 $5 $6 $7 $8 $9 X,Y pos of 4 corners*
0 Add a 4 corners polygon primitive as box body*
4,1,4,$2,$3,$4,$5,$6,$7,$8,$9,$2,$3,0*
0 Add four circle primitives for the rounded corners*
1,1,$1+$1,$2,$3*
1,1,$1+$1,$4,$5*
1,1,$1+$1,$6,$7*
1,1,$1+$1,$8,$9*
0 Add four rect primitives between the rounded corners*
20,1,$1+$1,$2,$3,$4,$5,0*
20,1,$1+$1,$4,$5,$6,$7,0*
20,1,$1+$1,$6,$7,$8,$9,0*
20,1,$1+$1,$8,$9,$2,$3,0*%
G04 Aperture macros list end*
%ADD10C,0.200000*%
%ADD11C,0.300000*%
%ADD12C,0.150000*%
%ADD13C,0.120000*%
%ADD14C,0.010000*%
%ADD15C,0.800000*%
%ADD16C,5.000000*%
%ADD17R,2.000000X2.000000*%
%ADD18O,2.000000X1.600000*%
%ADD19C,2.000000*%
%ADD20RoundRect,0.250000X-1.137500X-0.550000X1.137500X-0.550000X1.137500X0.550000X-1.137500X0.550000X0*%
%ADD21O,3.500000X1.500000*%
%ADD22RoundRect,0.250000X0.550000X-1.712500X0.550000X1.712500X-0.550000X1.712500X-0.550000X-1.712500X0*%
%ADD23RoundRect,0.250000X-0.550000X1.137500X-0.550000X-1.137500X0.550000X-1.137500X0.550000X1.137500X0*%
%ADD24R,1.700000X1.700000*%
%ADD25O,1.700000X1.700000*%
G04 APERTURE END LIST*
D10*
X129652380Y-100795238D02*
X129176190Y-101128571D01*
X129652380Y-101366666D02*
X128652380Y-101366666D01*
X128652380Y-100985714D01*
X128700000Y-100890476D01*
X128747619Y-100842857D01*
X128842857Y-100795238D01*
X128985714Y-100795238D01*
X129080952Y-100842857D01*
X129128571Y-100890476D01*
X129176190Y-100985714D01*
X129176190Y-101366666D01*
X128985714Y-99938095D02*
X129652380Y-99938095D01*
X128985714Y-100366666D02*
X129509523Y-100366666D01*
X129604761Y-100319047D01*
X129652380Y-100223809D01*
X129652380Y-100080952D01*
X129604761Y-99985714D01*
X129557142Y-99938095D01*
X128985714Y-99461904D02*
X129652380Y-99461904D01*
X129080952Y-99461904D02*
X129033333Y-99414285D01*
X128985714Y-99319047D01*
X128985714Y-99176190D01*
X129033333Y-99080952D01*
X129128571Y-99033333D01*
X129652380Y-99033333D01*
D11*
X101557142Y-78821428D02*
X102700000Y-78821428D01*
X103700000Y-78678571D02*
X103700000Y-77892857D01*
X103628571Y-77750000D01*
X103485714Y-77678571D01*
X103200000Y-77678571D01*
X103057142Y-77750000D01*
X103700000Y-78607142D02*
X103557142Y-78678571D01*
X103200000Y-78678571D01*
X103057142Y-78607142D01*
X102985714Y-78464285D01*
X102985714Y-78321428D01*
X103057142Y-78178571D01*
X103200000Y-78107142D01*
X103557142Y-78107142D01*
X103700000Y-78035714D01*
X104414285Y-78678571D02*
X104414285Y-77678571D01*
X104414285Y-77964285D02*
X104485714Y-77821428D01*
X104557142Y-77750000D01*
X104700000Y-77678571D01*
X104842857Y-77678571D01*
X105128571Y-77678571D02*
X105700000Y-77678571D01*
X105342857Y-77178571D02*
X105342857Y-78464285D01*
X105414285Y-78607142D01*
X105557142Y-78678571D01*
X105700000Y-78678571D01*
X105842857Y-78821428D02*
X106985714Y-78821428D01*
X107557142Y-78678571D02*
X107414285Y-78607142D01*
X107342857Y-78535714D01*
X107271428Y-78392857D01*
X107271428Y-77964285D01*
X107342857Y-77821428D01*
X107414285Y-77750000D01*
X107557142Y-77678571D01*
X107771428Y-77678571D01*
X107914285Y-77750000D01*
X107985714Y-77821428D01*
X108057142Y-77964285D01*
X108057142Y-78392857D01*
X107985714Y-78535714D01*
X107914285Y-78607142D01*
X107771428Y-78678571D01*
X107557142Y-78678571D01*
X108485714Y-77678571D02*
X109057142Y-77678571D01*
X108700000Y-78678571D02*
X108700000Y-77392857D01*
X108771428Y-77250000D01*
X108914285Y-77178571D01*
X109057142Y-77178571D01*
X109200000Y-78821428D02*
X110342857Y-78821428D01*
X111271428Y-78607142D02*
X111128571Y-78678571D01*
X110842857Y-78678571D01*
X110700000Y-78607142D01*
X110628571Y-78464285D01*
X110628571Y-77892857D01*
X110700000Y-77750000D01*
X110842857Y-77678571D01*
X111128571Y-77678571D01*
X111271428Y-77750000D01*
X111342857Y-77892857D01*
X111342857Y-78035714D01*
X110628571Y-78178571D01*
X112200000Y-78678571D02*
X112057142Y-78607142D01*
X111985714Y-78464285D01*
X111985714Y-77178571D01*
X113342857Y-78607142D02*
X113200000Y-78678571D01*
X112914285Y-78678571D01*
X112771428Y-78607142D01*
X112700000Y-78464285D01*
X112700000Y-77892857D01*
X112771428Y-77750000D01*
X112914285Y-77678571D01*
X113200000Y-77678571D01*
X113342857Y-77750000D01*
X113414285Y-77892857D01*
X113414285Y-78035714D01*
X112700000Y-78178571D01*
X114700000Y-78607142D02*
X114557142Y-78678571D01*
X114271428Y-78678571D01*
X114128571Y-78607142D01*
X114057142Y-78535714D01*
X113985714Y-78392857D01*
X113985714Y-77964285D01*
X114057142Y-77821428D01*
X114128571Y-77750000D01*
X114271428Y-77678571D01*
X114557142Y-77678571D01*
X114700000Y-77750000D01*
X115128571Y-77678571D02*
X115700000Y-77678571D01*
X115342857Y-77178571D02*
X115342857Y-78464285D01*
X115414285Y-78607142D01*
X115557142Y-78678571D01*
X115700000Y-78678571D01*
X116199999Y-78678571D02*
X116199999Y-77678571D01*
X116199999Y-77964285D02*
X116271428Y-77821428D01*
X116342857Y-77750000D01*
X116485714Y-77678571D01*
X116628571Y-77678571D01*
X117342857Y-78678571D02*
X117200000Y-78607142D01*
X117128571Y-78535714D01*
X117057142Y-78392857D01*
X117057142Y-77964285D01*
X117128571Y-77821428D01*
X117200000Y-77750000D01*
X117342857Y-77678571D01*
X117557142Y-77678571D01*
X117700000Y-77750000D01*
X117771428Y-77821428D01*
X117842857Y-77964285D01*
X117842857Y-78392857D01*
X117771428Y-78535714D01*
X117700000Y-78607142D01*
X117557142Y-78678571D01*
X117342857Y-78678571D01*
X118485714Y-77678571D02*
X118485714Y-78678571D01*
X118485714Y-77821428D02*
X118557142Y-77750000D01*
X118700000Y-77678571D01*
X118914285Y-77678571D01*
X119057142Y-77750000D01*
X119128571Y-77892857D01*
X119128571Y-78678571D01*
X119842857Y-78678571D02*
X119842857Y-77678571D01*
X119842857Y-77178571D02*
X119771428Y-77250000D01*
X119842857Y-77321428D01*
X119914285Y-77250000D01*
X119842857Y-77178571D01*
X119842857Y-77321428D01*
X121199999Y-78607142D02*
X121057142Y-78678571D01*
X120771428Y-78678571D01*
X120628571Y-78607142D01*
X120557142Y-78535714D01*
X120485714Y-78392857D01*
X120485714Y-77964285D01*
X120557142Y-77821428D01*
X120628571Y-77750000D01*
X120771428Y-77678571D01*
X121057142Y-77678571D01*
X121199999Y-77750000D01*
X121771428Y-78607142D02*
X121914285Y-78678571D01*
X122199999Y-78678571D01*
X122342857Y-78607142D01*
X122414285Y-78464285D01*
X122414285Y-78392857D01*
X122342857Y-78250000D01*
X122199999Y-78178571D01*
X121985714Y-78178571D01*
X121842857Y-78107142D01*
X121771428Y-77964285D01*
X121771428Y-77892857D01*
X121842857Y-77750000D01*
X121985714Y-77678571D01*
X122199999Y-77678571D01*
X122342857Y-77750000D01*
X122699999Y-78821428D02*
X123842857Y-78821428D01*
D10*
X129752380Y-92166666D02*
X128752380Y-92166666D01*
X129466666Y-91833333D01*
X128752380Y-91500000D01*
X129752380Y-91500000D01*
X129752380Y-90880952D02*
X129704761Y-90976190D01*
X129657142Y-91023809D01*
X129561904Y-91071428D01*
X129276190Y-91071428D01*
X129180952Y-91023809D01*
X129133333Y-90976190D01*
X129085714Y-90880952D01*
X129085714Y-90738095D01*
X129133333Y-90642857D01*
X129180952Y-90595238D01*
X129276190Y-90547619D01*
X129561904Y-90547619D01*
X129657142Y-90595238D01*
X129704761Y-90642857D01*
X129752380Y-90738095D01*
X129752380Y-90880952D01*
X129752380Y-89690476D02*
X128752380Y-89690476D01*
X129704761Y-89690476D02*
X129752380Y-89785714D01*
X129752380Y-89976190D01*
X129704761Y-90071428D01*
X129657142Y-90119047D01*
X129561904Y-90166666D01*
X129276190Y-90166666D01*
X129180952Y-90119047D01*
X129133333Y-90071428D01*
X129085714Y-89976190D01*
X129085714Y-89785714D01*
X129133333Y-89690476D01*
X129704761Y-88833333D02*
X129752380Y-88928571D01*
X129752380Y-89119047D01*
X129704761Y-89214285D01*
X129609523Y-89261904D01*
X129228571Y-89261904D01*
X129133333Y-89214285D01*
X129085714Y-89119047D01*
X129085714Y-88928571D01*
X129133333Y-88833333D01*
X129228571Y-88785714D01*
X129323809Y-88785714D01*
X129419047Y-89261904D01*
X129752380Y-110614285D02*
X129752380Y-111090476D01*
X128752380Y-111090476D01*
X128704761Y-109566666D02*
X129990476Y-110423809D01*
X129752380Y-108661904D02*
X129276190Y-108995238D01*
X129752380Y-109233333D02*
X128752380Y-109233333D01*
X128752380Y-108852380D01*
X128800000Y-108757142D01*
X128847619Y-108709523D01*
X128942857Y-108661904D01*
X129085714Y-108661904D01*
X129180952Y-108709523D01*
X129228571Y-108757142D01*
X129276190Y-108852380D01*
X129276190Y-109233333D01*
X129104761Y-82647619D02*
X129152380Y-82504761D01*
X129152380Y-82266666D01*
X129104761Y-82171428D01*
X129057142Y-82123809D01*
X128961904Y-82076190D01*
X128866666Y-82076190D01*
X128771428Y-82123809D01*
X128723809Y-82171428D01*
X128676190Y-82266666D01*
X128628571Y-82457142D01*
X128580952Y-82552380D01*
X128533333Y-82600000D01*
X128438095Y-82647619D01*
X128342857Y-82647619D01*
X128247619Y-82600000D01*
X128200000Y-82552380D01*
X128152380Y-82457142D01*
X128152380Y-82219047D01*
X128200000Y-82076190D01*
X128485714Y-81647619D02*
X129485714Y-81647619D01*
X128533333Y-81647619D02*
X128485714Y-81552380D01*
X128485714Y-81361904D01*
X128533333Y-81266666D01*
X128580952Y-81219047D01*
X128676190Y-81171428D01*
X128961904Y-81171428D01*
X129057142Y-81219047D01*
X129104761Y-81266666D01*
X129152380Y-81361904D01*
X129152380Y-81552380D01*
X129104761Y-81647619D01*
X129104761Y-80361904D02*
X129152380Y-80457142D01*
X129152380Y-80647619D01*
X129104761Y-80742857D01*
X129009523Y-80790476D01*
X128628571Y-80790476D01*
X128533333Y-80742857D01*
X128485714Y-80647619D01*
X128485714Y-80457142D01*
X128533333Y-80361904D01*
X128628571Y-80314285D01*
X128723809Y-80314285D01*
X128819047Y-80790476D01*
X129104761Y-79504761D02*
X129152380Y-79600000D01*
X129152380Y-79790476D01*
X129104761Y-79885714D01*
X129009523Y-79933333D01*
X128628571Y-79933333D01*
X128533333Y-79885714D01*
X128485714Y-79790476D01*
X128485714Y-79600000D01*
X128533333Y-79504761D01*
X128628571Y-79457142D01*
X128723809Y-79457142D01*
X128819047Y-79933333D01*
X129152380Y-78600000D02*
X128152380Y-78600000D01*
X129104761Y-78600000D02*
X129152380Y-78695238D01*
X129152380Y-78885714D01*
X129104761Y-78980952D01*
X129057142Y-79028571D01*
X128961904Y-79076190D01*
X128676190Y-79076190D01*
X128580952Y-79028571D01*
X128533333Y-78980952D01*
X128485714Y-78885714D01*
X128485714Y-78695238D01*
X128533333Y-78600000D01*
D12*
X102038095Y-80952380D02*
X102038095Y-81761904D01*
X102085714Y-81857142D01*
X102133333Y-81904761D01*
X102228571Y-81952380D01*
X102419047Y-81952380D01*
X102514285Y-81904761D01*
X102561904Y-81857142D01*
X102609523Y-81761904D01*
X102609523Y-80952380D01*
X103609523Y-81952380D02*
X103038095Y-81952380D01*
X103323809Y-81952380D02*
X103323809Y-80952380D01*
X103228571Y-81095238D01*
X103133333Y-81190476D01*
X103038095Y-81238095D01*
X113257142Y-88566666D02*
X113304761Y-88614285D01*
X113352380Y-88757142D01*
X113352380Y-88852380D01*
X113304761Y-88995238D01*
X113209523Y-89090476D01*
X113114285Y-89138095D01*
X112923809Y-89185714D01*
X112780952Y-89185714D01*
X112590476Y-89138095D01*
X112495238Y-89090476D01*
X112400000Y-88995238D01*
X112352380Y-88852380D01*
X112352380Y-88757142D01*
X112400000Y-88614285D01*
X112447619Y-88566666D01*
X113352380Y-87614285D02*
X113352380Y-88185714D01*
X113352380Y-87900000D02*
X112352380Y-87900000D01*
X112495238Y-87995238D01*
X112590476Y-88090476D01*
X112638095Y-88185714D01*
X93433333Y-85707142D02*
X93385714Y-85754761D01*
X93242857Y-85802380D01*
X93147619Y-85802380D01*
X93004761Y-85754761D01*
X92909523Y-85659523D01*
X92861904Y-85564285D01*
X92814285Y-85373809D01*
X92814285Y-85230952D01*
X92861904Y-85040476D01*
X92909523Y-84945238D01*
X93004761Y-84850000D01*
X93147619Y-84802380D01*
X93242857Y-84802380D01*
X93385714Y-84850000D01*
X93433333Y-84897619D01*
X93814285Y-84897619D02*
X93861904Y-84850000D01*
X93957142Y-84802380D01*
X94195238Y-84802380D01*
X94290476Y-84850000D01*
X94338095Y-84897619D01*
X94385714Y-84992857D01*
X94385714Y-85088095D01*
X94338095Y-85230952D01*
X93766666Y-85802380D01*
X94385714Y-85802380D01*
X87883333Y-84907142D02*
X87835714Y-84954761D01*
X87692857Y-85002380D01*
X87597619Y-85002380D01*
X87454761Y-84954761D01*
X87359523Y-84859523D01*
X87311904Y-84764285D01*
X87264285Y-84573809D01*
X87264285Y-84430952D01*
X87311904Y-84240476D01*
X87359523Y-84145238D01*
X87454761Y-84050000D01*
X87597619Y-84002380D01*
X87692857Y-84002380D01*
X87835714Y-84050000D01*
X87883333Y-84097619D01*
X88216666Y-84002380D02*
X88835714Y-84002380D01*
X88502380Y-84383333D01*
X88645238Y-84383333D01*
X88740476Y-84430952D01*
X88788095Y-84478571D01*
X88835714Y-84573809D01*
X88835714Y-84811904D01*
X88788095Y-84907142D01*
X88740476Y-84954761D01*
X88645238Y-85002380D01*
X88359523Y-85002380D01*
X88264285Y-84954761D01*
X88216666Y-84907142D01*
X83522380Y-101533333D02*
X84236666Y-101533333D01*
X84379523Y-101580952D01*
X84474761Y-101676190D01*
X84522380Y-101819047D01*
X84522380Y-101914285D01*
X84522380Y-100533333D02*
X84522380Y-101104761D01*
X84522380Y-100819047D02*
X83522380Y-100819047D01*
X83665238Y-100914285D01*
X83760476Y-101009523D01*
X83808095Y-101104761D01*
X86102380Y-98111904D02*
X86911904Y-98111904D01*
X87007142Y-98064285D01*
X87054761Y-98016666D01*
X87102380Y-97921428D01*
X87102380Y-97730952D01*
X87054761Y-97635714D01*
X87007142Y-97588095D01*
X86911904Y-97540476D01*
X86102380Y-97540476D01*
X86197619Y-97111904D02*
X86150000Y-97064285D01*
X86102380Y-96969047D01*
X86102380Y-96730952D01*
X86150000Y-96635714D01*
X86197619Y-96588095D01*
X86292857Y-96540476D01*
X86388095Y-96540476D01*
X86530952Y-96588095D01*
X87102380Y-97159523D01*
X87102380Y-96540476D01*
D13*
X127045000Y-87120000D02*
X127045000Y-112550000D01*
X124505000Y-87120000D02*
X124505000Y-80220000D01*
X124505000Y-80220000D02*
X101185000Y-80220000D01*
X127045000Y-87120000D02*
X124505000Y-87120000D01*
X103305000Y-114680000D02*
X124915000Y-114680000D01*
X101185000Y-80220000D02*
X101185000Y-112550000D01*
X124915000Y-114680000D02*
G75*
G03*
X127045000Y-112550000I-2J2130002D01*
G01*
X101185000Y-112550000D02*
G75*
G03*
X103315000Y-114680000I2130000J0D01*
G01*
G36*
X128085000Y-106975000D02*
G01*
X127450000Y-106340000D01*
X128085000Y-105705000D01*
X128085000Y-106975000D01*
G37*
D12*
X128085000Y-106975000D02*
X127450000Y-106340000D01*
X128085000Y-105705000D01*
X128085000Y-106975000D01*
D13*
X136850000Y-102350000D02*
X136850000Y-97850000D01*
X132850000Y-103600000D02*
X134350000Y-103600000D01*
X130350000Y-97850000D02*
X130350000Y-102350000D01*
X134350000Y-96600000D02*
X132850000Y-96600000D01*
X106340000Y-88904437D02*
X106340000Y-89540000D01*
X107404437Y-93360000D02*
X111860000Y-93360000D01*
X111860000Y-93360000D02*
X111860000Y-91660000D01*
X106340000Y-92295563D02*
X107404437Y-93360000D01*
X106340000Y-88904437D02*
X107404437Y-87840000D01*
X106340000Y-92295563D02*
X106340000Y-91660000D01*
X111860000Y-87840000D02*
X111860000Y-89540000D01*
X107404437Y-87840000D02*
X111860000Y-87840000D01*
D12*
X138050000Y-79600000D02*
X138050000Y-81600000D01*
X137250000Y-75800000D02*
X129950000Y-75800000D01*
X129950000Y-75800000D02*
X129950000Y-85400000D01*
X137250000Y-81600000D02*
X137250000Y-85400000D01*
X137250000Y-75800000D02*
X137250000Y-79600000D01*
X137250000Y-85400000D02*
X129950000Y-85400000D01*
X138050000Y-81600000D02*
X137250000Y-81600000D01*
X138050000Y-79600000D02*
X137250000Y-79600000D01*
D13*
X94360000Y-86190000D02*
X91160000Y-86190000D01*
X93295563Y-94710000D02*
X91160000Y-94710000D01*
X93295563Y-94710000D02*
X94360000Y-93645563D01*
X86904437Y-94710000D02*
X89040000Y-94710000D01*
X94360000Y-93645563D02*
X94360000Y-86190000D01*
X86904437Y-94710000D02*
X85840000Y-93645563D01*
X85840000Y-93645563D02*
X85840000Y-86190000D01*
X85840000Y-86190000D02*
X89040000Y-86190000D01*
X91795563Y-78190000D02*
X91160000Y-78190000D01*
X87340000Y-79254437D02*
X87340000Y-83710000D01*
X88404437Y-78190000D02*
X87340000Y-79254437D01*
X87340000Y-83710000D02*
X89040000Y-83710000D01*
X88404437Y-78190000D02*
X89040000Y-78190000D01*
X92860000Y-79254437D02*
X92860000Y-83710000D01*
X91795563Y-78190000D02*
X92860000Y-79254437D01*
X92860000Y-83710000D02*
X91160000Y-83710000D01*
X90200000Y-114700000D02*
X91000000Y-113000000D01*
X79520000Y-103200000D02*
X100880000Y-103200000D01*
X100880000Y-103200000D02*
X100880000Y-112800000D01*
X79520000Y-103200000D02*
X79520000Y-112800000D01*
X79520000Y-114700000D02*
X100880000Y-114700000D01*
X90200000Y-114700000D02*
X89400000Y-113000000D01*
X89400000Y-113000000D02*
X90200000Y-113000000D01*
X79520000Y-114700000D02*
X79520000Y-112800000D01*
X100880000Y-114700000D02*
X100880000Y-112800000D01*
X91000000Y-113000000D02*
X90200000Y-113000000D01*
X87670000Y-102530000D02*
X87670000Y-99870000D01*
X87670000Y-99870000D02*
X95350000Y-99870000D01*
X86400000Y-102530000D02*
X85070000Y-102530000D01*
X95350000Y-102530000D02*
X95350000Y-99870000D01*
X87670000Y-102530000D02*
X95350000Y-102530000D01*
X85070000Y-102530000D02*
X85070000Y-101200000D01*
G36*
X115151117Y-95201355D02*
G01*
X115208047Y-95265022D01*
X115231107Y-95320911D01*
X115229647Y-95397298D01*
X115225934Y-95427620D01*
X115215126Y-95522390D01*
X115208933Y-95600778D01*
X115208361Y-95619885D01*
X115212102Y-95684301D01*
X115221494Y-95776429D01*
X115225934Y-95812150D01*
X115232801Y-95899886D01*
X115217885Y-95958847D01*
X115171835Y-96017310D01*
X115151117Y-96038415D01*
X115058727Y-96130805D01*
X114079947Y-96130805D01*
X114046066Y-96056442D01*
X114020970Y-95992410D01*
X114012184Y-95954948D01*
X114039950Y-95945343D01*
X114117530Y-95936365D01*
X114236348Y-95928614D01*
X114387828Y-95922686D01*
X114515805Y-95919827D01*
X115019425Y-95911839D01*
X115029278Y-95842152D01*
X115022389Y-95778771D01*
X115000083Y-95747714D01*
X114958379Y-95739033D01*
X114869544Y-95731622D01*
X114744834Y-95726069D01*
X114595507Y-95722964D01*
X114518661Y-95722516D01*
X114076287Y-95722069D01*
X114044235Y-95630126D01*
X114022443Y-95565051D01*
X114012281Y-95529653D01*
X114012184Y-95528632D01*
X114039809Y-95525080D01*
X114116411Y-95521177D01*
X114232579Y-95517249D01*
X114378904Y-95513624D01*
X114515805Y-95511092D01*
X115019425Y-95503103D01*
X115019425Y-95327931D01*
X114559965Y-95319893D01*
X114100505Y-95311854D01*
X114056344Y-95226457D01*
X114026019Y-95163407D01*
X114012258Y-95126090D01*
X114012184Y-95125013D01*
X114039840Y-95119876D01*
X114116653Y-95115421D01*
X114233391Y-95111929D01*
X114380821Y-95109685D01*
X114535455Y-95108965D01*
X115058727Y-95108965D01*
X115151117Y-95201355D01*
G37*
D14*
X115151117Y-95201355D02*
X115208047Y-95265022D01*
X115231107Y-95320911D01*
X115229647Y-95397298D01*
X115225934Y-95427620D01*
X115215126Y-95522390D01*
X115208933Y-95600778D01*
X115208361Y-95619885D01*
X115212102Y-95684301D01*
X115221494Y-95776429D01*
X115225934Y-95812150D01*
X115232801Y-95899886D01*
X115217885Y-95958847D01*
X115171835Y-96017310D01*
X115151117Y-96038415D01*
X115058727Y-96130805D01*
X114079947Y-96130805D01*
X114046066Y-96056442D01*
X114020970Y-95992410D01*
X114012184Y-95954948D01*
X114039950Y-95945343D01*
X114117530Y-95936365D01*
X114236348Y-95928614D01*
X114387828Y-95922686D01*
X114515805Y-95919827D01*
X115019425Y-95911839D01*
X115029278Y-95842152D01*
X115022389Y-95778771D01*
X115000083Y-95747714D01*
X114958379Y-95739033D01*
X114869544Y-95731622D01*
X114744834Y-95726069D01*
X114595507Y-95722964D01*
X114518661Y-95722516D01*
X114076287Y-95722069D01*
X114044235Y-95630126D01*
X114022443Y-95565051D01*
X114012281Y-95529653D01*
X114012184Y-95528632D01*
X114039809Y-95525080D01*
X114116411Y-95521177D01*
X114232579Y-95517249D01*
X114378904Y-95513624D01*
X114515805Y-95511092D01*
X115019425Y-95503103D01*
X115019425Y-95327931D01*
X114559965Y-95319893D01*
X114100505Y-95311854D01*
X114056344Y-95226457D01*
X114026019Y-95163407D01*
X114012258Y-95126090D01*
X114012184Y-95125013D01*
X114039840Y-95119876D01*
X114116653Y-95115421D01*
X114233391Y-95111929D01*
X114380821Y-95109685D01*
X114535455Y-95108965D01*
X115058727Y-95108965D01*
X115151117Y-95201355D01*
G36*
X114314853Y-92930641D02*
G01*
X114216916Y-92903106D01*
X114144811Y-92858428D01*
X114087813Y-92793099D01*
X114069393Y-92764617D01*
X114021422Y-92635237D01*
X114018663Y-92505784D01*
X114216250Y-92505784D01*
X114223808Y-92604524D01*
X114279651Y-92687188D01*
X114378753Y-92744452D01*
X114457414Y-92762812D01*
X114537853Y-92770101D01*
X114587896Y-92768056D01*
X114596092Y-92762961D01*
X114584958Y-92729334D01*
X114555493Y-92656970D01*
X114513601Y-92560253D01*
X114504597Y-92540027D01*
X114442442Y-92417797D01*
X114387815Y-92350453D01*
X114336649Y-92335652D01*
X114284876Y-92371053D01*
X114262000Y-92400289D01*
X114216250Y-92505784D01*
X114018663Y-92505784D01*
X114018403Y-92493588D01*
X114056540Y-92356561D01*
X114132034Y-92241050D01*
X114199617Y-92185336D01*
X114322255Y-92141196D01*
X114419298Y-92137691D01*
X114549056Y-92145632D01*
X114680039Y-92444885D01*
X114746958Y-92590389D01*
X114800790Y-92685463D01*
X114847416Y-92734899D01*
X114892720Y-92743489D01*
X114942582Y-92716028D01*
X114975632Y-92685747D01*
X115028633Y-92597637D01*
X115032347Y-92501804D01*
X114991041Y-92413788D01*
X114908983Y-92349131D01*
X114880008Y-92337567D01*
X114789509Y-92282175D01*
X114750940Y-92218447D01*
X114717946Y-92131034D01*
X114843034Y-92131034D01*
X114928156Y-92138762D01*
X114999938Y-92169034D01*
X115082356Y-92232482D01*
X115093066Y-92241912D01*
X115166391Y-92312487D01*
X115205742Y-92373153D01*
X115223845Y-92449050D01*
X115229774Y-92511970D01*
X115231251Y-92624513D01*
X115212535Y-92704630D01*
X115184747Y-92754610D01*
X115123641Y-92833162D01*
X115057554Y-92887537D01*
X114974441Y-92921948D01*
X114862254Y-92940612D01*
X114708946Y-92947744D01*
X114631136Y-92948313D01*
X114537853Y-92946378D01*
X114449351Y-92944541D01*
X114314853Y-92930641D01*
G37*
X114314853Y-92930641D02*
X114216916Y-92903106D01*
X114144811Y-92858428D01*
X114087813Y-92793099D01*
X114069393Y-92764617D01*
X114021422Y-92635237D01*
X114018663Y-92505784D01*
X114216250Y-92505784D01*
X114223808Y-92604524D01*
X114279651Y-92687188D01*
X114378753Y-92744452D01*
X114457414Y-92762812D01*
X114537853Y-92770101D01*
X114587896Y-92768056D01*
X114596092Y-92762961D01*
X114584958Y-92729334D01*
X114555493Y-92656970D01*
X114513601Y-92560253D01*
X114504597Y-92540027D01*
X114442442Y-92417797D01*
X114387815Y-92350453D01*
X114336649Y-92335652D01*
X114284876Y-92371053D01*
X114262000Y-92400289D01*
X114216250Y-92505784D01*
X114018663Y-92505784D01*
X114018403Y-92493588D01*
X114056540Y-92356561D01*
X114132034Y-92241050D01*
X114199617Y-92185336D01*
X114322255Y-92141196D01*
X114419298Y-92137691D01*
X114549056Y-92145632D01*
X114680039Y-92444885D01*
X114746958Y-92590389D01*
X114800790Y-92685463D01*
X114847416Y-92734899D01*
X114892720Y-92743489D01*
X114942582Y-92716028D01*
X114975632Y-92685747D01*
X115028633Y-92597637D01*
X115032347Y-92501804D01*
X114991041Y-92413788D01*
X114908983Y-92349131D01*
X114880008Y-92337567D01*
X114789509Y-92282175D01*
X114750940Y-92218447D01*
X114717946Y-92131034D01*
X114843034Y-92131034D01*
X114928156Y-92138762D01*
X114999938Y-92169034D01*
X115082356Y-92232482D01*
X115093066Y-92241912D01*
X115166391Y-92312487D01*
X115205742Y-92373153D01*
X115223845Y-92449050D01*
X115229774Y-92511970D01*
X115231251Y-92624513D01*
X115212535Y-92704630D01*
X115184747Y-92754610D01*
X115123641Y-92833162D01*
X115057554Y-92887537D01*
X114974441Y-92921948D01*
X114862254Y-92940612D01*
X114708946Y-92947744D01*
X114631136Y-92948313D01*
X114537853Y-92946378D01*
X114449351Y-92944541D01*
X114314853Y-92930641D01*
G36*
X114411006Y-97307109D02*
G01*
X114465378Y-97355192D01*
X114474624Y-97372983D01*
X114503450Y-97449796D01*
X114496065Y-97489024D01*
X114447658Y-97502311D01*
X114420920Y-97502988D01*
X114322548Y-97527314D01*
X114253734Y-97590719D01*
X114220498Y-97678846D01*
X114228861Y-97777337D01*
X114272296Y-97857398D01*
X114297072Y-97884439D01*
X114327129Y-97903606D01*
X114372565Y-97916554D01*
X114443476Y-97924936D01*
X114549960Y-97930407D01*
X114702112Y-97934622D01*
X114750287Y-97935713D01*
X114915095Y-97939693D01*
X115031088Y-97944219D01*
X115107833Y-97951005D01*
X115154893Y-97961769D01*
X115181835Y-97978227D01*
X115198223Y-98002094D01*
X115205463Y-98017374D01*
X115230220Y-98082267D01*
X115238391Y-98120466D01*
X115211103Y-98133088D01*
X115128603Y-98140792D01*
X114989941Y-98143620D01*
X114794162Y-98141614D01*
X114763965Y-98140989D01*
X114585349Y-98136579D01*
X114454923Y-98131365D01*
X114362492Y-98123945D01*
X114297858Y-98112918D01*
X114250825Y-98096883D01*
X114211196Y-98074439D01*
X114194215Y-98062698D01*
X114119080Y-97995381D01*
X114060638Y-97920090D01*
X114055536Y-97910872D01*
X114015260Y-97775867D01*
X114021920Y-97634057D01*
X114070859Y-97501435D01*
X114157419Y-97393990D01*
X114218352Y-97351968D01*
X114330161Y-97306157D01*
X114411006Y-97307109D01*
G37*
X114411006Y-97307109D02*
X114465378Y-97355192D01*
X114474624Y-97372983D01*
X114503450Y-97449796D01*
X114496065Y-97489024D01*
X114447658Y-97502311D01*
X114420920Y-97502988D01*
X114322548Y-97527314D01*
X114253734Y-97590719D01*
X114220498Y-97678846D01*
X114228861Y-97777337D01*
X114272296Y-97857398D01*
X114297072Y-97884439D01*
X114327129Y-97903606D01*
X114372565Y-97916554D01*
X114443476Y-97924936D01*
X114549960Y-97930407D01*
X114702112Y-97934622D01*
X114750287Y-97935713D01*
X114915095Y-97939693D01*
X115031088Y-97944219D01*
X115107833Y-97951005D01*
X115154893Y-97961769D01*
X115181835Y-97978227D01*
X115198223Y-98002094D01*
X115205463Y-98017374D01*
X115230220Y-98082267D01*
X115238391Y-98120466D01*
X115211103Y-98133088D01*
X115128603Y-98140792D01*
X114989941Y-98143620D01*
X114794162Y-98141614D01*
X114763965Y-98140989D01*
X114585349Y-98136579D01*
X114454923Y-98131365D01*
X114362492Y-98123945D01*
X114297858Y-98112918D01*
X114250825Y-98096883D01*
X114211196Y-98074439D01*
X114194215Y-98062698D01*
X114119080Y-97995381D01*
X114060638Y-97920090D01*
X114055536Y-97910872D01*
X114015260Y-97775867D01*
X114021920Y-97634057D01*
X114070859Y-97501435D01*
X114157419Y-97393990D01*
X114218352Y-97351968D01*
X114330161Y-97306157D01*
X114411006Y-97307109D01*
G36*
X114438647Y-93147715D02*
G01*
X114475717Y-93200439D01*
X114498164Y-93256969D01*
X114502300Y-93282854D01*
X114472283Y-93295458D01*
X114406961Y-93320346D01*
X114377445Y-93331265D01*
X114275348Y-93392492D01*
X114224423Y-93481139D01*
X114225989Y-93594807D01*
X114227994Y-93603226D01*
X114256767Y-93663912D01*
X114312859Y-93708526D01*
X114403163Y-93738998D01*
X114534571Y-93757256D01*
X114713974Y-93765229D01*
X114809433Y-93765977D01*
X114959913Y-93766348D01*
X115062495Y-93768777D01*
X115127672Y-93775240D01*
X115165938Y-93787712D01*
X115187785Y-93808167D01*
X115203707Y-93838581D01*
X115204509Y-93840339D01*
X115229272Y-93898909D01*
X115238391Y-93927925D01*
X115210822Y-93932384D01*
X115134620Y-93936201D01*
X115019541Y-93939101D01*
X114875341Y-93940809D01*
X114769814Y-93941149D01*
X114565613Y-93939412D01*
X114410697Y-93932618D01*
X114296024Y-93918393D01*
X114212551Y-93894362D01*
X114151236Y-93858152D01*
X114103034Y-93807388D01*
X114069393Y-93757261D01*
X114024619Y-93636725D01*
X114014521Y-93496443D01*
X114040018Y-93364310D01*
X114055269Y-93329415D01*
X114121235Y-93246123D01*
X114216618Y-93174897D01*
X114318406Y-93130847D01*
X114368587Y-93123678D01*
X114438647Y-93147715D01*
G37*
X114438647Y-93147715D02*
X114475717Y-93200439D01*
X114498164Y-93256969D01*
X114502300Y-93282854D01*
X114472283Y-93295458D01*
X114406961Y-93320346D01*
X114377445Y-93331265D01*
X114275348Y-93392492D01*
X114224423Y-93481139D01*
X114225989Y-93594807D01*
X114227994Y-93603226D01*
X114256767Y-93663912D01*
X114312859Y-93708526D01*
X114403163Y-93738998D01*
X114534571Y-93757256D01*
X114713974Y-93765229D01*
X114809433Y-93765977D01*
X114959913Y-93766348D01*
X115062495Y-93768777D01*
X115127672Y-93775240D01*
X115165938Y-93787712D01*
X115187785Y-93808167D01*
X115203707Y-93838581D01*
X115204509Y-93840339D01*
X115229272Y-93898909D01*
X115238391Y-93927925D01*
X115210822Y-93932384D01*
X115134620Y-93936201D01*
X115019541Y-93939101D01*
X114875341Y-93940809D01*
X114769814Y-93941149D01*
X114565613Y-93939412D01*
X114410697Y-93932618D01*
X114296024Y-93918393D01*
X114212551Y-93894362D01*
X114151236Y-93858152D01*
X114103034Y-93807388D01*
X114069393Y-93757261D01*
X114024619Y-93636725D01*
X114014521Y-93496443D01*
X114040018Y-93364310D01*
X114055269Y-93329415D01*
X114121235Y-93246123D01*
X114216618Y-93174897D01*
X114318406Y-93130847D01*
X114368587Y-93123678D01*
X114438647Y-93147715D01*
G36*
X115206339Y-99405046D02*
G01*
X115228144Y-99470348D01*
X115238297Y-99506176D01*
X115238391Y-99507230D01*
X115210860Y-99510758D01*
X115134923Y-99513761D01*
X115020565Y-99516010D01*
X114877769Y-99517276D01*
X114790951Y-99517471D01*
X114619773Y-99517877D01*
X114497088Y-99519968D01*
X114413000Y-99525053D01*
X114357614Y-99534440D01*
X114321032Y-99549439D01*
X114293359Y-99571358D01*
X114280032Y-99585043D01*
X114226328Y-99679051D01*
X114222307Y-99781636D01*
X114267725Y-99874710D01*
X114284123Y-99891922D01*
X114314957Y-99917168D01*
X114351531Y-99934680D01*
X114404415Y-99945858D01*
X114484177Y-99952104D01*
X114601385Y-99954818D01*
X114762991Y-99955402D01*
X115174288Y-99955402D01*
X115206339Y-100047345D01*
X115228144Y-100112647D01*
X115238297Y-100148475D01*
X115238391Y-100149529D01*
X115210448Y-100152225D01*
X115131630Y-100154655D01*
X115009453Y-100156722D01*
X114851432Y-100158329D01*
X114665083Y-100159377D01*
X114457920Y-100159769D01*
X114448706Y-100159770D01*
X113659020Y-100159770D01*
X113618997Y-100064885D01*
X113578973Y-99970000D01*
X113823857Y-99955402D01*
X113943188Y-99946846D01*
X114013506Y-99937019D01*
X114044179Y-99923401D01*
X114044571Y-99903473D01*
X114040910Y-99897011D01*
X114014398Y-99811060D01*
X114015946Y-99699255D01*
X114043199Y-99585586D01*
X114078455Y-99514490D01*
X114134778Y-99441595D01*
X114198519Y-99388307D01*
X114279510Y-99351725D01*
X114387586Y-99328950D01*
X114532580Y-99317081D01*
X114724326Y-99313218D01*
X114761109Y-99313149D01*
X115174288Y-99313103D01*
X115206339Y-99405046D01*
G37*
X115206339Y-99405046D02*
X115228144Y-99470348D01*
X115238297Y-99506176D01*
X115238391Y-99507230D01*
X115210860Y-99510758D01*
X115134923Y-99513761D01*
X115020565Y-99516010D01*
X114877769Y-99517276D01*
X114790951Y-99517471D01*
X114619773Y-99517877D01*
X114497088Y-99519968D01*
X114413000Y-99525053D01*
X114357614Y-99534440D01*
X114321032Y-99549439D01*
X114293359Y-99571358D01*
X114280032Y-99585043D01*
X114226328Y-99679051D01*
X114222307Y-99781636D01*
X114267725Y-99874710D01*
X114284123Y-99891922D01*
X114314957Y-99917168D01*
X114351531Y-99934680D01*
X114404415Y-99945858D01*
X114484177Y-99952104D01*
X114601385Y-99954818D01*
X114762991Y-99955402D01*
X115174288Y-99955402D01*
X115206339Y-100047345D01*
X115228144Y-100112647D01*
X115238297Y-100148475D01*
X115238391Y-100149529D01*
X115210448Y-100152225D01*
X115131630Y-100154655D01*
X115009453Y-100156722D01*
X114851432Y-100158329D01*
X114665083Y-100159377D01*
X114457920Y-100159769D01*
X114448706Y-100159770D01*
X113659020Y-100159770D01*
X113618997Y-100064885D01*
X113578973Y-99970000D01*
X113823857Y-99955402D01*
X113943188Y-99946846D01*
X114013506Y-99937019D01*
X114044179Y-99923401D01*
X114044571Y-99903473D01*
X114040910Y-99897011D01*
X114014398Y-99811060D01*
X114015946Y-99699255D01*
X114043199Y-99585586D01*
X114078455Y-99514490D01*
X114134778Y-99441595D01*
X114198519Y-99388307D01*
X114279510Y-99351725D01*
X114387586Y-99328950D01*
X114532580Y-99317081D01*
X114724326Y-99313218D01*
X114761109Y-99313149D01*
X115174288Y-99313103D01*
X115206339Y-99405046D01*
G36*
X114425382Y-104143753D02*
G01*
X114330087Y-104138174D01*
X114262364Y-104130254D01*
X114214507Y-104119269D01*
X114178813Y-104104499D01*
X114147578Y-104085218D01*
X114135824Y-104076951D01*
X114024797Y-103967288D01*
X113961847Y-103828635D01*
X113945525Y-103679472D01*
X114216552Y-103679472D01*
X114231460Y-103761389D01*
X114280548Y-103817579D01*
X114370362Y-103851402D01*
X114507445Y-103866220D01*
X114582821Y-103867586D01*
X114707326Y-103866009D01*
X114788787Y-103859000D01*
X114842515Y-103843142D01*
X114883823Y-103815019D01*
X114903971Y-103795925D01*
X114962921Y-103717865D01*
X114967720Y-103648753D01*
X114919038Y-103577440D01*
X114917241Y-103575632D01*
X114879618Y-103546617D01*
X114828484Y-103528967D01*
X114749738Y-103520064D01*
X114629276Y-103517291D01*
X114602588Y-103517241D01*
X114436583Y-103523942D01*
X114321505Y-103545752D01*
X114251254Y-103585235D01*
X114219729Y-103644956D01*
X114216552Y-103679472D01*
X113945525Y-103679472D01*
X113944297Y-103668246D01*
X113961903Y-103528100D01*
X114017522Y-103416550D01*
X114119931Y-103318092D01*
X114157864Y-103290977D01*
X114207500Y-103261438D01*
X114261412Y-103242272D01*
X114333364Y-103231307D01*
X114437122Y-103226371D01*
X114574101Y-103225287D01*
X114761815Y-103230182D01*
X114902758Y-103247196D01*
X115007908Y-103279823D01*
X115088243Y-103331558D01*
X115154741Y-103405896D01*
X115158678Y-103411358D01*
X115198953Y-103484620D01*
X115218880Y-103572840D01*
X115223793Y-103685038D01*
X115223793Y-103867433D01*
X115400857Y-103867509D01*
X115499470Y-103869207D01*
X115557314Y-103879550D01*
X115592006Y-103906578D01*
X115621164Y-103958332D01*
X115627121Y-103970761D01*
X115655039Y-104028923D01*
X115672672Y-104073956D01*
X115674194Y-104107441D01*
X115653781Y-104130962D01*
X115605607Y-104146100D01*
X115523846Y-104154437D01*
X115402672Y-104157556D01*
X115236260Y-104157040D01*
X115018785Y-104154471D01*
X114953736Y-104153668D01*
X114729502Y-104150778D01*
X114582821Y-104148188D01*
X114555952Y-104147713D01*
X114425382Y-104143753D01*
G37*
X114425382Y-104143753D02*
X114330087Y-104138174D01*
X114262364Y-104130254D01*
X114214507Y-104119269D01*
X114178813Y-104104499D01*
X114147578Y-104085218D01*
X114135824Y-104076951D01*
X114024797Y-103967288D01*
X113961847Y-103828635D01*
X113945525Y-103679472D01*
X114216552Y-103679472D01*
X114231460Y-103761389D01*
X114280548Y-103817579D01*
X114370362Y-103851402D01*
X114507445Y-103866220D01*
X114582821Y-103867586D01*
X114707326Y-103866009D01*
X114788787Y-103859000D01*
X114842515Y-103843142D01*
X114883823Y-103815019D01*
X114903971Y-103795925D01*
X114962921Y-103717865D01*
X114967720Y-103648753D01*
X114919038Y-103577440D01*
X114917241Y-103575632D01*
X114879618Y-103546617D01*
X114828484Y-103528967D01*
X114749738Y-103520064D01*
X114629276Y-103517291D01*
X114602588Y-103517241D01*
X114436583Y-103523942D01*
X114321505Y-103545752D01*
X114251254Y-103585235D01*
X114219729Y-103644956D01*
X114216552Y-103679472D01*
X113945525Y-103679472D01*
X113944297Y-103668246D01*
X113961903Y-103528100D01*
X114017522Y-103416550D01*
X114119931Y-103318092D01*
X114157864Y-103290977D01*
X114207500Y-103261438D01*
X114261412Y-103242272D01*
X114333364Y-103231307D01*
X114437122Y-103226371D01*
X114574101Y-103225287D01*
X114761815Y-103230182D01*
X114902758Y-103247196D01*
X115007908Y-103279823D01*
X115088243Y-103331558D01*
X115154741Y-103405896D01*
X115158678Y-103411358D01*
X115198953Y-103484620D01*
X115218880Y-103572840D01*
X115223793Y-103685038D01*
X115223793Y-103867433D01*
X115400857Y-103867509D01*
X115499470Y-103869207D01*
X115557314Y-103879550D01*
X115592006Y-103906578D01*
X115621164Y-103958332D01*
X115627121Y-103970761D01*
X115655039Y-104028923D01*
X115672672Y-104073956D01*
X115674194Y-104107441D01*
X115653781Y-104130962D01*
X115605607Y-104146100D01*
X115523846Y-104154437D01*
X115402672Y-104157556D01*
X115236260Y-104157040D01*
X115018785Y-104154471D01*
X114953736Y-104153668D01*
X114729502Y-104150778D01*
X114582821Y-104148188D01*
X114555952Y-104147713D01*
X114425382Y-104143753D01*
G36*
X114304195Y-97121528D02*
G01*
X114200632Y-97076452D01*
X114119856Y-97006072D01*
X114078455Y-96951257D01*
X114033728Y-96851624D01*
X114018063Y-96764492D01*
X114221235Y-96764492D01*
X114264114Y-96861905D01*
X114280032Y-96880704D01*
X114315382Y-96912707D01*
X114357502Y-96932682D01*
X114420251Y-96943407D01*
X114517487Y-96947661D01*
X114617106Y-96948276D01*
X114747657Y-96947030D01*
X114834080Y-96941322D01*
X114890618Y-96928196D01*
X114931514Y-96904694D01*
X114962362Y-96876614D01*
X115021905Y-96782312D01*
X115026992Y-96681060D01*
X114977279Y-96585364D01*
X114970543Y-96577916D01*
X114935502Y-96546126D01*
X114893811Y-96526192D01*
X114831762Y-96515400D01*
X114735644Y-96511035D01*
X114629379Y-96510345D01*
X114495880Y-96511841D01*
X114406822Y-96518036D01*
X114348293Y-96531486D01*
X114306382Y-96554749D01*
X114284123Y-96573825D01*
X114227985Y-96662437D01*
X114221235Y-96764492D01*
X114018063Y-96764492D01*
X114012967Y-96736145D01*
X114018525Y-96628801D01*
X114040943Y-96568736D01*
X114047323Y-96545165D01*
X114023535Y-96529523D01*
X113959788Y-96518605D01*
X113862687Y-96510345D01*
X113754541Y-96501301D01*
X113689475Y-96488739D01*
X113652268Y-96465881D01*
X113627699Y-96425949D01*
X113616819Y-96400862D01*
X113577072Y-96305977D01*
X114254455Y-96306086D01*
X114472661Y-96306457D01*
X114640519Y-96307892D01*
X114766070Y-96310998D01*
X114857355Y-96316378D01*
X114922415Y-96324638D01*
X114969291Y-96336384D01*
X115006024Y-96352219D01*
X115026991Y-96364210D01*
X115140694Y-96463510D01*
X115211965Y-96589412D01*
X115237538Y-96728709D01*
X115214150Y-96868195D01*
X115172119Y-96951257D01*
X115099411Y-97038455D01*
X115010612Y-97097883D01*
X114894320Y-97133739D01*
X114739135Y-97150219D01*
X114625287Y-97152553D01*
X114617106Y-97152239D01*
X114441947Y-97145496D01*
X114304195Y-97121528D01*
G37*
X114304195Y-97121528D02*
X114200632Y-97076452D01*
X114119856Y-97006072D01*
X114078455Y-96951257D01*
X114033728Y-96851624D01*
X114018063Y-96764492D01*
X114221235Y-96764492D01*
X114264114Y-96861905D01*
X114280032Y-96880704D01*
X114315382Y-96912707D01*
X114357502Y-96932682D01*
X114420251Y-96943407D01*
X114517487Y-96947661D01*
X114617106Y-96948276D01*
X114747657Y-96947030D01*
X114834080Y-96941322D01*
X114890618Y-96928196D01*
X114931514Y-96904694D01*
X114962362Y-96876614D01*
X115021905Y-96782312D01*
X115026992Y-96681060D01*
X114977279Y-96585364D01*
X114970543Y-96577916D01*
X114935502Y-96546126D01*
X114893811Y-96526192D01*
X114831762Y-96515400D01*
X114735644Y-96511035D01*
X114629379Y-96510345D01*
X114495880Y-96511841D01*
X114406822Y-96518036D01*
X114348293Y-96531486D01*
X114306382Y-96554749D01*
X114284123Y-96573825D01*
X114227985Y-96662437D01*
X114221235Y-96764492D01*
X114018063Y-96764492D01*
X114012967Y-96736145D01*
X114018525Y-96628801D01*
X114040943Y-96568736D01*
X114047323Y-96545165D01*
X114023535Y-96529523D01*
X113959788Y-96518605D01*
X113862687Y-96510345D01*
X113754541Y-96501301D01*
X113689475Y-96488739D01*
X113652268Y-96465881D01*
X113627699Y-96425949D01*
X113616819Y-96400862D01*
X113577072Y-96305977D01*
X114254455Y-96306086D01*
X114472661Y-96306457D01*
X114640519Y-96307892D01*
X114766070Y-96310998D01*
X114857355Y-96316378D01*
X114922415Y-96324638D01*
X114969291Y-96336384D01*
X115006024Y-96352219D01*
X115026991Y-96364210D01*
X115140694Y-96463510D01*
X115211965Y-96589412D01*
X115237538Y-96728709D01*
X115214150Y-96868195D01*
X115172119Y-96951257D01*
X115099411Y-97038455D01*
X115010612Y-97097883D01*
X114894320Y-97133739D01*
X114739135Y-97150219D01*
X114625287Y-97152553D01*
X114617106Y-97152239D01*
X114441947Y-97145496D01*
X114304195Y-97121528D01*
G36*
X115209283Y-101130517D02*
G01*
X115264907Y-101254598D01*
X114782095Y-101269195D01*
X114601779Y-101275227D01*
X114470901Y-101281555D01*
X114380511Y-101289394D01*
X114321664Y-101299963D01*
X114285413Y-101314477D01*
X114262810Y-101334152D01*
X114257917Y-101340465D01*
X114219706Y-101436112D01*
X114234827Y-101532793D01*
X114274943Y-101590345D01*
X114303370Y-101613755D01*
X114340672Y-101629961D01*
X114397223Y-101640259D01*
X114483394Y-101645951D01*
X114609558Y-101648336D01*
X114741042Y-101648736D01*
X114905999Y-101648814D01*
X115022761Y-101651639D01*
X115101510Y-101661093D01*
X115152431Y-101681060D01*
X115185706Y-101715424D01*
X115211520Y-101768068D01*
X115238344Y-101838383D01*
X115267542Y-101915180D01*
X114749346Y-101906038D01*
X114562539Y-101902357D01*
X114424490Y-101898050D01*
X114325568Y-101891877D01*
X114256145Y-101882598D01*
X114206590Y-101868973D01*
X114167273Y-101849761D01*
X114132584Y-101826598D01*
X114021770Y-101714848D01*
X113957689Y-101578487D01*
X113942339Y-101430175D01*
X113977719Y-101282571D01*
X114031914Y-101188877D01*
X114085707Y-101123736D01*
X114142066Y-101076093D01*
X114210987Y-101043272D01*
X114302468Y-101022594D01*
X114426506Y-101011380D01*
X114593098Y-101006951D01*
X114712851Y-101006437D01*
X115153659Y-101006437D01*
X115209283Y-101130517D01*
G37*
X115209283Y-101130517D02*
X115264907Y-101254598D01*
X114782095Y-101269195D01*
X114601779Y-101275227D01*
X114470901Y-101281555D01*
X114380511Y-101289394D01*
X114321664Y-101299963D01*
X114285413Y-101314477D01*
X114262810Y-101334152D01*
X114257917Y-101340465D01*
X114219706Y-101436112D01*
X114234827Y-101532793D01*
X114274943Y-101590345D01*
X114303370Y-101613755D01*
X114340672Y-101629961D01*
X114397223Y-101640259D01*
X114483394Y-101645951D01*
X114609558Y-101648336D01*
X114741042Y-101648736D01*
X114905999Y-101648814D01*
X115022761Y-101651639D01*
X115101510Y-101661093D01*
X115152431Y-101681060D01*
X115185706Y-101715424D01*
X115211520Y-101768068D01*
X115238344Y-101838383D01*
X115267542Y-101915180D01*
X114749346Y-101906038D01*
X114562539Y-101902357D01*
X114424490Y-101898050D01*
X114325568Y-101891877D01*
X114256145Y-101882598D01*
X114206590Y-101868973D01*
X114167273Y-101849761D01*
X114132584Y-101826598D01*
X114021770Y-101714848D01*
X113957689Y-101578487D01*
X113942339Y-101430175D01*
X113977719Y-101282571D01*
X114031914Y-101188877D01*
X114085707Y-101123736D01*
X114142066Y-101076093D01*
X114210987Y-101043272D01*
X114302468Y-101022594D01*
X114426506Y-101011380D01*
X114593098Y-101006951D01*
X114712851Y-101006437D01*
X115153659Y-101006437D01*
X115209283Y-101130517D01*
G36*
X115192456Y-98374709D02*
G01*
X115223498Y-98438982D01*
X115238206Y-98477790D01*
X115238391Y-98479585D01*
X115211250Y-98486300D01*
X115138041Y-98491635D01*
X115031081Y-98494917D01*
X114944469Y-98495632D01*
X114804162Y-98495649D01*
X114716051Y-98502063D01*
X114674025Y-98524420D01*
X114671975Y-98572268D01*
X114703790Y-98655151D01*
X114762272Y-98780287D01*
X114810845Y-98872303D01*
X114852986Y-98919629D01*
X114898916Y-98933542D01*
X114901189Y-98933563D01*
X114980311Y-98910605D01*
X115023055Y-98842630D01*
X115029246Y-98738602D01*
X115028172Y-98663670D01*
X115049753Y-98624161D01*
X115101591Y-98599522D01*
X115167632Y-98585341D01*
X115205104Y-98605777D01*
X115210467Y-98613472D01*
X115232006Y-98685917D01*
X115235055Y-98787367D01*
X115220778Y-98891843D01*
X115194688Y-98965875D01*
X115107785Y-99068228D01*
X114986816Y-99126409D01*
X114892308Y-99137931D01*
X114807062Y-99129138D01*
X114737476Y-99097320D01*
X114675672Y-99034316D01*
X114613772Y-98931969D01*
X114543897Y-98782118D01*
X114539948Y-98772988D01*
X114477588Y-98638003D01*
X114426446Y-98554706D01*
X114380488Y-98519003D01*
X114333683Y-98526797D01*
X114279998Y-98573993D01*
X114267644Y-98588106D01*
X114219741Y-98682641D01*
X114221758Y-98780594D01*
X114268724Y-98865903D01*
X114355669Y-98922504D01*
X114372734Y-98927763D01*
X114455504Y-98978977D01*
X114495372Y-99043963D01*
X114534882Y-99137931D01*
X114432658Y-99137931D01*
X114284072Y-99109347D01*
X114147784Y-99024505D01*
X114102191Y-98980355D01*
X114043674Y-98879995D01*
X114017184Y-98752365D01*
X114024360Y-98620056D01*
X114066842Y-98505657D01*
X114067658Y-98504348D01*
X114119730Y-98433597D01*
X114180584Y-98381364D01*
X114259887Y-98344629D01*
X114367309Y-98320366D01*
X114512517Y-98305555D01*
X114705179Y-98297171D01*
X114732628Y-98296436D01*
X115146521Y-98285880D01*
X115192456Y-98374709D01*
G37*
X115192456Y-98374709D02*
X115223498Y-98438982D01*
X115238206Y-98477790D01*
X115238391Y-98479585D01*
X115211250Y-98486300D01*
X115138041Y-98491635D01*
X115031081Y-98494917D01*
X114944469Y-98495632D01*
X114804162Y-98495649D01*
X114716051Y-98502063D01*
X114674025Y-98524420D01*
X114671975Y-98572268D01*
X114703790Y-98655151D01*
X114762272Y-98780287D01*
X114810845Y-98872303D01*
X114852986Y-98919629D01*
X114898916Y-98933542D01*
X114901189Y-98933563D01*
X114980311Y-98910605D01*
X115023055Y-98842630D01*
X115029246Y-98738602D01*
X115028172Y-98663670D01*
X115049753Y-98624161D01*
X115101591Y-98599522D01*
X115167632Y-98585341D01*
X115205104Y-98605777D01*
X115210467Y-98613472D01*
X115232006Y-98685917D01*
X115235055Y-98787367D01*
X115220778Y-98891843D01*
X115194688Y-98965875D01*
X115107785Y-99068228D01*
X114986816Y-99126409D01*
X114892308Y-99137931D01*
X114807062Y-99129138D01*
X114737476Y-99097320D01*
X114675672Y-99034316D01*
X114613772Y-98931969D01*
X114543897Y-98782118D01*
X114539948Y-98772988D01*
X114477588Y-98638003D01*
X114426446Y-98554706D01*
X114380488Y-98519003D01*
X114333683Y-98526797D01*
X114279998Y-98573993D01*
X114267644Y-98588106D01*
X114219741Y-98682641D01*
X114221758Y-98780594D01*
X114268724Y-98865903D01*
X114355669Y-98922504D01*
X114372734Y-98927763D01*
X114455504Y-98978977D01*
X114495372Y-99043963D01*
X114534882Y-99137931D01*
X114432658Y-99137931D01*
X114284072Y-99109347D01*
X114147784Y-99024505D01*
X114102191Y-98980355D01*
X114043674Y-98879995D01*
X114017184Y-98752365D01*
X114024360Y-98620056D01*
X114066842Y-98505657D01*
X114067658Y-98504348D01*
X114119730Y-98433597D01*
X114180584Y-98381364D01*
X114259887Y-98344629D01*
X114367309Y-98320366D01*
X114512517Y-98305555D01*
X114705179Y-98297171D01*
X114732628Y-98296436D01*
X115146521Y-98285880D01*
X115192456Y-98374709D01*
G36*
X115204509Y-94190684D02*
G01*
X115229272Y-94249254D01*
X115238391Y-94278270D01*
X115211257Y-94283821D01*
X115138094Y-94288225D01*
X115031263Y-94290922D01*
X114946437Y-94291494D01*
X114823887Y-94293954D01*
X114726668Y-94300588D01*
X114667134Y-94310274D01*
X114654483Y-94317968D01*
X114667402Y-94369689D01*
X114700539Y-94450883D01*
X114745461Y-94544898D01*
X114793735Y-94635083D01*
X114836928Y-94704785D01*
X114866608Y-94737352D01*
X114866929Y-94737481D01*
X114921857Y-94734680D01*
X114974292Y-94709561D01*
X115016881Y-94665459D01*
X115031126Y-94601091D01*
X115029466Y-94546079D01*
X115028245Y-94468165D01*
X115046498Y-94427268D01*
X115094726Y-94402705D01*
X115103820Y-94399608D01*
X115172598Y-94388960D01*
X115214360Y-94417435D01*
X115234263Y-94491656D01*
X115237944Y-94571832D01*
X115210658Y-94716110D01*
X115171690Y-94790797D01*
X115080148Y-94883037D01*
X114967782Y-94931957D01*
X114849051Y-94936346D01*
X114738411Y-94894999D01*
X114669080Y-94832803D01*
X114630265Y-94770706D01*
X114581125Y-94673105D01*
X114531292Y-94559368D01*
X114523677Y-94540410D01*
X114468545Y-94415479D01*
X114419954Y-94343461D01*
X114371647Y-94320300D01*
X114317370Y-94341936D01*
X114274943Y-94379080D01*
X114222702Y-94466873D01*
X114218784Y-94563470D01*
X114259041Y-94652056D01*
X114339326Y-94715814D01*
X114360040Y-94724183D01*
X114436225Y-94772904D01*
X114492785Y-94844035D01*
X114539201Y-94933793D01*
X114407584Y-94933793D01*
X114327168Y-94928510D01*
X114263786Y-94905858D01*
X114196163Y-94855633D01*
X114144076Y-94807418D01*
X114070322Y-94732446D01*
X114030702Y-94674194D01*
X114014810Y-94611628D01*
X114012184Y-94540807D01*
X114035156Y-94385594D01*
X114073393Y-94301531D01*
X114119726Y-94235550D01*
X114171532Y-94187206D01*
X114238363Y-94153828D01*
X114329769Y-94132747D01*
X114455301Y-94121293D01*
X114624508Y-94116797D01*
X114735933Y-94116322D01*
X115170627Y-94116322D01*
X115204509Y-94190684D01*
G37*
X115204509Y-94190684D02*
X115229272Y-94249254D01*
X115238391Y-94278270D01*
X115211257Y-94283821D01*
X115138094Y-94288225D01*
X115031263Y-94290922D01*
X114946437Y-94291494D01*
X114823887Y-94293954D01*
X114726668Y-94300588D01*
X114667134Y-94310274D01*
X114654483Y-94317968D01*
X114667402Y-94369689D01*
X114700539Y-94450883D01*
X114745461Y-94544898D01*
X114793735Y-94635083D01*
X114836928Y-94704785D01*
X114866608Y-94737352D01*
X114866929Y-94737481D01*
X114921857Y-94734680D01*
X114974292Y-94709561D01*
X115016881Y-94665459D01*
X115031126Y-94601091D01*
X115029466Y-94546079D01*
X115028245Y-94468165D01*
X115046498Y-94427268D01*
X115094726Y-94402705D01*
X115103820Y-94399608D01*
X115172598Y-94388960D01*
X115214360Y-94417435D01*
X115234263Y-94491656D01*
X115237944Y-94571832D01*
X115210658Y-94716110D01*
X115171690Y-94790797D01*
X115080148Y-94883037D01*
X114967782Y-94931957D01*
X114849051Y-94936346D01*
X114738411Y-94894999D01*
X114669080Y-94832803D01*
X114630265Y-94770706D01*
X114581125Y-94673105D01*
X114531292Y-94559368D01*
X114523677Y-94540410D01*
X114468545Y-94415479D01*
X114419954Y-94343461D01*
X114371647Y-94320300D01*
X114317370Y-94341936D01*
X114274943Y-94379080D01*
X114222702Y-94466873D01*
X114218784Y-94563470D01*
X114259041Y-94652056D01*
X114339326Y-94715814D01*
X114360040Y-94724183D01*
X114436225Y-94772904D01*
X114492785Y-94844035D01*
X114539201Y-94933793D01*
X114407584Y-94933793D01*
X114327168Y-94928510D01*
X114263786Y-94905858D01*
X114196163Y-94855633D01*
X114144076Y-94807418D01*
X114070322Y-94732446D01*
X114030702Y-94674194D01*
X114014810Y-94611628D01*
X114012184Y-94540807D01*
X114035156Y-94385594D01*
X114073393Y-94301531D01*
X114119726Y-94235550D01*
X114171532Y-94187206D01*
X114238363Y-94153828D01*
X114329769Y-94132747D01*
X114455301Y-94121293D01*
X114624508Y-94116797D01*
X114735933Y-94116322D01*
X115170627Y-94116322D01*
X115204509Y-94190684D01*
G36*
X114195829Y-102981366D02*
G01*
X114097447Y-102913164D01*
X113998030Y-102790065D01*
X113948711Y-102654472D01*
X113947807Y-102614677D01*
X114219439Y-102614677D01*
X114257189Y-102690597D01*
X114330001Y-102743035D01*
X114410124Y-102758161D01*
X114474503Y-102754521D01*
X114493291Y-102734611D01*
X114479235Y-102684974D01*
X114446009Y-102606733D01*
X114404359Y-102519274D01*
X114403256Y-102517101D01*
X114364265Y-102442970D01*
X114338244Y-102413219D01*
X114310965Y-102420555D01*
X114275121Y-102451447D01*
X114223251Y-102530040D01*
X114219439Y-102614677D01*
X113947807Y-102614677D01*
X113945568Y-102516045D01*
X113984676Y-102384448D01*
X114062111Y-102269342D01*
X114173949Y-102180389D01*
X114316265Y-102127251D01*
X114421015Y-102116503D01*
X114464726Y-102117724D01*
X114498194Y-102127944D01*
X114528179Y-102156039D01*
X114561440Y-102210884D01*
X114604738Y-102301355D01*
X114664833Y-102436328D01*
X114665134Y-102437011D01*
X114722037Y-102561249D01*
X114772565Y-102663127D01*
X114811280Y-102732233D01*
X114832740Y-102758154D01*
X114832913Y-102758161D01*
X114879644Y-102735315D01*
X114931154Y-102681891D01*
X114968261Y-102620558D01*
X114975632Y-102589485D01*
X114950138Y-102504711D01*
X114886291Y-102431707D01*
X114816094Y-102396087D01*
X114764343Y-102361820D01*
X114705409Y-102294697D01*
X114654496Y-102215792D01*
X114626809Y-102146179D01*
X114625287Y-102131623D01*
X114650321Y-102115237D01*
X114714311Y-102114250D01*
X114800593Y-102126292D01*
X114892501Y-102148993D01*
X114973369Y-102179986D01*
X114976509Y-102181552D01*
X115106734Y-102274819D01*
X115195311Y-102395696D01*
X115238786Y-102532973D01*
X115233706Y-102675440D01*
X115176616Y-102811888D01*
X115172602Y-102817955D01*
X115075326Y-102925290D01*
X114948409Y-102995868D01*
X114781526Y-103034926D01*
X114734639Y-103040168D01*
X114513329Y-103049452D01*
X114410124Y-103038322D01*
X114336261Y-103030356D01*
X114195829Y-102981366D01*
G37*
X114195829Y-102981366D02*
X114097447Y-102913164D01*
X113998030Y-102790065D01*
X113948711Y-102654472D01*
X113947807Y-102614677D01*
X114219439Y-102614677D01*
X114257189Y-102690597D01*
X114330001Y-102743035D01*
X114410124Y-102758161D01*
X114474503Y-102754521D01*
X114493291Y-102734611D01*
X114479235Y-102684974D01*
X114446009Y-102606733D01*
X114404359Y-102519274D01*
X114403256Y-102517101D01*
X114364265Y-102442970D01*
X114338244Y-102413219D01*
X114310965Y-102420555D01*
X114275121Y-102451447D01*
X114223251Y-102530040D01*
X114219439Y-102614677D01*
X113947807Y-102614677D01*
X113945568Y-102516045D01*
X113984676Y-102384448D01*
X114062111Y-102269342D01*
X114173949Y-102180389D01*
X114316265Y-102127251D01*
X114421015Y-102116503D01*
X114464726Y-102117724D01*
X114498194Y-102127944D01*
X114528179Y-102156039D01*
X114561440Y-102210884D01*
X114604738Y-102301355D01*
X114664833Y-102436328D01*
X114665134Y-102437011D01*
X114722037Y-102561249D01*
X114772565Y-102663127D01*
X114811280Y-102732233D01*
X114832740Y-102758154D01*
X114832913Y-102758161D01*
X114879644Y-102735315D01*
X114931154Y-102681891D01*
X114968261Y-102620558D01*
X114975632Y-102589485D01*
X114950138Y-102504711D01*
X114886291Y-102431707D01*
X114816094Y-102396087D01*
X114764343Y-102361820D01*
X114705409Y-102294697D01*
X114654496Y-102215792D01*
X114626809Y-102146179D01*
X114625287Y-102131623D01*
X114650321Y-102115237D01*
X114714311Y-102114250D01*
X114800593Y-102126292D01*
X114892501Y-102148993D01*
X114973369Y-102179986D01*
X114976509Y-102181552D01*
X115106734Y-102274819D01*
X115195311Y-102395696D01*
X115238786Y-102532973D01*
X115233706Y-102675440D01*
X115176616Y-102811888D01*
X115172602Y-102817955D01*
X115075326Y-102925290D01*
X114948409Y-102995868D01*
X114781526Y-103034926D01*
X114734639Y-103040168D01*
X114513329Y-103049452D01*
X114410124Y-103038322D01*
X114336261Y-103030356D01*
X114195829Y-102981366D01*
G36*
X114340549Y-105263312D02*
G01*
X114267714Y-105253312D01*
X114214108Y-105235921D01*
X114166681Y-105209184D01*
X114157864Y-105203276D01*
X114039007Y-105103968D01*
X113970008Y-104995758D01*
X113942619Y-104864019D01*
X113941281Y-104819283D01*
X113942811Y-104808924D01*
X114216552Y-104808924D01*
X114227893Y-104880589D01*
X114267184Y-104929610D01*
X114342326Y-104959582D01*
X114461222Y-104974101D01*
X114586019Y-104977011D01*
X114719256Y-104975313D01*
X114807674Y-104968628D01*
X114864785Y-104954575D01*
X114904102Y-104930771D01*
X114917241Y-104918621D01*
X114967172Y-104848764D01*
X114964895Y-104780941D01*
X114921584Y-104712365D01*
X114875346Y-104671465D01*
X114807857Y-104647242D01*
X114701433Y-104633639D01*
X114689020Y-104632706D01*
X114496147Y-104630384D01*
X114352900Y-104654650D01*
X114260160Y-104705176D01*
X114218807Y-104781632D01*
X114216552Y-104808924D01*
X113942811Y-104808924D01*
X113966015Y-104651779D01*
X114037968Y-104514939D01*
X114153766Y-104413949D01*
X114228213Y-104378075D01*
X114339992Y-104350161D01*
X114481227Y-104335871D01*
X114635371Y-104334516D01*
X114785879Y-104345405D01*
X114916205Y-104367847D01*
X115009803Y-104401150D01*
X115025922Y-104411385D01*
X115146249Y-104532618D01*
X115218317Y-104676613D01*
X115239408Y-104832861D01*
X115206802Y-104990852D01*
X115187253Y-105034820D01*
X115127012Y-105120444D01*
X115047135Y-105195592D01*
X115037004Y-105202694D01*
X114988181Y-105231561D01*
X114935990Y-105250643D01*
X114867285Y-105261916D01*
X114768918Y-105267355D01*
X114627744Y-105268938D01*
X114596092Y-105268965D01*
X114586019Y-105268893D01*
X114445659Y-105267878D01*
X114340549Y-105263312D01*
G37*
X114340549Y-105263312D02*
X114267714Y-105253312D01*
X114214108Y-105235921D01*
X114166681Y-105209184D01*
X114157864Y-105203276D01*
X114039007Y-105103968D01*
X113970008Y-104995758D01*
X113942619Y-104864019D01*
X113941281Y-104819283D01*
X113942811Y-104808924D01*
X114216552Y-104808924D01*
X114227893Y-104880589D01*
X114267184Y-104929610D01*
X114342326Y-104959582D01*
X114461222Y-104974101D01*
X114586019Y-104977011D01*
X114719256Y-104975313D01*
X114807674Y-104968628D01*
X114864785Y-104954575D01*
X114904102Y-104930771D01*
X114917241Y-104918621D01*
X114967172Y-104848764D01*
X114964895Y-104780941D01*
X114921584Y-104712365D01*
X114875346Y-104671465D01*
X114807857Y-104647242D01*
X114701433Y-104633639D01*
X114689020Y-104632706D01*
X114496147Y-104630384D01*
X114352900Y-104654650D01*
X114260160Y-104705176D01*
X114218807Y-104781632D01*
X114216552Y-104808924D01*
X113942811Y-104808924D01*
X113966015Y-104651779D01*
X114037968Y-104514939D01*
X114153766Y-104413949D01*
X114228213Y-104378075D01*
X114339992Y-104350161D01*
X114481227Y-104335871D01*
X114635371Y-104334516D01*
X114785879Y-104345405D01*
X114916205Y-104367847D01*
X115009803Y-104401150D01*
X115025922Y-104411385D01*
X115146249Y-104532618D01*
X115218317Y-104676613D01*
X115239408Y-104832861D01*
X115206802Y-104990852D01*
X115187253Y-105034820D01*
X115127012Y-105120444D01*
X115047135Y-105195592D01*
X115037004Y-105202694D01*
X114988181Y-105231561D01*
X114935990Y-105250643D01*
X114867285Y-105261916D01*
X114768918Y-105267355D01*
X114627744Y-105268938D01*
X114596092Y-105268965D01*
X114586019Y-105268893D01*
X114445659Y-105267878D01*
X114340549Y-105263312D01*
G36*
X109834160Y-94240402D02*
G01*
X109850564Y-94325678D01*
X109874509Y-94452930D01*
X109903107Y-94606685D01*
X109933467Y-94771466D01*
X109941806Y-94817011D01*
X109971370Y-94969068D01*
X110000442Y-95101532D01*
X110026329Y-95203286D01*
X110046337Y-95263212D01*
X110052301Y-95273195D01*
X110094534Y-95297707D01*
X110176370Y-95332852D01*
X110281683Y-95371827D01*
X110304368Y-95379558D01*
X110445018Y-95430640D01*
X110603714Y-95494046D01*
X110746225Y-95556096D01*
X110746886Y-95556402D01*
X110970440Y-95659733D01*
X111970232Y-94980039D01*
X112407300Y-95416379D01*
X112537381Y-95548351D01*
X112652048Y-95668721D01*
X112745181Y-95770727D01*
X112810658Y-95847609D01*
X112842357Y-95892607D01*
X112844368Y-95899062D01*
X112828529Y-95936960D01*
X112784496Y-96014292D01*
X112717490Y-96122611D01*
X112632734Y-96253468D01*
X112537816Y-96394948D01*
X112440998Y-96538539D01*
X112356751Y-96666565D01*
X112290258Y-96770895D01*
X112246702Y-96843400D01*
X112231264Y-96875842D01*
X112244328Y-96915424D01*
X112278750Y-96990481D01*
X112327380Y-97085532D01*
X112332785Y-97095608D01*
X112396980Y-97223609D01*
X112428463Y-97311382D01*
X112428798Y-97365972D01*
X112399548Y-97394425D01*
X112399138Y-97394590D01*
X112364498Y-97408812D01*
X112282269Y-97442731D01*
X112158814Y-97493716D01*
X112000498Y-97559138D01*
X111813686Y-97636366D01*
X111604742Y-97722771D01*
X111402446Y-97806449D01*
X111179200Y-97898412D01*
X110972392Y-97982850D01*
X110788362Y-98057231D01*
X110633451Y-98119026D01*
X110513996Y-98165703D01*
X110436339Y-98194732D01*
X110407356Y-98203678D01*
X110374110Y-98181244D01*
X110321123Y-98122561D01*
X110262704Y-98044311D01*
X110077952Y-97821466D01*
X109866182Y-97647282D01*
X109631856Y-97523846D01*
X109379434Y-97453246D01*
X109113377Y-97437569D01*
X108990575Y-97448964D01*
X108735793Y-97511050D01*
X108510801Y-97617977D01*
X108317817Y-97763111D01*
X108159061Y-97939822D01*
X108036750Y-98141478D01*
X107953105Y-98361446D01*
X107910344Y-98593094D01*
X107910687Y-98829791D01*
X107956352Y-99064905D01*
X108049559Y-99291804D01*
X108192527Y-99503856D01*
X108273383Y-99592364D01*
X108481007Y-99762111D01*
X108707895Y-99880301D01*
X108947433Y-99947722D01*
X109193007Y-99965160D01*
X109438003Y-99933402D01*
X109675808Y-99853235D01*
X109899807Y-99725445D01*
X110103387Y-99550820D01*
X110262704Y-99355688D01*
X110323602Y-99274409D01*
X110376015Y-99216991D01*
X110407406Y-99196322D01*
X110441639Y-99207144D01*
X110523419Y-99237923D01*
X110646407Y-99286126D01*
X110804263Y-99349222D01*
X110990649Y-99424678D01*
X111199226Y-99509962D01*
X111402496Y-99593781D01*
X111625933Y-99686255D01*
X111832984Y-99771911D01*
X112017286Y-99848118D01*
X112172475Y-99912247D01*
X112292188Y-99961668D01*
X112370061Y-99993752D01*
X112399138Y-100005641D01*
X112428677Y-100033726D01*
X112428591Y-100088051D01*
X112397326Y-100175605D01*
X112333329Y-100303381D01*
X112332785Y-100304392D01*
X112283121Y-100400598D01*
X112246945Y-100478369D01*
X112231408Y-100522223D01*
X112231264Y-100524158D01*
X112247024Y-100557171D01*
X112290850Y-100630054D01*
X112357557Y-100734678D01*
X112441964Y-100862910D01*
X112537816Y-101005052D01*
X112634867Y-101149767D01*
X112719270Y-101280196D01*
X112785801Y-101387890D01*
X112829238Y-101464402D01*
X112844368Y-101500938D01*
X112824482Y-101534582D01*
X112768903Y-101602224D01*
X112683754Y-101697107D01*
X112575153Y-101812470D01*
X112449221Y-101941555D01*
X112407149Y-101983771D01*
X111969931Y-102420261D01*
X111482340Y-102088023D01*
X111332605Y-101987054D01*
X111198220Y-101898438D01*
X111086969Y-101827146D01*
X111006639Y-101778150D01*
X110965014Y-101756422D01*
X110962053Y-101755785D01*
X110922818Y-101767240D01*
X110843895Y-101798051D01*
X110738509Y-101842884D01*
X110667954Y-101874353D01*
X110532876Y-101933192D01*
X110396409Y-101988604D01*
X110281103Y-102031564D01*
X110245977Y-102043234D01*
X110152174Y-102076389D01*
X110079694Y-102108799D01*
X110052301Y-102126601D01*
X110035536Y-102165886D01*
X110011770Y-102251626D01*
X109983697Y-102372697D01*
X109954009Y-102517973D01*
X109941806Y-102582988D01*
X109911468Y-102748087D01*
X109882093Y-102906448D01*
X109856569Y-103042596D01*
X109837785Y-103141057D01*
X109834160Y-103159598D01*
X109803906Y-103312873D01*
X109165645Y-103312873D01*
X108955770Y-103312529D01*
X108796980Y-103311116D01*
X108681973Y-103308064D01*
X108603446Y-103302803D01*
X108554096Y-103294763D01*
X108526619Y-103283373D01*
X108513713Y-103268063D01*
X108511320Y-103261782D01*
X108502833Y-103223896D01*
X108485900Y-103140195D01*
X108462566Y-103021433D01*
X108434875Y-102878361D01*
X108404873Y-102721732D01*
X108374604Y-102562297D01*
X108346115Y-102410809D01*
X108321449Y-102278019D01*
X108302651Y-102174681D01*
X108291767Y-102111545D01*
X108289885Y-102097497D01*
X108264704Y-102084770D01*
X108197622Y-102056600D01*
X108101333Y-102018252D01*
X108063621Y-102003609D01*
X107917921Y-101944548D01*
X107756951Y-101875000D01*
X107621291Y-101812712D01*
X107517561Y-101766879D01*
X107432326Y-101736387D01*
X107380126Y-101726208D01*
X107373130Y-101727831D01*
X107340102Y-101749343D01*
X107266643Y-101798465D01*
X107160577Y-101869923D01*
X107029726Y-101958445D01*
X106881912Y-102058759D01*
X106852734Y-102078594D01*
X106679863Y-102194988D01*
X106548226Y-102280548D01*
X106451761Y-102338684D01*
X106384408Y-102372808D01*
X106340106Y-102386331D01*
X106312794Y-102382664D01*
X106312620Y-102382570D01*
X106276746Y-102353707D01*
X106207391Y-102289867D01*
X106111745Y-102197969D01*
X105996999Y-102084933D01*
X105870341Y-101957679D01*
X105856205Y-101943328D01*
X105700903Y-101782957D01*
X105586870Y-101659195D01*
X105512002Y-101569555D01*
X105474196Y-101511552D01*
X105469317Y-101486004D01*
X105490603Y-101448718D01*
X105539773Y-101371343D01*
X105611575Y-101261867D01*
X105700755Y-101128280D01*
X105802063Y-100978570D01*
X105825897Y-100943618D01*
X106164765Y-100447390D01*
X106063056Y-100223293D01*
X106003783Y-100087011D01*
X105944170Y-99940724D01*
X105896640Y-99814965D01*
X105894685Y-99809425D01*
X105858677Y-99711057D01*
X105828229Y-99635229D01*
X105809905Y-99598282D01*
X105809852Y-99598220D01*
X105776729Y-99586496D01*
X105695267Y-99566568D01*
X105574625Y-99540413D01*
X105423959Y-99510010D01*
X105252428Y-99477337D01*
X105237967Y-99474664D01*
X105061235Y-99441890D01*
X104900810Y-99411802D01*
X104766888Y-99386339D01*
X104669663Y-99367441D01*
X104619332Y-99357047D01*
X104618563Y-99356865D01*
X104597153Y-99350539D01*
X104580988Y-99338239D01*
X104569331Y-99312594D01*
X104561445Y-99266235D01*
X104556593Y-99191792D01*
X104554039Y-99081895D01*
X104553045Y-98929175D01*
X104552874Y-98726262D01*
X104552874Y-98700000D01*
X104552998Y-98490986D01*
X104553863Y-98332994D01*
X104556205Y-98218653D01*
X104560762Y-98140593D01*
X104568270Y-98091446D01*
X104579466Y-98063841D01*
X104595088Y-98050408D01*
X104615873Y-98043779D01*
X104618563Y-98043135D01*
X104667113Y-98033065D01*
X104762905Y-98014425D01*
X104895743Y-97989155D01*
X105055431Y-97959193D01*
X105231774Y-97926478D01*
X105237967Y-97925336D01*
X105410782Y-97892567D01*
X105563469Y-97861907D01*
X105686871Y-97835336D01*
X105771831Y-97814833D01*
X105809190Y-97802374D01*
X105809852Y-97801780D01*
X105828095Y-97765081D01*
X105858497Y-97689414D01*
X105894493Y-97591122D01*
X105894685Y-97590575D01*
X105941222Y-97466767D01*
X106000504Y-97320804D01*
X106060109Y-97183219D01*
X106063056Y-97176707D01*
X106164765Y-96952610D01*
X105825897Y-96456381D01*
X105722592Y-96304154D01*
X105630237Y-96166259D01*
X105554084Y-96050685D01*
X105499385Y-95965421D01*
X105471393Y-95918456D01*
X105469317Y-95913996D01*
X105478560Y-95879866D01*
X105523156Y-95816119D01*
X105605209Y-95720269D01*
X105726821Y-95589831D01*
X105856205Y-95456672D01*
X105983702Y-95328306D01*
X106100046Y-95213419D01*
X106198052Y-95118927D01*
X106270536Y-95051747D01*
X106310313Y-95018794D01*
X106312361Y-95017568D01*
X106339656Y-95013926D01*
X106384234Y-95027650D01*
X106452112Y-95062131D01*
X106549311Y-95120761D01*
X106681851Y-95206930D01*
X106852476Y-95321800D01*
X107002655Y-95423746D01*
X107137350Y-95514877D01*
X107248740Y-95589927D01*
X107329005Y-95643631D01*
X107370325Y-95670720D01*
X107373130Y-95672426D01*
X107412721Y-95669118D01*
X107489669Y-95644047D01*
X107589432Y-95602202D01*
X107621291Y-95587288D01*
X107763226Y-95522214D01*
X107924273Y-95452788D01*
X108063621Y-95396391D01*
X108167044Y-95355753D01*
X108245642Y-95323474D01*
X108286720Y-95304822D01*
X108289885Y-95302503D01*
X108295128Y-95268197D01*
X108309494Y-95187331D01*
X108330937Y-95070657D01*
X108357413Y-94928925D01*
X108386877Y-94772890D01*
X108417283Y-94613302D01*
X108446588Y-94460915D01*
X108472745Y-94326479D01*
X108493710Y-94220748D01*
X108507439Y-94154474D01*
X108511320Y-94138218D01*
X108520900Y-94121427D01*
X108542536Y-94108751D01*
X108583531Y-94099622D01*
X108651189Y-94093469D01*
X108752812Y-94089720D01*
X108895703Y-94087808D01*
X109087165Y-94087160D01*
X109165645Y-94087126D01*
X109803906Y-94087126D01*
X109834160Y-94240402D01*
G37*
X109834160Y-94240402D02*
X109850564Y-94325678D01*
X109874509Y-94452930D01*
X109903107Y-94606685D01*
X109933467Y-94771466D01*
X109941806Y-94817011D01*
X109971370Y-94969068D01*
X110000442Y-95101532D01*
X110026329Y-95203286D01*
X110046337Y-95263212D01*
X110052301Y-95273195D01*
X110094534Y-95297707D01*
X110176370Y-95332852D01*
X110281683Y-95371827D01*
X110304368Y-95379558D01*
X110445018Y-95430640D01*
X110603714Y-95494046D01*
X110746225Y-95556096D01*
X110746886Y-95556402D01*
X110970440Y-95659733D01*
X111970232Y-94980039D01*
X112407300Y-95416379D01*
X112537381Y-95548351D01*
X112652048Y-95668721D01*
X112745181Y-95770727D01*
X112810658Y-95847609D01*
X112842357Y-95892607D01*
X112844368Y-95899062D01*
X112828529Y-95936960D01*
X112784496Y-96014292D01*
X112717490Y-96122611D01*
X112632734Y-96253468D01*
X112537816Y-96394948D01*
X112440998Y-96538539D01*
X112356751Y-96666565D01*
X112290258Y-96770895D01*
X112246702Y-96843400D01*
X112231264Y-96875842D01*
X112244328Y-96915424D01*
X112278750Y-96990481D01*
X112327380Y-97085532D01*
X112332785Y-97095608D01*
X112396980Y-97223609D01*
X112428463Y-97311382D01*
X112428798Y-97365972D01*
X112399548Y-97394425D01*
X112399138Y-97394590D01*
X112364498Y-97408812D01*
X112282269Y-97442731D01*
X112158814Y-97493716D01*
X112000498Y-97559138D01*
X111813686Y-97636366D01*
X111604742Y-97722771D01*
X111402446Y-97806449D01*
X111179200Y-97898412D01*
X110972392Y-97982850D01*
X110788362Y-98057231D01*
X110633451Y-98119026D01*
X110513996Y-98165703D01*
X110436339Y-98194732D01*
X110407356Y-98203678D01*
X110374110Y-98181244D01*
X110321123Y-98122561D01*
X110262704Y-98044311D01*
X110077952Y-97821466D01*
X109866182Y-97647282D01*
X109631856Y-97523846D01*
X109379434Y-97453246D01*
X109113377Y-97437569D01*
X108990575Y-97448964D01*
X108735793Y-97511050D01*
X108510801Y-97617977D01*
X108317817Y-97763111D01*
X108159061Y-97939822D01*
X108036750Y-98141478D01*
X107953105Y-98361446D01*
X107910344Y-98593094D01*
X107910687Y-98829791D01*
X107956352Y-99064905D01*
X108049559Y-99291804D01*
X108192527Y-99503856D01*
X108273383Y-99592364D01*
X108481007Y-99762111D01*
X108707895Y-99880301D01*
X108947433Y-99947722D01*
X109193007Y-99965160D01*
X109438003Y-99933402D01*
X109675808Y-99853235D01*
X109899807Y-99725445D01*
X110103387Y-99550820D01*
X110262704Y-99355688D01*
X110323602Y-99274409D01*
X110376015Y-99216991D01*
X110407406Y-99196322D01*
X110441639Y-99207144D01*
X110523419Y-99237923D01*
X110646407Y-99286126D01*
X110804263Y-99349222D01*
X110990649Y-99424678D01*
X111199226Y-99509962D01*
X111402496Y-99593781D01*
X111625933Y-99686255D01*
X111832984Y-99771911D01*
X112017286Y-99848118D01*
X112172475Y-99912247D01*
X112292188Y-99961668D01*
X112370061Y-99993752D01*
X112399138Y-100005641D01*
X112428677Y-100033726D01*
X112428591Y-100088051D01*
X112397326Y-100175605D01*
X112333329Y-100303381D01*
X112332785Y-100304392D01*
X112283121Y-100400598D01*
X112246945Y-100478369D01*
X112231408Y-100522223D01*
X112231264Y-100524158D01*
X112247024Y-100557171D01*
X112290850Y-100630054D01*
X112357557Y-100734678D01*
X112441964Y-100862910D01*
X112537816Y-101005052D01*
X112634867Y-101149767D01*
X112719270Y-101280196D01*
X112785801Y-101387890D01*
X112829238Y-101464402D01*
X112844368Y-101500938D01*
X112824482Y-101534582D01*
X112768903Y-101602224D01*
X112683754Y-101697107D01*
X112575153Y-101812470D01*
X112449221Y-101941555D01*
X112407149Y-101983771D01*
X111969931Y-102420261D01*
X111482340Y-102088023D01*
X111332605Y-101987054D01*
X111198220Y-101898438D01*
X111086969Y-101827146D01*
X111006639Y-101778150D01*
X110965014Y-101756422D01*
X110962053Y-101755785D01*
X110922818Y-101767240D01*
X110843895Y-101798051D01*
X110738509Y-101842884D01*
X110667954Y-101874353D01*
X110532876Y-101933192D01*
X110396409Y-101988604D01*
X110281103Y-102031564D01*
X110245977Y-102043234D01*
X110152174Y-102076389D01*
X110079694Y-102108799D01*
X110052301Y-102126601D01*
X110035536Y-102165886D01*
X110011770Y-102251626D01*
X109983697Y-102372697D01*
X109954009Y-102517973D01*
X109941806Y-102582988D01*
X109911468Y-102748087D01*
X109882093Y-102906448D01*
X109856569Y-103042596D01*
X109837785Y-103141057D01*
X109834160Y-103159598D01*
X109803906Y-103312873D01*
X109165645Y-103312873D01*
X108955770Y-103312529D01*
X108796980Y-103311116D01*
X108681973Y-103308064D01*
X108603446Y-103302803D01*
X108554096Y-103294763D01*
X108526619Y-103283373D01*
X108513713Y-103268063D01*
X108511320Y-103261782D01*
X108502833Y-103223896D01*
X108485900Y-103140195D01*
X108462566Y-103021433D01*
X108434875Y-102878361D01*
X108404873Y-102721732D01*
X108374604Y-102562297D01*
X108346115Y-102410809D01*
X108321449Y-102278019D01*
X108302651Y-102174681D01*
X108291767Y-102111545D01*
X108289885Y-102097497D01*
X108264704Y-102084770D01*
X108197622Y-102056600D01*
X108101333Y-102018252D01*
X108063621Y-102003609D01*
X107917921Y-101944548D01*
X107756951Y-101875000D01*
X107621291Y-101812712D01*
X107517561Y-101766879D01*
X107432326Y-101736387D01*
X107380126Y-101726208D01*
X107373130Y-101727831D01*
X107340102Y-101749343D01*
X107266643Y-101798465D01*
X107160577Y-101869923D01*
X107029726Y-101958445D01*
X106881912Y-102058759D01*
X106852734Y-102078594D01*
X106679863Y-102194988D01*
X106548226Y-102280548D01*
X106451761Y-102338684D01*
X106384408Y-102372808D01*
X106340106Y-102386331D01*
X106312794Y-102382664D01*
X106312620Y-102382570D01*
X106276746Y-102353707D01*
X106207391Y-102289867D01*
X106111745Y-102197969D01*
X105996999Y-102084933D01*
X105870341Y-101957679D01*
X105856205Y-101943328D01*
X105700903Y-101782957D01*
X105586870Y-101659195D01*
X105512002Y-101569555D01*
X105474196Y-101511552D01*
X105469317Y-101486004D01*
X105490603Y-101448718D01*
X105539773Y-101371343D01*
X105611575Y-101261867D01*
X105700755Y-101128280D01*
X105802063Y-100978570D01*
X105825897Y-100943618D01*
X106164765Y-100447390D01*
X106063056Y-100223293D01*
X106003783Y-100087011D01*
X105944170Y-99940724D01*
X105896640Y-99814965D01*
X105894685Y-99809425D01*
X105858677Y-99711057D01*
X105828229Y-99635229D01*
X105809905Y-99598282D01*
X105809852Y-99598220D01*
X105776729Y-99586496D01*
X105695267Y-99566568D01*
X105574625Y-99540413D01*
X105423959Y-99510010D01*
X105252428Y-99477337D01*
X105237967Y-99474664D01*
X105061235Y-99441890D01*
X104900810Y-99411802D01*
X104766888Y-99386339D01*
X104669663Y-99367441D01*
X104619332Y-99357047D01*
X104618563Y-99356865D01*
X104597153Y-99350539D01*
X104580988Y-99338239D01*
X104569331Y-99312594D01*
X104561445Y-99266235D01*
X104556593Y-99191792D01*
X104554039Y-99081895D01*
X104553045Y-98929175D01*
X104552874Y-98726262D01*
X104552874Y-98700000D01*
X104552998Y-98490986D01*
X104553863Y-98332994D01*
X104556205Y-98218653D01*
X104560762Y-98140593D01*
X104568270Y-98091446D01*
X104579466Y-98063841D01*
X104595088Y-98050408D01*
X104615873Y-98043779D01*
X104618563Y-98043135D01*
X104667113Y-98033065D01*
X104762905Y-98014425D01*
X104895743Y-97989155D01*
X105055431Y-97959193D01*
X105231774Y-97926478D01*
X105237967Y-97925336D01*
X105410782Y-97892567D01*
X105563469Y-97861907D01*
X105686871Y-97835336D01*
X105771831Y-97814833D01*
X105809190Y-97802374D01*
X105809852Y-97801780D01*
X105828095Y-97765081D01*
X105858497Y-97689414D01*
X105894493Y-97591122D01*
X105894685Y-97590575D01*
X105941222Y-97466767D01*
X106000504Y-97320804D01*
X106060109Y-97183219D01*
X106063056Y-97176707D01*
X106164765Y-96952610D01*
X105825897Y-96456381D01*
X105722592Y-96304154D01*
X105630237Y-96166259D01*
X105554084Y-96050685D01*
X105499385Y-95965421D01*
X105471393Y-95918456D01*
X105469317Y-95913996D01*
X105478560Y-95879866D01*
X105523156Y-95816119D01*
X105605209Y-95720269D01*
X105726821Y-95589831D01*
X105856205Y-95456672D01*
X105983702Y-95328306D01*
X106100046Y-95213419D01*
X106198052Y-95118927D01*
X106270536Y-95051747D01*
X106310313Y-95018794D01*
X106312361Y-95017568D01*
X106339656Y-95013926D01*
X106384234Y-95027650D01*
X106452112Y-95062131D01*
X106549311Y-95120761D01*
X106681851Y-95206930D01*
X106852476Y-95321800D01*
X107002655Y-95423746D01*
X107137350Y-95514877D01*
X107248740Y-95589927D01*
X107329005Y-95643631D01*
X107370325Y-95670720D01*
X107373130Y-95672426D01*
X107412721Y-95669118D01*
X107489669Y-95644047D01*
X107589432Y-95602202D01*
X107621291Y-95587288D01*
X107763226Y-95522214D01*
X107924273Y-95452788D01*
X108063621Y-95396391D01*
X108167044Y-95355753D01*
X108245642Y-95323474D01*
X108286720Y-95304822D01*
X108289885Y-95302503D01*
X108295128Y-95268197D01*
X108309494Y-95187331D01*
X108330937Y-95070657D01*
X108357413Y-94928925D01*
X108386877Y-94772890D01*
X108417283Y-94613302D01*
X108446588Y-94460915D01*
X108472745Y-94326479D01*
X108493710Y-94220748D01*
X108507439Y-94154474D01*
X108511320Y-94138218D01*
X108520900Y-94121427D01*
X108542536Y-94108751D01*
X108583531Y-94099622D01*
X108651189Y-94093469D01*
X108752812Y-94089720D01*
X108895703Y-94087808D01*
X109087165Y-94087160D01*
X109165645Y-94087126D01*
X109803906Y-94087126D01*
X109834160Y-94240402D01*
G36*
X123301213Y-96874624D02*
G01*
X123240503Y-96875242D01*
X123161718Y-96875467D01*
X123100112Y-96875492D01*
X122790677Y-96875492D01*
X122762968Y-96847783D01*
X122751736Y-96835486D01*
X122744045Y-96822189D01*
X122739232Y-96803620D01*
X122736638Y-96775506D01*
X122735602Y-96733575D01*
X122735564Y-96717448D01*
X122882014Y-96717448D01*
X123322281Y-96717448D01*
X123322281Y-96623566D01*
X123320675Y-96568628D01*
X123316447Y-96512232D01*
X123310484Y-96465947D01*
X123309982Y-96463153D01*
X123287928Y-96380944D01*
X123254792Y-96317178D01*
X123209039Y-96269840D01*
X123149131Y-96236910D01*
X123133253Y-96231184D01*
X123108525Y-96225571D01*
X123084094Y-96228001D01*
X123051592Y-96239825D01*
X123035626Y-96246952D01*
X122993198Y-96270292D01*
X122963432Y-96298412D01*
X122942703Y-96329352D01*
X122915729Y-96391326D01*
X122896190Y-96470641D01*
X122884938Y-96563039D01*
X122882462Y-96629959D01*
X122882014Y-96717448D01*
X122735564Y-96717448D01*
X122735462Y-96673555D01*
X122735467Y-96669983D01*
X122739828Y-96541004D01*
X122753053Y-96431301D01*
X122775933Y-96339066D01*
X122809262Y-96262490D01*
X122853830Y-96199765D01*
X122910428Y-96149080D01*
X122979850Y-96108629D01*
X122981543Y-96107833D01*
X123043675Y-96083691D01*
X123098701Y-96075089D01*
X123154079Y-96082061D01*
X123217265Y-96104638D01*
X123226881Y-96108920D01*
X123283158Y-96138120D01*
X123326643Y-96170936D01*
X123363609Y-96213290D01*
X123400327Y-96271102D01*
X123402244Y-96274461D01*
X123426419Y-96324788D01*
X123444474Y-96381671D01*
X123457031Y-96448765D01*
X123464714Y-96529727D01*
X123468145Y-96628210D01*
X123468443Y-96663006D01*
X123469037Y-96828698D01*
X123439292Y-96852095D01*
X123429511Y-96859035D01*
X123418089Y-96864450D01*
X123402287Y-96868527D01*
X123379367Y-96871455D01*
X123346588Y-96873425D01*
X123322281Y-96874067D01*
X123301213Y-96874624D01*
G37*
X123301213Y-96874624D02*
X123240503Y-96875242D01*
X123161718Y-96875467D01*
X123100112Y-96875492D01*
X122790677Y-96875492D01*
X122762968Y-96847783D01*
X122751736Y-96835486D01*
X122744045Y-96822189D01*
X122739232Y-96803620D01*
X122736638Y-96775506D01*
X122735602Y-96733575D01*
X122735564Y-96717448D01*
X122882014Y-96717448D01*
X123322281Y-96717448D01*
X123322281Y-96623566D01*
X123320675Y-96568628D01*
X123316447Y-96512232D01*
X123310484Y-96465947D01*
X123309982Y-96463153D01*
X123287928Y-96380944D01*
X123254792Y-96317178D01*
X123209039Y-96269840D01*
X123149131Y-96236910D01*
X123133253Y-96231184D01*
X123108525Y-96225571D01*
X123084094Y-96228001D01*
X123051592Y-96239825D01*
X123035626Y-96246952D01*
X122993198Y-96270292D01*
X122963432Y-96298412D01*
X122942703Y-96329352D01*
X122915729Y-96391326D01*
X122896190Y-96470641D01*
X122884938Y-96563039D01*
X122882462Y-96629959D01*
X122882014Y-96717448D01*
X122735564Y-96717448D01*
X122735462Y-96673555D01*
X122735467Y-96669983D01*
X122739828Y-96541004D01*
X122753053Y-96431301D01*
X122775933Y-96339066D01*
X122809262Y-96262490D01*
X122853830Y-96199765D01*
X122910428Y-96149080D01*
X122979850Y-96108629D01*
X122981543Y-96107833D01*
X123043675Y-96083691D01*
X123098701Y-96075089D01*
X123154079Y-96082061D01*
X123217265Y-96104638D01*
X123226881Y-96108920D01*
X123283158Y-96138120D01*
X123326643Y-96170936D01*
X123363609Y-96213290D01*
X123400327Y-96271102D01*
X123402244Y-96274461D01*
X123426419Y-96324788D01*
X123444474Y-96381671D01*
X123457031Y-96448765D01*
X123464714Y-96529727D01*
X123468145Y-96628210D01*
X123468443Y-96663006D01*
X123469037Y-96828698D01*
X123439292Y-96852095D01*
X123429511Y-96859035D01*
X123418089Y-96864450D01*
X123402287Y-96868527D01*
X123379367Y-96871455D01*
X123346588Y-96873425D01*
X123322281Y-96874067D01*
X123301213Y-96874624D01*
G36*
X120344536Y-96136468D02*
G01*
X120305105Y-96129223D01*
X120158701Y-96082961D01*
X120023995Y-96012616D01*
X119902280Y-95919516D01*
X119794847Y-95804988D01*
X119702988Y-95670360D01*
X119627996Y-95516960D01*
X119582458Y-95386541D01*
X119558533Y-95299377D01*
X119539943Y-95216004D01*
X119526084Y-95131024D01*
X119516351Y-95039035D01*
X119510141Y-94934638D01*
X119506851Y-94812432D01*
X119505924Y-94701945D01*
X119505674Y-94610811D01*
X120136982Y-94610811D01*
X120138457Y-94703195D01*
X120142842Y-94774568D01*
X120150738Y-94831281D01*
X120162270Y-94878128D01*
X120206215Y-94994331D01*
X120260243Y-95085457D01*
X120325219Y-95152295D01*
X120402005Y-95195635D01*
X120491467Y-95216266D01*
X120534925Y-95218352D01*
X120617184Y-95210652D01*
X120685546Y-95185011D01*
X120748970Y-95137622D01*
X120767567Y-95119421D01*
X120817846Y-95054718D01*
X120850056Y-94979934D01*
X120865648Y-94890338D01*
X120866796Y-94795988D01*
X120859216Y-94706499D01*
X120844389Y-94637982D01*
X120833253Y-94608225D01*
X120802904Y-94554592D01*
X120760221Y-94497765D01*
X120712317Y-94445918D01*
X120666301Y-94407222D01*
X120649421Y-94396946D01*
X120625782Y-94388958D01*
X120588168Y-94383279D01*
X120532985Y-94379644D01*
X120456640Y-94377789D01*
X120383981Y-94377406D01*
X120299270Y-94377665D01*
X120238018Y-94378713D01*
X120196227Y-94380955D01*
X120169899Y-94384794D01*
X120155035Y-94390635D01*
X120147639Y-94398882D01*
X120146461Y-94401433D01*
X120142833Y-94423600D01*
X120139866Y-94467320D01*
X120137827Y-94526689D01*
X120136983Y-94595804D01*
X120136982Y-94610811D01*
X119505674Y-94610811D01*
X119505027Y-94374323D01*
X119406547Y-94380599D01*
X119299695Y-94398421D01*
X119207852Y-94436333D01*
X119133310Y-94492720D01*
X119078364Y-94565969D01*
X119051552Y-94630465D01*
X119034654Y-94722877D01*
X119032227Y-94832889D01*
X119043378Y-94955344D01*
X119067210Y-95085086D01*
X119102830Y-95216958D01*
X119149343Y-95345802D01*
X119191883Y-95439434D01*
X119213728Y-95484483D01*
X119228984Y-95518844D01*
X119234937Y-95536319D01*
X119234746Y-95537267D01*
X119221412Y-95543297D01*
X119186068Y-95558355D01*
X119132101Y-95581023D01*
X119062896Y-95609885D01*
X118981840Y-95643523D01*
X118899118Y-95677716D01*
X118567803Y-95814414D01*
X118551833Y-95717180D01*
X118543820Y-95675036D01*
X118530361Y-95611681D01*
X118512679Y-95532543D01*
X118491996Y-95443049D01*
X118469532Y-95348627D01*
X118460403Y-95311027D01*
X118422674Y-95148363D01*
X118394388Y-95005950D01*
X118374972Y-94878473D01*
X118363854Y-94760616D01*
X118360464Y-94647062D01*
X118364229Y-94532495D01*
X118369378Y-94464469D01*
X118395273Y-94269837D01*
X118436575Y-94097471D01*
X118493853Y-93946530D01*
X118567674Y-93816175D01*
X118658608Y-93705566D01*
X118767222Y-93613865D01*
X118894085Y-93540230D01*
X119031352Y-93486461D01*
X119075137Y-93472813D01*
X119116141Y-93460927D01*
X119156569Y-93450666D01*
X119198630Y-93441887D01*
X119244531Y-93434452D01*
X119296480Y-93428220D01*
X119356685Y-93423050D01*
X119427352Y-93418804D01*
X119510689Y-93415340D01*
X119608905Y-93412519D01*
X119724205Y-93410200D01*
X119858799Y-93408243D01*
X120014893Y-93406509D01*
X120194695Y-93404857D01*
X120335676Y-93403676D01*
X121303622Y-93395730D01*
X121396770Y-93344244D01*
X121441645Y-93319863D01*
X121476501Y-93301720D01*
X121495054Y-93293065D01*
X121496311Y-93292757D01*
X121497749Y-93305986D01*
X121499074Y-93343674D01*
X121500249Y-93402817D01*
X121501237Y-93480414D01*
X121501999Y-93573464D01*
X121502500Y-93678965D01*
X121502701Y-93793916D01*
X121502703Y-93807622D01*
X121502703Y-94322487D01*
X121386000Y-94322487D01*
X121333260Y-94323365D01*
X121292926Y-94325708D01*
X121271300Y-94329079D01*
X121269298Y-94330569D01*
X121277683Y-94344196D01*
X121299692Y-94372243D01*
X121330601Y-94408697D01*
X121331316Y-94409515D01*
X121380843Y-94476038D01*
X121430575Y-94560052D01*
X121475626Y-94652063D01*
X121511110Y-94742579D01*
X121523236Y-94782433D01*
X121538637Y-94861745D01*
X121548465Y-94959065D01*
X121552580Y-95065484D01*
X121550841Y-95172093D01*
X121543108Y-95269983D01*
X121531981Y-95338487D01*
X121482648Y-95506480D01*
X121412342Y-95657719D01*
X121321933Y-95791218D01*
X121212295Y-95905994D01*
X121084299Y-96001063D01*
X120938818Y-96075440D01*
X120850541Y-96107526D01*
X120764739Y-96127635D01*
X120661736Y-96140962D01*
X120551034Y-96147128D01*
X120534925Y-96146926D01*
X120442133Y-96145756D01*
X120344536Y-96136468D01*
G37*
X120344536Y-96136468D02*
X120305105Y-96129223D01*
X120158701Y-96082961D01*
X120023995Y-96012616D01*
X119902280Y-95919516D01*
X119794847Y-95804988D01*
X119702988Y-95670360D01*
X119627996Y-95516960D01*
X119582458Y-95386541D01*
X119558533Y-95299377D01*
X119539943Y-95216004D01*
X119526084Y-95131024D01*
X119516351Y-95039035D01*
X119510141Y-94934638D01*
X119506851Y-94812432D01*
X119505924Y-94701945D01*
X119505674Y-94610811D01*
X120136982Y-94610811D01*
X120138457Y-94703195D01*
X120142842Y-94774568D01*
X120150738Y-94831281D01*
X120162270Y-94878128D01*
X120206215Y-94994331D01*
X120260243Y-95085457D01*
X120325219Y-95152295D01*
X120402005Y-95195635D01*
X120491467Y-95216266D01*
X120534925Y-95218352D01*
X120617184Y-95210652D01*
X120685546Y-95185011D01*
X120748970Y-95137622D01*
X120767567Y-95119421D01*
X120817846Y-95054718D01*
X120850056Y-94979934D01*
X120865648Y-94890338D01*
X120866796Y-94795988D01*
X120859216Y-94706499D01*
X120844389Y-94637982D01*
X120833253Y-94608225D01*
X120802904Y-94554592D01*
X120760221Y-94497765D01*
X120712317Y-94445918D01*
X120666301Y-94407222D01*
X120649421Y-94396946D01*
X120625782Y-94388958D01*
X120588168Y-94383279D01*
X120532985Y-94379644D01*
X120456640Y-94377789D01*
X120383981Y-94377406D01*
X120299270Y-94377665D01*
X120238018Y-94378713D01*
X120196227Y-94380955D01*
X120169899Y-94384794D01*
X120155035Y-94390635D01*
X120147639Y-94398882D01*
X120146461Y-94401433D01*
X120142833Y-94423600D01*
X120139866Y-94467320D01*
X120137827Y-94526689D01*
X120136983Y-94595804D01*
X120136982Y-94610811D01*
X119505674Y-94610811D01*
X119505027Y-94374323D01*
X119406547Y-94380599D01*
X119299695Y-94398421D01*
X119207852Y-94436333D01*
X119133310Y-94492720D01*
X119078364Y-94565969D01*
X119051552Y-94630465D01*
X119034654Y-94722877D01*
X119032227Y-94832889D01*
X119043378Y-94955344D01*
X119067210Y-95085086D01*
X119102830Y-95216958D01*
X119149343Y-95345802D01*
X119191883Y-95439434D01*
X119213728Y-95484483D01*
X119228984Y-95518844D01*
X119234937Y-95536319D01*
X119234746Y-95537267D01*
X119221412Y-95543297D01*
X119186068Y-95558355D01*
X119132101Y-95581023D01*
X119062896Y-95609885D01*
X118981840Y-95643523D01*
X118899118Y-95677716D01*
X118567803Y-95814414D01*
X118551833Y-95717180D01*
X118543820Y-95675036D01*
X118530361Y-95611681D01*
X118512679Y-95532543D01*
X118491996Y-95443049D01*
X118469532Y-95348627D01*
X118460403Y-95311027D01*
X118422674Y-95148363D01*
X118394388Y-95005950D01*
X118374972Y-94878473D01*
X118363854Y-94760616D01*
X118360464Y-94647062D01*
X118364229Y-94532495D01*
X118369378Y-94464469D01*
X118395273Y-94269837D01*
X118436575Y-94097471D01*
X118493853Y-93946530D01*
X118567674Y-93816175D01*
X118658608Y-93705566D01*
X118767222Y-93613865D01*
X118894085Y-93540230D01*
X119031352Y-93486461D01*
X119075137Y-93472813D01*
X119116141Y-93460927D01*
X119156569Y-93450666D01*
X119198630Y-93441887D01*
X119244531Y-93434452D01*
X119296480Y-93428220D01*
X119356685Y-93423050D01*
X119427352Y-93418804D01*
X119510689Y-93415340D01*
X119608905Y-93412519D01*
X119724205Y-93410200D01*
X119858799Y-93408243D01*
X120014893Y-93406509D01*
X120194695Y-93404857D01*
X120335676Y-93403676D01*
X121303622Y-93395730D01*
X121396770Y-93344244D01*
X121441645Y-93319863D01*
X121476501Y-93301720D01*
X121495054Y-93293065D01*
X121496311Y-93292757D01*
X121497749Y-93305986D01*
X121499074Y-93343674D01*
X121500249Y-93402817D01*
X121501237Y-93480414D01*
X121501999Y-93573464D01*
X121502500Y-93678965D01*
X121502701Y-93793916D01*
X121502703Y-93807622D01*
X121502703Y-94322487D01*
X121386000Y-94322487D01*
X121333260Y-94323365D01*
X121292926Y-94325708D01*
X121271300Y-94329079D01*
X121269298Y-94330569D01*
X121277683Y-94344196D01*
X121299692Y-94372243D01*
X121330601Y-94408697D01*
X121331316Y-94409515D01*
X121380843Y-94476038D01*
X121430575Y-94560052D01*
X121475626Y-94652063D01*
X121511110Y-94742579D01*
X121523236Y-94782433D01*
X121538637Y-94861745D01*
X121548465Y-94959065D01*
X121552580Y-95065484D01*
X121550841Y-95172093D01*
X121543108Y-95269983D01*
X121531981Y-95338487D01*
X121482648Y-95506480D01*
X121412342Y-95657719D01*
X121321933Y-95791218D01*
X121212295Y-95905994D01*
X121084299Y-96001063D01*
X120938818Y-96075440D01*
X120850541Y-96107526D01*
X120764739Y-96127635D01*
X120661736Y-96140962D01*
X120551034Y-96147128D01*
X120534925Y-96146926D01*
X120442133Y-96145756D01*
X120344536Y-96136468D01*
G36*
X122852018Y-92439581D02*
G01*
X122864281Y-92449944D01*
X122872642Y-92461096D01*
X122877849Y-92477257D01*
X122880649Y-92502650D01*
X122881788Y-92541494D01*
X122882013Y-92598012D01*
X122882014Y-92609112D01*
X122882014Y-92755048D01*
X123152948Y-92755048D01*
X123238346Y-92755144D01*
X123304056Y-92755581D01*
X123352966Y-92756580D01*
X123387965Y-92758364D01*
X123411941Y-92761155D01*
X123427785Y-92765175D01*
X123438383Y-92770647D01*
X123446459Y-92777626D01*
X123466304Y-92810558D01*
X123464740Y-92844938D01*
X123442098Y-92876116D01*
X123439292Y-92878406D01*
X123428684Y-92885863D01*
X123416273Y-92891545D01*
X123399042Y-92895691D01*
X123373976Y-92898542D01*
X123338059Y-92900338D01*
X123288275Y-92901320D01*
X123221609Y-92901728D01*
X123145781Y-92901803D01*
X122882014Y-92901803D01*
X122882014Y-93041165D01*
X122881610Y-93100970D01*
X122880032Y-93142374D01*
X122876739Y-93169544D01*
X122871184Y-93186646D01*
X122862823Y-93197849D01*
X122861370Y-93199209D01*
X122828131Y-93215567D01*
X122790554Y-93214120D01*
X122757837Y-93195314D01*
X122751490Y-93188042D01*
X122746458Y-93178665D01*
X122742588Y-93164683D01*
X122739729Y-93143596D01*
X122737727Y-93112903D01*
X122736431Y-93070103D01*
X122735690Y-93012697D01*
X122735350Y-92938182D01*
X122735260Y-92844059D01*
X122735259Y-92824032D01*
X122735355Y-92725227D01*
X122735734Y-92646520D01*
X122736525Y-92585429D01*
X122737862Y-92539475D01*
X122739875Y-92506178D01*
X122742698Y-92483056D01*
X122746461Y-92467630D01*
X122751297Y-92457421D01*
X122755014Y-92452479D01*
X122787550Y-92426835D01*
X122821330Y-92423733D01*
X122852018Y-92439581D01*
G37*
X122852018Y-92439581D02*
X122864281Y-92449944D01*
X122872642Y-92461096D01*
X122877849Y-92477257D01*
X122880649Y-92502650D01*
X122881788Y-92541494D01*
X122882013Y-92598012D01*
X122882014Y-92609112D01*
X122882014Y-92755048D01*
X123152948Y-92755048D01*
X123238346Y-92755144D01*
X123304056Y-92755581D01*
X123352966Y-92756580D01*
X123387965Y-92758364D01*
X123411941Y-92761155D01*
X123427785Y-92765175D01*
X123438383Y-92770647D01*
X123446459Y-92777626D01*
X123466304Y-92810558D01*
X123464740Y-92844938D01*
X123442098Y-92876116D01*
X123439292Y-92878406D01*
X123428684Y-92885863D01*
X123416273Y-92891545D01*
X123399042Y-92895691D01*
X123373976Y-92898542D01*
X123338059Y-92900338D01*
X123288275Y-92901320D01*
X123221609Y-92901728D01*
X123145781Y-92901803D01*
X122882014Y-92901803D01*
X122882014Y-93041165D01*
X122881610Y-93100970D01*
X122880032Y-93142374D01*
X122876739Y-93169544D01*
X122871184Y-93186646D01*
X122862823Y-93197849D01*
X122861370Y-93199209D01*
X122828131Y-93215567D01*
X122790554Y-93214120D01*
X122757837Y-93195314D01*
X122751490Y-93188042D01*
X122746458Y-93178665D01*
X122742588Y-93164683D01*
X122739729Y-93143596D01*
X122737727Y-93112903D01*
X122736431Y-93070103D01*
X122735690Y-93012697D01*
X122735350Y-92938182D01*
X122735260Y-92844059D01*
X122735259Y-92824032D01*
X122735355Y-92725227D01*
X122735734Y-92646520D01*
X122736525Y-92585429D01*
X122737862Y-92539475D01*
X122739875Y-92506178D01*
X122742698Y-92483056D01*
X122746461Y-92467630D01*
X122751297Y-92457421D01*
X122755014Y-92452479D01*
X122787550Y-92426835D01*
X122821330Y-92423733D01*
X122852018Y-92439581D01*
G36*
X122830184Y-97215161D02*
G01*
X122847695Y-97219896D01*
X122860766Y-97230959D01*
X122870105Y-97250944D01*
X122876419Y-97282446D01*
X122880414Y-97328060D01*
X122882798Y-97390379D01*
X122884278Y-97471999D01*
X122884606Y-97497015D01*
X122887659Y-97739092D01*
X122952570Y-97742478D01*
X123017481Y-97745863D01*
X123017481Y-97577716D01*
X123017723Y-97512026D01*
X123018748Y-97465120D01*
X123021003Y-97433209D01*
X123024934Y-97412501D01*
X123030990Y-97399208D01*
X123039616Y-97389537D01*
X123039685Y-97389475D01*
X123073304Y-97371936D01*
X123109640Y-97372570D01*
X123140615Y-97390978D01*
X123143799Y-97394621D01*
X123152004Y-97407551D01*
X123157713Y-97425268D01*
X123161354Y-97451722D01*
X123163359Y-97490860D01*
X123164156Y-97546630D01*
X123164237Y-97582298D01*
X123164237Y-97744737D01*
X123322281Y-97744737D01*
X123322281Y-97498131D01*
X123322423Y-97416712D01*
X123323006Y-97354882D01*
X123324260Y-97309655D01*
X123326419Y-97278044D01*
X123329715Y-97257061D01*
X123334381Y-97243719D01*
X123340649Y-97235031D01*
X123342925Y-97232842D01*
X123374472Y-97216678D01*
X123410360Y-97215495D01*
X123441477Y-97228756D01*
X123451463Y-97239249D01*
X123456961Y-97250163D01*
X123461214Y-97267075D01*
X123464372Y-97292659D01*
X123466584Y-97329591D01*
X123467998Y-97380546D01*
X123468764Y-97448198D01*
X123469030Y-97535223D01*
X123469037Y-97554898D01*
X123468979Y-97643381D01*
X123468659Y-97712065D01*
X123467859Y-97763728D01*
X123466359Y-97801147D01*
X123463941Y-97827102D01*
X123460386Y-97844370D01*
X123455474Y-97855730D01*
X123448987Y-97863960D01*
X123444330Y-97868475D01*
X123436081Y-97875271D01*
X123425861Y-97880580D01*
X123410992Y-97884586D01*
X123388794Y-97887471D01*
X123356585Y-97889418D01*
X123311688Y-97890611D01*
X123251420Y-97891231D01*
X123173103Y-97891463D01*
X123107186Y-97891492D01*
X123014820Y-97891421D01*
X122942309Y-97891084D01*
X122886929Y-97890294D01*
X122845957Y-97888866D01*
X122816670Y-97886613D01*
X122796345Y-97883349D01*
X122782258Y-97878888D01*
X122771687Y-97873044D01*
X122765003Y-97868095D01*
X122735259Y-97844698D01*
X122735259Y-97554518D01*
X122735452Y-97457949D01*
X122736366Y-97381591D01*
X122738503Y-97323075D01*
X122742367Y-97280037D01*
X122748459Y-97250109D01*
X122757282Y-97230924D01*
X122769338Y-97220116D01*
X122785131Y-97215319D01*
X122805162Y-97214165D01*
X122807527Y-97214159D01*
X122830184Y-97215161D01*
G37*
X122830184Y-97215161D02*
X122847695Y-97219896D01*
X122860766Y-97230959D01*
X122870105Y-97250944D01*
X122876419Y-97282446D01*
X122880414Y-97328060D01*
X122882798Y-97390379D01*
X122884278Y-97471999D01*
X122884606Y-97497015D01*
X122887659Y-97739092D01*
X122952570Y-97742478D01*
X123017481Y-97745863D01*
X123017481Y-97577716D01*
X123017723Y-97512026D01*
X123018748Y-97465120D01*
X123021003Y-97433209D01*
X123024934Y-97412501D01*
X123030990Y-97399208D01*
X123039616Y-97389537D01*
X123039685Y-97389475D01*
X123073304Y-97371936D01*
X123109640Y-97372570D01*
X123140615Y-97390978D01*
X123143799Y-97394621D01*
X123152004Y-97407551D01*
X123157713Y-97425268D01*
X123161354Y-97451722D01*
X123163359Y-97490860D01*
X123164156Y-97546630D01*
X123164237Y-97582298D01*
X123164237Y-97744737D01*
X123322281Y-97744737D01*
X123322281Y-97498131D01*
X123322423Y-97416712D01*
X123323006Y-97354882D01*
X123324260Y-97309655D01*
X123326419Y-97278044D01*
X123329715Y-97257061D01*
X123334381Y-97243719D01*
X123340649Y-97235031D01*
X123342925Y-97232842D01*
X123374472Y-97216678D01*
X123410360Y-97215495D01*
X123441477Y-97228756D01*
X123451463Y-97239249D01*
X123456961Y-97250163D01*
X123461214Y-97267075D01*
X123464372Y-97292659D01*
X123466584Y-97329591D01*
X123467998Y-97380546D01*
X123468764Y-97448198D01*
X123469030Y-97535223D01*
X123469037Y-97554898D01*
X123468979Y-97643381D01*
X123468659Y-97712065D01*
X123467859Y-97763728D01*
X123466359Y-97801147D01*
X123463941Y-97827102D01*
X123460386Y-97844370D01*
X123455474Y-97855730D01*
X123448987Y-97863960D01*
X123444330Y-97868475D01*
X123436081Y-97875271D01*
X123425861Y-97880580D01*
X123410992Y-97884586D01*
X123388794Y-97887471D01*
X123356585Y-97889418D01*
X123311688Y-97890611D01*
X123251420Y-97891231D01*
X123173103Y-97891463D01*
X123107186Y-97891492D01*
X123014820Y-97891421D01*
X122942309Y-97891084D01*
X122886929Y-97890294D01*
X122845957Y-97888866D01*
X122816670Y-97886613D01*
X122796345Y-97883349D01*
X122782258Y-97878888D01*
X122771687Y-97873044D01*
X122765003Y-97868095D01*
X122735259Y-97844698D01*
X122735259Y-97554518D01*
X122735452Y-97457949D01*
X122736366Y-97381591D01*
X122738503Y-97323075D01*
X122742367Y-97280037D01*
X122748459Y-97250109D01*
X122757282Y-97230924D01*
X122769338Y-97220116D01*
X122785131Y-97215319D01*
X122805162Y-97214165D01*
X122807527Y-97214159D01*
X122830184Y-97215161D01*
G36*
X122808553Y-93879296D02*
G01*
X122827087Y-93883331D01*
X122853449Y-93892146D01*
X122889944Y-93906623D01*
X122938879Y-93927647D01*
X123002557Y-93956104D01*
X123083285Y-93992877D01*
X123127408Y-94013117D01*
X123206177Y-94049667D01*
X123278615Y-94083977D01*
X123342072Y-94114740D01*
X123393900Y-94140644D01*
X123431451Y-94160382D01*
X123452076Y-94172642D01*
X123454925Y-94175068D01*
X123467494Y-94206109D01*
X123465811Y-94241171D01*
X123450524Y-94269292D01*
X123449281Y-94270438D01*
X123432346Y-94281624D01*
X123399362Y-94300388D01*
X123354572Y-94324417D01*
X123302224Y-94351395D01*
X123282934Y-94361091D01*
X123136342Y-94434278D01*
X123295585Y-94514052D01*
X123350607Y-94542525D01*
X123398324Y-94568942D01*
X123435085Y-94591144D01*
X123457236Y-94606973D01*
X123461933Y-94612338D01*
X123468294Y-94654035D01*
X123454925Y-94688443D01*
X123440638Y-94698564D01*
X123408884Y-94716078D01*
X123362789Y-94739557D01*
X123305477Y-94767572D01*
X123240072Y-94798693D01*
X123169699Y-94831493D01*
X123097483Y-94864542D01*
X123026547Y-94896411D01*
X122960017Y-94925673D01*
X122901018Y-94950897D01*
X122852673Y-94970656D01*
X122818107Y-94983520D01*
X122800445Y-94988061D01*
X122799805Y-94988015D01*
X122777580Y-94976966D01*
X122754945Y-94954882D01*
X122753960Y-94953582D01*
X122738617Y-94926439D01*
X122738766Y-94901334D01*
X122741658Y-94891924D01*
X122747910Y-94880458D01*
X122760206Y-94868282D01*
X122781100Y-94853935D01*
X122813141Y-94835956D01*
X122858880Y-94812885D01*
X122920869Y-94783262D01*
X122978090Y-94756547D01*
X123044418Y-94725812D01*
X123104066Y-94698271D01*
X123153917Y-94675354D01*
X123190856Y-94658494D01*
X123211765Y-94649119D01*
X123215037Y-94647752D01*
X123209689Y-94641603D01*
X123187301Y-94627470D01*
X123151138Y-94607235D01*
X123104469Y-94582777D01*
X123085214Y-94573044D01*
X123020196Y-94540075D01*
X122972846Y-94514649D01*
X122940411Y-94494680D01*
X122920138Y-94478082D01*
X122909274Y-94462768D01*
X122905067Y-94446652D01*
X122904592Y-94436149D01*
X122906234Y-94417622D01*
X122913023Y-94401388D01*
X122927758Y-94385257D01*
X122953236Y-94367041D01*
X122992253Y-94344553D01*
X123047606Y-94315603D01*
X123079095Y-94299630D01*
X123129279Y-94273722D01*
X123170896Y-94251125D01*
X123200434Y-94233834D01*
X123214381Y-94223842D01*
X123214962Y-94222483D01*
X123203985Y-94216031D01*
X123175482Y-94201584D01*
X123132436Y-94180589D01*
X123077830Y-94154495D01*
X123014646Y-94124746D01*
X122983263Y-94110112D01*
X122902270Y-94072042D01*
X122839948Y-94041387D01*
X122794263Y-94016555D01*
X122763181Y-93995955D01*
X122744670Y-93977994D01*
X122736696Y-93961082D01*
X122737226Y-93943627D01*
X122744227Y-93924037D01*
X122744569Y-93923282D01*
X122764870Y-93896679D01*
X122785753Y-93882022D01*
X122795544Y-93879154D01*
X122808553Y-93879296D01*
G37*
X122808553Y-93879296D02*
X122827087Y-93883331D01*
X122853449Y-93892146D01*
X122889944Y-93906623D01*
X122938879Y-93927647D01*
X123002557Y-93956104D01*
X123083285Y-93992877D01*
X123127408Y-94013117D01*
X123206177Y-94049667D01*
X123278615Y-94083977D01*
X123342072Y-94114740D01*
X123393900Y-94140644D01*
X123431451Y-94160382D01*
X123452076Y-94172642D01*
X123454925Y-94175068D01*
X123467494Y-94206109D01*
X123465811Y-94241171D01*
X123450524Y-94269292D01*
X123449281Y-94270438D01*
X123432346Y-94281624D01*
X123399362Y-94300388D01*
X123354572Y-94324417D01*
X123302224Y-94351395D01*
X123282934Y-94361091D01*
X123136342Y-94434278D01*
X123295585Y-94514052D01*
X123350607Y-94542525D01*
X123398324Y-94568942D01*
X123435085Y-94591144D01*
X123457236Y-94606973D01*
X123461933Y-94612338D01*
X123468294Y-94654035D01*
X123454925Y-94688443D01*
X123440638Y-94698564D01*
X123408884Y-94716078D01*
X123362789Y-94739557D01*
X123305477Y-94767572D01*
X123240072Y-94798693D01*
X123169699Y-94831493D01*
X123097483Y-94864542D01*
X123026547Y-94896411D01*
X122960017Y-94925673D01*
X122901018Y-94950897D01*
X122852673Y-94970656D01*
X122818107Y-94983520D01*
X122800445Y-94988061D01*
X122799805Y-94988015D01*
X122777580Y-94976966D01*
X122754945Y-94954882D01*
X122753960Y-94953582D01*
X122738617Y-94926439D01*
X122738766Y-94901334D01*
X122741658Y-94891924D01*
X122747910Y-94880458D01*
X122760206Y-94868282D01*
X122781100Y-94853935D01*
X122813141Y-94835956D01*
X122858880Y-94812885D01*
X122920869Y-94783262D01*
X122978090Y-94756547D01*
X123044418Y-94725812D01*
X123104066Y-94698271D01*
X123153917Y-94675354D01*
X123190856Y-94658494D01*
X123211765Y-94649119D01*
X123215037Y-94647752D01*
X123209689Y-94641603D01*
X123187301Y-94627470D01*
X123151138Y-94607235D01*
X123104469Y-94582777D01*
X123085214Y-94573044D01*
X123020196Y-94540075D01*
X122972846Y-94514649D01*
X122940411Y-94494680D01*
X122920138Y-94478082D01*
X122909274Y-94462768D01*
X122905067Y-94446652D01*
X122904592Y-94436149D01*
X122906234Y-94417622D01*
X122913023Y-94401388D01*
X122927758Y-94385257D01*
X122953236Y-94367041D01*
X122992253Y-94344553D01*
X123047606Y-94315603D01*
X123079095Y-94299630D01*
X123129279Y-94273722D01*
X123170896Y-94251125D01*
X123200434Y-94233834D01*
X123214381Y-94223842D01*
X123214962Y-94222483D01*
X123203985Y-94216031D01*
X123175482Y-94201584D01*
X123132436Y-94180589D01*
X123077830Y-94154495D01*
X123014646Y-94124746D01*
X122983263Y-94110112D01*
X122902270Y-94072042D01*
X122839948Y-94041387D01*
X122794263Y-94016555D01*
X122763181Y-93995955D01*
X122744670Y-93977994D01*
X122736696Y-93961082D01*
X122737226Y-93943627D01*
X122744227Y-93924037D01*
X122744569Y-93923282D01*
X122764870Y-93896679D01*
X122785753Y-93882022D01*
X122795544Y-93879154D01*
X122808553Y-93879296D01*
G36*
X123194022Y-93449399D02*
G01*
X123268124Y-93449763D01*
X123324896Y-93450568D01*
X123366960Y-93451979D01*
X123396940Y-93454159D01*
X123417459Y-93457271D01*
X123431141Y-93461478D01*
X123440608Y-93466944D01*
X123445274Y-93470820D01*
X123465767Y-93502258D01*
X123464931Y-93538059D01*
X123447456Y-93569419D01*
X123425876Y-93596070D01*
X122778419Y-93596070D01*
X122756839Y-93569419D01*
X122741141Y-93543698D01*
X122735259Y-93522692D01*
X122742069Y-93499678D01*
X122756839Y-93475965D01*
X122778419Y-93449314D01*
X123099965Y-93449314D01*
X123194022Y-93449399D01*
G37*
X123194022Y-93449399D02*
X123268124Y-93449763D01*
X123324896Y-93450568D01*
X123366960Y-93451979D01*
X123396940Y-93454159D01*
X123417459Y-93457271D01*
X123431141Y-93461478D01*
X123440608Y-93466944D01*
X123445274Y-93470820D01*
X123465767Y-93502258D01*
X123464931Y-93538059D01*
X123447456Y-93569419D01*
X123425876Y-93596070D01*
X122778419Y-93596070D01*
X122756839Y-93569419D01*
X122741141Y-93543698D01*
X122735259Y-93522692D01*
X122742069Y-93499678D01*
X122756839Y-93475965D01*
X122778419Y-93449314D01*
X123099965Y-93449314D01*
X123194022Y-93449399D01*
G36*
X123191991Y-91400454D02*
G01*
X123264032Y-91400797D01*
X123318972Y-91401600D01*
X123359552Y-91403051D01*
X123388509Y-91405340D01*
X123408583Y-91408656D01*
X123422513Y-91413187D01*
X123433037Y-91419123D01*
X123439292Y-91423778D01*
X123463865Y-91454509D01*
X123466533Y-91489796D01*
X123451463Y-91522047D01*
X123442566Y-91532704D01*
X123430749Y-91539828D01*
X123411718Y-91544125D01*
X123381184Y-91546301D01*
X123334854Y-91547064D01*
X123299063Y-91547137D01*
X123164237Y-91547137D01*
X123164237Y-92043848D01*
X123286892Y-92043848D01*
X123342979Y-92044361D01*
X123381525Y-92046416D01*
X123407553Y-92050784D01*
X123426089Y-92058236D01*
X123439292Y-92067245D01*
X123463796Y-92098148D01*
X123466698Y-92133096D01*
X123449281Y-92166554D01*
X123440151Y-92175688D01*
X123428047Y-92182140D01*
X123409193Y-92186395D01*
X123379812Y-92188940D01*
X123336129Y-92190263D01*
X123274367Y-92190849D01*
X123260192Y-92190917D01*
X123143823Y-92191401D01*
X123047919Y-92191651D01*
X122970369Y-92191569D01*
X122909061Y-92191061D01*
X122861882Y-92190030D01*
X122826722Y-92188379D01*
X122801468Y-92186013D01*
X122784009Y-92182835D01*
X122772233Y-92178748D01*
X122764027Y-92173658D01*
X122757837Y-92168026D01*
X122738036Y-92136164D01*
X122740725Y-92102935D01*
X122762968Y-92071557D01*
X122777318Y-92058859D01*
X122793170Y-92050766D01*
X122815746Y-92046250D01*
X122850270Y-92044286D01*
X122901968Y-92043848D01*
X123017481Y-92043848D01*
X123017481Y-91547137D01*
X122898948Y-91547137D01*
X122844340Y-91546630D01*
X122807467Y-91544594D01*
X122783499Y-91540257D01*
X122767607Y-91532845D01*
X122757837Y-91524559D01*
X122738036Y-91492698D01*
X122740725Y-91459469D01*
X122762968Y-91428090D01*
X122790677Y-91400381D01*
X123100112Y-91400381D01*
X123191991Y-91400454D01*
G37*
X123191991Y-91400454D02*
X123264032Y-91400797D01*
X123318972Y-91401600D01*
X123359552Y-91403051D01*
X123388509Y-91405340D01*
X123408583Y-91408656D01*
X123422513Y-91413187D01*
X123433037Y-91419123D01*
X123439292Y-91423778D01*
X123463865Y-91454509D01*
X123466533Y-91489796D01*
X123451463Y-91522047D01*
X123442566Y-91532704D01*
X123430749Y-91539828D01*
X123411718Y-91544125D01*
X123381184Y-91546301D01*
X123334854Y-91547064D01*
X123299063Y-91547137D01*
X123164237Y-91547137D01*
X123164237Y-92043848D01*
X123286892Y-92043848D01*
X123342979Y-92044361D01*
X123381525Y-92046416D01*
X123407553Y-92050784D01*
X123426089Y-92058236D01*
X123439292Y-92067245D01*
X123463796Y-92098148D01*
X123466698Y-92133096D01*
X123449281Y-92166554D01*
X123440151Y-92175688D01*
X123428047Y-92182140D01*
X123409193Y-92186395D01*
X123379812Y-92188940D01*
X123336129Y-92190263D01*
X123274367Y-92190849D01*
X123260192Y-92190917D01*
X123143823Y-92191401D01*
X123047919Y-92191651D01*
X122970369Y-92191569D01*
X122909061Y-92191061D01*
X122861882Y-92190030D01*
X122826722Y-92188379D01*
X122801468Y-92186013D01*
X122784009Y-92182835D01*
X122772233Y-92178748D01*
X122764027Y-92173658D01*
X122757837Y-92168026D01*
X122738036Y-92136164D01*
X122740725Y-92102935D01*
X122762968Y-92071557D01*
X122777318Y-92058859D01*
X122793170Y-92050766D01*
X122815746Y-92046250D01*
X122850270Y-92044286D01*
X122901968Y-92043848D01*
X123017481Y-92043848D01*
X123017481Y-91547137D01*
X122898948Y-91547137D01*
X122844340Y-91546630D01*
X122807467Y-91544594D01*
X122783499Y-91540257D01*
X122767607Y-91532845D01*
X122757837Y-91524559D01*
X122738036Y-91492698D01*
X122740725Y-91459469D01*
X122762968Y-91428090D01*
X122790677Y-91400381D01*
X123100112Y-91400381D01*
X123191991Y-91400454D01*
G36*
X123424859Y-102155255D02*
G01*
X123446459Y-102169981D01*
X123453258Y-102177838D01*
X123458538Y-102187980D01*
X123462490Y-102203136D01*
X123465305Y-102226033D01*
X123467174Y-102259401D01*
X123468290Y-102305967D01*
X123468843Y-102368459D01*
X123469025Y-102449606D01*
X123469037Y-102491714D01*
X123468957Y-102581890D01*
X123468590Y-102652216D01*
X123467744Y-102705421D01*
X123466228Y-102744232D01*
X123463851Y-102771379D01*
X123460421Y-102789590D01*
X123455746Y-102801592D01*
X123449636Y-102810114D01*
X123446459Y-102813448D01*
X123438862Y-102820047D01*
X123429062Y-102825219D01*
X123414431Y-102829138D01*
X123392344Y-102831976D01*
X123360174Y-102833907D01*
X123315295Y-102835104D01*
X123255081Y-102835740D01*
X123176905Y-102835989D01*
X123104115Y-102836026D01*
X123010899Y-102835992D01*
X122937623Y-102835757D01*
X122881650Y-102835122D01*
X122840343Y-102833886D01*
X122811064Y-102831848D01*
X122791176Y-102828809D01*
X122778042Y-102824569D01*
X122769024Y-102818927D01*
X122761485Y-102811683D01*
X122759804Y-102809898D01*
X122752364Y-102801237D01*
X122746601Y-102791174D01*
X122742304Y-102776917D01*
X122739256Y-102755675D01*
X122737243Y-102724656D01*
X122736052Y-102681069D01*
X122735467Y-102622123D01*
X122735275Y-102545026D01*
X122735259Y-102490293D01*
X122735338Y-102401086D01*
X122735710Y-102331678D01*
X122736577Y-102279289D01*
X122738138Y-102241139D01*
X122740595Y-102214451D01*
X122744149Y-102196445D01*
X122749002Y-102184341D01*
X122755353Y-102175361D01*
X122758276Y-102172110D01*
X122789334Y-102152335D01*
X122825020Y-102148774D01*
X122856702Y-102161783D01*
X122863105Y-102167798D01*
X122869313Y-102177527D01*
X122874102Y-102193193D01*
X122877706Y-102217700D01*
X122880356Y-102253953D01*
X122882287Y-102304857D01*
X122883731Y-102373318D01*
X122884610Y-102435909D01*
X122887659Y-102683626D01*
X122952570Y-102687011D01*
X123017481Y-102690397D01*
X123017481Y-102522250D01*
X123018111Y-102449251D01*
X123020745Y-102395809D01*
X123026501Y-102358920D01*
X123036496Y-102335580D01*
X123051848Y-102322786D01*
X123073674Y-102317534D01*
X123093930Y-102316737D01*
X123118784Y-102319215D01*
X123137098Y-102328569D01*
X123149829Y-102347675D01*
X123157933Y-102379410D01*
X123162368Y-102426651D01*
X123164091Y-102492275D01*
X123164237Y-102528093D01*
X123164237Y-102689270D01*
X123322281Y-102689270D01*
X123322281Y-102440914D01*
X123322394Y-102359505D01*
X123322904Y-102297634D01*
X123324062Y-102252260D01*
X123326122Y-102220346D01*
X123329338Y-102198851D01*
X123333964Y-102184735D01*
X123340251Y-102174960D01*
X123344859Y-102169981D01*
X123371752Y-102152902D01*
X123395659Y-102147403D01*
X123424859Y-102155255D01*
G37*
X123424859Y-102155255D02*
X123446459Y-102169981D01*
X123453258Y-102177838D01*
X123458538Y-102187980D01*
X123462490Y-102203136D01*
X123465305Y-102226033D01*
X123467174Y-102259401D01*
X123468290Y-102305967D01*
X123468843Y-102368459D01*
X123469025Y-102449606D01*
X123469037Y-102491714D01*
X123468957Y-102581890D01*
X123468590Y-102652216D01*
X123467744Y-102705421D01*
X123466228Y-102744232D01*
X123463851Y-102771379D01*
X123460421Y-102789590D01*
X123455746Y-102801592D01*
X123449636Y-102810114D01*
X123446459Y-102813448D01*
X123438862Y-102820047D01*
X123429062Y-102825219D01*
X123414431Y-102829138D01*
X123392344Y-102831976D01*
X123360174Y-102833907D01*
X123315295Y-102835104D01*
X123255081Y-102835740D01*
X123176905Y-102835989D01*
X123104115Y-102836026D01*
X123010899Y-102835992D01*
X122937623Y-102835757D01*
X122881650Y-102835122D01*
X122840343Y-102833886D01*
X122811064Y-102831848D01*
X122791176Y-102828809D01*
X122778042Y-102824569D01*
X122769024Y-102818927D01*
X122761485Y-102811683D01*
X122759804Y-102809898D01*
X122752364Y-102801237D01*
X122746601Y-102791174D01*
X122742304Y-102776917D01*
X122739256Y-102755675D01*
X122737243Y-102724656D01*
X122736052Y-102681069D01*
X122735467Y-102622123D01*
X122735275Y-102545026D01*
X122735259Y-102490293D01*
X122735338Y-102401086D01*
X122735710Y-102331678D01*
X122736577Y-102279289D01*
X122738138Y-102241139D01*
X122740595Y-102214451D01*
X122744149Y-102196445D01*
X122749002Y-102184341D01*
X122755353Y-102175361D01*
X122758276Y-102172110D01*
X122789334Y-102152335D01*
X122825020Y-102148774D01*
X122856702Y-102161783D01*
X122863105Y-102167798D01*
X122869313Y-102177527D01*
X122874102Y-102193193D01*
X122877706Y-102217700D01*
X122880356Y-102253953D01*
X122882287Y-102304857D01*
X122883731Y-102373318D01*
X122884610Y-102435909D01*
X122887659Y-102683626D01*
X122952570Y-102687011D01*
X123017481Y-102690397D01*
X123017481Y-102522250D01*
X123018111Y-102449251D01*
X123020745Y-102395809D01*
X123026501Y-102358920D01*
X123036496Y-102335580D01*
X123051848Y-102322786D01*
X123073674Y-102317534D01*
X123093930Y-102316737D01*
X123118784Y-102319215D01*
X123137098Y-102328569D01*
X123149829Y-102347675D01*
X123157933Y-102379410D01*
X123162368Y-102426651D01*
X123164091Y-102492275D01*
X123164237Y-102528093D01*
X123164237Y-102689270D01*
X123322281Y-102689270D01*
X123322281Y-102440914D01*
X123322394Y-102359505D01*
X123322904Y-102297634D01*
X123324062Y-102252260D01*
X123326122Y-102220346D01*
X123329338Y-102198851D01*
X123333964Y-102184735D01*
X123340251Y-102174960D01*
X123344859Y-102169981D01*
X123371752Y-102152902D01*
X123395659Y-102147403D01*
X123424859Y-102155255D01*
G36*
X121407479Y-105359054D02*
G01*
X121268090Y-105359893D01*
X121110539Y-105360498D01*
X120933691Y-105360905D01*
X120736410Y-105361150D01*
X120517560Y-105361267D01*
X120276007Y-105361295D01*
X120010615Y-105361267D01*
X119720249Y-105361220D01*
X119403773Y-105361190D01*
X119340946Y-105361189D01*
X119021137Y-105361172D01*
X118727661Y-105361112D01*
X118459390Y-105361002D01*
X118215198Y-105360833D01*
X117993957Y-105360597D01*
X117794540Y-105360284D01*
X117615820Y-105359885D01*
X117456671Y-105359393D01*
X117315966Y-105358797D01*
X117192576Y-105358090D01*
X117085376Y-105357263D01*
X116993238Y-105356307D01*
X116915035Y-105355213D01*
X116849641Y-105353973D01*
X116795928Y-105352578D01*
X116752769Y-105351018D01*
X116719037Y-105349286D01*
X116693605Y-105347372D01*
X116675347Y-105345268D01*
X116663134Y-105342966D01*
X116655841Y-105340455D01*
X116655659Y-105340363D01*
X116644518Y-105335192D01*
X116634431Y-105330885D01*
X116625346Y-105326121D01*
X116617212Y-105319578D01*
X116609976Y-105309935D01*
X116603586Y-105295871D01*
X116597989Y-105276063D01*
X116593133Y-105249191D01*
X116588966Y-105213933D01*
X116585436Y-105168968D01*
X116582491Y-105112974D01*
X116580077Y-105044629D01*
X116578144Y-104962614D01*
X116576638Y-104865605D01*
X116575508Y-104752282D01*
X116574702Y-104621323D01*
X116574166Y-104471407D01*
X116573917Y-104337914D01*
X117315135Y-104337914D01*
X117315269Y-104493969D01*
X117315703Y-104624467D01*
X117316489Y-104731310D01*
X117317676Y-104816398D01*
X117319317Y-104881635D01*
X117321461Y-104928921D01*
X117324159Y-104960157D01*
X117327462Y-104977246D01*
X117331421Y-104982088D01*
X117332298Y-104981753D01*
X117353231Y-104967885D01*
X117386412Y-104944732D01*
X117403193Y-104932754D01*
X117419940Y-104920369D01*
X117434915Y-104909237D01*
X117449594Y-104899288D01*
X117465449Y-104890451D01*
X117483955Y-104882657D01*
X117506585Y-104875835D01*
X117534813Y-104869916D01*
X117570113Y-104864829D01*
X117613958Y-104860504D01*
X117667822Y-104856871D01*
X117733180Y-104853860D01*
X117811504Y-104851401D01*
X117904268Y-104849423D01*
X118012947Y-104847858D01*
X118139013Y-104846634D01*
X118283942Y-104845681D01*
X118449206Y-104844930D01*
X118636279Y-104844311D01*
X118846635Y-104843752D01*
X119081748Y-104843185D01*
X119297741Y-104842655D01*
X119538535Y-104842155D01*
X119768274Y-104841895D01*
X119985493Y-104841868D01*
X120188722Y-104842067D01*
X120376496Y-104842486D01*
X120547345Y-104843118D01*
X120699803Y-104843956D01*
X120832403Y-104844992D01*
X120943676Y-104846220D01*
X121032156Y-104847633D01*
X121096375Y-104849225D01*
X121134865Y-104850987D01*
X121138933Y-104851321D01*
X121232248Y-104863466D01*
X121307190Y-104882427D01*
X121372594Y-104911302D01*
X121437293Y-104953190D01*
X121444352Y-104958429D01*
X121488973Y-104991884D01*
X121488973Y-103696734D01*
X121451217Y-103721655D01*
X121412417Y-103746447D01*
X121375469Y-103767440D01*
X121337788Y-103784935D01*
X121296788Y-103799230D01*
X121249883Y-103810623D01*
X121194487Y-103819413D01*
X121128016Y-103825898D01*
X121047883Y-103830377D01*
X120951502Y-103833150D01*
X120836289Y-103834513D01*
X120699657Y-103834767D01*
X120539020Y-103834209D01*
X120479382Y-103833893D01*
X119840041Y-103830325D01*
X120391449Y-103425298D01*
X120547876Y-103310554D01*
X120684088Y-103211143D01*
X120801890Y-103125990D01*
X120903084Y-103054022D01*
X120989477Y-102994166D01*
X121062874Y-102945348D01*
X121125077Y-102906495D01*
X121177893Y-102876534D01*
X121223125Y-102854391D01*
X121262578Y-102838993D01*
X121298058Y-102829266D01*
X121331368Y-102824137D01*
X121364313Y-102822532D01*
X121398697Y-102823379D01*
X121403019Y-102823595D01*
X121489031Y-102828054D01*
X121488973Y-101408692D01*
X121382522Y-101514265D01*
X121353406Y-101542913D01*
X121325076Y-101570090D01*
X121295968Y-101596989D01*
X121264520Y-101624803D01*
X121229169Y-101654725D01*
X121188354Y-101687946D01*
X121140511Y-101725661D01*
X121084079Y-101769060D01*
X121017494Y-101819338D01*
X120939195Y-101877688D01*
X120847619Y-101945300D01*
X120741204Y-102023369D01*
X120618387Y-102113088D01*
X120477605Y-102215648D01*
X120317297Y-102332242D01*
X120185798Y-102427809D01*
X120020596Y-102547749D01*
X119876152Y-102652380D01*
X119751094Y-102742648D01*
X119644052Y-102819503D01*
X119553654Y-102883891D01*
X119478529Y-102936761D01*
X119417304Y-102979060D01*
X119368610Y-103011736D01*
X119331074Y-103035738D01*
X119303325Y-103052013D01*
X119283992Y-103061508D01*
X119271703Y-103065173D01*
X119265242Y-103064071D01*
X119248048Y-103050724D01*
X119211655Y-103021866D01*
X119158224Y-102979240D01*
X119089919Y-102924585D01*
X119008903Y-102859644D01*
X118917340Y-102786158D01*
X118817392Y-102705868D01*
X118711224Y-102620515D01*
X118600997Y-102531840D01*
X118488876Y-102441586D01*
X118427244Y-102391944D01*
X118377024Y-102351493D01*
X118267604Y-102263302D01*
X118162778Y-102178754D01*
X118064711Y-102099592D01*
X117975566Y-102027556D01*
X117897505Y-101964387D01*
X117832692Y-101911827D01*
X117783290Y-101871617D01*
X117754487Y-101848000D01*
X117646778Y-101756290D01*
X117549580Y-101668060D01*
X117466076Y-101586403D01*
X117399448Y-101514410D01*
X117358599Y-101463319D01*
X117315135Y-101402907D01*
X117315135Y-102792298D01*
X117396666Y-102791908D01*
X117456606Y-102795791D01*
X117512177Y-102810390D01*
X117564855Y-102832988D01*
X117594615Y-102847678D01*
X117624103Y-102863472D01*
X117655276Y-102881814D01*
X117690093Y-102904145D01*
X117730510Y-102931909D01*
X117778486Y-102966549D01*
X117835978Y-103009507D01*
X117904943Y-103062227D01*
X117987339Y-103126151D01*
X118085124Y-103202721D01*
X118200255Y-103293381D01*
X118334690Y-103399574D01*
X118349859Y-103411568D01*
X118879412Y-103830325D01*
X118292922Y-103834378D01*
X118117251Y-103835195D01*
X117968532Y-103835021D01*
X117846275Y-103833849D01*
X117749989Y-103831669D01*
X117679183Y-103828474D01*
X117633369Y-103824256D01*
X117624679Y-103822838D01*
X117533135Y-103800591D01*
X117450608Y-103771443D01*
X117384253Y-103738182D01*
X117356110Y-103718200D01*
X117315135Y-103683722D01*
X117315135Y-104337914D01*
X116573917Y-104337914D01*
X116573849Y-104301213D01*
X116573699Y-104109418D01*
X116573663Y-103894702D01*
X116573689Y-103655743D01*
X116573725Y-103391220D01*
X116573730Y-103268088D01*
X116573730Y-101297189D01*
X116689910Y-101297189D01*
X116831291Y-101284789D01*
X116961684Y-101247364D01*
X117081862Y-101184577D01*
X117113406Y-101159373D01*
X118427244Y-101159373D01*
X118519919Y-101108146D01*
X118612595Y-101056919D01*
X121303622Y-101056919D01*
X121396298Y-101108146D01*
X121488973Y-101159373D01*
X121488973Y-100553396D01*
X121488931Y-100408734D01*
X121488741Y-100289244D01*
X121488308Y-100192642D01*
X121487536Y-100116642D01*
X121486330Y-100058957D01*
X121484594Y-100017301D01*
X121482232Y-99989389D01*
X121479150Y-99972935D01*
X121475251Y-99965652D01*
X121470440Y-99965255D01*
X121464622Y-99969458D01*
X121464574Y-99969501D01*
X121439532Y-99986813D01*
X121398815Y-100009736D01*
X121358168Y-100029981D01*
X121276162Y-100068379D01*
X118427244Y-100076211D01*
X118427244Y-101159373D01*
X117113406Y-101159373D01*
X117192602Y-101096094D01*
X117222511Y-101066157D01*
X117307348Y-100958466D01*
X117369221Y-100839725D01*
X117408159Y-100713460D01*
X117424190Y-100583197D01*
X117417342Y-100452465D01*
X117387643Y-100324788D01*
X117335120Y-100203695D01*
X117259803Y-100092712D01*
X117214363Y-100042868D01*
X117102952Y-99949983D01*
X116980435Y-99881873D01*
X116848215Y-99839129D01*
X116707692Y-99822347D01*
X116693867Y-99822124D01*
X116573734Y-99821244D01*
X116573732Y-99768443D01*
X116580089Y-99721604D01*
X116595556Y-99678817D01*
X116597154Y-99675989D01*
X116602168Y-99666325D01*
X116606073Y-99657451D01*
X116610007Y-99649335D01*
X116615106Y-99641943D01*
X116622508Y-99635245D01*
X116633351Y-99629208D01*
X116648772Y-99623801D01*
X116669909Y-99618990D01*
X116697899Y-99614745D01*
X116733879Y-99611032D01*
X116778987Y-99607821D01*
X116834360Y-99605078D01*
X116901137Y-99602772D01*
X116980453Y-99600871D01*
X117073447Y-99599342D01*
X117181257Y-99598154D01*
X117305019Y-99597274D01*
X117445871Y-99596670D01*
X117604950Y-99596311D01*
X117783395Y-99596165D01*
X117982342Y-99596198D01*
X118202929Y-99596380D01*
X118446293Y-99596677D01*
X118713572Y-99597059D01*
X119005903Y-99597492D01*
X119324424Y-99597945D01*
X119363230Y-99597998D01*
X119683782Y-99598404D01*
X119978012Y-99598749D01*
X120247056Y-99599069D01*
X120492052Y-99599400D01*
X120714137Y-99599779D01*
X120914447Y-99600243D01*
X121094119Y-99600828D01*
X121254290Y-99601570D01*
X121396098Y-99602506D01*
X121520679Y-99603673D01*
X121629170Y-99605107D01*
X121722707Y-99606844D01*
X121802429Y-99608922D01*
X121869472Y-99611376D01*
X121924973Y-99614244D01*
X121970068Y-99617561D01*
X122005895Y-99621364D01*
X122033591Y-99625690D01*
X122054293Y-99630575D01*
X122069137Y-99636055D01*
X122079260Y-99642168D01*
X122085800Y-99648950D01*
X122089893Y-99656437D01*
X122092676Y-99664666D01*
X122095287Y-99673673D01*
X122098862Y-99683495D01*
X122099950Y-99685894D01*
X122102396Y-99693435D01*
X122104642Y-99706056D01*
X122106698Y-99724859D01*
X122108572Y-99750947D01*
X122110271Y-99785422D01*
X122111803Y-99829385D01*
X122113177Y-99883939D01*
X122114400Y-99950185D01*
X122115481Y-100029226D01*
X122116427Y-100122163D01*
X122117247Y-100230099D01*
X122117947Y-100354136D01*
X122118538Y-100495376D01*
X122119025Y-100654921D01*
X122119419Y-100833872D01*
X122119725Y-101033332D01*
X122119953Y-101254404D01*
X122120110Y-101498188D01*
X122120205Y-101765787D01*
X122120245Y-102058303D01*
X122120238Y-102376839D01*
X122120228Y-102480021D01*
X122120176Y-102805623D01*
X122120091Y-103104881D01*
X122119963Y-103378909D01*
X122119785Y-103628824D01*
X122119548Y-103855740D01*
X122119242Y-104060773D01*
X122118860Y-104245038D01*
X122118392Y-104409650D01*
X122117830Y-104555725D01*
X122117165Y-104684376D01*
X122116388Y-104796721D01*
X122115491Y-104893874D01*
X122114465Y-104976950D01*
X122113301Y-105047064D01*
X122111991Y-105105332D01*
X122110525Y-105152869D01*
X122108896Y-105190790D01*
X122107093Y-105220210D01*
X122105110Y-105242245D01*
X122102936Y-105258010D01*
X122100563Y-105268620D01*
X122098391Y-105274404D01*
X122094056Y-105284684D01*
X122090859Y-105294122D01*
X122087665Y-105302755D01*
X122083338Y-105310619D01*
X122076744Y-105317748D01*
X122066747Y-105324179D01*
X122052212Y-105329947D01*
X122032003Y-105335089D01*
X122004985Y-105339640D01*
X121970023Y-105343635D01*
X121925981Y-105347111D01*
X121871724Y-105350102D01*
X121806117Y-105352646D01*
X121728024Y-105354777D01*
X121636310Y-105356532D01*
X121529840Y-105357945D01*
X121488973Y-105358315D01*
X121407479Y-105359054D01*
G37*
X121407479Y-105359054D02*
X121268090Y-105359893D01*
X121110539Y-105360498D01*
X120933691Y-105360905D01*
X120736410Y-105361150D01*
X120517560Y-105361267D01*
X120276007Y-105361295D01*
X120010615Y-105361267D01*
X119720249Y-105361220D01*
X119403773Y-105361190D01*
X119340946Y-105361189D01*
X119021137Y-105361172D01*
X118727661Y-105361112D01*
X118459390Y-105361002D01*
X118215198Y-105360833D01*
X117993957Y-105360597D01*
X117794540Y-105360284D01*
X117615820Y-105359885D01*
X117456671Y-105359393D01*
X117315966Y-105358797D01*
X117192576Y-105358090D01*
X117085376Y-105357263D01*
X116993238Y-105356307D01*
X116915035Y-105355213D01*
X116849641Y-105353973D01*
X116795928Y-105352578D01*
X116752769Y-105351018D01*
X116719037Y-105349286D01*
X116693605Y-105347372D01*
X116675347Y-105345268D01*
X116663134Y-105342966D01*
X116655841Y-105340455D01*
X116655659Y-105340363D01*
X116644518Y-105335192D01*
X116634431Y-105330885D01*
X116625346Y-105326121D01*
X116617212Y-105319578D01*
X116609976Y-105309935D01*
X116603586Y-105295871D01*
X116597989Y-105276063D01*
X116593133Y-105249191D01*
X116588966Y-105213933D01*
X116585436Y-105168968D01*
X116582491Y-105112974D01*
X116580077Y-105044629D01*
X116578144Y-104962614D01*
X116576638Y-104865605D01*
X116575508Y-104752282D01*
X116574702Y-104621323D01*
X116574166Y-104471407D01*
X116573917Y-104337914D01*
X117315135Y-104337914D01*
X117315269Y-104493969D01*
X117315703Y-104624467D01*
X117316489Y-104731310D01*
X117317676Y-104816398D01*
X117319317Y-104881635D01*
X117321461Y-104928921D01*
X117324159Y-104960157D01*
X117327462Y-104977246D01*
X117331421Y-104982088D01*
X117332298Y-104981753D01*
X117353231Y-104967885D01*
X117386412Y-104944732D01*
X117403193Y-104932754D01*
X117419940Y-104920369D01*
X117434915Y-104909237D01*
X117449594Y-104899288D01*
X117465449Y-104890451D01*
X117483955Y-104882657D01*
X117506585Y-104875835D01*
X117534813Y-104869916D01*
X117570113Y-104864829D01*
X117613958Y-104860504D01*
X117667822Y-104856871D01*
X117733180Y-104853860D01*
X117811504Y-104851401D01*
X117904268Y-104849423D01*
X118012947Y-104847858D01*
X118139013Y-104846634D01*
X118283942Y-104845681D01*
X118449206Y-104844930D01*
X118636279Y-104844311D01*
X118846635Y-104843752D01*
X119081748Y-104843185D01*
X119297741Y-104842655D01*
X119538535Y-104842155D01*
X119768274Y-104841895D01*
X119985493Y-104841868D01*
X120188722Y-104842067D01*
X120376496Y-104842486D01*
X120547345Y-104843118D01*
X120699803Y-104843956D01*
X120832403Y-104844992D01*
X120943676Y-104846220D01*
X121032156Y-104847633D01*
X121096375Y-104849225D01*
X121134865Y-104850987D01*
X121138933Y-104851321D01*
X121232248Y-104863466D01*
X121307190Y-104882427D01*
X121372594Y-104911302D01*
X121437293Y-104953190D01*
X121444352Y-104958429D01*
X121488973Y-104991884D01*
X121488973Y-103696734D01*
X121451217Y-103721655D01*
X121412417Y-103746447D01*
X121375469Y-103767440D01*
X121337788Y-103784935D01*
X121296788Y-103799230D01*
X121249883Y-103810623D01*
X121194487Y-103819413D01*
X121128016Y-103825898D01*
X121047883Y-103830377D01*
X120951502Y-103833150D01*
X120836289Y-103834513D01*
X120699657Y-103834767D01*
X120539020Y-103834209D01*
X120479382Y-103833893D01*
X119840041Y-103830325D01*
X120391449Y-103425298D01*
X120547876Y-103310554D01*
X120684088Y-103211143D01*
X120801890Y-103125990D01*
X120903084Y-103054022D01*
X120989477Y-102994166D01*
X121062874Y-102945348D01*
X121125077Y-102906495D01*
X121177893Y-102876534D01*
X121223125Y-102854391D01*
X121262578Y-102838993D01*
X121298058Y-102829266D01*
X121331368Y-102824137D01*
X121364313Y-102822532D01*
X121398697Y-102823379D01*
X121403019Y-102823595D01*
X121489031Y-102828054D01*
X121488973Y-101408692D01*
X121382522Y-101514265D01*
X121353406Y-101542913D01*
X121325076Y-101570090D01*
X121295968Y-101596989D01*
X121264520Y-101624803D01*
X121229169Y-101654725D01*
X121188354Y-101687946D01*
X121140511Y-101725661D01*
X121084079Y-101769060D01*
X121017494Y-101819338D01*
X120939195Y-101877688D01*
X120847619Y-101945300D01*
X120741204Y-102023369D01*
X120618387Y-102113088D01*
X120477605Y-102215648D01*
X120317297Y-102332242D01*
X120185798Y-102427809D01*
X120020596Y-102547749D01*
X119876152Y-102652380D01*
X119751094Y-102742648D01*
X119644052Y-102819503D01*
X119553654Y-102883891D01*
X119478529Y-102936761D01*
X119417304Y-102979060D01*
X119368610Y-103011736D01*
X119331074Y-103035738D01*
X119303325Y-103052013D01*
X119283992Y-103061508D01*
X119271703Y-103065173D01*
X119265242Y-103064071D01*
X119248048Y-103050724D01*
X119211655Y-103021866D01*
X119158224Y-102979240D01*
X119089919Y-102924585D01*
X119008903Y-102859644D01*
X118917340Y-102786158D01*
X118817392Y-102705868D01*
X118711224Y-102620515D01*
X118600997Y-102531840D01*
X118488876Y-102441586D01*
X118427244Y-102391944D01*
X118377024Y-102351493D01*
X118267604Y-102263302D01*
X118162778Y-102178754D01*
X118064711Y-102099592D01*
X117975566Y-102027556D01*
X117897505Y-101964387D01*
X117832692Y-101911827D01*
X117783290Y-101871617D01*
X117754487Y-101848000D01*
X117646778Y-101756290D01*
X117549580Y-101668060D01*
X117466076Y-101586403D01*
X117399448Y-101514410D01*
X117358599Y-101463319D01*
X117315135Y-101402907D01*
X117315135Y-102792298D01*
X117396666Y-102791908D01*
X117456606Y-102795791D01*
X117512177Y-102810390D01*
X117564855Y-102832988D01*
X117594615Y-102847678D01*
X117624103Y-102863472D01*
X117655276Y-102881814D01*
X117690093Y-102904145D01*
X117730510Y-102931909D01*
X117778486Y-102966549D01*
X117835978Y-103009507D01*
X117904943Y-103062227D01*
X117987339Y-103126151D01*
X118085124Y-103202721D01*
X118200255Y-103293381D01*
X118334690Y-103399574D01*
X118349859Y-103411568D01*
X118879412Y-103830325D01*
X118292922Y-103834378D01*
X118117251Y-103835195D01*
X117968532Y-103835021D01*
X117846275Y-103833849D01*
X117749989Y-103831669D01*
X117679183Y-103828474D01*
X117633369Y-103824256D01*
X117624679Y-103822838D01*
X117533135Y-103800591D01*
X117450608Y-103771443D01*
X117384253Y-103738182D01*
X117356110Y-103718200D01*
X117315135Y-103683722D01*
X117315135Y-104337914D01*
X116573917Y-104337914D01*
X116573849Y-104301213D01*
X116573699Y-104109418D01*
X116573663Y-103894702D01*
X116573689Y-103655743D01*
X116573725Y-103391220D01*
X116573730Y-103268088D01*
X116573730Y-101297189D01*
X116689910Y-101297189D01*
X116831291Y-101284789D01*
X116961684Y-101247364D01*
X117081862Y-101184577D01*
X117113406Y-101159373D01*
X118427244Y-101159373D01*
X118519919Y-101108146D01*
X118612595Y-101056919D01*
X121303622Y-101056919D01*
X121396298Y-101108146D01*
X121488973Y-101159373D01*
X121488973Y-100553396D01*
X121488931Y-100408734D01*
X121488741Y-100289244D01*
X121488308Y-100192642D01*
X121487536Y-100116642D01*
X121486330Y-100058957D01*
X121484594Y-100017301D01*
X121482232Y-99989389D01*
X121479150Y-99972935D01*
X121475251Y-99965652D01*
X121470440Y-99965255D01*
X121464622Y-99969458D01*
X121464574Y-99969501D01*
X121439532Y-99986813D01*
X121398815Y-100009736D01*
X121358168Y-100029981D01*
X121276162Y-100068379D01*
X118427244Y-100076211D01*
X118427244Y-101159373D01*
X117113406Y-101159373D01*
X117192602Y-101096094D01*
X117222511Y-101066157D01*
X117307348Y-100958466D01*
X117369221Y-100839725D01*
X117408159Y-100713460D01*
X117424190Y-100583197D01*
X117417342Y-100452465D01*
X117387643Y-100324788D01*
X117335120Y-100203695D01*
X117259803Y-100092712D01*
X117214363Y-100042868D01*
X117102952Y-99949983D01*
X116980435Y-99881873D01*
X116848215Y-99839129D01*
X116707692Y-99822347D01*
X116693867Y-99822124D01*
X116573734Y-99821244D01*
X116573732Y-99768443D01*
X116580089Y-99721604D01*
X116595556Y-99678817D01*
X116597154Y-99675989D01*
X116602168Y-99666325D01*
X116606073Y-99657451D01*
X116610007Y-99649335D01*
X116615106Y-99641943D01*
X116622508Y-99635245D01*
X116633351Y-99629208D01*
X116648772Y-99623801D01*
X116669909Y-99618990D01*
X116697899Y-99614745D01*
X116733879Y-99611032D01*
X116778987Y-99607821D01*
X116834360Y-99605078D01*
X116901137Y-99602772D01*
X116980453Y-99600871D01*
X117073447Y-99599342D01*
X117181257Y-99598154D01*
X117305019Y-99597274D01*
X117445871Y-99596670D01*
X117604950Y-99596311D01*
X117783395Y-99596165D01*
X117982342Y-99596198D01*
X118202929Y-99596380D01*
X118446293Y-99596677D01*
X118713572Y-99597059D01*
X119005903Y-99597492D01*
X119324424Y-99597945D01*
X119363230Y-99597998D01*
X119683782Y-99598404D01*
X119978012Y-99598749D01*
X120247056Y-99599069D01*
X120492052Y-99599400D01*
X120714137Y-99599779D01*
X120914447Y-99600243D01*
X121094119Y-99600828D01*
X121254290Y-99601570D01*
X121396098Y-99602506D01*
X121520679Y-99603673D01*
X121629170Y-99605107D01*
X121722707Y-99606844D01*
X121802429Y-99608922D01*
X121869472Y-99611376D01*
X121924973Y-99614244D01*
X121970068Y-99617561D01*
X122005895Y-99621364D01*
X122033591Y-99625690D01*
X122054293Y-99630575D01*
X122069137Y-99636055D01*
X122079260Y-99642168D01*
X122085800Y-99648950D01*
X122089893Y-99656437D01*
X122092676Y-99664666D01*
X122095287Y-99673673D01*
X122098862Y-99683495D01*
X122099950Y-99685894D01*
X122102396Y-99693435D01*
X122104642Y-99706056D01*
X122106698Y-99724859D01*
X122108572Y-99750947D01*
X122110271Y-99785422D01*
X122111803Y-99829385D01*
X122113177Y-99883939D01*
X122114400Y-99950185D01*
X122115481Y-100029226D01*
X122116427Y-100122163D01*
X122117247Y-100230099D01*
X122117947Y-100354136D01*
X122118538Y-100495376D01*
X122119025Y-100654921D01*
X122119419Y-100833872D01*
X122119725Y-101033332D01*
X122119953Y-101254404D01*
X122120110Y-101498188D01*
X122120205Y-101765787D01*
X122120245Y-102058303D01*
X122120238Y-102376839D01*
X122120228Y-102480021D01*
X122120176Y-102805623D01*
X122120091Y-103104881D01*
X122119963Y-103378909D01*
X122119785Y-103628824D01*
X122119548Y-103855740D01*
X122119242Y-104060773D01*
X122118860Y-104245038D01*
X122118392Y-104409650D01*
X122117830Y-104555725D01*
X122117165Y-104684376D01*
X122116388Y-104796721D01*
X122115491Y-104893874D01*
X122114465Y-104976950D01*
X122113301Y-105047064D01*
X122111991Y-105105332D01*
X122110525Y-105152869D01*
X122108896Y-105190790D01*
X122107093Y-105220210D01*
X122105110Y-105242245D01*
X122102936Y-105258010D01*
X122100563Y-105268620D01*
X122098391Y-105274404D01*
X122094056Y-105284684D01*
X122090859Y-105294122D01*
X122087665Y-105302755D01*
X122083338Y-105310619D01*
X122076744Y-105317748D01*
X122066747Y-105324179D01*
X122052212Y-105329947D01*
X122032003Y-105335089D01*
X122004985Y-105339640D01*
X121970023Y-105343635D01*
X121925981Y-105347111D01*
X121871724Y-105350102D01*
X121806117Y-105352646D01*
X121728024Y-105354777D01*
X121636310Y-105356532D01*
X121529840Y-105357945D01*
X121488973Y-105358315D01*
X121407479Y-105359054D01*
G36*
X122811247Y-103959290D02*
G01*
X122777970Y-103951122D01*
X122755951Y-103937848D01*
X122742931Y-103918266D01*
X122736649Y-103891175D01*
X122734845Y-103855374D01*
X122735258Y-103809663D01*
X122735659Y-103770181D01*
X122736340Y-103741959D01*
X122882000Y-103741959D01*
X122882014Y-103818159D01*
X123322281Y-103818159D01*
X123322196Y-103725026D01*
X123320588Y-103668985D01*
X123316448Y-103610291D01*
X123310656Y-103561320D01*
X123310418Y-103559830D01*
X123291282Y-103480684D01*
X123261479Y-103419294D01*
X123219070Y-103372597D01*
X123173153Y-103342927D01*
X123122218Y-103324645D01*
X123074392Y-103326063D01*
X123023125Y-103347280D01*
X122970091Y-103388781D01*
X122930792Y-103446290D01*
X122904523Y-103521042D01*
X122895227Y-103571000D01*
X122888699Y-103627708D01*
X122883974Y-103687811D01*
X122882009Y-103738931D01*
X122882000Y-103741959D01*
X122736340Y-103741959D01*
X122738451Y-103654492D01*
X122746742Y-103557603D01*
X122761424Y-103476211D01*
X122783385Y-103407015D01*
X122813514Y-103346712D01*
X122852702Y-103292000D01*
X122869724Y-103272459D01*
X122909555Y-103240042D01*
X122963605Y-103210812D01*
X123023515Y-103188283D01*
X123080931Y-103175971D01*
X123102148Y-103174692D01*
X123160961Y-103182709D01*
X123225205Y-103204191D01*
X123286013Y-103235291D01*
X123334522Y-103272158D01*
X123340374Y-103278146D01*
X123381513Y-103328871D01*
X123413627Y-103384417D01*
X123437557Y-103447988D01*
X123454145Y-103522786D01*
X123464233Y-103612014D01*
X123468661Y-103718874D01*
X123469037Y-103767820D01*
X123468737Y-103830054D01*
X123467484Y-103873820D01*
X123464746Y-103903223D01*
X123459993Y-103922371D01*
X123452693Y-103935369D01*
X123446459Y-103942337D01*
X123438886Y-103948918D01*
X123429116Y-103954080D01*
X123414532Y-103957995D01*
X123392518Y-103960835D01*
X123360456Y-103962772D01*
X123315728Y-103963976D01*
X123255718Y-103964620D01*
X123177809Y-103964875D01*
X123102148Y-103964914D01*
X123001233Y-103965162D01*
X122920619Y-103965109D01*
X122882014Y-103964149D01*
X122858043Y-103963552D01*
X122811247Y-103959290D01*
G37*
X122811247Y-103959290D02*
X122777970Y-103951122D01*
X122755951Y-103937848D01*
X122742931Y-103918266D01*
X122736649Y-103891175D01*
X122734845Y-103855374D01*
X122735258Y-103809663D01*
X122735659Y-103770181D01*
X122736340Y-103741959D01*
X122882000Y-103741959D01*
X122882014Y-103818159D01*
X123322281Y-103818159D01*
X123322196Y-103725026D01*
X123320588Y-103668985D01*
X123316448Y-103610291D01*
X123310656Y-103561320D01*
X123310418Y-103559830D01*
X123291282Y-103480684D01*
X123261479Y-103419294D01*
X123219070Y-103372597D01*
X123173153Y-103342927D01*
X123122218Y-103324645D01*
X123074392Y-103326063D01*
X123023125Y-103347280D01*
X122970091Y-103388781D01*
X122930792Y-103446290D01*
X122904523Y-103521042D01*
X122895227Y-103571000D01*
X122888699Y-103627708D01*
X122883974Y-103687811D01*
X122882009Y-103738931D01*
X122882000Y-103741959D01*
X122736340Y-103741959D01*
X122738451Y-103654492D01*
X122746742Y-103557603D01*
X122761424Y-103476211D01*
X122783385Y-103407015D01*
X122813514Y-103346712D01*
X122852702Y-103292000D01*
X122869724Y-103272459D01*
X122909555Y-103240042D01*
X122963605Y-103210812D01*
X123023515Y-103188283D01*
X123080931Y-103175971D01*
X123102148Y-103174692D01*
X123160961Y-103182709D01*
X123225205Y-103204191D01*
X123286013Y-103235291D01*
X123334522Y-103272158D01*
X123340374Y-103278146D01*
X123381513Y-103328871D01*
X123413627Y-103384417D01*
X123437557Y-103447988D01*
X123454145Y-103522786D01*
X123464233Y-103612014D01*
X123468661Y-103718874D01*
X123469037Y-103767820D01*
X123468737Y-103830054D01*
X123467484Y-103873820D01*
X123464746Y-103903223D01*
X123459993Y-103922371D01*
X123452693Y-103935369D01*
X123446459Y-103942337D01*
X123438886Y-103948918D01*
X123429116Y-103954080D01*
X123414532Y-103957995D01*
X123392518Y-103960835D01*
X123360456Y-103962772D01*
X123315728Y-103963976D01*
X123255718Y-103964620D01*
X123177809Y-103964875D01*
X123102148Y-103964914D01*
X123001233Y-103965162D01*
X122920619Y-103965109D01*
X122882014Y-103964149D01*
X122858043Y-103963552D01*
X122811247Y-103959290D01*
G36*
X123293904Y-101077868D02*
G01*
X123323451Y-101089494D01*
X123349678Y-101109615D01*
X123389768Y-101150508D01*
X123420341Y-101196109D01*
X123442395Y-101249805D01*
X123456927Y-101314984D01*
X123464933Y-101395036D01*
X123467410Y-101493349D01*
X123467369Y-101509581D01*
X123466010Y-101575141D01*
X123462922Y-101640158D01*
X123458548Y-101697544D01*
X123453332Y-101740214D01*
X123452733Y-101743664D01*
X123442683Y-101786088D01*
X123429988Y-101822072D01*
X123418382Y-101842442D01*
X123387764Y-101861399D01*
X123352110Y-101862719D01*
X123320336Y-101846377D01*
X123316743Y-101842721D01*
X123306068Y-101827607D01*
X123301468Y-101808707D01*
X123302251Y-101779454D01*
X123306319Y-101743943D01*
X123309954Y-101704262D01*
X123313020Y-101648637D01*
X123315245Y-101583698D01*
X123316356Y-101516077D01*
X123316429Y-101498292D01*
X123316156Y-101430420D01*
X123314838Y-101380746D01*
X123312019Y-101344902D01*
X123307242Y-101318516D01*
X123300049Y-101297218D01*
X123294059Y-101284418D01*
X123277425Y-101256292D01*
X123262360Y-101238360D01*
X123258089Y-101235739D01*
X123240455Y-101241268D01*
X123223384Y-101267552D01*
X123207650Y-101312770D01*
X123194030Y-101375100D01*
X123190996Y-101393463D01*
X123175930Y-101489382D01*
X123163338Y-101565933D01*
X123152303Y-101626072D01*
X123141912Y-101672752D01*
X123131248Y-101708929D01*
X123119397Y-101737557D01*
X123105443Y-101761590D01*
X123088473Y-101783984D01*
X123067570Y-101807694D01*
X123060241Y-101815672D01*
X123032891Y-101843645D01*
X123011221Y-101858452D01*
X122986424Y-101864244D01*
X122955175Y-101865181D01*
X122893897Y-101854867D01*
X122841832Y-101824044D01*
X122799150Y-101772887D01*
X122766017Y-101701575D01*
X122751156Y-101650692D01*
X122741558Y-101595392D01*
X122736128Y-101529145D01*
X122734559Y-101455998D01*
X122736543Y-101379995D01*
X122741773Y-101305180D01*
X122749942Y-101235598D01*
X122760742Y-101175294D01*
X122773865Y-101128312D01*
X122789005Y-101098698D01*
X122793461Y-101094152D01*
X122828042Y-101078346D01*
X122863543Y-101083139D01*
X122893917Y-101107656D01*
X122894788Y-101108826D01*
X122904146Y-101123246D01*
X122909068Y-101138300D01*
X122909665Y-101159297D01*
X122906053Y-101191549D01*
X122898346Y-101240365D01*
X122897697Y-101244292D01*
X122888761Y-101317031D01*
X122884353Y-101395509D01*
X122884311Y-101474219D01*
X122888471Y-101547653D01*
X122896671Y-101610303D01*
X122908749Y-101656662D01*
X122909963Y-101659708D01*
X122928807Y-101693340D01*
X122947877Y-101705156D01*
X122966631Y-101695906D01*
X122984529Y-101666339D01*
X123001029Y-101617203D01*
X123015588Y-101549249D01*
X123022598Y-101503937D01*
X123036081Y-101409748D01*
X123048406Y-101334836D01*
X123060641Y-101276009D01*
X123073853Y-101230077D01*
X123089109Y-101193847D01*
X123107477Y-101164130D01*
X123130023Y-101137734D01*
X123152163Y-101116522D01*
X123183011Y-101091357D01*
X123209537Y-101078973D01*
X123242218Y-101075100D01*
X123254187Y-101074959D01*
X123293904Y-101077868D01*
G37*
X123293904Y-101077868D02*
X123323451Y-101089494D01*
X123349678Y-101109615D01*
X123389768Y-101150508D01*
X123420341Y-101196109D01*
X123442395Y-101249805D01*
X123456927Y-101314984D01*
X123464933Y-101395036D01*
X123467410Y-101493349D01*
X123467369Y-101509581D01*
X123466010Y-101575141D01*
X123462922Y-101640158D01*
X123458548Y-101697544D01*
X123453332Y-101740214D01*
X123452733Y-101743664D01*
X123442683Y-101786088D01*
X123429988Y-101822072D01*
X123418382Y-101842442D01*
X123387764Y-101861399D01*
X123352110Y-101862719D01*
X123320336Y-101846377D01*
X123316743Y-101842721D01*
X123306068Y-101827607D01*
X123301468Y-101808707D01*
X123302251Y-101779454D01*
X123306319Y-101743943D01*
X123309954Y-101704262D01*
X123313020Y-101648637D01*
X123315245Y-101583698D01*
X123316356Y-101516077D01*
X123316429Y-101498292D01*
X123316156Y-101430420D01*
X123314838Y-101380746D01*
X123312019Y-101344902D01*
X123307242Y-101318516D01*
X123300049Y-101297218D01*
X123294059Y-101284418D01*
X123277425Y-101256292D01*
X123262360Y-101238360D01*
X123258089Y-101235739D01*
X123240455Y-101241268D01*
X123223384Y-101267552D01*
X123207650Y-101312770D01*
X123194030Y-101375100D01*
X123190996Y-101393463D01*
X123175930Y-101489382D01*
X123163338Y-101565933D01*
X123152303Y-101626072D01*
X123141912Y-101672752D01*
X123131248Y-101708929D01*
X123119397Y-101737557D01*
X123105443Y-101761590D01*
X123088473Y-101783984D01*
X123067570Y-101807694D01*
X123060241Y-101815672D01*
X123032891Y-101843645D01*
X123011221Y-101858452D01*
X122986424Y-101864244D01*
X122955175Y-101865181D01*
X122893897Y-101854867D01*
X122841832Y-101824044D01*
X122799150Y-101772887D01*
X122766017Y-101701575D01*
X122751156Y-101650692D01*
X122741558Y-101595392D01*
X122736128Y-101529145D01*
X122734559Y-101455998D01*
X122736543Y-101379995D01*
X122741773Y-101305180D01*
X122749942Y-101235598D01*
X122760742Y-101175294D01*
X122773865Y-101128312D01*
X122789005Y-101098698D01*
X122793461Y-101094152D01*
X122828042Y-101078346D01*
X122863543Y-101083139D01*
X122893917Y-101107656D01*
X122894788Y-101108826D01*
X122904146Y-101123246D01*
X122909068Y-101138300D01*
X122909665Y-101159297D01*
X122906053Y-101191549D01*
X122898346Y-101240365D01*
X122897697Y-101244292D01*
X122888761Y-101317031D01*
X122884353Y-101395509D01*
X122884311Y-101474219D01*
X122888471Y-101547653D01*
X122896671Y-101610303D01*
X122908749Y-101656662D01*
X122909963Y-101659708D01*
X122928807Y-101693340D01*
X122947877Y-101705156D01*
X122966631Y-101695906D01*
X122984529Y-101666339D01*
X123001029Y-101617203D01*
X123015588Y-101549249D01*
X123022598Y-101503937D01*
X123036081Y-101409748D01*
X123048406Y-101334836D01*
X123060641Y-101276009D01*
X123073853Y-101230077D01*
X123089109Y-101193847D01*
X123107477Y-101164130D01*
X123130023Y-101137734D01*
X123152163Y-101116522D01*
X123183011Y-101091357D01*
X123209537Y-101078973D01*
X123242218Y-101075100D01*
X123254187Y-101074959D01*
X123293904Y-101077868D01*
G36*
X123195994Y-100589606D02*
G01*
X123269881Y-100589930D01*
X123326424Y-100590678D01*
X123368241Y-100592024D01*
X123397949Y-100594138D01*
X123418165Y-100597192D01*
X123431506Y-100601358D01*
X123440590Y-100606808D01*
X123446459Y-100612114D01*
X123466139Y-100645118D01*
X123464373Y-100680283D01*
X123442909Y-100711747D01*
X123434529Y-100718976D01*
X123424806Y-100724626D01*
X123411053Y-100728891D01*
X123390581Y-100731965D01*
X123360704Y-100734044D01*
X123318733Y-100735322D01*
X123261981Y-100735993D01*
X123187759Y-100736251D01*
X123103729Y-100736292D01*
X122790677Y-100736292D01*
X122762968Y-100708583D01*
X122739655Y-100674429D01*
X122738815Y-100641298D01*
X122757837Y-100612114D01*
X122765410Y-100605534D01*
X122775179Y-100600371D01*
X122789763Y-100596456D01*
X122811777Y-100593616D01*
X122843840Y-100591679D01*
X122888567Y-100590475D01*
X122948577Y-100589831D01*
X123026486Y-100589576D01*
X123102148Y-100589537D01*
X123195994Y-100589606D01*
G37*
X123195994Y-100589606D02*
X123269881Y-100589930D01*
X123326424Y-100590678D01*
X123368241Y-100592024D01*
X123397949Y-100594138D01*
X123418165Y-100597192D01*
X123431506Y-100601358D01*
X123440590Y-100606808D01*
X123446459Y-100612114D01*
X123466139Y-100645118D01*
X123464373Y-100680283D01*
X123442909Y-100711747D01*
X123434529Y-100718976D01*
X123424806Y-100724626D01*
X123411053Y-100728891D01*
X123390581Y-100731965D01*
X123360704Y-100734044D01*
X123318733Y-100735322D01*
X123261981Y-100735993D01*
X123187759Y-100736251D01*
X123103729Y-100736292D01*
X122790677Y-100736292D01*
X122762968Y-100708583D01*
X122739655Y-100674429D01*
X122738815Y-100641298D01*
X122757837Y-100612114D01*
X122765410Y-100605534D01*
X122775179Y-100600371D01*
X122789763Y-100596456D01*
X122811777Y-100593616D01*
X122843840Y-100591679D01*
X122888567Y-100590475D01*
X122948577Y-100589831D01*
X123026486Y-100589576D01*
X123102148Y-100589537D01*
X123195994Y-100589606D01*
G36*
X119746053Y-93030353D02*
G01*
X119542192Y-93007080D01*
X119357513Y-92971496D01*
X119189048Y-92922987D01*
X119033826Y-92860940D01*
X118987808Y-92838799D01*
X118837739Y-92749615D01*
X118704377Y-92641841D01*
X118589877Y-92518010D01*
X118496389Y-92380658D01*
X118426068Y-92232317D01*
X118397060Y-92143396D01*
X118379840Y-92056067D01*
X118369594Y-91950989D01*
X118366318Y-91836971D01*
X118370009Y-91722823D01*
X118380660Y-91617352D01*
X118396235Y-91538419D01*
X119080795Y-91538419D01*
X119091807Y-91638776D01*
X119123181Y-91729613D01*
X119174740Y-91806993D01*
X119199488Y-91831961D01*
X119280577Y-91892144D01*
X119378734Y-91940855D01*
X119495643Y-91978501D01*
X119632985Y-92005488D01*
X119792444Y-92022225D01*
X119975700Y-92029117D01*
X120015252Y-92029350D01*
X120189222Y-92024556D01*
X120338895Y-92009432D01*
X120465597Y-91983515D01*
X120570658Y-91946337D01*
X120655406Y-91897435D01*
X120721169Y-91836342D01*
X120767659Y-91765823D01*
X120785014Y-91729129D01*
X120795419Y-91697304D01*
X120800179Y-91661823D01*
X120800601Y-91614159D01*
X120798748Y-91562811D01*
X120789841Y-91461831D01*
X120772398Y-91381965D01*
X120763661Y-91356865D01*
X120737857Y-91299552D01*
X120705453Y-91239103D01*
X120689233Y-91212703D01*
X120644205Y-91144054D01*
X119216982Y-91144054D01*
X119171718Y-91219568D01*
X119120572Y-91324879D01*
X119090324Y-91432475D01*
X119080795Y-91538419D01*
X118396235Y-91538419D01*
X118397370Y-91532666D01*
X118430140Y-91431872D01*
X118472279Y-91334178D01*
X118519519Y-91248704D01*
X118551581Y-91203211D01*
X118575422Y-91171831D01*
X118589939Y-91149858D01*
X118592000Y-91144859D01*
X118578718Y-91143310D01*
X118540663Y-91141865D01*
X118480519Y-91140557D01*
X118400973Y-91139417D01*
X118304711Y-91138479D01*
X118194419Y-91137774D01*
X118072781Y-91137333D01*
X117948885Y-91137189D01*
X117790196Y-91137270D01*
X117656408Y-91137665D01*
X117544960Y-91138605D01*
X117453295Y-91140320D01*
X117378853Y-91143043D01*
X117319075Y-91147003D01*
X117271402Y-91152431D01*
X117233274Y-91159559D01*
X117202134Y-91168616D01*
X117175421Y-91179833D01*
X117150577Y-91193442D01*
X117125043Y-91209672D01*
X117121881Y-91211760D01*
X117088810Y-91232694D01*
X117066069Y-91245333D01*
X117061272Y-91247027D01*
X117059759Y-91233784D01*
X117058528Y-91195998D01*
X117057599Y-91136584D01*
X117056992Y-91058458D01*
X117056727Y-90964535D01*
X117056825Y-90857730D01*
X117057304Y-90740959D01*
X117057545Y-90701271D01*
X117061135Y-90155514D01*
X119154919Y-90148649D01*
X119438842Y-90147742D01*
X119696640Y-90146938D01*
X119929646Y-90146185D01*
X120139194Y-90145431D01*
X120326618Y-90144625D01*
X120493250Y-90143715D01*
X120640425Y-90142649D01*
X120769477Y-90141376D01*
X120881739Y-90139844D01*
X120978544Y-90138002D01*
X121061226Y-90135797D01*
X121131119Y-90133178D01*
X121189557Y-90130094D01*
X121237872Y-90126492D01*
X121277400Y-90122322D01*
X121309473Y-90117531D01*
X121335424Y-90112069D01*
X121356589Y-90105882D01*
X121374299Y-90098920D01*
X121389889Y-90091131D01*
X121404693Y-90082463D01*
X121420044Y-90072865D01*
X121437276Y-90062285D01*
X121440946Y-90060116D01*
X121503031Y-90023732D01*
X121499434Y-90549569D01*
X121495838Y-91075406D01*
X121380331Y-91082271D01*
X121324899Y-91086008D01*
X121292851Y-91089903D01*
X121280135Y-91095189D01*
X121282696Y-91103097D01*
X121290024Y-91109730D01*
X121316714Y-91138626D01*
X121351021Y-91185721D01*
X121388846Y-91244380D01*
X121426090Y-91307969D01*
X121458653Y-91369851D01*
X121480077Y-91417366D01*
X121515283Y-91528684D01*
X121540222Y-91656404D01*
X121553941Y-91791099D01*
X121555486Y-91923337D01*
X121543906Y-92043692D01*
X121543574Y-92045674D01*
X121502250Y-92210359D01*
X121436412Y-92364521D01*
X121347474Y-92506672D01*
X121236852Y-92635325D01*
X121105961Y-92748993D01*
X120956216Y-92846190D01*
X120789033Y-92925428D01*
X120665190Y-92968570D01*
X120561581Y-92997021D01*
X120461252Y-93018120D01*
X120358109Y-93032512D01*
X120246057Y-93040842D01*
X120119001Y-93043755D01*
X120015252Y-93042465D01*
X119972067Y-93041927D01*
X119746053Y-93030353D01*
G37*
X119746053Y-93030353D02*
X119542192Y-93007080D01*
X119357513Y-92971496D01*
X119189048Y-92922987D01*
X119033826Y-92860940D01*
X118987808Y-92838799D01*
X118837739Y-92749615D01*
X118704377Y-92641841D01*
X118589877Y-92518010D01*
X118496389Y-92380658D01*
X118426068Y-92232317D01*
X118397060Y-92143396D01*
X118379840Y-92056067D01*
X118369594Y-91950989D01*
X118366318Y-91836971D01*
X118370009Y-91722823D01*
X118380660Y-91617352D01*
X118396235Y-91538419D01*
X119080795Y-91538419D01*
X119091807Y-91638776D01*
X119123181Y-91729613D01*
X119174740Y-91806993D01*
X119199488Y-91831961D01*
X119280577Y-91892144D01*
X119378734Y-91940855D01*
X119495643Y-91978501D01*
X119632985Y-92005488D01*
X119792444Y-92022225D01*
X119975700Y-92029117D01*
X120015252Y-92029350D01*
X120189222Y-92024556D01*
X120338895Y-92009432D01*
X120465597Y-91983515D01*
X120570658Y-91946337D01*
X120655406Y-91897435D01*
X120721169Y-91836342D01*
X120767659Y-91765823D01*
X120785014Y-91729129D01*
X120795419Y-91697304D01*
X120800179Y-91661823D01*
X120800601Y-91614159D01*
X120798748Y-91562811D01*
X120789841Y-91461831D01*
X120772398Y-91381965D01*
X120763661Y-91356865D01*
X120737857Y-91299552D01*
X120705453Y-91239103D01*
X120689233Y-91212703D01*
X120644205Y-91144054D01*
X119216982Y-91144054D01*
X119171718Y-91219568D01*
X119120572Y-91324879D01*
X119090324Y-91432475D01*
X119080795Y-91538419D01*
X118396235Y-91538419D01*
X118397370Y-91532666D01*
X118430140Y-91431872D01*
X118472279Y-91334178D01*
X118519519Y-91248704D01*
X118551581Y-91203211D01*
X118575422Y-91171831D01*
X118589939Y-91149858D01*
X118592000Y-91144859D01*
X118578718Y-91143310D01*
X118540663Y-91141865D01*
X118480519Y-91140557D01*
X118400973Y-91139417D01*
X118304711Y-91138479D01*
X118194419Y-91137774D01*
X118072781Y-91137333D01*
X117948885Y-91137189D01*
X117790196Y-91137270D01*
X117656408Y-91137665D01*
X117544960Y-91138605D01*
X117453295Y-91140320D01*
X117378853Y-91143043D01*
X117319075Y-91147003D01*
X117271402Y-91152431D01*
X117233274Y-91159559D01*
X117202134Y-91168616D01*
X117175421Y-91179833D01*
X117150577Y-91193442D01*
X117125043Y-91209672D01*
X117121881Y-91211760D01*
X117088810Y-91232694D01*
X117066069Y-91245333D01*
X117061272Y-91247027D01*
X117059759Y-91233784D01*
X117058528Y-91195998D01*
X117057599Y-91136584D01*
X117056992Y-91058458D01*
X117056727Y-90964535D01*
X117056825Y-90857730D01*
X117057304Y-90740959D01*
X117057545Y-90701271D01*
X117061135Y-90155514D01*
X119154919Y-90148649D01*
X119438842Y-90147742D01*
X119696640Y-90146938D01*
X119929646Y-90146185D01*
X120139194Y-90145431D01*
X120326618Y-90144625D01*
X120493250Y-90143715D01*
X120640425Y-90142649D01*
X120769477Y-90141376D01*
X120881739Y-90139844D01*
X120978544Y-90138002D01*
X121061226Y-90135797D01*
X121131119Y-90133178D01*
X121189557Y-90130094D01*
X121237872Y-90126492D01*
X121277400Y-90122322D01*
X121309473Y-90117531D01*
X121335424Y-90112069D01*
X121356589Y-90105882D01*
X121374299Y-90098920D01*
X121389889Y-90091131D01*
X121404693Y-90082463D01*
X121420044Y-90072865D01*
X121437276Y-90062285D01*
X121440946Y-90060116D01*
X121503031Y-90023732D01*
X121499434Y-90549569D01*
X121495838Y-91075406D01*
X121380331Y-91082271D01*
X121324899Y-91086008D01*
X121292851Y-91089903D01*
X121280135Y-91095189D01*
X121282696Y-91103097D01*
X121290024Y-91109730D01*
X121316714Y-91138626D01*
X121351021Y-91185721D01*
X121388846Y-91244380D01*
X121426090Y-91307969D01*
X121458653Y-91369851D01*
X121480077Y-91417366D01*
X121515283Y-91528684D01*
X121540222Y-91656404D01*
X121553941Y-91791099D01*
X121555486Y-91923337D01*
X121543906Y-92043692D01*
X121543574Y-92045674D01*
X121502250Y-92210359D01*
X121436412Y-92364521D01*
X121347474Y-92506672D01*
X121236852Y-92635325D01*
X121105961Y-92748993D01*
X120956216Y-92846190D01*
X120789033Y-92925428D01*
X120665190Y-92968570D01*
X120561581Y-92997021D01*
X120461252Y-93018120D01*
X120358109Y-93032512D01*
X120246057Y-93040842D01*
X120119001Y-93043755D01*
X120015252Y-93042465D01*
X119972067Y-93041927D01*
X119746053Y-93030353D01*
G36*
X121306639Y-96422473D02*
G01*
X121356719Y-96524478D01*
X121396210Y-96607111D01*
X121427073Y-96675422D01*
X121451268Y-96734463D01*
X121470758Y-96789286D01*
X121487503Y-96844940D01*
X121503465Y-96906477D01*
X121517482Y-96965460D01*
X121528329Y-97017885D01*
X121536526Y-97072712D01*
X121542528Y-97135428D01*
X121546790Y-97211523D01*
X121549767Y-97306484D01*
X121551052Y-97370487D01*
X121551930Y-97461808D01*
X121551487Y-97549373D01*
X121549852Y-97627388D01*
X121547149Y-97690058D01*
X121543505Y-97731587D01*
X121543142Y-97734048D01*
X121496487Y-97949697D01*
X121425729Y-98152207D01*
X121330914Y-98341505D01*
X121212089Y-98517521D01*
X121069300Y-98680184D01*
X120902594Y-98829422D01*
X120754433Y-98937504D01*
X120560502Y-99052566D01*
X120355699Y-99145577D01*
X120138383Y-99216987D01*
X119906912Y-99267244D01*
X119659643Y-99296799D01*
X119408559Y-99306111D01*
X119165670Y-99298452D01*
X118941570Y-99274387D01*
X118732477Y-99233148D01*
X118534613Y-99173973D01*
X118344196Y-99096096D01*
X118324468Y-99086797D01*
X118140059Y-98984352D01*
X117964576Y-98858528D01*
X117801650Y-98712888D01*
X117654914Y-98550999D01*
X117528001Y-98376424D01*
X117434905Y-98213756D01*
X117361991Y-98049427D01*
X117309174Y-97884749D01*
X117275015Y-97713348D01*
X117258078Y-97528847D01*
X117255580Y-97418541D01*
X117260499Y-97260038D01*
X117276707Y-97111986D01*
X117305718Y-96968548D01*
X117349045Y-96823890D01*
X117408201Y-96672176D01*
X117484700Y-96507572D01*
X117499517Y-96477929D01*
X117533031Y-96409902D01*
X117563208Y-96345744D01*
X117587166Y-96291785D01*
X117602024Y-96254360D01*
X117603895Y-96248611D01*
X117620402Y-96193514D01*
X117979201Y-96440149D01*
X118066893Y-96500448D01*
X118147012Y-96555578D01*
X118216836Y-96603664D01*
X118273647Y-96642832D01*
X118314723Y-96671206D01*
X118337346Y-96686913D01*
X118340928Y-96689464D01*
X118333438Y-96699829D01*
X118310918Y-96725340D01*
X118277461Y-96761437D01*
X118258550Y-96781358D01*
X118168778Y-96894227D01*
X118100561Y-97020986D01*
X118063195Y-97130217D01*
X118051460Y-97195786D01*
X118044308Y-97277884D01*
X118041874Y-97366856D01*
X118044288Y-97453044D01*
X118051683Y-97526795D01*
X118057347Y-97556224D01*
X118102982Y-97688867D01*
X118172663Y-97808394D01*
X118266260Y-97914717D01*
X118383649Y-98007747D01*
X118524700Y-98087395D01*
X118689286Y-98153574D01*
X118877280Y-98206194D01*
X119038217Y-98237467D01*
X119109263Y-98245626D01*
X119201046Y-98251185D01*
X119306968Y-98254198D01*
X119420434Y-98254719D01*
X119534849Y-98252800D01*
X119643617Y-98248497D01*
X119740143Y-98241863D01*
X119817831Y-98232951D01*
X119829817Y-98231021D01*
X120022892Y-98188501D01*
X120193773Y-98130567D01*
X120343224Y-98056867D01*
X120472011Y-97967049D01*
X120541639Y-97903293D01*
X120636173Y-97788714D01*
X120706246Y-97663058D01*
X120751477Y-97528443D01*
X120771484Y-97386989D01*
X120765885Y-97240817D01*
X120734300Y-97092045D01*
X120703394Y-97004089D01*
X120641506Y-96882371D01*
X120552729Y-96756920D01*
X120492694Y-96686647D01*
X120457947Y-96647189D01*
X120432454Y-96616188D01*
X120420170Y-96598542D01*
X120419795Y-96596352D01*
X120432347Y-96588476D01*
X120465516Y-96568068D01*
X120516458Y-96536868D01*
X120582331Y-96496614D01*
X120660289Y-96449043D01*
X120747490Y-96395896D01*
X120796067Y-96366313D01*
X121167215Y-96140352D01*
X121306639Y-96422473D01*
G37*
X121306639Y-96422473D02*
X121356719Y-96524478D01*
X121396210Y-96607111D01*
X121427073Y-96675422D01*
X121451268Y-96734463D01*
X121470758Y-96789286D01*
X121487503Y-96844940D01*
X121503465Y-96906477D01*
X121517482Y-96965460D01*
X121528329Y-97017885D01*
X121536526Y-97072712D01*
X121542528Y-97135428D01*
X121546790Y-97211523D01*
X121549767Y-97306484D01*
X121551052Y-97370487D01*
X121551930Y-97461808D01*
X121551487Y-97549373D01*
X121549852Y-97627388D01*
X121547149Y-97690058D01*
X121543505Y-97731587D01*
X121543142Y-97734048D01*
X121496487Y-97949697D01*
X121425729Y-98152207D01*
X121330914Y-98341505D01*
X121212089Y-98517521D01*
X121069300Y-98680184D01*
X120902594Y-98829422D01*
X120754433Y-98937504D01*
X120560502Y-99052566D01*
X120355699Y-99145577D01*
X120138383Y-99216987D01*
X119906912Y-99267244D01*
X119659643Y-99296799D01*
X119408559Y-99306111D01*
X119165670Y-99298452D01*
X118941570Y-99274387D01*
X118732477Y-99233148D01*
X118534613Y-99173973D01*
X118344196Y-99096096D01*
X118324468Y-99086797D01*
X118140059Y-98984352D01*
X117964576Y-98858528D01*
X117801650Y-98712888D01*
X117654914Y-98550999D01*
X117528001Y-98376424D01*
X117434905Y-98213756D01*
X117361991Y-98049427D01*
X117309174Y-97884749D01*
X117275015Y-97713348D01*
X117258078Y-97528847D01*
X117255580Y-97418541D01*
X117260499Y-97260038D01*
X117276707Y-97111986D01*
X117305718Y-96968548D01*
X117349045Y-96823890D01*
X117408201Y-96672176D01*
X117484700Y-96507572D01*
X117499517Y-96477929D01*
X117533031Y-96409902D01*
X117563208Y-96345744D01*
X117587166Y-96291785D01*
X117602024Y-96254360D01*
X117603895Y-96248611D01*
X117620402Y-96193514D01*
X117979201Y-96440149D01*
X118066893Y-96500448D01*
X118147012Y-96555578D01*
X118216836Y-96603664D01*
X118273647Y-96642832D01*
X118314723Y-96671206D01*
X118337346Y-96686913D01*
X118340928Y-96689464D01*
X118333438Y-96699829D01*
X118310918Y-96725340D01*
X118277461Y-96761437D01*
X118258550Y-96781358D01*
X118168778Y-96894227D01*
X118100561Y-97020986D01*
X118063195Y-97130217D01*
X118051460Y-97195786D01*
X118044308Y-97277884D01*
X118041874Y-97366856D01*
X118044288Y-97453044D01*
X118051683Y-97526795D01*
X118057347Y-97556224D01*
X118102982Y-97688867D01*
X118172663Y-97808394D01*
X118266260Y-97914717D01*
X118383649Y-98007747D01*
X118524700Y-98087395D01*
X118689286Y-98153574D01*
X118877280Y-98206194D01*
X119038217Y-98237467D01*
X119109263Y-98245626D01*
X119201046Y-98251185D01*
X119306968Y-98254198D01*
X119420434Y-98254719D01*
X119534849Y-98252800D01*
X119643617Y-98248497D01*
X119740143Y-98241863D01*
X119817831Y-98232951D01*
X119829817Y-98231021D01*
X120022892Y-98188501D01*
X120193773Y-98130567D01*
X120343224Y-98056867D01*
X120472011Y-97967049D01*
X120541639Y-97903293D01*
X120636173Y-97788714D01*
X120706246Y-97663058D01*
X120751477Y-97528443D01*
X120771484Y-97386989D01*
X120765885Y-97240817D01*
X120734300Y-97092045D01*
X120703394Y-97004089D01*
X120641506Y-96882371D01*
X120552729Y-96756920D01*
X120492694Y-96686647D01*
X120457947Y-96647189D01*
X120432454Y-96616188D01*
X120420170Y-96598542D01*
X120419795Y-96596352D01*
X120432347Y-96588476D01*
X120465516Y-96568068D01*
X120516458Y-96536868D01*
X120582331Y-96496614D01*
X120660289Y-96449043D01*
X120747490Y-96395896D01*
X120796067Y-96366313D01*
X121167215Y-96140352D01*
X121306639Y-96422473D01*
G36*
X116750471Y-99996214D02*
G01*
X116842714Y-100012969D01*
X116955432Y-100058763D01*
X117053207Y-100125168D01*
X117134115Y-100208809D01*
X117196232Y-100306312D01*
X117237634Y-100414300D01*
X117256397Y-100529399D01*
X117250598Y-100648234D01*
X117238206Y-100706811D01*
X117193797Y-100820972D01*
X117126033Y-100922365D01*
X117037001Y-101008545D01*
X116928791Y-101077066D01*
X116916973Y-101082864D01*
X116872628Y-101102904D01*
X116835280Y-101115487D01*
X116795880Y-101122319D01*
X116745381Y-101125105D01*
X116690433Y-101125568D01*
X116624415Y-101124803D01*
X116576689Y-101121352D01*
X116538103Y-101113477D01*
X116499506Y-101099443D01*
X116461426Y-101082120D01*
X116353328Y-101017505D01*
X116265803Y-100937934D01*
X116198841Y-100846560D01*
X116152436Y-100746536D01*
X116126581Y-100641012D01*
X116121268Y-100533142D01*
X116136490Y-100426079D01*
X116172238Y-100322973D01*
X116228507Y-100226978D01*
X116305288Y-100141247D01*
X116402573Y-100068930D01*
X116463892Y-100036445D01*
X116549660Y-100008332D01*
X116648677Y-99994705D01*
X116750471Y-99996214D01*
G37*
X116750471Y-99996214D02*
X116842714Y-100012969D01*
X116955432Y-100058763D01*
X117053207Y-100125168D01*
X117134115Y-100208809D01*
X117196232Y-100306312D01*
X117237634Y-100414300D01*
X117256397Y-100529399D01*
X117250598Y-100648234D01*
X117238206Y-100706811D01*
X117193797Y-100820972D01*
X117126033Y-100922365D01*
X117037001Y-101008545D01*
X116928791Y-101077066D01*
X116916973Y-101082864D01*
X116872628Y-101102904D01*
X116835280Y-101115487D01*
X116795880Y-101122319D01*
X116745381Y-101125105D01*
X116690433Y-101125568D01*
X116624415Y-101124803D01*
X116576689Y-101121352D01*
X116538103Y-101113477D01*
X116499506Y-101099443D01*
X116461426Y-101082120D01*
X116353328Y-101017505D01*
X116265803Y-100937934D01*
X116198841Y-100846560D01*
X116152436Y-100746536D01*
X116126581Y-100641012D01*
X116121268Y-100533142D01*
X116136490Y-100426079D01*
X116172238Y-100322973D01*
X116228507Y-100226978D01*
X116305288Y-100141247D01*
X116402573Y-100068930D01*
X116463892Y-100036445D01*
X116549660Y-100008332D01*
X116648677Y-99994705D01*
X116750471Y-99996214D01*
G36*
X123314353Y-98276405D02*
G01*
X123355534Y-98277324D01*
X123384995Y-98279179D01*
X123405447Y-98282131D01*
X123419605Y-98286342D01*
X123430183Y-98291974D01*
X123438666Y-98298219D01*
X123454399Y-98311731D01*
X123464828Y-98325175D01*
X123468831Y-98340416D01*
X123465286Y-98359318D01*
X123453071Y-98383747D01*
X123431063Y-98415565D01*
X123398141Y-98456640D01*
X123353183Y-98508834D01*
X123295067Y-98574014D01*
X123228291Y-98647848D01*
X122987650Y-98913137D01*
X123206781Y-98918781D01*
X123282320Y-98920823D01*
X123338546Y-98922794D01*
X123378716Y-98925131D01*
X123406088Y-98928273D01*
X123423920Y-98932656D01*
X123435471Y-98938716D01*
X123443999Y-98946892D01*
X123447474Y-98951076D01*
X123466564Y-98988057D01*
X123463685Y-99023000D01*
X123439292Y-99053428D01*
X123429478Y-99060389D01*
X123418018Y-99065815D01*
X123402160Y-99069895D01*
X123379155Y-99072821D01*
X123346254Y-99074784D01*
X123300708Y-99075975D01*
X123239765Y-99076584D01*
X123160678Y-99076803D01*
X123102148Y-99076826D01*
X123010599Y-99076752D01*
X122938879Y-99076405D01*
X122884237Y-99075593D01*
X122843924Y-99074125D01*
X122815190Y-99071811D01*
X122795285Y-99068459D01*
X122781460Y-99063880D01*
X122770964Y-99057881D01*
X122765003Y-99053428D01*
X122750883Y-99042142D01*
X122740221Y-99031593D01*
X122734084Y-99020185D01*
X122733535Y-99006322D01*
X122739640Y-98988406D01*
X122753465Y-98964840D01*
X122776073Y-98934027D01*
X122808530Y-98894370D01*
X122851900Y-98844272D01*
X122907250Y-98782135D01*
X122975643Y-98706364D01*
X123054276Y-98619626D01*
X123218070Y-98439003D01*
X122998221Y-98433359D01*
X122922543Y-98431321D01*
X122866186Y-98429355D01*
X122825898Y-98427026D01*
X122798427Y-98423898D01*
X122780521Y-98419537D01*
X122768929Y-98413508D01*
X122760400Y-98405376D01*
X122756815Y-98401064D01*
X122737862Y-98366533D01*
X122740633Y-98333675D01*
X122756825Y-98307610D01*
X122778391Y-98280959D01*
X123093343Y-98277644D01*
X123185971Y-98276727D01*
X123258736Y-98276260D01*
X123314353Y-98276405D01*
G37*
X123314353Y-98276405D02*
X123355534Y-98277324D01*
X123384995Y-98279179D01*
X123405447Y-98282131D01*
X123419605Y-98286342D01*
X123430183Y-98291974D01*
X123438666Y-98298219D01*
X123454399Y-98311731D01*
X123464828Y-98325175D01*
X123468831Y-98340416D01*
X123465286Y-98359318D01*
X123453071Y-98383747D01*
X123431063Y-98415565D01*
X123398141Y-98456640D01*
X123353183Y-98508834D01*
X123295067Y-98574014D01*
X123228291Y-98647848D01*
X122987650Y-98913137D01*
X123206781Y-98918781D01*
X123282320Y-98920823D01*
X123338546Y-98922794D01*
X123378716Y-98925131D01*
X123406088Y-98928273D01*
X123423920Y-98932656D01*
X123435471Y-98938716D01*
X123443999Y-98946892D01*
X123447474Y-98951076D01*
X123466564Y-98988057D01*
X123463685Y-99023000D01*
X123439292Y-99053428D01*
X123429478Y-99060389D01*
X123418018Y-99065815D01*
X123402160Y-99069895D01*
X123379155Y-99072821D01*
X123346254Y-99074784D01*
X123300708Y-99075975D01*
X123239765Y-99076584D01*
X123160678Y-99076803D01*
X123102148Y-99076826D01*
X123010599Y-99076752D01*
X122938879Y-99076405D01*
X122884237Y-99075593D01*
X122843924Y-99074125D01*
X122815190Y-99071811D01*
X122795285Y-99068459D01*
X122781460Y-99063880D01*
X122770964Y-99057881D01*
X122765003Y-99053428D01*
X122750883Y-99042142D01*
X122740221Y-99031593D01*
X122734084Y-99020185D01*
X122733535Y-99006322D01*
X122739640Y-98988406D01*
X122753465Y-98964840D01*
X122776073Y-98934027D01*
X122808530Y-98894370D01*
X122851900Y-98844272D01*
X122907250Y-98782135D01*
X122975643Y-98706364D01*
X123054276Y-98619626D01*
X123218070Y-98439003D01*
X122998221Y-98433359D01*
X122922543Y-98431321D01*
X122866186Y-98429355D01*
X122825898Y-98427026D01*
X122798427Y-98423898D01*
X122780521Y-98419537D01*
X122768929Y-98413508D01*
X122760400Y-98405376D01*
X122756815Y-98401064D01*
X122737862Y-98366533D01*
X122740633Y-98333675D01*
X122756825Y-98307610D01*
X122778391Y-98280959D01*
X123093343Y-98277644D01*
X123185971Y-98276727D01*
X123258736Y-98276260D01*
X123314353Y-98276405D01*
G36*
X123305727Y-99416901D02*
G01*
X123352978Y-99421140D01*
X123378204Y-99428228D01*
X123380180Y-99429603D01*
X123411700Y-99468520D01*
X123436662Y-99525578D01*
X123454532Y-99597161D01*
X123464778Y-99679650D01*
X123466865Y-99769431D01*
X123460260Y-99862884D01*
X123452148Y-99917848D01*
X123427746Y-100004058D01*
X123387854Y-100084184D01*
X123336079Y-100151269D01*
X123325731Y-100161465D01*
X123282227Y-100194594D01*
X123228310Y-100224486D01*
X123171784Y-100247649D01*
X123120451Y-100260590D01*
X123100736Y-100262150D01*
X123059611Y-100255510D01*
X123008444Y-100237860D01*
X122954586Y-100212589D01*
X122905387Y-100183081D01*
X122872526Y-100157011D01*
X122823644Y-100096057D01*
X122784737Y-100017261D01*
X122756686Y-99923449D01*
X122740371Y-99817442D01*
X122736384Y-99720292D01*
X122740791Y-99638373D01*
X122752287Y-99569857D01*
X122770159Y-99517235D01*
X122793691Y-99483000D01*
X122807116Y-99473671D01*
X122838340Y-99464185D01*
X122866587Y-99470569D01*
X122893374Y-99490722D01*
X122905905Y-99522037D01*
X122904888Y-99567475D01*
X122898098Y-99602618D01*
X122885163Y-99680711D01*
X122883934Y-99760518D01*
X122894433Y-99849847D01*
X122898882Y-99874521D01*
X122922300Y-99957583D01*
X122957137Y-100022565D01*
X123002796Y-100068753D01*
X123058686Y-100095437D01*
X123087580Y-100100955D01*
X123146204Y-100097343D01*
X123198071Y-100074021D01*
X123242170Y-100033116D01*
X123277491Y-99976751D01*
X123303021Y-99907052D01*
X123317751Y-99826144D01*
X123320670Y-99736152D01*
X123310767Y-99639202D01*
X123309833Y-99633728D01*
X123302651Y-99595167D01*
X123295713Y-99573786D01*
X123285419Y-99564519D01*
X123268168Y-99562298D01*
X123259033Y-99562248D01*
X123220681Y-99562248D01*
X123220681Y-99630723D01*
X123216539Y-99691192D01*
X123203339Y-99732457D01*
X123179922Y-99756467D01*
X123145128Y-99765169D01*
X123140586Y-99765275D01*
X123110846Y-99760184D01*
X123089611Y-99742725D01*
X123075558Y-99710231D01*
X123067365Y-99660035D01*
X123064353Y-99611415D01*
X123062625Y-99540748D01*
X123065262Y-99489490D01*
X123074992Y-99454531D01*
X123094545Y-99432762D01*
X123126648Y-99421072D01*
X123174030Y-99416352D01*
X123236263Y-99415492D01*
X123305727Y-99416901D01*
G37*
X123305727Y-99416901D02*
X123352978Y-99421140D01*
X123378204Y-99428228D01*
X123380180Y-99429603D01*
X123411700Y-99468520D01*
X123436662Y-99525578D01*
X123454532Y-99597161D01*
X123464778Y-99679650D01*
X123466865Y-99769431D01*
X123460260Y-99862884D01*
X123452148Y-99917848D01*
X123427746Y-100004058D01*
X123387854Y-100084184D01*
X123336079Y-100151269D01*
X123325731Y-100161465D01*
X123282227Y-100194594D01*
X123228310Y-100224486D01*
X123171784Y-100247649D01*
X123120451Y-100260590D01*
X123100736Y-100262150D01*
X123059611Y-100255510D01*
X123008444Y-100237860D01*
X122954586Y-100212589D01*
X122905387Y-100183081D01*
X122872526Y-100157011D01*
X122823644Y-100096057D01*
X122784737Y-100017261D01*
X122756686Y-99923449D01*
X122740371Y-99817442D01*
X122736384Y-99720292D01*
X122740791Y-99638373D01*
X122752287Y-99569857D01*
X122770159Y-99517235D01*
X122793691Y-99483000D01*
X122807116Y-99473671D01*
X122838340Y-99464185D01*
X122866587Y-99470569D01*
X122893374Y-99490722D01*
X122905905Y-99522037D01*
X122904888Y-99567475D01*
X122898098Y-99602618D01*
X122885163Y-99680711D01*
X122883934Y-99760518D01*
X122894433Y-99849847D01*
X122898882Y-99874521D01*
X122922300Y-99957583D01*
X122957137Y-100022565D01*
X123002796Y-100068753D01*
X123058686Y-100095437D01*
X123087580Y-100100955D01*
X123146204Y-100097343D01*
X123198071Y-100074021D01*
X123242170Y-100033116D01*
X123277491Y-99976751D01*
X123303021Y-99907052D01*
X123317751Y-99826144D01*
X123320670Y-99736152D01*
X123310767Y-99639202D01*
X123309833Y-99633728D01*
X123302651Y-99595167D01*
X123295713Y-99573786D01*
X123285419Y-99564519D01*
X123268168Y-99562298D01*
X123259033Y-99562248D01*
X123220681Y-99562248D01*
X123220681Y-99630723D01*
X123216539Y-99691192D01*
X123203339Y-99732457D01*
X123179922Y-99756467D01*
X123145128Y-99765169D01*
X123140586Y-99765275D01*
X123110846Y-99760184D01*
X123089611Y-99742725D01*
X123075558Y-99710231D01*
X123067365Y-99660035D01*
X123064353Y-99611415D01*
X123062625Y-99540748D01*
X123065262Y-99489490D01*
X123074992Y-99454531D01*
X123094545Y-99432762D01*
X123126648Y-99421072D01*
X123174030Y-99416352D01*
X123236263Y-99415492D01*
X123305727Y-99416901D01*
D13*
X85080000Y-78315000D02*
X82420000Y-78315000D01*
X82420000Y-97425000D02*
X82420000Y-98755000D01*
X85080000Y-78295000D02*
X82420000Y-78295000D01*
X82420000Y-83945000D02*
X82420000Y-80385000D01*
X97780000Y-78315000D02*
X95120000Y-78315000D01*
X97780000Y-98755000D02*
X96450000Y-98755000D01*
X85080000Y-96155000D02*
X85080000Y-78315000D01*
X82420000Y-78865000D02*
X82420000Y-78295000D01*
X95120000Y-96155000D02*
X95120000Y-78315000D01*
X82420000Y-89025000D02*
X82420000Y-85465000D01*
X97780000Y-96155000D02*
X95120000Y-96155000D01*
X82420000Y-98755000D02*
X83750000Y-98755000D01*
X97780000Y-97425000D02*
X97780000Y-98755000D01*
X85080000Y-96155000D02*
X82420000Y-96155000D01*
X97780000Y-96155000D02*
X97780000Y-78315000D01*
X82420000Y-96155000D02*
X82420000Y-78315000D01*
X82420000Y-94105000D02*
X82420000Y-90545000D01*
X132850000Y-113300000D02*
X134350000Y-113300000D01*
X134350000Y-106300000D02*
X132850000Y-106300000D01*
X130350000Y-107550000D02*
X130350000Y-112050000D01*
X136850000Y-112050000D02*
X136850000Y-107550000D01*
X130350000Y-88150000D02*
X130350000Y-92650000D01*
X134350000Y-86900000D02*
X132850000Y-86900000D01*
X132850000Y-93900000D02*
X134350000Y-93900000D01*
X136850000Y-92650000D02*
X136850000Y-88150000D01*
%LPC*%
D15*
X120000000Y-82325000D03*
X118125000Y-84200000D03*
X121875000Y-84200000D03*
X118674175Y-82874175D03*
D16*
X120000000Y-84200000D03*
D15*
X118674175Y-85525825D03*
X121325825Y-82874175D03*
X120000000Y-86075000D03*
X121325825Y-85525825D03*
D17*
X125545000Y-106340000D03*
D18*
X125545000Y-103800000D03*
X125545000Y-101260000D03*
X125545000Y-98720000D03*
X125545000Y-96180000D03*
X125545000Y-93640000D03*
X125545000Y-91100000D03*
X125545000Y-88560000D03*
X102685000Y-88560000D03*
X102685000Y-91100000D03*
X102685000Y-93640000D03*
X102685000Y-96180000D03*
X102685000Y-98720000D03*
X102685000Y-101260000D03*
X102685000Y-103800000D03*
X102685000Y-106340000D03*
D15*
X109325825Y-85525825D03*
X108000000Y-86075000D03*
X109325825Y-82874175D03*
X106674175Y-85525825D03*
D16*
X108000000Y-84200000D03*
D15*
X106674175Y-82874175D03*
X109875000Y-84200000D03*
X106125000Y-84200000D03*
X108000000Y-82325000D03*
D19*
X131350000Y-103350000D03*
X131350000Y-96850000D03*
X135850000Y-103350000D03*
X135850000Y-96850000D03*
D20*
X107037500Y-90600000D03*
X111162500Y-90600000D03*
D21*
X132250000Y-78100000D03*
X132250000Y-80600000D03*
X132250000Y-83100000D03*
D22*
X90100000Y-93537500D03*
X90100000Y-87362500D03*
D23*
X90100000Y-78887500D03*
X90100000Y-83012500D03*
D19*
X82580000Y-106700000D03*
X82580000Y-111700000D03*
X87660000Y-111700000D03*
X87660000Y-106700000D03*
X92740000Y-106700000D03*
X92740000Y-111700000D03*
X97820000Y-106700000D03*
X97820000Y-111700000D03*
D24*
X86400000Y-101200000D03*
D25*
X88940000Y-101200000D03*
X91480000Y-101200000D03*
X94020000Y-101200000D03*
D24*
X83750000Y-97425000D03*
D25*
X83750000Y-94885000D03*
X83750000Y-92345000D03*
X83750000Y-89805000D03*
X83750000Y-87265000D03*
X83750000Y-84725000D03*
X83750000Y-82185000D03*
X83750000Y-79645000D03*
X96450000Y-79645000D03*
X96450000Y-82185000D03*
X96450000Y-84725000D03*
X96450000Y-87265000D03*
X96450000Y-89805000D03*
X96450000Y-92345000D03*
X96450000Y-94885000D03*
D24*
X96450000Y-97425000D03*
D19*
X131350000Y-113050000D03*
X131350000Y-106550000D03*
X135850000Y-106550000D03*
X135850000Y-113050000D03*
X131350000Y-87150000D03*
X131350000Y-93650000D03*
X135850000Y-93650000D03*
X135850000Y-87150000D03*
M02*
