%FSLAX45Y45*%
G04 Gerber Fmt 4.5, Leading zero omitted, Abs format (unit mm)*
G04 Created by KiCad (PCBNEW (6.0.5)) date 2022-11-03 10:24:22*
%MOMM*%
%LPD*%
G01*
G04 APERTURE LIST*
%TA.AperFunction,Profile*%
%ADD10C,0.100000*%
%TD*%
%ADD11C,0.200000*%
G04 APERTURE END LIST*
D10*
X13900000Y-11535000D02*
X7900000Y-11535000D01*
X13900000Y-7520000D02*
X13900000Y-11535000D01*
X7900000Y-7520000D02*
X7900000Y-11535000D01*
X7900000Y-7520000D02*
X13900000Y-7520000D01*
D11*
X8152619Y-11850476D02*
X8152619Y-11650476D01*
X8200238Y-11650476D01*
X8228809Y-11660000D01*
X8247857Y-11679048D01*
X8257381Y-11698095D01*
X8266905Y-11736190D01*
X8266905Y-11764762D01*
X8257381Y-11802857D01*
X8247857Y-11821905D01*
X8228809Y-11840952D01*
X8200238Y-11850476D01*
X8152619Y-11850476D01*
X8352619Y-11850476D02*
X8352619Y-11717143D01*
X8352619Y-11755238D02*
X8362143Y-11736190D01*
X8371667Y-11726667D01*
X8390714Y-11717143D01*
X8409762Y-11717143D01*
X8476429Y-11850476D02*
X8476429Y-11717143D01*
X8476429Y-11650476D02*
X8466905Y-11660000D01*
X8476429Y-11669524D01*
X8485952Y-11660000D01*
X8476429Y-11650476D01*
X8476429Y-11669524D01*
X8600238Y-11850476D02*
X8581190Y-11840952D01*
X8571667Y-11821905D01*
X8571667Y-11650476D01*
X8705000Y-11850476D02*
X8685952Y-11840952D01*
X8676429Y-11821905D01*
X8676429Y-11650476D01*
X8933571Y-11850476D02*
X8933571Y-11650476D01*
X9000238Y-11793333D01*
X9066905Y-11650476D01*
X9066905Y-11850476D01*
X9247857Y-11850476D02*
X9247857Y-11745714D01*
X9238333Y-11726667D01*
X9219286Y-11717143D01*
X9181190Y-11717143D01*
X9162143Y-11726667D01*
X9247857Y-11840952D02*
X9228810Y-11850476D01*
X9181190Y-11850476D01*
X9162143Y-11840952D01*
X9152619Y-11821905D01*
X9152619Y-11802857D01*
X9162143Y-11783809D01*
X9181190Y-11774286D01*
X9228810Y-11774286D01*
X9247857Y-11764762D01*
X9343095Y-11717143D02*
X9343095Y-11917143D01*
X9343095Y-11726667D02*
X9362143Y-11717143D01*
X9400238Y-11717143D01*
X9419286Y-11726667D01*
X9428810Y-11736190D01*
X9438333Y-11755238D01*
X9438333Y-11812381D01*
X9428810Y-11831428D01*
X9419286Y-11840952D01*
X9400238Y-11850476D01*
X9362143Y-11850476D01*
X9343095Y-11840952D01*
X9524048Y-11831428D02*
X9533571Y-11840952D01*
X9524048Y-11850476D01*
X9514524Y-11840952D01*
X9524048Y-11831428D01*
X9524048Y-11850476D01*
X9524048Y-11726667D02*
X9533571Y-11736190D01*
X9524048Y-11745714D01*
X9514524Y-11736190D01*
X9524048Y-11726667D01*
X9524048Y-11745714D01*
M02*
