%TF.GenerationSoftware,KiCad,Pcbnew,(6.0.5)*%
%TF.CreationDate,2023-01-03T16:46:16+01:00*%
%TF.ProjectId,Photo_table,50686f74-6f5f-4746-9162-6c652e6b6963,rev?*%
%TF.SameCoordinates,Original*%
%TF.FileFunction,Soldermask,Bot*%
%TF.FilePolarity,Negative*%
%FSLAX46Y46*%
G04 Gerber Fmt 4.6, Leading zero omitted, Abs format (unit mm)*
G04 Created by KiCad (PCBNEW (6.0.5)) date 2023-01-03 16:46:16*
%MOMM*%
%LPD*%
G01*
G04 APERTURE LIST*
G04 Aperture macros list*
%AMRoundRect*
0 Rectangle with rounded corners*
0 $1 Rounding radius*
0 $2 $3 $4 $5 $6 $7 $8 $9 X,Y pos of 4 corners*
0 Add a 4 corners polygon primitive as box body*
4,1,4,$2,$3,$4,$5,$6,$7,$8,$9,$2,$3,0*
0 Add four circle primitives for the rounded corners*
1,1,$1+$1,$2,$3*
1,1,$1+$1,$4,$5*
1,1,$1+$1,$6,$7*
1,1,$1+$1,$8,$9*
0 Add four rect primitives between the rounded corners*
20,1,$1+$1,$2,$3,$4,$5,0*
20,1,$1+$1,$4,$5,$6,$7,0*
20,1,$1+$1,$6,$7,$8,$9,0*
20,1,$1+$1,$8,$9,$2,$3,0*%
G04 Aperture macros list end*
%ADD10C,0.010000*%
%ADD11C,2.000000*%
%ADD12C,0.800000*%
%ADD13C,5.000000*%
%ADD14O,3.500000X1.500000*%
%ADD15R,1.700000X1.700000*%
%ADD16O,1.700000X1.700000*%
%ADD17R,2.000000X2.000000*%
%ADD18O,2.000000X1.600000*%
%ADD19RoundRect,0.250000X0.312500X0.625000X-0.312500X0.625000X-0.312500X-0.625000X0.312500X-0.625000X0*%
G04 APERTURE END LIST*
G36*
X105926285Y-93538773D02*
G01*
X105941974Y-93547789D01*
X105964394Y-93561785D01*
X105991610Y-93579459D01*
X106021688Y-93599506D01*
X106052690Y-93620624D01*
X106082683Y-93641508D01*
X106109730Y-93660856D01*
X106131897Y-93677364D01*
X106147247Y-93689728D01*
X106156954Y-93697290D01*
X106175337Y-93710657D01*
X106199394Y-93727634D01*
X106226416Y-93746285D01*
X106237425Y-93753840D01*
X106261843Y-93770702D01*
X106295013Y-93793684D01*
X106335707Y-93821932D01*
X106382697Y-93854594D01*
X106434756Y-93890814D01*
X106490655Y-93929741D01*
X106549167Y-93970521D01*
X106609065Y-94012299D01*
X106615344Y-94016681D01*
X106685772Y-94065821D01*
X106764205Y-94120541D01*
X106848070Y-94179046D01*
X106934798Y-94239544D01*
X107021817Y-94300242D01*
X107106556Y-94359344D01*
X107186444Y-94415059D01*
X107258909Y-94465592D01*
X107318490Y-94507143D01*
X107376881Y-94547872D01*
X107432069Y-94586375D01*
X107482965Y-94621892D01*
X107528480Y-94653663D01*
X107567526Y-94680928D01*
X107599014Y-94702927D01*
X107621855Y-94718901D01*
X107634961Y-94728089D01*
X107641272Y-94732518D01*
X107660328Y-94745847D01*
X107688403Y-94765454D01*
X107724336Y-94790531D01*
X107766970Y-94820269D01*
X107815145Y-94853860D01*
X107867702Y-94890495D01*
X107923481Y-94929365D01*
X107981325Y-94969663D01*
X108009417Y-94989233D01*
X108067898Y-95029974D01*
X108124551Y-95069446D01*
X108178090Y-95106753D01*
X108227229Y-95140999D01*
X108270683Y-95171288D01*
X108307166Y-95196724D01*
X108335393Y-95216411D01*
X108354078Y-95229453D01*
X108378486Y-95246499D01*
X108414922Y-95271938D01*
X108459535Y-95303079D01*
X108510921Y-95338944D01*
X108567682Y-95378557D01*
X108628415Y-95420939D01*
X108691721Y-95465114D01*
X108756198Y-95510103D01*
X108820446Y-95554930D01*
X108883064Y-95598618D01*
X108942651Y-95640188D01*
X108997807Y-95678663D01*
X109047130Y-95713066D01*
X109089219Y-95742420D01*
X109122675Y-95765747D01*
X109254623Y-95857731D01*
X109253581Y-95920099D01*
X109253560Y-95921336D01*
X109252970Y-95946057D01*
X109251918Y-95981620D01*
X109250486Y-96025832D01*
X109248753Y-96076501D01*
X109246800Y-96131433D01*
X109244707Y-96188437D01*
X109242555Y-96245320D01*
X109240424Y-96299889D01*
X109238394Y-96349953D01*
X109236546Y-96393318D01*
X109234961Y-96427792D01*
X109234648Y-96434345D01*
X109233190Y-96467125D01*
X109231520Y-96507451D01*
X109229820Y-96550819D01*
X109228272Y-96592727D01*
X109227906Y-96602930D01*
X109226303Y-96645632D01*
X109224594Y-96688657D01*
X109222961Y-96727501D01*
X109221587Y-96757662D01*
X109220623Y-96778427D01*
X109219146Y-96811825D01*
X109217349Y-96853618D01*
X109215339Y-96901285D01*
X109213223Y-96952303D01*
X109211108Y-97004149D01*
X109209470Y-97045133D01*
X109207769Y-97090518D01*
X109206710Y-97125384D01*
X109206330Y-97151263D01*
X109206668Y-97169690D01*
X109207761Y-97182200D01*
X109209648Y-97190325D01*
X109212367Y-97195602D01*
X109215957Y-97199562D01*
X109219764Y-97202761D01*
X109234204Y-97213639D01*
X109256205Y-97229461D01*
X109283545Y-97248639D01*
X109314000Y-97269586D01*
X109330937Y-97281142D01*
X109370895Y-97308499D01*
X109415255Y-97338969D01*
X109459728Y-97369601D01*
X109500021Y-97397446D01*
X109525748Y-97415261D01*
X109565888Y-97443044D01*
X109611898Y-97474883D01*
X109660996Y-97508851D01*
X109710398Y-97543022D01*
X109757320Y-97575471D01*
X109836845Y-97630466D01*
X109967990Y-97721195D01*
X110089003Y-97804964D01*
X110200357Y-97882099D01*
X110302523Y-97952930D01*
X110395974Y-98017782D01*
X110400173Y-98020697D01*
X110442871Y-98050307D01*
X110483980Y-98078758D01*
X110521649Y-98104773D01*
X110554032Y-98127078D01*
X110579281Y-98144398D01*
X110595545Y-98155458D01*
X110636779Y-98183192D01*
X110636779Y-98221275D01*
X110636834Y-98224887D01*
X110639086Y-98251560D01*
X110643978Y-98283666D01*
X110650604Y-98315042D01*
X110672071Y-98382621D01*
X110701682Y-98445683D01*
X110737949Y-98501817D01*
X110779817Y-98550362D01*
X110826227Y-98590656D01*
X110876125Y-98622038D01*
X110928452Y-98643845D01*
X110982153Y-98655417D01*
X111036171Y-98656091D01*
X111089449Y-98645205D01*
X111140931Y-98622099D01*
X111147934Y-98617795D01*
X111166887Y-98604397D01*
X111180446Y-98592424D01*
X111190984Y-98583033D01*
X111200692Y-98578545D01*
X111202235Y-98579030D01*
X111213191Y-98585112D01*
X111232633Y-98597288D01*
X111258868Y-98614456D01*
X111290202Y-98635515D01*
X111324941Y-98659363D01*
X111344324Y-98672795D01*
X111388387Y-98703292D01*
X111438294Y-98737795D01*
X111490730Y-98774015D01*
X111542379Y-98809660D01*
X111589928Y-98842441D01*
X111618168Y-98861904D01*
X111665623Y-98894635D01*
X111713638Y-98927777D01*
X111759353Y-98959359D01*
X111799914Y-98987406D01*
X111832463Y-99009945D01*
X111834744Y-99011527D01*
X111877451Y-99041118D01*
X111920248Y-99070736D01*
X111964483Y-99101312D01*
X112011504Y-99133776D01*
X112062661Y-99169057D01*
X112119301Y-99208086D01*
X112182774Y-99251793D01*
X112254427Y-99301108D01*
X112335610Y-99356961D01*
X112340466Y-99360302D01*
X112393757Y-99396974D01*
X112447544Y-99434010D01*
X112499931Y-99470103D01*
X112549023Y-99503947D01*
X112592927Y-99534236D01*
X112629747Y-99559662D01*
X112657588Y-99578921D01*
X112755253Y-99646579D01*
X112776687Y-99622211D01*
X112781466Y-99616745D01*
X112800348Y-99594726D01*
X112817567Y-99574135D01*
X112820281Y-99570860D01*
X112833049Y-99555726D01*
X112852300Y-99533118D01*
X112876460Y-99504881D01*
X112903953Y-99472856D01*
X112933203Y-99438888D01*
X112934973Y-99436835D01*
X112959381Y-99408517D01*
X112990984Y-99371831D01*
X113028488Y-99328281D01*
X113070600Y-99279368D01*
X113116025Y-99226596D01*
X113163471Y-99171468D01*
X113211642Y-99115487D01*
X113259246Y-99060155D01*
X113280550Y-99035430D01*
X113323232Y-98986138D01*
X113363065Y-98940459D01*
X113399231Y-98899311D01*
X113430913Y-98863611D01*
X113457296Y-98834277D01*
X113477562Y-98812226D01*
X113490895Y-98798376D01*
X113496478Y-98793644D01*
X113499331Y-98794907D01*
X113511962Y-98802495D01*
X113532860Y-98816004D01*
X113560405Y-98834362D01*
X113592977Y-98856496D01*
X113628954Y-98881332D01*
X113645187Y-98892621D01*
X113669823Y-98909752D01*
X113695564Y-98927648D01*
X113723156Y-98946828D01*
X113753350Y-98967812D01*
X113786895Y-98991122D01*
X113824538Y-99017276D01*
X113867028Y-99046796D01*
X113915115Y-99080201D01*
X113969547Y-99118012D01*
X114031073Y-99160748D01*
X114100441Y-99208930D01*
X114178401Y-99263079D01*
X114265700Y-99323713D01*
X114363089Y-99391354D01*
X114408930Y-99423194D01*
X114470038Y-99465642D01*
X114532961Y-99509356D01*
X114598704Y-99555033D01*
X114668266Y-99603369D01*
X114742651Y-99655061D01*
X114822860Y-99710804D01*
X114909895Y-99771295D01*
X115004758Y-99837230D01*
X115108450Y-99909305D01*
X115221974Y-99988216D01*
X115229775Y-99993638D01*
X115283608Y-100031016D01*
X115337995Y-100068717D01*
X115391038Y-100105432D01*
X115440842Y-100139849D01*
X115485508Y-100170658D01*
X115523141Y-100196546D01*
X115551844Y-100216204D01*
X115575145Y-100232118D01*
X115616547Y-100260453D01*
X115658414Y-100289169D01*
X115696955Y-100315664D01*
X115728378Y-100337337D01*
X115802652Y-100388699D01*
X115784456Y-100408006D01*
X115779399Y-100413244D01*
X115756404Y-100435498D01*
X115724936Y-100464328D01*
X115686442Y-100498503D01*
X115642369Y-100536795D01*
X115594162Y-100577974D01*
X115543270Y-100620811D01*
X115491140Y-100664076D01*
X115439217Y-100706540D01*
X115388949Y-100746974D01*
X115341783Y-100784147D01*
X115260371Y-100847522D01*
X115191162Y-100799956D01*
X115164536Y-100781600D01*
X115132279Y-100759243D01*
X115102757Y-100738665D01*
X115080049Y-100722701D01*
X115071354Y-100716546D01*
X115036828Y-100692193D01*
X114996894Y-100664155D01*
X114950643Y-100631798D01*
X114897165Y-100594488D01*
X114835553Y-100551590D01*
X114764896Y-100502469D01*
X114684286Y-100446493D01*
X114618063Y-100400526D01*
X114513068Y-100327644D01*
X114417555Y-100261339D01*
X114330666Y-100201016D01*
X114251544Y-100146078D01*
X114179330Y-100095931D01*
X114113168Y-100049978D01*
X114052200Y-100007624D01*
X113995569Y-99968274D01*
X113942416Y-99931331D01*
X113891885Y-99896201D01*
X113843117Y-99862288D01*
X113829333Y-99852701D01*
X113748066Y-99796190D01*
X113676861Y-99746697D01*
X113615059Y-99703768D01*
X113562000Y-99666951D01*
X113517025Y-99635792D01*
X113479475Y-99609838D01*
X113448689Y-99588635D01*
X113424008Y-99571730D01*
X113404772Y-99558669D01*
X113390322Y-99549000D01*
X113379999Y-99542269D01*
X113373142Y-99538022D01*
X113369092Y-99535806D01*
X113367189Y-99535168D01*
X113367134Y-99535190D01*
X113362460Y-99541247D01*
X113350948Y-99557594D01*
X113333038Y-99583579D01*
X113309172Y-99618546D01*
X113279790Y-99661842D01*
X113245333Y-99712813D01*
X113206242Y-99770804D01*
X113162959Y-99835161D01*
X113115923Y-99905230D01*
X113065577Y-99980357D01*
X113012361Y-100059888D01*
X112956716Y-100143169D01*
X112899083Y-100229545D01*
X112895508Y-100234907D01*
X112837996Y-100321152D01*
X112782537Y-100404305D01*
X112729568Y-100483709D01*
X112679528Y-100558706D01*
X112632857Y-100628640D01*
X112589993Y-100692852D01*
X112551376Y-100750686D01*
X112517443Y-100801485D01*
X112488634Y-100844590D01*
X112465388Y-100879345D01*
X112448144Y-100905093D01*
X112437340Y-100921176D01*
X112433416Y-100926937D01*
X112432849Y-100927600D01*
X112431899Y-100928189D01*
X112430139Y-100928066D01*
X112426943Y-100926805D01*
X112421684Y-100923980D01*
X112413735Y-100919166D01*
X112402470Y-100911936D01*
X112387261Y-100901864D01*
X112367481Y-100888526D01*
X112342505Y-100871494D01*
X112311705Y-100850343D01*
X112274455Y-100824648D01*
X112230127Y-100793982D01*
X112178095Y-100757919D01*
X112117732Y-100716034D01*
X112048411Y-100667900D01*
X111969506Y-100613092D01*
X111880390Y-100551184D01*
X111863078Y-100539160D01*
X111795922Y-100492552D01*
X111722454Y-100441616D01*
X111641913Y-100385828D01*
X111553542Y-100324661D01*
X111456579Y-100257589D01*
X111350266Y-100184088D01*
X111233844Y-100103631D01*
X111195406Y-100077050D01*
X111144740Y-100041966D01*
X111089237Y-100003495D01*
X111032068Y-99963835D01*
X110976404Y-99925186D01*
X110925416Y-99889745D01*
X110755532Y-99771588D01*
X110755532Y-99740661D01*
X110754859Y-99725629D01*
X110747769Y-99682634D01*
X110733949Y-99634304D01*
X110714643Y-99584047D01*
X110691094Y-99535270D01*
X110664546Y-99491380D01*
X110648805Y-99469801D01*
X110604255Y-99420637D01*
X110555037Y-99381083D01*
X110502489Y-99351527D01*
X110447951Y-99332356D01*
X110392763Y-99323960D01*
X110338262Y-99326726D01*
X110285788Y-99341044D01*
X110236679Y-99367300D01*
X110201762Y-99391349D01*
X110064660Y-99296080D01*
X110033978Y-99274773D01*
X109983825Y-99239983D01*
X109928574Y-99201691D01*
X109871594Y-99162232D01*
X109816254Y-99123938D01*
X109765922Y-99089145D01*
X109760651Y-99085503D01*
X109716925Y-99055292D01*
X109674388Y-99025900D01*
X109634975Y-98998662D01*
X109600617Y-98974916D01*
X109573250Y-98955996D01*
X109554805Y-98943240D01*
X109542609Y-98934807D01*
X109514997Y-98915740D01*
X109481529Y-98892648D01*
X109445364Y-98867712D01*
X109409662Y-98843111D01*
X109396007Y-98833703D01*
X109353826Y-98804612D01*
X109308743Y-98773488D01*
X109265348Y-98743500D01*
X109228234Y-98717820D01*
X109203998Y-98701048D01*
X109163802Y-98673269D01*
X109119418Y-98642628D01*
X109074727Y-98611804D01*
X109033610Y-98583477D01*
X109014351Y-98570215D01*
X108945973Y-98523084D01*
X108887576Y-98482735D01*
X108838429Y-98448647D01*
X108797801Y-98420299D01*
X108764961Y-98397170D01*
X108739179Y-98378738D01*
X108719723Y-98364482D01*
X108705864Y-98353881D01*
X108696869Y-98346414D01*
X108692009Y-98341559D01*
X108690553Y-98338796D01*
X108690990Y-98333166D01*
X108692507Y-98319583D01*
X108695206Y-98297481D01*
X108699184Y-98266101D01*
X108704538Y-98224683D01*
X108711366Y-98172469D01*
X108719765Y-98108698D01*
X108729833Y-98032610D01*
X108730681Y-98026206D01*
X108736717Y-97980507D01*
X108743550Y-97928589D01*
X108750404Y-97876363D01*
X108756502Y-97829740D01*
X108759382Y-97807754D01*
X108764059Y-97772415D01*
X108768120Y-97742185D01*
X108771207Y-97719723D01*
X108772959Y-97707688D01*
X108773101Y-97706787D01*
X108774975Y-97693631D01*
X108778188Y-97670011D01*
X108782434Y-97638213D01*
X108787407Y-97600529D01*
X108792802Y-97559246D01*
X108795994Y-97534715D01*
X108813195Y-97403163D01*
X108830622Y-97271025D01*
X108849095Y-97132064D01*
X108857470Y-97069276D01*
X108872096Y-96959571D01*
X108887096Y-96846989D01*
X108901627Y-96737870D01*
X108901813Y-96736472D01*
X108907534Y-96693560D01*
X108913710Y-96647325D01*
X108919611Y-96603234D01*
X108924506Y-96566757D01*
X108928108Y-96539215D01*
X108931499Y-96511587D01*
X108933801Y-96490795D01*
X108934649Y-96479955D01*
X108930928Y-96475085D01*
X108916496Y-96462521D01*
X108891274Y-96442715D01*
X108855352Y-96415733D01*
X108808818Y-96381642D01*
X108751760Y-96340506D01*
X108684267Y-96292390D01*
X108606428Y-96237362D01*
X108561293Y-96205559D01*
X108498742Y-96161473D01*
X108437299Y-96118155D01*
X108378346Y-96076582D01*
X108323268Y-96037729D01*
X108273447Y-96002570D01*
X108230265Y-95972083D01*
X108195105Y-95947241D01*
X108169351Y-95929022D01*
X108134021Y-95904006D01*
X108084807Y-95869186D01*
X108035862Y-95834591D01*
X107985343Y-95798921D01*
X107931404Y-95760874D01*
X107872201Y-95719148D01*
X107805889Y-95672442D01*
X107730623Y-95619454D01*
X107694415Y-95593963D01*
X107643352Y-95558002D01*
X107591056Y-95521162D01*
X107540533Y-95485560D01*
X107494789Y-95453314D01*
X107456831Y-95426543D01*
X107424079Y-95403437D01*
X107374451Y-95368427D01*
X107322114Y-95331508D01*
X107271565Y-95295853D01*
X107227301Y-95264633D01*
X107225627Y-95263453D01*
X107187079Y-95236258D01*
X107148195Y-95208812D01*
X107111756Y-95183077D01*
X107080540Y-95161018D01*
X107057330Y-95144597D01*
X107055048Y-95142982D01*
X107037742Y-95130749D01*
X107010971Y-95111844D01*
X106975831Y-95087041D01*
X106933417Y-95057111D01*
X106884824Y-95022828D01*
X106831147Y-94984963D01*
X106773481Y-94944290D01*
X106712921Y-94901582D01*
X106650563Y-94857610D01*
X106590032Y-94814925D01*
X106523268Y-94767837D01*
X106456939Y-94721047D01*
X106392523Y-94675599D01*
X106331499Y-94632538D01*
X106275347Y-94592905D01*
X106225543Y-94557744D01*
X106183567Y-94528099D01*
X106150898Y-94505013D01*
X106119030Y-94482518D01*
X106073187Y-94450259D01*
X106027733Y-94418381D01*
X105985262Y-94388696D01*
X105948366Y-94363019D01*
X105919636Y-94343166D01*
X105877521Y-94314169D01*
X105823728Y-94276871D01*
X105779905Y-94246100D01*
X105745434Y-94221405D01*
X105719699Y-94202335D01*
X105702081Y-94188439D01*
X105691963Y-94179264D01*
X105688727Y-94174360D01*
X105688979Y-94171415D01*
X105692665Y-94154957D01*
X105700323Y-94128352D01*
X105711405Y-94093109D01*
X105725369Y-94050739D01*
X105741668Y-94002753D01*
X105759757Y-93950659D01*
X105779090Y-93895970D01*
X105799124Y-93840194D01*
X105819312Y-93784842D01*
X105839108Y-93731425D01*
X105857969Y-93681452D01*
X105875349Y-93636434D01*
X105890702Y-93597881D01*
X105903483Y-93567304D01*
X105913147Y-93546212D01*
X105919149Y-93536115D01*
X105919263Y-93536041D01*
X105926285Y-93538773D01*
G37*
D10*
X105926285Y-93538773D02*
X105941974Y-93547789D01*
X105964394Y-93561785D01*
X105991610Y-93579459D01*
X106021688Y-93599506D01*
X106052690Y-93620624D01*
X106082683Y-93641508D01*
X106109730Y-93660856D01*
X106131897Y-93677364D01*
X106147247Y-93689728D01*
X106156954Y-93697290D01*
X106175337Y-93710657D01*
X106199394Y-93727634D01*
X106226416Y-93746285D01*
X106237425Y-93753840D01*
X106261843Y-93770702D01*
X106295013Y-93793684D01*
X106335707Y-93821932D01*
X106382697Y-93854594D01*
X106434756Y-93890814D01*
X106490655Y-93929741D01*
X106549167Y-93970521D01*
X106609065Y-94012299D01*
X106615344Y-94016681D01*
X106685772Y-94065821D01*
X106764205Y-94120541D01*
X106848070Y-94179046D01*
X106934798Y-94239544D01*
X107021817Y-94300242D01*
X107106556Y-94359344D01*
X107186444Y-94415059D01*
X107258909Y-94465592D01*
X107318490Y-94507143D01*
X107376881Y-94547872D01*
X107432069Y-94586375D01*
X107482965Y-94621892D01*
X107528480Y-94653663D01*
X107567526Y-94680928D01*
X107599014Y-94702927D01*
X107621855Y-94718901D01*
X107634961Y-94728089D01*
X107641272Y-94732518D01*
X107660328Y-94745847D01*
X107688403Y-94765454D01*
X107724336Y-94790531D01*
X107766970Y-94820269D01*
X107815145Y-94853860D01*
X107867702Y-94890495D01*
X107923481Y-94929365D01*
X107981325Y-94969663D01*
X108009417Y-94989233D01*
X108067898Y-95029974D01*
X108124551Y-95069446D01*
X108178090Y-95106753D01*
X108227229Y-95140999D01*
X108270683Y-95171288D01*
X108307166Y-95196724D01*
X108335393Y-95216411D01*
X108354078Y-95229453D01*
X108378486Y-95246499D01*
X108414922Y-95271938D01*
X108459535Y-95303079D01*
X108510921Y-95338944D01*
X108567682Y-95378557D01*
X108628415Y-95420939D01*
X108691721Y-95465114D01*
X108756198Y-95510103D01*
X108820446Y-95554930D01*
X108883064Y-95598618D01*
X108942651Y-95640188D01*
X108997807Y-95678663D01*
X109047130Y-95713066D01*
X109089219Y-95742420D01*
X109122675Y-95765747D01*
X109254623Y-95857731D01*
X109253581Y-95920099D01*
X109253560Y-95921336D01*
X109252970Y-95946057D01*
X109251918Y-95981620D01*
X109250486Y-96025832D01*
X109248753Y-96076501D01*
X109246800Y-96131433D01*
X109244707Y-96188437D01*
X109242555Y-96245320D01*
X109240424Y-96299889D01*
X109238394Y-96349953D01*
X109236546Y-96393318D01*
X109234961Y-96427792D01*
X109234648Y-96434345D01*
X109233190Y-96467125D01*
X109231520Y-96507451D01*
X109229820Y-96550819D01*
X109228272Y-96592727D01*
X109227906Y-96602930D01*
X109226303Y-96645632D01*
X109224594Y-96688657D01*
X109222961Y-96727501D01*
X109221587Y-96757662D01*
X109220623Y-96778427D01*
X109219146Y-96811825D01*
X109217349Y-96853618D01*
X109215339Y-96901285D01*
X109213223Y-96952303D01*
X109211108Y-97004149D01*
X109209470Y-97045133D01*
X109207769Y-97090518D01*
X109206710Y-97125384D01*
X109206330Y-97151263D01*
X109206668Y-97169690D01*
X109207761Y-97182200D01*
X109209648Y-97190325D01*
X109212367Y-97195602D01*
X109215957Y-97199562D01*
X109219764Y-97202761D01*
X109234204Y-97213639D01*
X109256205Y-97229461D01*
X109283545Y-97248639D01*
X109314000Y-97269586D01*
X109330937Y-97281142D01*
X109370895Y-97308499D01*
X109415255Y-97338969D01*
X109459728Y-97369601D01*
X109500021Y-97397446D01*
X109525748Y-97415261D01*
X109565888Y-97443044D01*
X109611898Y-97474883D01*
X109660996Y-97508851D01*
X109710398Y-97543022D01*
X109757320Y-97575471D01*
X109836845Y-97630466D01*
X109967990Y-97721195D01*
X110089003Y-97804964D01*
X110200357Y-97882099D01*
X110302523Y-97952930D01*
X110395974Y-98017782D01*
X110400173Y-98020697D01*
X110442871Y-98050307D01*
X110483980Y-98078758D01*
X110521649Y-98104773D01*
X110554032Y-98127078D01*
X110579281Y-98144398D01*
X110595545Y-98155458D01*
X110636779Y-98183192D01*
X110636779Y-98221275D01*
X110636834Y-98224887D01*
X110639086Y-98251560D01*
X110643978Y-98283666D01*
X110650604Y-98315042D01*
X110672071Y-98382621D01*
X110701682Y-98445683D01*
X110737949Y-98501817D01*
X110779817Y-98550362D01*
X110826227Y-98590656D01*
X110876125Y-98622038D01*
X110928452Y-98643845D01*
X110982153Y-98655417D01*
X111036171Y-98656091D01*
X111089449Y-98645205D01*
X111140931Y-98622099D01*
X111147934Y-98617795D01*
X111166887Y-98604397D01*
X111180446Y-98592424D01*
X111190984Y-98583033D01*
X111200692Y-98578545D01*
X111202235Y-98579030D01*
X111213191Y-98585112D01*
X111232633Y-98597288D01*
X111258868Y-98614456D01*
X111290202Y-98635515D01*
X111324941Y-98659363D01*
X111344324Y-98672795D01*
X111388387Y-98703292D01*
X111438294Y-98737795D01*
X111490730Y-98774015D01*
X111542379Y-98809660D01*
X111589928Y-98842441D01*
X111618168Y-98861904D01*
X111665623Y-98894635D01*
X111713638Y-98927777D01*
X111759353Y-98959359D01*
X111799914Y-98987406D01*
X111832463Y-99009945D01*
X111834744Y-99011527D01*
X111877451Y-99041118D01*
X111920248Y-99070736D01*
X111964483Y-99101312D01*
X112011504Y-99133776D01*
X112062661Y-99169057D01*
X112119301Y-99208086D01*
X112182774Y-99251793D01*
X112254427Y-99301108D01*
X112335610Y-99356961D01*
X112340466Y-99360302D01*
X112393757Y-99396974D01*
X112447544Y-99434010D01*
X112499931Y-99470103D01*
X112549023Y-99503947D01*
X112592927Y-99534236D01*
X112629747Y-99559662D01*
X112657588Y-99578921D01*
X112755253Y-99646579D01*
X112776687Y-99622211D01*
X112781466Y-99616745D01*
X112800348Y-99594726D01*
X112817567Y-99574135D01*
X112820281Y-99570860D01*
X112833049Y-99555726D01*
X112852300Y-99533118D01*
X112876460Y-99504881D01*
X112903953Y-99472856D01*
X112933203Y-99438888D01*
X112934973Y-99436835D01*
X112959381Y-99408517D01*
X112990984Y-99371831D01*
X113028488Y-99328281D01*
X113070600Y-99279368D01*
X113116025Y-99226596D01*
X113163471Y-99171468D01*
X113211642Y-99115487D01*
X113259246Y-99060155D01*
X113280550Y-99035430D01*
X113323232Y-98986138D01*
X113363065Y-98940459D01*
X113399231Y-98899311D01*
X113430913Y-98863611D01*
X113457296Y-98834277D01*
X113477562Y-98812226D01*
X113490895Y-98798376D01*
X113496478Y-98793644D01*
X113499331Y-98794907D01*
X113511962Y-98802495D01*
X113532860Y-98816004D01*
X113560405Y-98834362D01*
X113592977Y-98856496D01*
X113628954Y-98881332D01*
X113645187Y-98892621D01*
X113669823Y-98909752D01*
X113695564Y-98927648D01*
X113723156Y-98946828D01*
X113753350Y-98967812D01*
X113786895Y-98991122D01*
X113824538Y-99017276D01*
X113867028Y-99046796D01*
X113915115Y-99080201D01*
X113969547Y-99118012D01*
X114031073Y-99160748D01*
X114100441Y-99208930D01*
X114178401Y-99263079D01*
X114265700Y-99323713D01*
X114363089Y-99391354D01*
X114408930Y-99423194D01*
X114470038Y-99465642D01*
X114532961Y-99509356D01*
X114598704Y-99555033D01*
X114668266Y-99603369D01*
X114742651Y-99655061D01*
X114822860Y-99710804D01*
X114909895Y-99771295D01*
X115004758Y-99837230D01*
X115108450Y-99909305D01*
X115221974Y-99988216D01*
X115229775Y-99993638D01*
X115283608Y-100031016D01*
X115337995Y-100068717D01*
X115391038Y-100105432D01*
X115440842Y-100139849D01*
X115485508Y-100170658D01*
X115523141Y-100196546D01*
X115551844Y-100216204D01*
X115575145Y-100232118D01*
X115616547Y-100260453D01*
X115658414Y-100289169D01*
X115696955Y-100315664D01*
X115728378Y-100337337D01*
X115802652Y-100388699D01*
X115784456Y-100408006D01*
X115779399Y-100413244D01*
X115756404Y-100435498D01*
X115724936Y-100464328D01*
X115686442Y-100498503D01*
X115642369Y-100536795D01*
X115594162Y-100577974D01*
X115543270Y-100620811D01*
X115491140Y-100664076D01*
X115439217Y-100706540D01*
X115388949Y-100746974D01*
X115341783Y-100784147D01*
X115260371Y-100847522D01*
X115191162Y-100799956D01*
X115164536Y-100781600D01*
X115132279Y-100759243D01*
X115102757Y-100738665D01*
X115080049Y-100722701D01*
X115071354Y-100716546D01*
X115036828Y-100692193D01*
X114996894Y-100664155D01*
X114950643Y-100631798D01*
X114897165Y-100594488D01*
X114835553Y-100551590D01*
X114764896Y-100502469D01*
X114684286Y-100446493D01*
X114618063Y-100400526D01*
X114513068Y-100327644D01*
X114417555Y-100261339D01*
X114330666Y-100201016D01*
X114251544Y-100146078D01*
X114179330Y-100095931D01*
X114113168Y-100049978D01*
X114052200Y-100007624D01*
X113995569Y-99968274D01*
X113942416Y-99931331D01*
X113891885Y-99896201D01*
X113843117Y-99862288D01*
X113829333Y-99852701D01*
X113748066Y-99796190D01*
X113676861Y-99746697D01*
X113615059Y-99703768D01*
X113562000Y-99666951D01*
X113517025Y-99635792D01*
X113479475Y-99609838D01*
X113448689Y-99588635D01*
X113424008Y-99571730D01*
X113404772Y-99558669D01*
X113390322Y-99549000D01*
X113379999Y-99542269D01*
X113373142Y-99538022D01*
X113369092Y-99535806D01*
X113367189Y-99535168D01*
X113367134Y-99535190D01*
X113362460Y-99541247D01*
X113350948Y-99557594D01*
X113333038Y-99583579D01*
X113309172Y-99618546D01*
X113279790Y-99661842D01*
X113245333Y-99712813D01*
X113206242Y-99770804D01*
X113162959Y-99835161D01*
X113115923Y-99905230D01*
X113065577Y-99980357D01*
X113012361Y-100059888D01*
X112956716Y-100143169D01*
X112899083Y-100229545D01*
X112895508Y-100234907D01*
X112837996Y-100321152D01*
X112782537Y-100404305D01*
X112729568Y-100483709D01*
X112679528Y-100558706D01*
X112632857Y-100628640D01*
X112589993Y-100692852D01*
X112551376Y-100750686D01*
X112517443Y-100801485D01*
X112488634Y-100844590D01*
X112465388Y-100879345D01*
X112448144Y-100905093D01*
X112437340Y-100921176D01*
X112433416Y-100926937D01*
X112432849Y-100927600D01*
X112431899Y-100928189D01*
X112430139Y-100928066D01*
X112426943Y-100926805D01*
X112421684Y-100923980D01*
X112413735Y-100919166D01*
X112402470Y-100911936D01*
X112387261Y-100901864D01*
X112367481Y-100888526D01*
X112342505Y-100871494D01*
X112311705Y-100850343D01*
X112274455Y-100824648D01*
X112230127Y-100793982D01*
X112178095Y-100757919D01*
X112117732Y-100716034D01*
X112048411Y-100667900D01*
X111969506Y-100613092D01*
X111880390Y-100551184D01*
X111863078Y-100539160D01*
X111795922Y-100492552D01*
X111722454Y-100441616D01*
X111641913Y-100385828D01*
X111553542Y-100324661D01*
X111456579Y-100257589D01*
X111350266Y-100184088D01*
X111233844Y-100103631D01*
X111195406Y-100077050D01*
X111144740Y-100041966D01*
X111089237Y-100003495D01*
X111032068Y-99963835D01*
X110976404Y-99925186D01*
X110925416Y-99889745D01*
X110755532Y-99771588D01*
X110755532Y-99740661D01*
X110754859Y-99725629D01*
X110747769Y-99682634D01*
X110733949Y-99634304D01*
X110714643Y-99584047D01*
X110691094Y-99535270D01*
X110664546Y-99491380D01*
X110648805Y-99469801D01*
X110604255Y-99420637D01*
X110555037Y-99381083D01*
X110502489Y-99351527D01*
X110447951Y-99332356D01*
X110392763Y-99323960D01*
X110338262Y-99326726D01*
X110285788Y-99341044D01*
X110236679Y-99367300D01*
X110201762Y-99391349D01*
X110064660Y-99296080D01*
X110033978Y-99274773D01*
X109983825Y-99239983D01*
X109928574Y-99201691D01*
X109871594Y-99162232D01*
X109816254Y-99123938D01*
X109765922Y-99089145D01*
X109760651Y-99085503D01*
X109716925Y-99055292D01*
X109674388Y-99025900D01*
X109634975Y-98998662D01*
X109600617Y-98974916D01*
X109573250Y-98955996D01*
X109554805Y-98943240D01*
X109542609Y-98934807D01*
X109514997Y-98915740D01*
X109481529Y-98892648D01*
X109445364Y-98867712D01*
X109409662Y-98843111D01*
X109396007Y-98833703D01*
X109353826Y-98804612D01*
X109308743Y-98773488D01*
X109265348Y-98743500D01*
X109228234Y-98717820D01*
X109203998Y-98701048D01*
X109163802Y-98673269D01*
X109119418Y-98642628D01*
X109074727Y-98611804D01*
X109033610Y-98583477D01*
X109014351Y-98570215D01*
X108945973Y-98523084D01*
X108887576Y-98482735D01*
X108838429Y-98448647D01*
X108797801Y-98420299D01*
X108764961Y-98397170D01*
X108739179Y-98378738D01*
X108719723Y-98364482D01*
X108705864Y-98353881D01*
X108696869Y-98346414D01*
X108692009Y-98341559D01*
X108690553Y-98338796D01*
X108690990Y-98333166D01*
X108692507Y-98319583D01*
X108695206Y-98297481D01*
X108699184Y-98266101D01*
X108704538Y-98224683D01*
X108711366Y-98172469D01*
X108719765Y-98108698D01*
X108729833Y-98032610D01*
X108730681Y-98026206D01*
X108736717Y-97980507D01*
X108743550Y-97928589D01*
X108750404Y-97876363D01*
X108756502Y-97829740D01*
X108759382Y-97807754D01*
X108764059Y-97772415D01*
X108768120Y-97742185D01*
X108771207Y-97719723D01*
X108772959Y-97707688D01*
X108773101Y-97706787D01*
X108774975Y-97693631D01*
X108778188Y-97670011D01*
X108782434Y-97638213D01*
X108787407Y-97600529D01*
X108792802Y-97559246D01*
X108795994Y-97534715D01*
X108813195Y-97403163D01*
X108830622Y-97271025D01*
X108849095Y-97132064D01*
X108857470Y-97069276D01*
X108872096Y-96959571D01*
X108887096Y-96846989D01*
X108901627Y-96737870D01*
X108901813Y-96736472D01*
X108907534Y-96693560D01*
X108913710Y-96647325D01*
X108919611Y-96603234D01*
X108924506Y-96566757D01*
X108928108Y-96539215D01*
X108931499Y-96511587D01*
X108933801Y-96490795D01*
X108934649Y-96479955D01*
X108930928Y-96475085D01*
X108916496Y-96462521D01*
X108891274Y-96442715D01*
X108855352Y-96415733D01*
X108808818Y-96381642D01*
X108751760Y-96340506D01*
X108684267Y-96292390D01*
X108606428Y-96237362D01*
X108561293Y-96205559D01*
X108498742Y-96161473D01*
X108437299Y-96118155D01*
X108378346Y-96076582D01*
X108323268Y-96037729D01*
X108273447Y-96002570D01*
X108230265Y-95972083D01*
X108195105Y-95947241D01*
X108169351Y-95929022D01*
X108134021Y-95904006D01*
X108084807Y-95869186D01*
X108035862Y-95834591D01*
X107985343Y-95798921D01*
X107931404Y-95760874D01*
X107872201Y-95719148D01*
X107805889Y-95672442D01*
X107730623Y-95619454D01*
X107694415Y-95593963D01*
X107643352Y-95558002D01*
X107591056Y-95521162D01*
X107540533Y-95485560D01*
X107494789Y-95453314D01*
X107456831Y-95426543D01*
X107424079Y-95403437D01*
X107374451Y-95368427D01*
X107322114Y-95331508D01*
X107271565Y-95295853D01*
X107227301Y-95264633D01*
X107225627Y-95263453D01*
X107187079Y-95236258D01*
X107148195Y-95208812D01*
X107111756Y-95183077D01*
X107080540Y-95161018D01*
X107057330Y-95144597D01*
X107055048Y-95142982D01*
X107037742Y-95130749D01*
X107010971Y-95111844D01*
X106975831Y-95087041D01*
X106933417Y-95057111D01*
X106884824Y-95022828D01*
X106831147Y-94984963D01*
X106773481Y-94944290D01*
X106712921Y-94901582D01*
X106650563Y-94857610D01*
X106590032Y-94814925D01*
X106523268Y-94767837D01*
X106456939Y-94721047D01*
X106392523Y-94675599D01*
X106331499Y-94632538D01*
X106275347Y-94592905D01*
X106225543Y-94557744D01*
X106183567Y-94528099D01*
X106150898Y-94505013D01*
X106119030Y-94482518D01*
X106073187Y-94450259D01*
X106027733Y-94418381D01*
X105985262Y-94388696D01*
X105948366Y-94363019D01*
X105919636Y-94343166D01*
X105877521Y-94314169D01*
X105823728Y-94276871D01*
X105779905Y-94246100D01*
X105745434Y-94221405D01*
X105719699Y-94202335D01*
X105702081Y-94188439D01*
X105691963Y-94179264D01*
X105688727Y-94174360D01*
X105688979Y-94171415D01*
X105692665Y-94154957D01*
X105700323Y-94128352D01*
X105711405Y-94093109D01*
X105725369Y-94050739D01*
X105741668Y-94002753D01*
X105759757Y-93950659D01*
X105779090Y-93895970D01*
X105799124Y-93840194D01*
X105819312Y-93784842D01*
X105839108Y-93731425D01*
X105857969Y-93681452D01*
X105875349Y-93636434D01*
X105890702Y-93597881D01*
X105903483Y-93567304D01*
X105913147Y-93546212D01*
X105919149Y-93536115D01*
X105919263Y-93536041D01*
X105926285Y-93538773D01*
G36*
X107875278Y-91011943D02*
G01*
X107884818Y-91017260D01*
X107902914Y-91028947D01*
X107927836Y-91045832D01*
X107957849Y-91066747D01*
X107991221Y-91090521D01*
X108013520Y-91106536D01*
X108048413Y-91131488D01*
X108089293Y-91160613D01*
X108136444Y-91194111D01*
X108190149Y-91232181D01*
X108250692Y-91275025D01*
X108318357Y-91322840D01*
X108393426Y-91375828D01*
X108476184Y-91434188D01*
X108566914Y-91498119D01*
X108665899Y-91567822D01*
X108773424Y-91643496D01*
X108889771Y-91725341D01*
X109015225Y-91813557D01*
X109150069Y-91908343D01*
X109294586Y-92009900D01*
X109449060Y-92118427D01*
X109613774Y-92234124D01*
X109789013Y-92357191D01*
X109847943Y-92398574D01*
X109916289Y-92446574D01*
X109986676Y-92496010D01*
X110056964Y-92545380D01*
X110125014Y-92593180D01*
X110188686Y-92637908D01*
X110245839Y-92678060D01*
X110294333Y-92712133D01*
X110303929Y-92718871D01*
X110349899Y-92751001D01*
X110392369Y-92780446D01*
X110430127Y-92806385D01*
X110461962Y-92827993D01*
X110486662Y-92844446D01*
X110503015Y-92854922D01*
X110509811Y-92858597D01*
X110512003Y-92857980D01*
X110522129Y-92850467D01*
X110534807Y-92837155D01*
X110535597Y-92836214D01*
X110549469Y-92819901D01*
X110567971Y-92798409D01*
X110587324Y-92776129D01*
X110594344Y-92768043D01*
X110610461Y-92749389D01*
X110633794Y-92722333D01*
X110663564Y-92687778D01*
X110698991Y-92646630D01*
X110739298Y-92599795D01*
X110783703Y-92548178D01*
X110831428Y-92492684D01*
X110881693Y-92434219D01*
X110933720Y-92373688D01*
X110979033Y-92320961D01*
X111027831Y-92264178D01*
X111073494Y-92211046D01*
X111115337Y-92162359D01*
X111152679Y-92118911D01*
X111184835Y-92081498D01*
X111211123Y-92050913D01*
X111230860Y-92027951D01*
X111243363Y-92013408D01*
X111247949Y-92008077D01*
X111248619Y-92007856D01*
X111251744Y-92008888D01*
X111258023Y-92012295D01*
X111268310Y-92018651D01*
X111283455Y-92028532D01*
X111304314Y-92042509D01*
X111331737Y-92061158D01*
X111366577Y-92085052D01*
X111409688Y-92114764D01*
X111461921Y-92150869D01*
X111524130Y-92193941D01*
X111547110Y-92209857D01*
X111600220Y-92246623D01*
X111657375Y-92286169D01*
X111714853Y-92325922D01*
X111768933Y-92363307D01*
X111815891Y-92395748D01*
X111847314Y-92417448D01*
X111898277Y-92452642D01*
X111954263Y-92491305D01*
X112011867Y-92531086D01*
X112067684Y-92569634D01*
X112118311Y-92604597D01*
X112155126Y-92630036D01*
X112208935Y-92667258D01*
X112264944Y-92706039D01*
X112319889Y-92744118D01*
X112370502Y-92779231D01*
X112413518Y-92809116D01*
X112546326Y-92901480D01*
X112548365Y-92931168D01*
X112552825Y-92972214D01*
X112571579Y-93053795D01*
X112603319Y-93133969D01*
X112610939Y-93149520D01*
X112627095Y-93179527D01*
X112643518Y-93204245D01*
X112663478Y-93228277D01*
X112690248Y-93256223D01*
X112726311Y-93289445D01*
X112778438Y-93326480D01*
X112831711Y-93351119D01*
X112887213Y-93363824D01*
X112946030Y-93365054D01*
X112996519Y-93355750D01*
X113044697Y-93336097D01*
X113085926Y-93307906D01*
X113109925Y-93286834D01*
X113154897Y-93318833D01*
X113161459Y-93323470D01*
X113181621Y-93337585D01*
X113210526Y-93357717D01*
X113246780Y-93382900D01*
X113288987Y-93412165D01*
X113335752Y-93444546D01*
X113385680Y-93479074D01*
X113437377Y-93514781D01*
X113447359Y-93521672D01*
X113504290Y-93560978D01*
X113563041Y-93601550D01*
X113621499Y-93641927D01*
X113677550Y-93680650D01*
X113729081Y-93716258D01*
X113773979Y-93747292D01*
X113810130Y-93772292D01*
X113810192Y-93772334D01*
X113852314Y-93801473D01*
X113902271Y-93836030D01*
X113957051Y-93873922D01*
X114013642Y-93913066D01*
X114069032Y-93951377D01*
X114120208Y-93986773D01*
X114124544Y-93989773D01*
X114174615Y-94024425D01*
X114227318Y-94060930D01*
X114279954Y-94097418D01*
X114329828Y-94132017D01*
X114374240Y-94162857D01*
X114410493Y-94188068D01*
X114525948Y-94268443D01*
X114525444Y-94294182D01*
X114524937Y-94315809D01*
X114524029Y-94347992D01*
X114522844Y-94386010D01*
X114521460Y-94427752D01*
X114519953Y-94471102D01*
X114518401Y-94513947D01*
X114516879Y-94554172D01*
X114515466Y-94589665D01*
X114514237Y-94618311D01*
X114513269Y-94637997D01*
X114512640Y-94646608D01*
X114512300Y-94649996D01*
X114511424Y-94665422D01*
X114510305Y-94690967D01*
X114509023Y-94724623D01*
X114507657Y-94764385D01*
X114506285Y-94808245D01*
X114505577Y-94831349D01*
X114504175Y-94873738D01*
X114502803Y-94911203D01*
X114501542Y-94941680D01*
X114500477Y-94963100D01*
X114499689Y-94973398D01*
X114499417Y-94975974D01*
X114498506Y-94990899D01*
X114497362Y-95016064D01*
X114496069Y-95049343D01*
X114494713Y-95088608D01*
X114493378Y-95131735D01*
X114492898Y-95147736D01*
X114491493Y-95190377D01*
X114490052Y-95228801D01*
X114488670Y-95260765D01*
X114487441Y-95284024D01*
X114486460Y-95296337D01*
X114486176Y-95298951D01*
X114485076Y-95315034D01*
X114483738Y-95341319D01*
X114482260Y-95375538D01*
X114480744Y-95415425D01*
X114479288Y-95458713D01*
X114474803Y-95601297D01*
X114668609Y-95736359D01*
X114702367Y-95759882D01*
X114808853Y-95834053D01*
X114904679Y-95900747D01*
X114989954Y-95960039D01*
X115064786Y-96012006D01*
X115129287Y-96056723D01*
X115183565Y-96094267D01*
X115227730Y-96124713D01*
X115261892Y-96148138D01*
X115279610Y-96160279D01*
X115312678Y-96183053D01*
X115352267Y-96210414D01*
X115395838Y-96240604D01*
X115440851Y-96271866D01*
X115484767Y-96302441D01*
X115490873Y-96306698D01*
X115530965Y-96334640D01*
X115571910Y-96363162D01*
X115614957Y-96393130D01*
X115661354Y-96425413D01*
X115712348Y-96460880D01*
X115769189Y-96500398D01*
X115833125Y-96544836D01*
X115905403Y-96595062D01*
X115987273Y-96651944D01*
X115998804Y-96659942D01*
X116020084Y-96674687D01*
X116049396Y-96694988D01*
X116085300Y-96719849D01*
X116126358Y-96748274D01*
X116171132Y-96779267D01*
X116218182Y-96811832D01*
X116249498Y-96833511D01*
X116303072Y-96870617D01*
X116357311Y-96908206D01*
X116409914Y-96944680D01*
X116458574Y-96978443D01*
X116500990Y-97007895D01*
X116534857Y-97031441D01*
X116563740Y-97051520D01*
X116616839Y-97088366D01*
X116678325Y-97130963D01*
X116746678Y-97178263D01*
X116820381Y-97229219D01*
X116897914Y-97282781D01*
X116977760Y-97337901D01*
X117058400Y-97393533D01*
X117138315Y-97448627D01*
X117215987Y-97502135D01*
X117289897Y-97553010D01*
X117358528Y-97600203D01*
X117420360Y-97642665D01*
X117424956Y-97645835D01*
X117450823Y-97664303D01*
X117471873Y-97680379D01*
X117486047Y-97692431D01*
X117491282Y-97698827D01*
X117490703Y-97702573D01*
X117486427Y-97718187D01*
X117478499Y-97743533D01*
X117467522Y-97776883D01*
X117454100Y-97816513D01*
X117438836Y-97860695D01*
X117422334Y-97907703D01*
X117405198Y-97955811D01*
X117388030Y-98003293D01*
X117371436Y-98048423D01*
X117356017Y-98089474D01*
X117342378Y-98124720D01*
X117331103Y-98153202D01*
X117310736Y-98204180D01*
X117294338Y-98244391D01*
X117281438Y-98274901D01*
X117271563Y-98296776D01*
X117264241Y-98311081D01*
X117259001Y-98318883D01*
X117255371Y-98321246D01*
X117254851Y-98321121D01*
X117246105Y-98316220D01*
X117228644Y-98305027D01*
X117204192Y-98288690D01*
X117174470Y-98268357D01*
X117141202Y-98245176D01*
X117135084Y-98240878D01*
X117086907Y-98207077D01*
X117029294Y-98166731D01*
X116963471Y-98120695D01*
X116890665Y-98069825D01*
X116812101Y-98014975D01*
X116729005Y-97957002D01*
X116642603Y-97896761D01*
X116554121Y-97835108D01*
X116464785Y-97772898D01*
X116375819Y-97710987D01*
X116370151Y-97707044D01*
X116312250Y-97666756D01*
X116251351Y-97624374D01*
X116189761Y-97581500D01*
X116129783Y-97539741D01*
X116073723Y-97500700D01*
X116023887Y-97465983D01*
X115982578Y-97437194D01*
X115941019Y-97408247D01*
X115896564Y-97377331D01*
X115854011Y-97347784D01*
X115815590Y-97321153D01*
X115783529Y-97298984D01*
X115760058Y-97282824D01*
X115736848Y-97266881D01*
X115704505Y-97244598D01*
X115674378Y-97223772D01*
X115650805Y-97207400D01*
X115638307Y-97198690D01*
X115611844Y-97180267D01*
X115576400Y-97155606D01*
X115533069Y-97125469D01*
X115482946Y-97090616D01*
X115427128Y-97051809D01*
X115366710Y-97009810D01*
X115302786Y-96965379D01*
X115236453Y-96919280D01*
X115168805Y-96872272D01*
X115100938Y-96825118D01*
X115033948Y-96778578D01*
X115007223Y-96760012D01*
X114946216Y-96717620D01*
X114879173Y-96671025D01*
X114809313Y-96622463D01*
X114739855Y-96574173D01*
X114674015Y-96528391D01*
X114615013Y-96487354D01*
X114572576Y-96457846D01*
X114516022Y-96418553D01*
X114458620Y-96378700D01*
X114402705Y-96339909D01*
X114350614Y-96303799D01*
X114304680Y-96271990D01*
X114267239Y-96246102D01*
X114239805Y-96227042D01*
X114205337Y-96202749D01*
X114175692Y-96181453D01*
X114152389Y-96164263D01*
X114136948Y-96152289D01*
X114130889Y-96146639D01*
X114129942Y-96140460D01*
X114128524Y-96122721D01*
X114126956Y-96095961D01*
X114125370Y-96062482D01*
X114123897Y-96024587D01*
X114122897Y-95997216D01*
X114121291Y-95957412D01*
X114119672Y-95921470D01*
X114118182Y-95892500D01*
X114116963Y-95873610D01*
X114116929Y-95873177D01*
X114115809Y-95854734D01*
X114114469Y-95825966D01*
X114113019Y-95789639D01*
X114111569Y-95748520D01*
X114110231Y-95705376D01*
X114110095Y-95700712D01*
X114108773Y-95659247D01*
X114107373Y-95621419D01*
X114105995Y-95589615D01*
X114104744Y-95566224D01*
X114103720Y-95553636D01*
X114103280Y-95549159D01*
X114102170Y-95531290D01*
X114100848Y-95503475D01*
X114099406Y-95467889D01*
X114097935Y-95426707D01*
X114096526Y-95382103D01*
X114095804Y-95358344D01*
X114094429Y-95316414D01*
X114093096Y-95279657D01*
X114091883Y-95250077D01*
X114090870Y-95229679D01*
X114090135Y-95220467D01*
X114089671Y-95216344D01*
X114088825Y-95200205D01*
X114088138Y-95176188D01*
X114087725Y-95147792D01*
X114087221Y-95085013D01*
X113948673Y-94989454D01*
X113926806Y-94974364D01*
X113876401Y-94939535D01*
X113820664Y-94900973D01*
X113763269Y-94861223D01*
X113707892Y-94822830D01*
X113658208Y-94788337D01*
X113626985Y-94766655D01*
X113572697Y-94728999D01*
X113513587Y-94688041D01*
X113453304Y-94646307D01*
X113395497Y-94606326D01*
X113343817Y-94570623D01*
X113301743Y-94541563D01*
X113253001Y-94507863D01*
X113201508Y-94472233D01*
X113148500Y-94435529D01*
X113095214Y-94398610D01*
X113042887Y-94362334D01*
X112992756Y-94327559D01*
X112946056Y-94295142D01*
X112904026Y-94265941D01*
X112867901Y-94240814D01*
X112838918Y-94220620D01*
X112818313Y-94206215D01*
X112807325Y-94198458D01*
X112805421Y-94197048D01*
X112797579Y-94189212D01*
X112792498Y-94178172D01*
X112789109Y-94160599D01*
X112786343Y-94133167D01*
X112785586Y-94124860D01*
X112772404Y-94046726D01*
X112749181Y-93973400D01*
X112716737Y-93906109D01*
X112675890Y-93846077D01*
X112627462Y-93794529D01*
X112572271Y-93752690D01*
X112511136Y-93721785D01*
X112501584Y-93718269D01*
X112476837Y-93711651D01*
X112448364Y-93708070D01*
X112411480Y-93706824D01*
X112399147Y-93706783D01*
X112370937Y-93707511D01*
X112349918Y-93710079D01*
X112331659Y-93715241D01*
X112311728Y-93723748D01*
X112296232Y-93731822D01*
X112269809Y-93748369D01*
X112248253Y-93764982D01*
X112237607Y-93774257D01*
X112224255Y-93784748D01*
X112217061Y-93788831D01*
X112213716Y-93787223D01*
X112204256Y-93781362D01*
X112188307Y-93770893D01*
X112165387Y-93755488D01*
X112135018Y-93734817D01*
X112096720Y-93708552D01*
X112050013Y-93676362D01*
X111994417Y-93637920D01*
X111929452Y-93592895D01*
X111854639Y-93540960D01*
X111769499Y-93481783D01*
X111730520Y-93454719D01*
X111681154Y-93420516D01*
X111626834Y-93382940D01*
X111570620Y-93344106D01*
X111515573Y-93306129D01*
X111464753Y-93271127D01*
X111460364Y-93268106D01*
X111411854Y-93234690D01*
X111361688Y-93200076D01*
X111312371Y-93165996D01*
X111266411Y-93134186D01*
X111226315Y-93106377D01*
X111194590Y-93084305D01*
X111165049Y-93063821D01*
X111136056Y-93043977D01*
X111112178Y-93027910D01*
X111095307Y-93016893D01*
X111087334Y-93012198D01*
X111086818Y-93012017D01*
X111082961Y-93011775D01*
X111077499Y-93013879D01*
X111069285Y-93019284D01*
X111057175Y-93028943D01*
X111040023Y-93043812D01*
X111016683Y-93064844D01*
X110986009Y-93092993D01*
X110946857Y-93129215D01*
X110938340Y-93137103D01*
X110913044Y-93160489D01*
X110880189Y-93190822D01*
X110841261Y-93226734D01*
X110797744Y-93266855D01*
X110751123Y-93309816D01*
X110702883Y-93354248D01*
X110654509Y-93398782D01*
X110438031Y-93598023D01*
X110407106Y-93575614D01*
X110401332Y-93571505D01*
X110384776Y-93559808D01*
X110358349Y-93541178D01*
X110322569Y-93515980D01*
X110277952Y-93484576D01*
X110225016Y-93447330D01*
X110164277Y-93404605D01*
X110096252Y-93356765D01*
X110021458Y-93304172D01*
X109940411Y-93247192D01*
X109853629Y-93186185D01*
X109761628Y-93121517D01*
X109664925Y-93053551D01*
X109564037Y-92982650D01*
X109459480Y-92909177D01*
X109351772Y-92833495D01*
X109241429Y-92755969D01*
X109186706Y-92717522D01*
X109073776Y-92638176D01*
X108962130Y-92559725D01*
X108852400Y-92482616D01*
X108745221Y-92407293D01*
X108641228Y-92334203D01*
X108541055Y-92263793D01*
X108445336Y-92196507D01*
X108354705Y-92132792D01*
X108269797Y-92073094D01*
X108191246Y-92017859D01*
X108119687Y-91967533D01*
X108055753Y-91922561D01*
X108000079Y-91883389D01*
X107953300Y-91850464D01*
X107916049Y-91824232D01*
X107888961Y-91805138D01*
X107880316Y-91799040D01*
X107830378Y-91763867D01*
X107781862Y-91729776D01*
X107736328Y-91697857D01*
X107695334Y-91669199D01*
X107660437Y-91644892D01*
X107633196Y-91626026D01*
X107615169Y-91613690D01*
X107590403Y-91596879D01*
X107552893Y-91571110D01*
X107515137Y-91544859D01*
X107478726Y-91519261D01*
X107445250Y-91495447D01*
X107416299Y-91474553D01*
X107393465Y-91457712D01*
X107378337Y-91446058D01*
X107372506Y-91440724D01*
X107376087Y-91434390D01*
X107388732Y-91420591D01*
X107409318Y-91400433D01*
X107436671Y-91374918D01*
X107469620Y-91345048D01*
X107506991Y-91311827D01*
X107547611Y-91276255D01*
X107590308Y-91239334D01*
X107633909Y-91202068D01*
X107677241Y-91165459D01*
X107719132Y-91130507D01*
X107758408Y-91098216D01*
X107793896Y-91069588D01*
X107824425Y-91045625D01*
X107848821Y-91027328D01*
X107865912Y-91015701D01*
X107874524Y-91011745D01*
X107875278Y-91011943D01*
G37*
X107875278Y-91011943D02*
X107884818Y-91017260D01*
X107902914Y-91028947D01*
X107927836Y-91045832D01*
X107957849Y-91066747D01*
X107991221Y-91090521D01*
X108013520Y-91106536D01*
X108048413Y-91131488D01*
X108089293Y-91160613D01*
X108136444Y-91194111D01*
X108190149Y-91232181D01*
X108250692Y-91275025D01*
X108318357Y-91322840D01*
X108393426Y-91375828D01*
X108476184Y-91434188D01*
X108566914Y-91498119D01*
X108665899Y-91567822D01*
X108773424Y-91643496D01*
X108889771Y-91725341D01*
X109015225Y-91813557D01*
X109150069Y-91908343D01*
X109294586Y-92009900D01*
X109449060Y-92118427D01*
X109613774Y-92234124D01*
X109789013Y-92357191D01*
X109847943Y-92398574D01*
X109916289Y-92446574D01*
X109986676Y-92496010D01*
X110056964Y-92545380D01*
X110125014Y-92593180D01*
X110188686Y-92637908D01*
X110245839Y-92678060D01*
X110294333Y-92712133D01*
X110303929Y-92718871D01*
X110349899Y-92751001D01*
X110392369Y-92780446D01*
X110430127Y-92806385D01*
X110461962Y-92827993D01*
X110486662Y-92844446D01*
X110503015Y-92854922D01*
X110509811Y-92858597D01*
X110512003Y-92857980D01*
X110522129Y-92850467D01*
X110534807Y-92837155D01*
X110535597Y-92836214D01*
X110549469Y-92819901D01*
X110567971Y-92798409D01*
X110587324Y-92776129D01*
X110594344Y-92768043D01*
X110610461Y-92749389D01*
X110633794Y-92722333D01*
X110663564Y-92687778D01*
X110698991Y-92646630D01*
X110739298Y-92599795D01*
X110783703Y-92548178D01*
X110831428Y-92492684D01*
X110881693Y-92434219D01*
X110933720Y-92373688D01*
X110979033Y-92320961D01*
X111027831Y-92264178D01*
X111073494Y-92211046D01*
X111115337Y-92162359D01*
X111152679Y-92118911D01*
X111184835Y-92081498D01*
X111211123Y-92050913D01*
X111230860Y-92027951D01*
X111243363Y-92013408D01*
X111247949Y-92008077D01*
X111248619Y-92007856D01*
X111251744Y-92008888D01*
X111258023Y-92012295D01*
X111268310Y-92018651D01*
X111283455Y-92028532D01*
X111304314Y-92042509D01*
X111331737Y-92061158D01*
X111366577Y-92085052D01*
X111409688Y-92114764D01*
X111461921Y-92150869D01*
X111524130Y-92193941D01*
X111547110Y-92209857D01*
X111600220Y-92246623D01*
X111657375Y-92286169D01*
X111714853Y-92325922D01*
X111768933Y-92363307D01*
X111815891Y-92395748D01*
X111847314Y-92417448D01*
X111898277Y-92452642D01*
X111954263Y-92491305D01*
X112011867Y-92531086D01*
X112067684Y-92569634D01*
X112118311Y-92604597D01*
X112155126Y-92630036D01*
X112208935Y-92667258D01*
X112264944Y-92706039D01*
X112319889Y-92744118D01*
X112370502Y-92779231D01*
X112413518Y-92809116D01*
X112546326Y-92901480D01*
X112548365Y-92931168D01*
X112552825Y-92972214D01*
X112571579Y-93053795D01*
X112603319Y-93133969D01*
X112610939Y-93149520D01*
X112627095Y-93179527D01*
X112643518Y-93204245D01*
X112663478Y-93228277D01*
X112690248Y-93256223D01*
X112726311Y-93289445D01*
X112778438Y-93326480D01*
X112831711Y-93351119D01*
X112887213Y-93363824D01*
X112946030Y-93365054D01*
X112996519Y-93355750D01*
X113044697Y-93336097D01*
X113085926Y-93307906D01*
X113109925Y-93286834D01*
X113154897Y-93318833D01*
X113161459Y-93323470D01*
X113181621Y-93337585D01*
X113210526Y-93357717D01*
X113246780Y-93382900D01*
X113288987Y-93412165D01*
X113335752Y-93444546D01*
X113385680Y-93479074D01*
X113437377Y-93514781D01*
X113447359Y-93521672D01*
X113504290Y-93560978D01*
X113563041Y-93601550D01*
X113621499Y-93641927D01*
X113677550Y-93680650D01*
X113729081Y-93716258D01*
X113773979Y-93747292D01*
X113810130Y-93772292D01*
X113810192Y-93772334D01*
X113852314Y-93801473D01*
X113902271Y-93836030D01*
X113957051Y-93873922D01*
X114013642Y-93913066D01*
X114069032Y-93951377D01*
X114120208Y-93986773D01*
X114124544Y-93989773D01*
X114174615Y-94024425D01*
X114227318Y-94060930D01*
X114279954Y-94097418D01*
X114329828Y-94132017D01*
X114374240Y-94162857D01*
X114410493Y-94188068D01*
X114525948Y-94268443D01*
X114525444Y-94294182D01*
X114524937Y-94315809D01*
X114524029Y-94347992D01*
X114522844Y-94386010D01*
X114521460Y-94427752D01*
X114519953Y-94471102D01*
X114518401Y-94513947D01*
X114516879Y-94554172D01*
X114515466Y-94589665D01*
X114514237Y-94618311D01*
X114513269Y-94637997D01*
X114512640Y-94646608D01*
X114512300Y-94649996D01*
X114511424Y-94665422D01*
X114510305Y-94690967D01*
X114509023Y-94724623D01*
X114507657Y-94764385D01*
X114506285Y-94808245D01*
X114505577Y-94831349D01*
X114504175Y-94873738D01*
X114502803Y-94911203D01*
X114501542Y-94941680D01*
X114500477Y-94963100D01*
X114499689Y-94973398D01*
X114499417Y-94975974D01*
X114498506Y-94990899D01*
X114497362Y-95016064D01*
X114496069Y-95049343D01*
X114494713Y-95088608D01*
X114493378Y-95131735D01*
X114492898Y-95147736D01*
X114491493Y-95190377D01*
X114490052Y-95228801D01*
X114488670Y-95260765D01*
X114487441Y-95284024D01*
X114486460Y-95296337D01*
X114486176Y-95298951D01*
X114485076Y-95315034D01*
X114483738Y-95341319D01*
X114482260Y-95375538D01*
X114480744Y-95415425D01*
X114479288Y-95458713D01*
X114474803Y-95601297D01*
X114668609Y-95736359D01*
X114702367Y-95759882D01*
X114808853Y-95834053D01*
X114904679Y-95900747D01*
X114989954Y-95960039D01*
X115064786Y-96012006D01*
X115129287Y-96056723D01*
X115183565Y-96094267D01*
X115227730Y-96124713D01*
X115261892Y-96148138D01*
X115279610Y-96160279D01*
X115312678Y-96183053D01*
X115352267Y-96210414D01*
X115395838Y-96240604D01*
X115440851Y-96271866D01*
X115484767Y-96302441D01*
X115490873Y-96306698D01*
X115530965Y-96334640D01*
X115571910Y-96363162D01*
X115614957Y-96393130D01*
X115661354Y-96425413D01*
X115712348Y-96460880D01*
X115769189Y-96500398D01*
X115833125Y-96544836D01*
X115905403Y-96595062D01*
X115987273Y-96651944D01*
X115998804Y-96659942D01*
X116020084Y-96674687D01*
X116049396Y-96694988D01*
X116085300Y-96719849D01*
X116126358Y-96748274D01*
X116171132Y-96779267D01*
X116218182Y-96811832D01*
X116249498Y-96833511D01*
X116303072Y-96870617D01*
X116357311Y-96908206D01*
X116409914Y-96944680D01*
X116458574Y-96978443D01*
X116500990Y-97007895D01*
X116534857Y-97031441D01*
X116563740Y-97051520D01*
X116616839Y-97088366D01*
X116678325Y-97130963D01*
X116746678Y-97178263D01*
X116820381Y-97229219D01*
X116897914Y-97282781D01*
X116977760Y-97337901D01*
X117058400Y-97393533D01*
X117138315Y-97448627D01*
X117215987Y-97502135D01*
X117289897Y-97553010D01*
X117358528Y-97600203D01*
X117420360Y-97642665D01*
X117424956Y-97645835D01*
X117450823Y-97664303D01*
X117471873Y-97680379D01*
X117486047Y-97692431D01*
X117491282Y-97698827D01*
X117490703Y-97702573D01*
X117486427Y-97718187D01*
X117478499Y-97743533D01*
X117467522Y-97776883D01*
X117454100Y-97816513D01*
X117438836Y-97860695D01*
X117422334Y-97907703D01*
X117405198Y-97955811D01*
X117388030Y-98003293D01*
X117371436Y-98048423D01*
X117356017Y-98089474D01*
X117342378Y-98124720D01*
X117331103Y-98153202D01*
X117310736Y-98204180D01*
X117294338Y-98244391D01*
X117281438Y-98274901D01*
X117271563Y-98296776D01*
X117264241Y-98311081D01*
X117259001Y-98318883D01*
X117255371Y-98321246D01*
X117254851Y-98321121D01*
X117246105Y-98316220D01*
X117228644Y-98305027D01*
X117204192Y-98288690D01*
X117174470Y-98268357D01*
X117141202Y-98245176D01*
X117135084Y-98240878D01*
X117086907Y-98207077D01*
X117029294Y-98166731D01*
X116963471Y-98120695D01*
X116890665Y-98069825D01*
X116812101Y-98014975D01*
X116729005Y-97957002D01*
X116642603Y-97896761D01*
X116554121Y-97835108D01*
X116464785Y-97772898D01*
X116375819Y-97710987D01*
X116370151Y-97707044D01*
X116312250Y-97666756D01*
X116251351Y-97624374D01*
X116189761Y-97581500D01*
X116129783Y-97539741D01*
X116073723Y-97500700D01*
X116023887Y-97465983D01*
X115982578Y-97437194D01*
X115941019Y-97408247D01*
X115896564Y-97377331D01*
X115854011Y-97347784D01*
X115815590Y-97321153D01*
X115783529Y-97298984D01*
X115760058Y-97282824D01*
X115736848Y-97266881D01*
X115704505Y-97244598D01*
X115674378Y-97223772D01*
X115650805Y-97207400D01*
X115638307Y-97198690D01*
X115611844Y-97180267D01*
X115576400Y-97155606D01*
X115533069Y-97125469D01*
X115482946Y-97090616D01*
X115427128Y-97051809D01*
X115366710Y-97009810D01*
X115302786Y-96965379D01*
X115236453Y-96919280D01*
X115168805Y-96872272D01*
X115100938Y-96825118D01*
X115033948Y-96778578D01*
X115007223Y-96760012D01*
X114946216Y-96717620D01*
X114879173Y-96671025D01*
X114809313Y-96622463D01*
X114739855Y-96574173D01*
X114674015Y-96528391D01*
X114615013Y-96487354D01*
X114572576Y-96457846D01*
X114516022Y-96418553D01*
X114458620Y-96378700D01*
X114402705Y-96339909D01*
X114350614Y-96303799D01*
X114304680Y-96271990D01*
X114267239Y-96246102D01*
X114239805Y-96227042D01*
X114205337Y-96202749D01*
X114175692Y-96181453D01*
X114152389Y-96164263D01*
X114136948Y-96152289D01*
X114130889Y-96146639D01*
X114129942Y-96140460D01*
X114128524Y-96122721D01*
X114126956Y-96095961D01*
X114125370Y-96062482D01*
X114123897Y-96024587D01*
X114122897Y-95997216D01*
X114121291Y-95957412D01*
X114119672Y-95921470D01*
X114118182Y-95892500D01*
X114116963Y-95873610D01*
X114116929Y-95873177D01*
X114115809Y-95854734D01*
X114114469Y-95825966D01*
X114113019Y-95789639D01*
X114111569Y-95748520D01*
X114110231Y-95705376D01*
X114110095Y-95700712D01*
X114108773Y-95659247D01*
X114107373Y-95621419D01*
X114105995Y-95589615D01*
X114104744Y-95566224D01*
X114103720Y-95553636D01*
X114103280Y-95549159D01*
X114102170Y-95531290D01*
X114100848Y-95503475D01*
X114099406Y-95467889D01*
X114097935Y-95426707D01*
X114096526Y-95382103D01*
X114095804Y-95358344D01*
X114094429Y-95316414D01*
X114093096Y-95279657D01*
X114091883Y-95250077D01*
X114090870Y-95229679D01*
X114090135Y-95220467D01*
X114089671Y-95216344D01*
X114088825Y-95200205D01*
X114088138Y-95176188D01*
X114087725Y-95147792D01*
X114087221Y-95085013D01*
X113948673Y-94989454D01*
X113926806Y-94974364D01*
X113876401Y-94939535D01*
X113820664Y-94900973D01*
X113763269Y-94861223D01*
X113707892Y-94822830D01*
X113658208Y-94788337D01*
X113626985Y-94766655D01*
X113572697Y-94728999D01*
X113513587Y-94688041D01*
X113453304Y-94646307D01*
X113395497Y-94606326D01*
X113343817Y-94570623D01*
X113301743Y-94541563D01*
X113253001Y-94507863D01*
X113201508Y-94472233D01*
X113148500Y-94435529D01*
X113095214Y-94398610D01*
X113042887Y-94362334D01*
X112992756Y-94327559D01*
X112946056Y-94295142D01*
X112904026Y-94265941D01*
X112867901Y-94240814D01*
X112838918Y-94220620D01*
X112818313Y-94206215D01*
X112807325Y-94198458D01*
X112805421Y-94197048D01*
X112797579Y-94189212D01*
X112792498Y-94178172D01*
X112789109Y-94160599D01*
X112786343Y-94133167D01*
X112785586Y-94124860D01*
X112772404Y-94046726D01*
X112749181Y-93973400D01*
X112716737Y-93906109D01*
X112675890Y-93846077D01*
X112627462Y-93794529D01*
X112572271Y-93752690D01*
X112511136Y-93721785D01*
X112501584Y-93718269D01*
X112476837Y-93711651D01*
X112448364Y-93708070D01*
X112411480Y-93706824D01*
X112399147Y-93706783D01*
X112370937Y-93707511D01*
X112349918Y-93710079D01*
X112331659Y-93715241D01*
X112311728Y-93723748D01*
X112296232Y-93731822D01*
X112269809Y-93748369D01*
X112248253Y-93764982D01*
X112237607Y-93774257D01*
X112224255Y-93784748D01*
X112217061Y-93788831D01*
X112213716Y-93787223D01*
X112204256Y-93781362D01*
X112188307Y-93770893D01*
X112165387Y-93755488D01*
X112135018Y-93734817D01*
X112096720Y-93708552D01*
X112050013Y-93676362D01*
X111994417Y-93637920D01*
X111929452Y-93592895D01*
X111854639Y-93540960D01*
X111769499Y-93481783D01*
X111730520Y-93454719D01*
X111681154Y-93420516D01*
X111626834Y-93382940D01*
X111570620Y-93344106D01*
X111515573Y-93306129D01*
X111464753Y-93271127D01*
X111460364Y-93268106D01*
X111411854Y-93234690D01*
X111361688Y-93200076D01*
X111312371Y-93165996D01*
X111266411Y-93134186D01*
X111226315Y-93106377D01*
X111194590Y-93084305D01*
X111165049Y-93063821D01*
X111136056Y-93043977D01*
X111112178Y-93027910D01*
X111095307Y-93016893D01*
X111087334Y-93012198D01*
X111086818Y-93012017D01*
X111082961Y-93011775D01*
X111077499Y-93013879D01*
X111069285Y-93019284D01*
X111057175Y-93028943D01*
X111040023Y-93043812D01*
X111016683Y-93064844D01*
X110986009Y-93092993D01*
X110946857Y-93129215D01*
X110938340Y-93137103D01*
X110913044Y-93160489D01*
X110880189Y-93190822D01*
X110841261Y-93226734D01*
X110797744Y-93266855D01*
X110751123Y-93309816D01*
X110702883Y-93354248D01*
X110654509Y-93398782D01*
X110438031Y-93598023D01*
X110407106Y-93575614D01*
X110401332Y-93571505D01*
X110384776Y-93559808D01*
X110358349Y-93541178D01*
X110322569Y-93515980D01*
X110277952Y-93484576D01*
X110225016Y-93447330D01*
X110164277Y-93404605D01*
X110096252Y-93356765D01*
X110021458Y-93304172D01*
X109940411Y-93247192D01*
X109853629Y-93186185D01*
X109761628Y-93121517D01*
X109664925Y-93053551D01*
X109564037Y-92982650D01*
X109459480Y-92909177D01*
X109351772Y-92833495D01*
X109241429Y-92755969D01*
X109186706Y-92717522D01*
X109073776Y-92638176D01*
X108962130Y-92559725D01*
X108852400Y-92482616D01*
X108745221Y-92407293D01*
X108641228Y-92334203D01*
X108541055Y-92263793D01*
X108445336Y-92196507D01*
X108354705Y-92132792D01*
X108269797Y-92073094D01*
X108191246Y-92017859D01*
X108119687Y-91967533D01*
X108055753Y-91922561D01*
X108000079Y-91883389D01*
X107953300Y-91850464D01*
X107916049Y-91824232D01*
X107888961Y-91805138D01*
X107880316Y-91799040D01*
X107830378Y-91763867D01*
X107781862Y-91729776D01*
X107736328Y-91697857D01*
X107695334Y-91669199D01*
X107660437Y-91644892D01*
X107633196Y-91626026D01*
X107615169Y-91613690D01*
X107590403Y-91596879D01*
X107552893Y-91571110D01*
X107515137Y-91544859D01*
X107478726Y-91519261D01*
X107445250Y-91495447D01*
X107416299Y-91474553D01*
X107393465Y-91457712D01*
X107378337Y-91446058D01*
X107372506Y-91440724D01*
X107376087Y-91434390D01*
X107388732Y-91420591D01*
X107409318Y-91400433D01*
X107436671Y-91374918D01*
X107469620Y-91345048D01*
X107506991Y-91311827D01*
X107547611Y-91276255D01*
X107590308Y-91239334D01*
X107633909Y-91202068D01*
X107677241Y-91165459D01*
X107719132Y-91130507D01*
X107758408Y-91098216D01*
X107793896Y-91069588D01*
X107824425Y-91045625D01*
X107848821Y-91027328D01*
X107865912Y-91015701D01*
X107874524Y-91011745D01*
X107875278Y-91011943D01*
G36*
X106700536Y-92328908D02*
G01*
X106700945Y-92329189D01*
X106732390Y-92350815D01*
X106763809Y-92372528D01*
X106791578Y-92391818D01*
X106812075Y-92406176D01*
X106852078Y-92434396D01*
X106904357Y-92471212D01*
X106963269Y-92512645D01*
X107027790Y-92557977D01*
X107096895Y-92606491D01*
X107169557Y-92657469D01*
X107244753Y-92710193D01*
X107321455Y-92763946D01*
X107398640Y-92818009D01*
X107475282Y-92871664D01*
X107550355Y-92924195D01*
X107622834Y-92974883D01*
X107691693Y-93023010D01*
X107755908Y-93067858D01*
X107814454Y-93108710D01*
X107866304Y-93144848D01*
X107910433Y-93175555D01*
X107945816Y-93200111D01*
X107971429Y-93217800D01*
X107987398Y-93228833D01*
X108014221Y-93247449D01*
X108049573Y-93272039D01*
X108092260Y-93301769D01*
X108141086Y-93335807D01*
X108194855Y-93373319D01*
X108252372Y-93413471D01*
X108312442Y-93455431D01*
X108373870Y-93498365D01*
X108431709Y-93538800D01*
X108491019Y-93580260D01*
X108547501Y-93619739D01*
X108600014Y-93656438D01*
X108647417Y-93689562D01*
X108688570Y-93718313D01*
X108722331Y-93741894D01*
X108747560Y-93759507D01*
X108763117Y-93770357D01*
X108763522Y-93770639D01*
X108779376Y-93781693D01*
X108804878Y-93799488D01*
X108838901Y-93823236D01*
X108880321Y-93852153D01*
X108928011Y-93885451D01*
X108980846Y-93922346D01*
X109037699Y-93962051D01*
X109097446Y-94003779D01*
X109158961Y-94046746D01*
X109218839Y-94088565D01*
X109280401Y-94131545D01*
X109339782Y-94172989D01*
X109395749Y-94212036D01*
X109447068Y-94247826D01*
X109492506Y-94279498D01*
X109530828Y-94306193D01*
X109560803Y-94327050D01*
X109581195Y-94341209D01*
X109587583Y-94345637D01*
X109622610Y-94369979D01*
X109658329Y-94394891D01*
X109690889Y-94417685D01*
X109716441Y-94435672D01*
X109731058Y-94445984D01*
X109760075Y-94466378D01*
X109794696Y-94490646D01*
X109831779Y-94516587D01*
X109868182Y-94541998D01*
X109883334Y-94552567D01*
X109914194Y-94574110D01*
X109950756Y-94599652D01*
X109991750Y-94628303D01*
X110035906Y-94659174D01*
X110081952Y-94691377D01*
X110128619Y-94724022D01*
X110174636Y-94756219D01*
X110218731Y-94787081D01*
X110259636Y-94815718D01*
X110296078Y-94841241D01*
X110326788Y-94862760D01*
X110350494Y-94879387D01*
X110365928Y-94890233D01*
X110371816Y-94894409D01*
X110372674Y-94896673D01*
X110374705Y-94904422D01*
X110377990Y-94918316D01*
X110382675Y-94939034D01*
X110388907Y-94967251D01*
X110396833Y-95003644D01*
X110406598Y-95048890D01*
X110418350Y-95103665D01*
X110432235Y-95168645D01*
X110448399Y-95244507D01*
X110466990Y-95331928D01*
X110488152Y-95431584D01*
X110494356Y-95460533D01*
X110505075Y-95509246D01*
X110515062Y-95553038D01*
X110523932Y-95590308D01*
X110531300Y-95619455D01*
X110536780Y-95638880D01*
X110539988Y-95646981D01*
X110541708Y-95648427D01*
X110553016Y-95656816D01*
X110572872Y-95670968D01*
X110599573Y-95689688D01*
X110631419Y-95711779D01*
X110666707Y-95736046D01*
X110680303Y-95745361D01*
X110724791Y-95775886D01*
X110775302Y-95810598D01*
X110828271Y-95847041D01*
X110880127Y-95882762D01*
X110927305Y-95915306D01*
X110940497Y-95924415D01*
X110990875Y-95959192D01*
X111045857Y-95997139D01*
X111101578Y-96035590D01*
X111154173Y-96071877D01*
X111199777Y-96103332D01*
X111330645Y-96193584D01*
X111332434Y-96285948D01*
X111333107Y-96312763D01*
X111334890Y-96348724D01*
X111337859Y-96377033D01*
X111342428Y-96401139D01*
X111349009Y-96424493D01*
X111354551Y-96440879D01*
X111385537Y-96511294D01*
X111425509Y-96575205D01*
X111473214Y-96631092D01*
X111527397Y-96677436D01*
X111586805Y-96712717D01*
X111620371Y-96725958D01*
X111674538Y-96737283D01*
X111728897Y-96737548D01*
X111781424Y-96727225D01*
X111830094Y-96706791D01*
X111872883Y-96676719D01*
X111907766Y-96637485D01*
X111913176Y-96630083D01*
X111924126Y-96617496D01*
X111931296Y-96612519D01*
X111931470Y-96612533D01*
X111939576Y-96616524D01*
X111956003Y-96626602D01*
X111978451Y-96641302D01*
X112004620Y-96659163D01*
X112023948Y-96672580D01*
X112055247Y-96694265D01*
X112093164Y-96720506D01*
X112135382Y-96749698D01*
X112179585Y-96780241D01*
X112223454Y-96810530D01*
X112250729Y-96829359D01*
X112304969Y-96866824D01*
X112364136Y-96907716D01*
X112424465Y-96949430D01*
X112482186Y-96989361D01*
X112533532Y-97024903D01*
X112575732Y-97054125D01*
X112621687Y-97085944D01*
X112666199Y-97116760D01*
X112706915Y-97144944D01*
X112741485Y-97168871D01*
X112767559Y-97186913D01*
X112776535Y-97193092D01*
X112803440Y-97211240D01*
X112825989Y-97225900D01*
X112842039Y-97235701D01*
X112849446Y-97239272D01*
X112854928Y-97237025D01*
X112870901Y-97229387D01*
X112895817Y-97217066D01*
X112928206Y-97200818D01*
X112966596Y-97181398D01*
X113009516Y-97159562D01*
X113055496Y-97136067D01*
X113103065Y-97111669D01*
X113150752Y-97087122D01*
X113197086Y-97063185D01*
X113240595Y-97040611D01*
X113279810Y-97020158D01*
X113313259Y-97002580D01*
X113339472Y-96988635D01*
X113356977Y-96979078D01*
X113364304Y-96974665D01*
X113364767Y-96974274D01*
X113368027Y-96972974D01*
X113373195Y-96973718D01*
X113381384Y-96977199D01*
X113393704Y-96984110D01*
X113411264Y-96995144D01*
X113435176Y-97010995D01*
X113466551Y-97032355D01*
X113506498Y-97059917D01*
X113556130Y-97094375D01*
X113563774Y-97099690D01*
X113602670Y-97126727D01*
X113649810Y-97159485D01*
X113703089Y-97196501D01*
X113760401Y-97236312D01*
X113819640Y-97277456D01*
X113878702Y-97318471D01*
X113935480Y-97357893D01*
X113940702Y-97361517D01*
X114000049Y-97402720D01*
X114063234Y-97446588D01*
X114127811Y-97491425D01*
X114191334Y-97535531D01*
X114251357Y-97577208D01*
X114305433Y-97614757D01*
X114351117Y-97646480D01*
X114388085Y-97672149D01*
X114442231Y-97709734D01*
X114502425Y-97751509D01*
X114565996Y-97795620D01*
X114630273Y-97840213D01*
X114692585Y-97883435D01*
X114750260Y-97923433D01*
X114822497Y-97973529D01*
X114913899Y-98036933D01*
X115009213Y-98103069D01*
X115109593Y-98172736D01*
X115216191Y-98246737D01*
X115330161Y-98325871D01*
X115452657Y-98410940D01*
X115584831Y-98502742D01*
X115623001Y-98529254D01*
X115691909Y-98577108D01*
X115760461Y-98624707D01*
X115827610Y-98671324D01*
X115892307Y-98716231D01*
X115953504Y-98758701D01*
X116010153Y-98798007D01*
X116061205Y-98833422D01*
X116105614Y-98864218D01*
X116142330Y-98889667D01*
X116170306Y-98909044D01*
X116188493Y-98921620D01*
X116199278Y-98929068D01*
X116222298Y-98944980D01*
X116252704Y-98966005D01*
X116288475Y-98990746D01*
X116327587Y-99017804D01*
X116368020Y-99045781D01*
X116384221Y-99056992D01*
X116432178Y-99090175D01*
X116482827Y-99125218D01*
X116532782Y-99159778D01*
X116578659Y-99191512D01*
X116617072Y-99218080D01*
X116623815Y-99222754D01*
X116656311Y-99245602D01*
X116684430Y-99265892D01*
X116706536Y-99282408D01*
X116720998Y-99293936D01*
X116726182Y-99299260D01*
X116726154Y-99299645D01*
X116722357Y-99308261D01*
X116711969Y-99325411D01*
X116694720Y-99351497D01*
X116670339Y-99386917D01*
X116638556Y-99432073D01*
X116599100Y-99487365D01*
X116526929Y-99588004D01*
X116463269Y-99543633D01*
X116458993Y-99540651D01*
X116434827Y-99523778D01*
X116402355Y-99501080D01*
X116363597Y-99473971D01*
X116320576Y-99443865D01*
X116275312Y-99412176D01*
X116229827Y-99380319D01*
X116197558Y-99357734D01*
X116144768Y-99320850D01*
X116085749Y-99279673D01*
X116023200Y-99236082D01*
X115959818Y-99191959D01*
X115898303Y-99149183D01*
X115841354Y-99109636D01*
X115807539Y-99086171D01*
X115744510Y-99042428D01*
X115676979Y-98995553D01*
X115608016Y-98947678D01*
X115540688Y-98900932D01*
X115478065Y-98857446D01*
X115423215Y-98819350D01*
X115408246Y-98808953D01*
X115349420Y-98768106D01*
X115285091Y-98723456D01*
X115218526Y-98677269D01*
X115152994Y-98631812D01*
X115091761Y-98589352D01*
X115038094Y-98552155D01*
X115023582Y-98542099D01*
X114949317Y-98490617D01*
X114867078Y-98433577D01*
X114779218Y-98372613D01*
X114688090Y-98309359D01*
X114596046Y-98245449D01*
X114505440Y-98182515D01*
X114418623Y-98122192D01*
X114337949Y-98066113D01*
X114265770Y-98015911D01*
X114250098Y-98005012D01*
X114205327Y-97973923D01*
X114159374Y-97942073D01*
X114115240Y-97911539D01*
X114075927Y-97884398D01*
X114044436Y-97862727D01*
X114026721Y-97850547D01*
X113989361Y-97824782D01*
X113944294Y-97793628D01*
X113893474Y-97758443D01*
X113838857Y-97720583D01*
X113782398Y-97681403D01*
X113726052Y-97642261D01*
X113671774Y-97604513D01*
X113621520Y-97569515D01*
X113577245Y-97538624D01*
X113509948Y-97491612D01*
X113480260Y-97518382D01*
X113464780Y-97532393D01*
X113435210Y-97559312D01*
X113400553Y-97590990D01*
X113363568Y-97624900D01*
X113327010Y-97658512D01*
X113293639Y-97689296D01*
X113266211Y-97714723D01*
X113257171Y-97723115D01*
X113232087Y-97746281D01*
X113201704Y-97774229D01*
X113169060Y-97804165D01*
X113137195Y-97833295D01*
X113122002Y-97847180D01*
X113089988Y-97876562D01*
X113059019Y-97905131D01*
X113032002Y-97930201D01*
X113011844Y-97949086D01*
X113004375Y-97956142D01*
X112964951Y-97993219D01*
X112933855Y-98022097D01*
X112910123Y-98043637D01*
X112892792Y-98058703D01*
X112880898Y-98068155D01*
X112873478Y-98072856D01*
X112872218Y-98073441D01*
X112868927Y-98074505D01*
X112864821Y-98074397D01*
X112858900Y-98072482D01*
X112850160Y-98068123D01*
X112837601Y-98060684D01*
X112820219Y-98049531D01*
X112797012Y-98034026D01*
X112766978Y-98013535D01*
X112729116Y-97987422D01*
X112682423Y-97955050D01*
X112625896Y-97915785D01*
X112615842Y-97908800D01*
X112569544Y-97876661D01*
X112517175Y-97840338D01*
X112462570Y-97802490D01*
X112409566Y-97765777D01*
X112362000Y-97732858D01*
X112350201Y-97724696D01*
X112301235Y-97690815D01*
X112248122Y-97654053D01*
X112194612Y-97617005D01*
X112144455Y-97582268D01*
X112101403Y-97552438D01*
X112060861Y-97524377D01*
X112010195Y-97489380D01*
X111957655Y-97453149D01*
X111907476Y-97418607D01*
X111863896Y-97388673D01*
X111856767Y-97383782D01*
X111820426Y-97358786D01*
X111786280Y-97335201D01*
X111756502Y-97314534D01*
X111733268Y-97298296D01*
X111718753Y-97287994D01*
X111689065Y-97266490D01*
X111688214Y-97201751D01*
X111687981Y-97190504D01*
X111683742Y-97135366D01*
X111673626Y-97084154D01*
X111656510Y-97032420D01*
X111631275Y-96975715D01*
X111624478Y-96962010D01*
X111607576Y-96930694D01*
X111590815Y-96905325D01*
X111570855Y-96881211D01*
X111544355Y-96853663D01*
X111509675Y-96821862D01*
X111457331Y-96784739D01*
X111403771Y-96760039D01*
X111347913Y-96747307D01*
X111288675Y-96746088D01*
X111271446Y-96748000D01*
X111219168Y-96762219D01*
X111170651Y-96788031D01*
X111128367Y-96824231D01*
X111096847Y-96857929D01*
X111069683Y-96838788D01*
X111067817Y-96837476D01*
X111050631Y-96825507D01*
X111026038Y-96808498D01*
X110997042Y-96788526D01*
X110966649Y-96767663D01*
X110963218Y-96765310D01*
X110938825Y-96748542D01*
X110905601Y-96725651D01*
X110865245Y-96697810D01*
X110819455Y-96666191D01*
X110769929Y-96631967D01*
X110718367Y-96596312D01*
X110666467Y-96560398D01*
X110596912Y-96512260D01*
X110531713Y-96467172D01*
X110474621Y-96427737D01*
X110424224Y-96392985D01*
X110379111Y-96361948D01*
X110337873Y-96333655D01*
X110299098Y-96307138D01*
X110261376Y-96281427D01*
X110223295Y-96255553D01*
X110183444Y-96228548D01*
X110153040Y-96207602D01*
X110124538Y-96187216D01*
X110101650Y-96170034D01*
X110086176Y-96157411D01*
X110079916Y-96150701D01*
X110078802Y-96144730D01*
X110077575Y-96132474D01*
X110076231Y-96113071D01*
X110074721Y-96085514D01*
X110072994Y-96048796D01*
X110071000Y-96001911D01*
X110068687Y-95943851D01*
X110066005Y-95873610D01*
X110065819Y-95868694D01*
X110064212Y-95828070D01*
X110062483Y-95787036D01*
X110060828Y-95750126D01*
X110059443Y-95721870D01*
X110058832Y-95709588D01*
X110057426Y-95677829D01*
X110055848Y-95638696D01*
X110054252Y-95596021D01*
X110052788Y-95553636D01*
X110051913Y-95528299D01*
X110050414Y-95489295D01*
X110048892Y-95454282D01*
X110047483Y-95426326D01*
X110046324Y-95408493D01*
X110046251Y-95407591D01*
X110045160Y-95389784D01*
X110043822Y-95361666D01*
X110042347Y-95325902D01*
X110040845Y-95285158D01*
X110039427Y-95242098D01*
X110039187Y-95234409D01*
X110037859Y-95193864D01*
X110036574Y-95157845D01*
X110035416Y-95128518D01*
X110034471Y-95108050D01*
X110033823Y-95098605D01*
X110032809Y-95095918D01*
X110028654Y-95090688D01*
X110020429Y-95083097D01*
X110007159Y-95072418D01*
X109987870Y-95057923D01*
X109961588Y-95038887D01*
X109927340Y-95014580D01*
X109884150Y-94984278D01*
X109831044Y-94947251D01*
X109799743Y-94925434D01*
X109761558Y-94898751D01*
X109724470Y-94872773D01*
X109693351Y-94850909D01*
X109691779Y-94849802D01*
X109660154Y-94827565D01*
X109621044Y-94800116D01*
X109575526Y-94768208D01*
X109524676Y-94732591D01*
X109469570Y-94694017D01*
X109411283Y-94653238D01*
X109350892Y-94611007D01*
X109289474Y-94568074D01*
X109228103Y-94525191D01*
X109167857Y-94483111D01*
X109109810Y-94442584D01*
X109055040Y-94404363D01*
X109004622Y-94369200D01*
X108959633Y-94337846D01*
X108921148Y-94311053D01*
X108890244Y-94289573D01*
X108867996Y-94274157D01*
X108855480Y-94265557D01*
X108850532Y-94262174D01*
X108832645Y-94249811D01*
X108805305Y-94230811D01*
X108769423Y-94205814D01*
X108725913Y-94175455D01*
X108675686Y-94140373D01*
X108619655Y-94101205D01*
X108558731Y-94058588D01*
X108493826Y-94013159D01*
X108425854Y-93965555D01*
X108355725Y-93916414D01*
X108329373Y-93897944D01*
X108258346Y-93848173D01*
X108188948Y-93799558D01*
X108122199Y-93752814D01*
X108059117Y-93708653D01*
X108000723Y-93667789D01*
X107948036Y-93630934D01*
X107902074Y-93598802D01*
X107863858Y-93572106D01*
X107834406Y-93551560D01*
X107814738Y-93537876D01*
X107801599Y-93528744D01*
X107774147Y-93509614D01*
X107737786Y-93484239D01*
X107693639Y-93453404D01*
X107642830Y-93417894D01*
X107586484Y-93378495D01*
X107525722Y-93335992D01*
X107461669Y-93291171D01*
X107395447Y-93244817D01*
X107328182Y-93197716D01*
X107249159Y-93142392D01*
X107160977Y-93080703D01*
X107073478Y-93019538D01*
X106987675Y-92959603D01*
X106904580Y-92901604D01*
X106825204Y-92846245D01*
X106750559Y-92794233D01*
X106681657Y-92746272D01*
X106619510Y-92703067D01*
X106565129Y-92665325D01*
X106519527Y-92633749D01*
X106483714Y-92609047D01*
X106482514Y-92608221D01*
X106461920Y-92593860D01*
X106445198Y-92581877D01*
X106435867Y-92574792D01*
X106435717Y-92574661D01*
X106433796Y-92571232D01*
X106434321Y-92565497D01*
X106437945Y-92556404D01*
X106445321Y-92542898D01*
X106457103Y-92523926D01*
X106473942Y-92498433D01*
X106496493Y-92465365D01*
X106525409Y-92423669D01*
X106561341Y-92372290D01*
X106627072Y-92278529D01*
X106700536Y-92328908D01*
G37*
X106700536Y-92328908D02*
X106700945Y-92329189D01*
X106732390Y-92350815D01*
X106763809Y-92372528D01*
X106791578Y-92391818D01*
X106812075Y-92406176D01*
X106852078Y-92434396D01*
X106904357Y-92471212D01*
X106963269Y-92512645D01*
X107027790Y-92557977D01*
X107096895Y-92606491D01*
X107169557Y-92657469D01*
X107244753Y-92710193D01*
X107321455Y-92763946D01*
X107398640Y-92818009D01*
X107475282Y-92871664D01*
X107550355Y-92924195D01*
X107622834Y-92974883D01*
X107691693Y-93023010D01*
X107755908Y-93067858D01*
X107814454Y-93108710D01*
X107866304Y-93144848D01*
X107910433Y-93175555D01*
X107945816Y-93200111D01*
X107971429Y-93217800D01*
X107987398Y-93228833D01*
X108014221Y-93247449D01*
X108049573Y-93272039D01*
X108092260Y-93301769D01*
X108141086Y-93335807D01*
X108194855Y-93373319D01*
X108252372Y-93413471D01*
X108312442Y-93455431D01*
X108373870Y-93498365D01*
X108431709Y-93538800D01*
X108491019Y-93580260D01*
X108547501Y-93619739D01*
X108600014Y-93656438D01*
X108647417Y-93689562D01*
X108688570Y-93718313D01*
X108722331Y-93741894D01*
X108747560Y-93759507D01*
X108763117Y-93770357D01*
X108763522Y-93770639D01*
X108779376Y-93781693D01*
X108804878Y-93799488D01*
X108838901Y-93823236D01*
X108880321Y-93852153D01*
X108928011Y-93885451D01*
X108980846Y-93922346D01*
X109037699Y-93962051D01*
X109097446Y-94003779D01*
X109158961Y-94046746D01*
X109218839Y-94088565D01*
X109280401Y-94131545D01*
X109339782Y-94172989D01*
X109395749Y-94212036D01*
X109447068Y-94247826D01*
X109492506Y-94279498D01*
X109530828Y-94306193D01*
X109560803Y-94327050D01*
X109581195Y-94341209D01*
X109587583Y-94345637D01*
X109622610Y-94369979D01*
X109658329Y-94394891D01*
X109690889Y-94417685D01*
X109716441Y-94435672D01*
X109731058Y-94445984D01*
X109760075Y-94466378D01*
X109794696Y-94490646D01*
X109831779Y-94516587D01*
X109868182Y-94541998D01*
X109883334Y-94552567D01*
X109914194Y-94574110D01*
X109950756Y-94599652D01*
X109991750Y-94628303D01*
X110035906Y-94659174D01*
X110081952Y-94691377D01*
X110128619Y-94724022D01*
X110174636Y-94756219D01*
X110218731Y-94787081D01*
X110259636Y-94815718D01*
X110296078Y-94841241D01*
X110326788Y-94862760D01*
X110350494Y-94879387D01*
X110365928Y-94890233D01*
X110371816Y-94894409D01*
X110372674Y-94896673D01*
X110374705Y-94904422D01*
X110377990Y-94918316D01*
X110382675Y-94939034D01*
X110388907Y-94967251D01*
X110396833Y-95003644D01*
X110406598Y-95048890D01*
X110418350Y-95103665D01*
X110432235Y-95168645D01*
X110448399Y-95244507D01*
X110466990Y-95331928D01*
X110488152Y-95431584D01*
X110494356Y-95460533D01*
X110505075Y-95509246D01*
X110515062Y-95553038D01*
X110523932Y-95590308D01*
X110531300Y-95619455D01*
X110536780Y-95638880D01*
X110539988Y-95646981D01*
X110541708Y-95648427D01*
X110553016Y-95656816D01*
X110572872Y-95670968D01*
X110599573Y-95689688D01*
X110631419Y-95711779D01*
X110666707Y-95736046D01*
X110680303Y-95745361D01*
X110724791Y-95775886D01*
X110775302Y-95810598D01*
X110828271Y-95847041D01*
X110880127Y-95882762D01*
X110927305Y-95915306D01*
X110940497Y-95924415D01*
X110990875Y-95959192D01*
X111045857Y-95997139D01*
X111101578Y-96035590D01*
X111154173Y-96071877D01*
X111199777Y-96103332D01*
X111330645Y-96193584D01*
X111332434Y-96285948D01*
X111333107Y-96312763D01*
X111334890Y-96348724D01*
X111337859Y-96377033D01*
X111342428Y-96401139D01*
X111349009Y-96424493D01*
X111354551Y-96440879D01*
X111385537Y-96511294D01*
X111425509Y-96575205D01*
X111473214Y-96631092D01*
X111527397Y-96677436D01*
X111586805Y-96712717D01*
X111620371Y-96725958D01*
X111674538Y-96737283D01*
X111728897Y-96737548D01*
X111781424Y-96727225D01*
X111830094Y-96706791D01*
X111872883Y-96676719D01*
X111907766Y-96637485D01*
X111913176Y-96630083D01*
X111924126Y-96617496D01*
X111931296Y-96612519D01*
X111931470Y-96612533D01*
X111939576Y-96616524D01*
X111956003Y-96626602D01*
X111978451Y-96641302D01*
X112004620Y-96659163D01*
X112023948Y-96672580D01*
X112055247Y-96694265D01*
X112093164Y-96720506D01*
X112135382Y-96749698D01*
X112179585Y-96780241D01*
X112223454Y-96810530D01*
X112250729Y-96829359D01*
X112304969Y-96866824D01*
X112364136Y-96907716D01*
X112424465Y-96949430D01*
X112482186Y-96989361D01*
X112533532Y-97024903D01*
X112575732Y-97054125D01*
X112621687Y-97085944D01*
X112666199Y-97116760D01*
X112706915Y-97144944D01*
X112741485Y-97168871D01*
X112767559Y-97186913D01*
X112776535Y-97193092D01*
X112803440Y-97211240D01*
X112825989Y-97225900D01*
X112842039Y-97235701D01*
X112849446Y-97239272D01*
X112854928Y-97237025D01*
X112870901Y-97229387D01*
X112895817Y-97217066D01*
X112928206Y-97200818D01*
X112966596Y-97181398D01*
X113009516Y-97159562D01*
X113055496Y-97136067D01*
X113103065Y-97111669D01*
X113150752Y-97087122D01*
X113197086Y-97063185D01*
X113240595Y-97040611D01*
X113279810Y-97020158D01*
X113313259Y-97002580D01*
X113339472Y-96988635D01*
X113356977Y-96979078D01*
X113364304Y-96974665D01*
X113364767Y-96974274D01*
X113368027Y-96972974D01*
X113373195Y-96973718D01*
X113381384Y-96977199D01*
X113393704Y-96984110D01*
X113411264Y-96995144D01*
X113435176Y-97010995D01*
X113466551Y-97032355D01*
X113506498Y-97059917D01*
X113556130Y-97094375D01*
X113563774Y-97099690D01*
X113602670Y-97126727D01*
X113649810Y-97159485D01*
X113703089Y-97196501D01*
X113760401Y-97236312D01*
X113819640Y-97277456D01*
X113878702Y-97318471D01*
X113935480Y-97357893D01*
X113940702Y-97361517D01*
X114000049Y-97402720D01*
X114063234Y-97446588D01*
X114127811Y-97491425D01*
X114191334Y-97535531D01*
X114251357Y-97577208D01*
X114305433Y-97614757D01*
X114351117Y-97646480D01*
X114388085Y-97672149D01*
X114442231Y-97709734D01*
X114502425Y-97751509D01*
X114565996Y-97795620D01*
X114630273Y-97840213D01*
X114692585Y-97883435D01*
X114750260Y-97923433D01*
X114822497Y-97973529D01*
X114913899Y-98036933D01*
X115009213Y-98103069D01*
X115109593Y-98172736D01*
X115216191Y-98246737D01*
X115330161Y-98325871D01*
X115452657Y-98410940D01*
X115584831Y-98502742D01*
X115623001Y-98529254D01*
X115691909Y-98577108D01*
X115760461Y-98624707D01*
X115827610Y-98671324D01*
X115892307Y-98716231D01*
X115953504Y-98758701D01*
X116010153Y-98798007D01*
X116061205Y-98833422D01*
X116105614Y-98864218D01*
X116142330Y-98889667D01*
X116170306Y-98909044D01*
X116188493Y-98921620D01*
X116199278Y-98929068D01*
X116222298Y-98944980D01*
X116252704Y-98966005D01*
X116288475Y-98990746D01*
X116327587Y-99017804D01*
X116368020Y-99045781D01*
X116384221Y-99056992D01*
X116432178Y-99090175D01*
X116482827Y-99125218D01*
X116532782Y-99159778D01*
X116578659Y-99191512D01*
X116617072Y-99218080D01*
X116623815Y-99222754D01*
X116656311Y-99245602D01*
X116684430Y-99265892D01*
X116706536Y-99282408D01*
X116720998Y-99293936D01*
X116726182Y-99299260D01*
X116726154Y-99299645D01*
X116722357Y-99308261D01*
X116711969Y-99325411D01*
X116694720Y-99351497D01*
X116670339Y-99386917D01*
X116638556Y-99432073D01*
X116599100Y-99487365D01*
X116526929Y-99588004D01*
X116463269Y-99543633D01*
X116458993Y-99540651D01*
X116434827Y-99523778D01*
X116402355Y-99501080D01*
X116363597Y-99473971D01*
X116320576Y-99443865D01*
X116275312Y-99412176D01*
X116229827Y-99380319D01*
X116197558Y-99357734D01*
X116144768Y-99320850D01*
X116085749Y-99279673D01*
X116023200Y-99236082D01*
X115959818Y-99191959D01*
X115898303Y-99149183D01*
X115841354Y-99109636D01*
X115807539Y-99086171D01*
X115744510Y-99042428D01*
X115676979Y-98995553D01*
X115608016Y-98947678D01*
X115540688Y-98900932D01*
X115478065Y-98857446D01*
X115423215Y-98819350D01*
X115408246Y-98808953D01*
X115349420Y-98768106D01*
X115285091Y-98723456D01*
X115218526Y-98677269D01*
X115152994Y-98631812D01*
X115091761Y-98589352D01*
X115038094Y-98552155D01*
X115023582Y-98542099D01*
X114949317Y-98490617D01*
X114867078Y-98433577D01*
X114779218Y-98372613D01*
X114688090Y-98309359D01*
X114596046Y-98245449D01*
X114505440Y-98182515D01*
X114418623Y-98122192D01*
X114337949Y-98066113D01*
X114265770Y-98015911D01*
X114250098Y-98005012D01*
X114205327Y-97973923D01*
X114159374Y-97942073D01*
X114115240Y-97911539D01*
X114075927Y-97884398D01*
X114044436Y-97862727D01*
X114026721Y-97850547D01*
X113989361Y-97824782D01*
X113944294Y-97793628D01*
X113893474Y-97758443D01*
X113838857Y-97720583D01*
X113782398Y-97681403D01*
X113726052Y-97642261D01*
X113671774Y-97604513D01*
X113621520Y-97569515D01*
X113577245Y-97538624D01*
X113509948Y-97491612D01*
X113480260Y-97518382D01*
X113464780Y-97532393D01*
X113435210Y-97559312D01*
X113400553Y-97590990D01*
X113363568Y-97624900D01*
X113327010Y-97658512D01*
X113293639Y-97689296D01*
X113266211Y-97714723D01*
X113257171Y-97723115D01*
X113232087Y-97746281D01*
X113201704Y-97774229D01*
X113169060Y-97804165D01*
X113137195Y-97833295D01*
X113122002Y-97847180D01*
X113089988Y-97876562D01*
X113059019Y-97905131D01*
X113032002Y-97930201D01*
X113011844Y-97949086D01*
X113004375Y-97956142D01*
X112964951Y-97993219D01*
X112933855Y-98022097D01*
X112910123Y-98043637D01*
X112892792Y-98058703D01*
X112880898Y-98068155D01*
X112873478Y-98072856D01*
X112872218Y-98073441D01*
X112868927Y-98074505D01*
X112864821Y-98074397D01*
X112858900Y-98072482D01*
X112850160Y-98068123D01*
X112837601Y-98060684D01*
X112820219Y-98049531D01*
X112797012Y-98034026D01*
X112766978Y-98013535D01*
X112729116Y-97987422D01*
X112682423Y-97955050D01*
X112625896Y-97915785D01*
X112615842Y-97908800D01*
X112569544Y-97876661D01*
X112517175Y-97840338D01*
X112462570Y-97802490D01*
X112409566Y-97765777D01*
X112362000Y-97732858D01*
X112350201Y-97724696D01*
X112301235Y-97690815D01*
X112248122Y-97654053D01*
X112194612Y-97617005D01*
X112144455Y-97582268D01*
X112101403Y-97552438D01*
X112060861Y-97524377D01*
X112010195Y-97489380D01*
X111957655Y-97453149D01*
X111907476Y-97418607D01*
X111863896Y-97388673D01*
X111856767Y-97383782D01*
X111820426Y-97358786D01*
X111786280Y-97335201D01*
X111756502Y-97314534D01*
X111733268Y-97298296D01*
X111718753Y-97287994D01*
X111689065Y-97266490D01*
X111688214Y-97201751D01*
X111687981Y-97190504D01*
X111683742Y-97135366D01*
X111673626Y-97084154D01*
X111656510Y-97032420D01*
X111631275Y-96975715D01*
X111624478Y-96962010D01*
X111607576Y-96930694D01*
X111590815Y-96905325D01*
X111570855Y-96881211D01*
X111544355Y-96853663D01*
X111509675Y-96821862D01*
X111457331Y-96784739D01*
X111403771Y-96760039D01*
X111347913Y-96747307D01*
X111288675Y-96746088D01*
X111271446Y-96748000D01*
X111219168Y-96762219D01*
X111170651Y-96788031D01*
X111128367Y-96824231D01*
X111096847Y-96857929D01*
X111069683Y-96838788D01*
X111067817Y-96837476D01*
X111050631Y-96825507D01*
X111026038Y-96808498D01*
X110997042Y-96788526D01*
X110966649Y-96767663D01*
X110963218Y-96765310D01*
X110938825Y-96748542D01*
X110905601Y-96725651D01*
X110865245Y-96697810D01*
X110819455Y-96666191D01*
X110769929Y-96631967D01*
X110718367Y-96596312D01*
X110666467Y-96560398D01*
X110596912Y-96512260D01*
X110531713Y-96467172D01*
X110474621Y-96427737D01*
X110424224Y-96392985D01*
X110379111Y-96361948D01*
X110337873Y-96333655D01*
X110299098Y-96307138D01*
X110261376Y-96281427D01*
X110223295Y-96255553D01*
X110183444Y-96228548D01*
X110153040Y-96207602D01*
X110124538Y-96187216D01*
X110101650Y-96170034D01*
X110086176Y-96157411D01*
X110079916Y-96150701D01*
X110078802Y-96144730D01*
X110077575Y-96132474D01*
X110076231Y-96113071D01*
X110074721Y-96085514D01*
X110072994Y-96048796D01*
X110071000Y-96001911D01*
X110068687Y-95943851D01*
X110066005Y-95873610D01*
X110065819Y-95868694D01*
X110064212Y-95828070D01*
X110062483Y-95787036D01*
X110060828Y-95750126D01*
X110059443Y-95721870D01*
X110058832Y-95709588D01*
X110057426Y-95677829D01*
X110055848Y-95638696D01*
X110054252Y-95596021D01*
X110052788Y-95553636D01*
X110051913Y-95528299D01*
X110050414Y-95489295D01*
X110048892Y-95454282D01*
X110047483Y-95426326D01*
X110046324Y-95408493D01*
X110046251Y-95407591D01*
X110045160Y-95389784D01*
X110043822Y-95361666D01*
X110042347Y-95325902D01*
X110040845Y-95285158D01*
X110039427Y-95242098D01*
X110039187Y-95234409D01*
X110037859Y-95193864D01*
X110036574Y-95157845D01*
X110035416Y-95128518D01*
X110034471Y-95108050D01*
X110033823Y-95098605D01*
X110032809Y-95095918D01*
X110028654Y-95090688D01*
X110020429Y-95083097D01*
X110007159Y-95072418D01*
X109987870Y-95057923D01*
X109961588Y-95038887D01*
X109927340Y-95014580D01*
X109884150Y-94984278D01*
X109831044Y-94947251D01*
X109799743Y-94925434D01*
X109761558Y-94898751D01*
X109724470Y-94872773D01*
X109693351Y-94850909D01*
X109691779Y-94849802D01*
X109660154Y-94827565D01*
X109621044Y-94800116D01*
X109575526Y-94768208D01*
X109524676Y-94732591D01*
X109469570Y-94694017D01*
X109411283Y-94653238D01*
X109350892Y-94611007D01*
X109289474Y-94568074D01*
X109228103Y-94525191D01*
X109167857Y-94483111D01*
X109109810Y-94442584D01*
X109055040Y-94404363D01*
X109004622Y-94369200D01*
X108959633Y-94337846D01*
X108921148Y-94311053D01*
X108890244Y-94289573D01*
X108867996Y-94274157D01*
X108855480Y-94265557D01*
X108850532Y-94262174D01*
X108832645Y-94249811D01*
X108805305Y-94230811D01*
X108769423Y-94205814D01*
X108725913Y-94175455D01*
X108675686Y-94140373D01*
X108619655Y-94101205D01*
X108558731Y-94058588D01*
X108493826Y-94013159D01*
X108425854Y-93965555D01*
X108355725Y-93916414D01*
X108329373Y-93897944D01*
X108258346Y-93848173D01*
X108188948Y-93799558D01*
X108122199Y-93752814D01*
X108059117Y-93708653D01*
X108000723Y-93667789D01*
X107948036Y-93630934D01*
X107902074Y-93598802D01*
X107863858Y-93572106D01*
X107834406Y-93551560D01*
X107814738Y-93537876D01*
X107801599Y-93528744D01*
X107774147Y-93509614D01*
X107737786Y-93484239D01*
X107693639Y-93453404D01*
X107642830Y-93417894D01*
X107586484Y-93378495D01*
X107525722Y-93335992D01*
X107461669Y-93291171D01*
X107395447Y-93244817D01*
X107328182Y-93197716D01*
X107249159Y-93142392D01*
X107160977Y-93080703D01*
X107073478Y-93019538D01*
X106987675Y-92959603D01*
X106904580Y-92901604D01*
X106825204Y-92846245D01*
X106750559Y-92794233D01*
X106681657Y-92746272D01*
X106619510Y-92703067D01*
X106565129Y-92665325D01*
X106519527Y-92633749D01*
X106483714Y-92609047D01*
X106482514Y-92608221D01*
X106461920Y-92593860D01*
X106445198Y-92581877D01*
X106435867Y-92574792D01*
X106435717Y-92574661D01*
X106433796Y-92571232D01*
X106434321Y-92565497D01*
X106437945Y-92556404D01*
X106445321Y-92542898D01*
X106457103Y-92523926D01*
X106473942Y-92498433D01*
X106496493Y-92465365D01*
X106525409Y-92423669D01*
X106561341Y-92372290D01*
X106627072Y-92278529D01*
X106700536Y-92328908D01*
G36*
X107231684Y-91588797D02*
G01*
X107242415Y-91595526D01*
X107261040Y-91607941D01*
X107285472Y-91624586D01*
X107313620Y-91644001D01*
X107343399Y-91664729D01*
X107372718Y-91685312D01*
X107399490Y-91704293D01*
X107421625Y-91720212D01*
X107437037Y-91731613D01*
X107443636Y-91737037D01*
X107446915Y-91739796D01*
X107459569Y-91749241D01*
X107479888Y-91763917D01*
X107505992Y-91782470D01*
X107536000Y-91803547D01*
X107555797Y-91817376D01*
X107585231Y-91837937D01*
X107610391Y-91855515D01*
X107629095Y-91868583D01*
X107639164Y-91875620D01*
X107646334Y-91880659D01*
X107663436Y-91892719D01*
X107686218Y-91908814D01*
X107711735Y-91926861D01*
X107740760Y-91947391D01*
X107806907Y-91994083D01*
X107867435Y-92036676D01*
X107920644Y-92073974D01*
X107964831Y-92104780D01*
X107977382Y-92113511D01*
X108011515Y-92137355D01*
X108047817Y-92162817D01*
X108080286Y-92185693D01*
X108095865Y-92196689D01*
X108131444Y-92221733D01*
X108168907Y-92248031D01*
X108202338Y-92271428D01*
X108219244Y-92283249D01*
X108254640Y-92308059D01*
X108290465Y-92333236D01*
X108321091Y-92354827D01*
X108325523Y-92357958D01*
X108350319Y-92375446D01*
X108382695Y-92398248D01*
X108420043Y-92424530D01*
X108459754Y-92452455D01*
X108499221Y-92480187D01*
X108508967Y-92487033D01*
X108548376Y-92514717D01*
X108587123Y-92541939D01*
X108622674Y-92566918D01*
X108652495Y-92587876D01*
X108674052Y-92603030D01*
X108679827Y-92607091D01*
X108712654Y-92630172D01*
X108748161Y-92655134D01*
X108779610Y-92677242D01*
X108792487Y-92686300D01*
X108821137Y-92706482D01*
X108855436Y-92730667D01*
X108892151Y-92756576D01*
X108928052Y-92781929D01*
X108936214Y-92787694D01*
X108973346Y-92813891D01*
X109017141Y-92844753D01*
X109064315Y-92877967D01*
X109111583Y-92911221D01*
X109155662Y-92942201D01*
X109177698Y-92957680D01*
X109214960Y-92983858D01*
X109260441Y-93015811D01*
X109312678Y-93052512D01*
X109370211Y-93092935D01*
X109431578Y-93136053D01*
X109495320Y-93180840D01*
X109559973Y-93226269D01*
X109624078Y-93271314D01*
X109664365Y-93299622D01*
X109787091Y-93385846D01*
X109899549Y-93464839D01*
X110001692Y-93536568D01*
X110093473Y-93601000D01*
X110174843Y-93658101D01*
X110245756Y-93707838D01*
X110306165Y-93750178D01*
X110356022Y-93785088D01*
X110395279Y-93812535D01*
X110423889Y-93832485D01*
X110441806Y-93844906D01*
X110448980Y-93849763D01*
X110452102Y-93850056D01*
X110463705Y-93844951D01*
X110478669Y-93833879D01*
X110486262Y-93827143D01*
X110504201Y-93810954D01*
X110528456Y-93788882D01*
X110557244Y-93762568D01*
X110588777Y-93733654D01*
X110621272Y-93703782D01*
X110652944Y-93674593D01*
X110682007Y-93647730D01*
X110706676Y-93624833D01*
X110725167Y-93607545D01*
X110735693Y-93597506D01*
X110738545Y-93594841D01*
X110749832Y-93584428D01*
X110768010Y-93567717D01*
X110791371Y-93546278D01*
X110818208Y-93521678D01*
X110831373Y-93509610D01*
X110861859Y-93481624D01*
X110890915Y-93454895D01*
X110915772Y-93431974D01*
X110933662Y-93415409D01*
X110949892Y-93400349D01*
X110990072Y-93363347D01*
X111025472Y-93331163D01*
X111055133Y-93304648D01*
X111078096Y-93284654D01*
X111093401Y-93272032D01*
X111100089Y-93267636D01*
X111104887Y-93270089D01*
X111119763Y-93279422D01*
X111143583Y-93295071D01*
X111175324Y-93316341D01*
X111213961Y-93342538D01*
X111258471Y-93372966D01*
X111307830Y-93406931D01*
X111361015Y-93443738D01*
X111417000Y-93482692D01*
X111435920Y-93495866D01*
X111471229Y-93520377D01*
X111512932Y-93549262D01*
X111558360Y-93580675D01*
X111604840Y-93612766D01*
X111649703Y-93643688D01*
X111671413Y-93658646D01*
X111722641Y-93694001D01*
X111777163Y-93731695D01*
X111831437Y-93769276D01*
X111881919Y-93804292D01*
X111925067Y-93834290D01*
X111940795Y-93845234D01*
X111979870Y-93872346D01*
X112017255Y-93898187D01*
X112050669Y-93921184D01*
X112077829Y-93939766D01*
X112096454Y-93952362D01*
X112140987Y-93982091D01*
X112141037Y-94025656D01*
X112141043Y-94027740D01*
X112147688Y-94108768D01*
X112166413Y-94186502D01*
X112196646Y-94259558D01*
X112237819Y-94326548D01*
X112289359Y-94386086D01*
X112333502Y-94423839D01*
X112386581Y-94456807D01*
X112441162Y-94478741D01*
X112495968Y-94489537D01*
X112549721Y-94489089D01*
X112601142Y-94477292D01*
X112648952Y-94454040D01*
X112691874Y-94419229D01*
X112706525Y-94404885D01*
X112719215Y-94393541D01*
X112725657Y-94389194D01*
X112728269Y-94390430D01*
X112740181Y-94397847D01*
X112759798Y-94410844D01*
X112785179Y-94428125D01*
X112814383Y-94448395D01*
X112816413Y-94449816D01*
X112855753Y-94477227D01*
X112900243Y-94508040D01*
X112944571Y-94538583D01*
X112983428Y-94565190D01*
X112991313Y-94570570D01*
X113030666Y-94597531D01*
X113074857Y-94627947D01*
X113119034Y-94658474D01*
X113158348Y-94685768D01*
X113171427Y-94694866D01*
X113207641Y-94719973D01*
X113250427Y-94749551D01*
X113296785Y-94781530D01*
X113343718Y-94813841D01*
X113388227Y-94844415D01*
X113405228Y-94856083D01*
X113452296Y-94888440D01*
X113501380Y-94922247D01*
X113549255Y-94955280D01*
X113592694Y-94985312D01*
X113628469Y-95010118D01*
X113649782Y-95024902D01*
X113691717Y-95053875D01*
X113734843Y-95083545D01*
X113775155Y-95111160D01*
X113808653Y-95133970D01*
X113888049Y-95187782D01*
X113891868Y-95255255D01*
X113893601Y-95288168D01*
X113895582Y-95329605D01*
X113897535Y-95373687D01*
X113899217Y-95415090D01*
X113900781Y-95455039D01*
X113902630Y-95500528D01*
X113904458Y-95544062D01*
X113906035Y-95580026D01*
X113907849Y-95620960D01*
X113910530Y-95683904D01*
X113913373Y-95753009D01*
X113916253Y-95825052D01*
X113919043Y-95896810D01*
X113921616Y-95965058D01*
X113923845Y-96026572D01*
X113925604Y-96078129D01*
X113926162Y-96095317D01*
X113927815Y-96144637D01*
X113929432Y-96182939D01*
X113931379Y-96211890D01*
X113934022Y-96233156D01*
X113937728Y-96248405D01*
X113942862Y-96259303D01*
X113949789Y-96267517D01*
X113958877Y-96274714D01*
X113970491Y-96282561D01*
X113972742Y-96284080D01*
X113988181Y-96294641D01*
X114012709Y-96311543D01*
X114044933Y-96333820D01*
X114083460Y-96360509D01*
X114126898Y-96390643D01*
X114173853Y-96423259D01*
X114222932Y-96457392D01*
X114254258Y-96479189D01*
X114317957Y-96523499D01*
X114386834Y-96571397D01*
X114457687Y-96620658D01*
X114527316Y-96669057D01*
X114592518Y-96714367D01*
X114650093Y-96754363D01*
X114703798Y-96791668D01*
X114766072Y-96834933D01*
X114833654Y-96881893D01*
X114903768Y-96930620D01*
X114973640Y-96979183D01*
X115040492Y-97025655D01*
X115101550Y-97068105D01*
X115110206Y-97074124D01*
X115167217Y-97113764D01*
X115224957Y-97153910D01*
X115284346Y-97195201D01*
X115346303Y-97238275D01*
X115411745Y-97283772D01*
X115481592Y-97332329D01*
X115556762Y-97384586D01*
X115638174Y-97441180D01*
X115726746Y-97502751D01*
X115823397Y-97569937D01*
X115929046Y-97643376D01*
X116044610Y-97723708D01*
X116076608Y-97745948D01*
X116140505Y-97790353D01*
X116209565Y-97838336D01*
X116280587Y-97887675D01*
X116350373Y-97936147D01*
X116415724Y-97981531D01*
X116473441Y-98021604D01*
X116511050Y-98047718D01*
X116567010Y-98086594D01*
X116624016Y-98126218D01*
X116679692Y-98164934D01*
X116731659Y-98201091D01*
X116777540Y-98233035D01*
X116814957Y-98259111D01*
X116841234Y-98277401D01*
X116875817Y-98301354D01*
X116905832Y-98322005D01*
X116929721Y-98338287D01*
X116945923Y-98349133D01*
X116952878Y-98353476D01*
X116953331Y-98353699D01*
X116961996Y-98359198D01*
X116979439Y-98370900D01*
X117003912Y-98387613D01*
X117033672Y-98408146D01*
X117066973Y-98431311D01*
X117072973Y-98435507D01*
X117105285Y-98458360D01*
X117133272Y-98478570D01*
X117155298Y-98494927D01*
X117169729Y-98506220D01*
X117174929Y-98511237D01*
X117172533Y-98517200D01*
X117164908Y-98533518D01*
X117152813Y-98558523D01*
X117137033Y-98590613D01*
X117118350Y-98628184D01*
X117097548Y-98669634D01*
X117087870Y-98688777D01*
X117064681Y-98733994D01*
X117046308Y-98768602D01*
X117032178Y-98793587D01*
X117021717Y-98809932D01*
X117014351Y-98818622D01*
X117009507Y-98820642D01*
X117006097Y-98818855D01*
X116992562Y-98810270D01*
X116970136Y-98795344D01*
X116939980Y-98774872D01*
X116903254Y-98749648D01*
X116861119Y-98720467D01*
X116814735Y-98688123D01*
X116765265Y-98653412D01*
X116745898Y-98639787D01*
X116693214Y-98602772D01*
X116641564Y-98566548D01*
X116592572Y-98532252D01*
X116547864Y-98501019D01*
X116509064Y-98473984D01*
X116477797Y-98452283D01*
X116455688Y-98437052D01*
X116442509Y-98428015D01*
X116412917Y-98407634D01*
X116375622Y-98381869D01*
X116332577Y-98352074D01*
X116285737Y-98319602D01*
X116237058Y-98285807D01*
X116188493Y-98252042D01*
X116133942Y-98214091D01*
X116057379Y-98160850D01*
X115982881Y-98109070D01*
X115911544Y-98059511D01*
X115844462Y-98012935D01*
X115782731Y-97970100D01*
X115727447Y-97931768D01*
X115679703Y-97898697D01*
X115640596Y-97871649D01*
X115611221Y-97851384D01*
X115606416Y-97848073D01*
X115582271Y-97831394D01*
X115549827Y-97808934D01*
X115511083Y-97782079D01*
X115468034Y-97752214D01*
X115422678Y-97720724D01*
X115377013Y-97688992D01*
X115333151Y-97658509D01*
X115273580Y-97617129D01*
X115209881Y-97572898D01*
X115145717Y-97528362D01*
X115084751Y-97486062D01*
X115030649Y-97448542D01*
X115010653Y-97434678D01*
X114957141Y-97397569D01*
X114897071Y-97355902D01*
X114833447Y-97311762D01*
X114769275Y-97267234D01*
X114707557Y-97224401D01*
X114651299Y-97185348D01*
X114623574Y-97166101D01*
X114531749Y-97102351D01*
X114449848Y-97045494D01*
X114377157Y-96995033D01*
X114312964Y-96950474D01*
X114256556Y-96911323D01*
X114207218Y-96877084D01*
X114164238Y-96847262D01*
X114126903Y-96821362D01*
X114094499Y-96798890D01*
X114066314Y-96779351D01*
X114041633Y-96762249D01*
X114019744Y-96747090D01*
X113999933Y-96733379D01*
X113972624Y-96714472D01*
X113935387Y-96688671D01*
X113892145Y-96658693D01*
X113845390Y-96626267D01*
X113797613Y-96593119D01*
X113751305Y-96560976D01*
X113590220Y-96449143D01*
X113548960Y-96255389D01*
X113540369Y-96215057D01*
X113526167Y-96148412D01*
X113511051Y-96077506D01*
X113495936Y-96006629D01*
X113481737Y-95940075D01*
X113469368Y-95882135D01*
X113431037Y-95702634D01*
X113232986Y-95564830D01*
X113216986Y-95553699D01*
X113159132Y-95513477D01*
X113096454Y-95469935D01*
X113032082Y-95425245D01*
X112969147Y-95381580D01*
X112910777Y-95341112D01*
X112860104Y-95306014D01*
X112795118Y-95261026D01*
X112732259Y-95217469D01*
X112678818Y-95180359D01*
X112634038Y-95149140D01*
X112597161Y-95123255D01*
X112567431Y-95102148D01*
X112544089Y-95085263D01*
X112526379Y-95072044D01*
X112513543Y-95061934D01*
X112504824Y-95054377D01*
X112499465Y-95048817D01*
X112496707Y-95044697D01*
X112495794Y-95041461D01*
X112495969Y-95038553D01*
X112495989Y-95038428D01*
X112498175Y-95013135D01*
X112498704Y-94979140D01*
X112497756Y-94940779D01*
X112495511Y-94902389D01*
X112492148Y-94868306D01*
X112487848Y-94842866D01*
X112477068Y-94805331D01*
X112451760Y-94742892D01*
X112418905Y-94683106D01*
X112380522Y-94629460D01*
X112338633Y-94585439D01*
X112303298Y-94558568D01*
X112258640Y-94532584D01*
X112212081Y-94512210D01*
X112168535Y-94499915D01*
X112152134Y-94497467D01*
X112096862Y-94497419D01*
X112043655Y-94509579D01*
X111994252Y-94533185D01*
X111950387Y-94567475D01*
X111913798Y-94611686D01*
X111895570Y-94639230D01*
X111815408Y-94583774D01*
X111788153Y-94564925D01*
X111737598Y-94529987D01*
X111678167Y-94488938D01*
X111611069Y-94442614D01*
X111537517Y-94391851D01*
X111458722Y-94337485D01*
X111375893Y-94280351D01*
X111290244Y-94221286D01*
X111271756Y-94208576D01*
X111231076Y-94180886D01*
X111194235Y-94156184D01*
X111162629Y-94135382D01*
X111137655Y-94119393D01*
X111120709Y-94109130D01*
X111113186Y-94105506D01*
X111113085Y-94105507D01*
X111102814Y-94108630D01*
X111084981Y-94116606D01*
X111063384Y-94127740D01*
X111052044Y-94133866D01*
X111026344Y-94147518D01*
X110993832Y-94164606D01*
X110957532Y-94183545D01*
X110920467Y-94202747D01*
X110901112Y-94212739D01*
X110854558Y-94236798D01*
X110803624Y-94263145D01*
X110753261Y-94289220D01*
X110708419Y-94312460D01*
X110673426Y-94330404D01*
X110642200Y-94346031D01*
X110616725Y-94358377D01*
X110598974Y-94366486D01*
X110590923Y-94369402D01*
X110585567Y-94367343D01*
X110570960Y-94358995D01*
X110550200Y-94345714D01*
X110525881Y-94329107D01*
X110519137Y-94324373D01*
X110494653Y-94307236D01*
X110461440Y-94284034D01*
X110421019Y-94255829D01*
X110374913Y-94223679D01*
X110324644Y-94188645D01*
X110271735Y-94151787D01*
X110217708Y-94114165D01*
X110164085Y-94076840D01*
X110112388Y-94040871D01*
X110064140Y-94007318D01*
X110020863Y-93977242D01*
X109984079Y-93951703D01*
X109955310Y-93931761D01*
X109930546Y-93914601D01*
X109892389Y-93888127D01*
X109848073Y-93857350D01*
X109799299Y-93823453D01*
X109747765Y-93787620D01*
X109695172Y-93751033D01*
X109643218Y-93714874D01*
X109593605Y-93680327D01*
X109548031Y-93648574D01*
X109508197Y-93620799D01*
X109475802Y-93598183D01*
X109452545Y-93581909D01*
X109443856Y-93575818D01*
X109405531Y-93549005D01*
X109360036Y-93517239D01*
X109309171Y-93481772D01*
X109254734Y-93443854D01*
X109198524Y-93404736D01*
X109142340Y-93365669D01*
X109087980Y-93327904D01*
X109037242Y-93292692D01*
X108991926Y-93261283D01*
X108953830Y-93234928D01*
X108924753Y-93214878D01*
X108913897Y-93207402D01*
X108877469Y-93182212D01*
X108834473Y-93152362D01*
X108788015Y-93120016D01*
X108741203Y-93087334D01*
X108697143Y-93056479D01*
X108678635Y-93043504D01*
X108629212Y-93008921D01*
X108574255Y-92970543D01*
X108517492Y-92930968D01*
X108462650Y-92892795D01*
X108413454Y-92858624D01*
X108395566Y-92846210D01*
X108342520Y-92809353D01*
X108284462Y-92768958D01*
X108225358Y-92727788D01*
X108169172Y-92688603D01*
X108119870Y-92654166D01*
X108073748Y-92621926D01*
X108005647Y-92574377D01*
X107942729Y-92530527D01*
X107881528Y-92487964D01*
X107818579Y-92444277D01*
X107750416Y-92397054D01*
X107737188Y-92387887D01*
X107707475Y-92367259D01*
X107669871Y-92341124D01*
X107626079Y-92310666D01*
X107577800Y-92277072D01*
X107526736Y-92241526D01*
X107474591Y-92205215D01*
X107423067Y-92169322D01*
X107373864Y-92135035D01*
X107328687Y-92103538D01*
X107289236Y-92076017D01*
X107257215Y-92053658D01*
X107234325Y-92037645D01*
X107216742Y-92025382D01*
X107188478Y-92005783D01*
X107154549Y-91982335D01*
X107117766Y-91956981D01*
X107080939Y-91931662D01*
X107077276Y-91929144D01*
X107044981Y-91906626D01*
X107016962Y-91886541D01*
X106994885Y-91870124D01*
X106980417Y-91858611D01*
X106975224Y-91853239D01*
X106976527Y-91849769D01*
X106985315Y-91837206D01*
X107001159Y-91817963D01*
X107022616Y-91793539D01*
X107048245Y-91765435D01*
X107076601Y-91735150D01*
X107106243Y-91704184D01*
X107135727Y-91674038D01*
X107163610Y-91646211D01*
X107188451Y-91622203D01*
X107208805Y-91603514D01*
X107223230Y-91591643D01*
X107230283Y-91588092D01*
X107231684Y-91588797D01*
G37*
X107231684Y-91588797D02*
X107242415Y-91595526D01*
X107261040Y-91607941D01*
X107285472Y-91624586D01*
X107313620Y-91644001D01*
X107343399Y-91664729D01*
X107372718Y-91685312D01*
X107399490Y-91704293D01*
X107421625Y-91720212D01*
X107437037Y-91731613D01*
X107443636Y-91737037D01*
X107446915Y-91739796D01*
X107459569Y-91749241D01*
X107479888Y-91763917D01*
X107505992Y-91782470D01*
X107536000Y-91803547D01*
X107555797Y-91817376D01*
X107585231Y-91837937D01*
X107610391Y-91855515D01*
X107629095Y-91868583D01*
X107639164Y-91875620D01*
X107646334Y-91880659D01*
X107663436Y-91892719D01*
X107686218Y-91908814D01*
X107711735Y-91926861D01*
X107740760Y-91947391D01*
X107806907Y-91994083D01*
X107867435Y-92036676D01*
X107920644Y-92073974D01*
X107964831Y-92104780D01*
X107977382Y-92113511D01*
X108011515Y-92137355D01*
X108047817Y-92162817D01*
X108080286Y-92185693D01*
X108095865Y-92196689D01*
X108131444Y-92221733D01*
X108168907Y-92248031D01*
X108202338Y-92271428D01*
X108219244Y-92283249D01*
X108254640Y-92308059D01*
X108290465Y-92333236D01*
X108321091Y-92354827D01*
X108325523Y-92357958D01*
X108350319Y-92375446D01*
X108382695Y-92398248D01*
X108420043Y-92424530D01*
X108459754Y-92452455D01*
X108499221Y-92480187D01*
X108508967Y-92487033D01*
X108548376Y-92514717D01*
X108587123Y-92541939D01*
X108622674Y-92566918D01*
X108652495Y-92587876D01*
X108674052Y-92603030D01*
X108679827Y-92607091D01*
X108712654Y-92630172D01*
X108748161Y-92655134D01*
X108779610Y-92677242D01*
X108792487Y-92686300D01*
X108821137Y-92706482D01*
X108855436Y-92730667D01*
X108892151Y-92756576D01*
X108928052Y-92781929D01*
X108936214Y-92787694D01*
X108973346Y-92813891D01*
X109017141Y-92844753D01*
X109064315Y-92877967D01*
X109111583Y-92911221D01*
X109155662Y-92942201D01*
X109177698Y-92957680D01*
X109214960Y-92983858D01*
X109260441Y-93015811D01*
X109312678Y-93052512D01*
X109370211Y-93092935D01*
X109431578Y-93136053D01*
X109495320Y-93180840D01*
X109559973Y-93226269D01*
X109624078Y-93271314D01*
X109664365Y-93299622D01*
X109787091Y-93385846D01*
X109899549Y-93464839D01*
X110001692Y-93536568D01*
X110093473Y-93601000D01*
X110174843Y-93658101D01*
X110245756Y-93707838D01*
X110306165Y-93750178D01*
X110356022Y-93785088D01*
X110395279Y-93812535D01*
X110423889Y-93832485D01*
X110441806Y-93844906D01*
X110448980Y-93849763D01*
X110452102Y-93850056D01*
X110463705Y-93844951D01*
X110478669Y-93833879D01*
X110486262Y-93827143D01*
X110504201Y-93810954D01*
X110528456Y-93788882D01*
X110557244Y-93762568D01*
X110588777Y-93733654D01*
X110621272Y-93703782D01*
X110652944Y-93674593D01*
X110682007Y-93647730D01*
X110706676Y-93624833D01*
X110725167Y-93607545D01*
X110735693Y-93597506D01*
X110738545Y-93594841D01*
X110749832Y-93584428D01*
X110768010Y-93567717D01*
X110791371Y-93546278D01*
X110818208Y-93521678D01*
X110831373Y-93509610D01*
X110861859Y-93481624D01*
X110890915Y-93454895D01*
X110915772Y-93431974D01*
X110933662Y-93415409D01*
X110949892Y-93400349D01*
X110990072Y-93363347D01*
X111025472Y-93331163D01*
X111055133Y-93304648D01*
X111078096Y-93284654D01*
X111093401Y-93272032D01*
X111100089Y-93267636D01*
X111104887Y-93270089D01*
X111119763Y-93279422D01*
X111143583Y-93295071D01*
X111175324Y-93316341D01*
X111213961Y-93342538D01*
X111258471Y-93372966D01*
X111307830Y-93406931D01*
X111361015Y-93443738D01*
X111417000Y-93482692D01*
X111435920Y-93495866D01*
X111471229Y-93520377D01*
X111512932Y-93549262D01*
X111558360Y-93580675D01*
X111604840Y-93612766D01*
X111649703Y-93643688D01*
X111671413Y-93658646D01*
X111722641Y-93694001D01*
X111777163Y-93731695D01*
X111831437Y-93769276D01*
X111881919Y-93804292D01*
X111925067Y-93834290D01*
X111940795Y-93845234D01*
X111979870Y-93872346D01*
X112017255Y-93898187D01*
X112050669Y-93921184D01*
X112077829Y-93939766D01*
X112096454Y-93952362D01*
X112140987Y-93982091D01*
X112141037Y-94025656D01*
X112141043Y-94027740D01*
X112147688Y-94108768D01*
X112166413Y-94186502D01*
X112196646Y-94259558D01*
X112237819Y-94326548D01*
X112289359Y-94386086D01*
X112333502Y-94423839D01*
X112386581Y-94456807D01*
X112441162Y-94478741D01*
X112495968Y-94489537D01*
X112549721Y-94489089D01*
X112601142Y-94477292D01*
X112648952Y-94454040D01*
X112691874Y-94419229D01*
X112706525Y-94404885D01*
X112719215Y-94393541D01*
X112725657Y-94389194D01*
X112728269Y-94390430D01*
X112740181Y-94397847D01*
X112759798Y-94410844D01*
X112785179Y-94428125D01*
X112814383Y-94448395D01*
X112816413Y-94449816D01*
X112855753Y-94477227D01*
X112900243Y-94508040D01*
X112944571Y-94538583D01*
X112983428Y-94565190D01*
X112991313Y-94570570D01*
X113030666Y-94597531D01*
X113074857Y-94627947D01*
X113119034Y-94658474D01*
X113158348Y-94685768D01*
X113171427Y-94694866D01*
X113207641Y-94719973D01*
X113250427Y-94749551D01*
X113296785Y-94781530D01*
X113343718Y-94813841D01*
X113388227Y-94844415D01*
X113405228Y-94856083D01*
X113452296Y-94888440D01*
X113501380Y-94922247D01*
X113549255Y-94955280D01*
X113592694Y-94985312D01*
X113628469Y-95010118D01*
X113649782Y-95024902D01*
X113691717Y-95053875D01*
X113734843Y-95083545D01*
X113775155Y-95111160D01*
X113808653Y-95133970D01*
X113888049Y-95187782D01*
X113891868Y-95255255D01*
X113893601Y-95288168D01*
X113895582Y-95329605D01*
X113897535Y-95373687D01*
X113899217Y-95415090D01*
X113900781Y-95455039D01*
X113902630Y-95500528D01*
X113904458Y-95544062D01*
X113906035Y-95580026D01*
X113907849Y-95620960D01*
X113910530Y-95683904D01*
X113913373Y-95753009D01*
X113916253Y-95825052D01*
X113919043Y-95896810D01*
X113921616Y-95965058D01*
X113923845Y-96026572D01*
X113925604Y-96078129D01*
X113926162Y-96095317D01*
X113927815Y-96144637D01*
X113929432Y-96182939D01*
X113931379Y-96211890D01*
X113934022Y-96233156D01*
X113937728Y-96248405D01*
X113942862Y-96259303D01*
X113949789Y-96267517D01*
X113958877Y-96274714D01*
X113970491Y-96282561D01*
X113972742Y-96284080D01*
X113988181Y-96294641D01*
X114012709Y-96311543D01*
X114044933Y-96333820D01*
X114083460Y-96360509D01*
X114126898Y-96390643D01*
X114173853Y-96423259D01*
X114222932Y-96457392D01*
X114254258Y-96479189D01*
X114317957Y-96523499D01*
X114386834Y-96571397D01*
X114457687Y-96620658D01*
X114527316Y-96669057D01*
X114592518Y-96714367D01*
X114650093Y-96754363D01*
X114703798Y-96791668D01*
X114766072Y-96834933D01*
X114833654Y-96881893D01*
X114903768Y-96930620D01*
X114973640Y-96979183D01*
X115040492Y-97025655D01*
X115101550Y-97068105D01*
X115110206Y-97074124D01*
X115167217Y-97113764D01*
X115224957Y-97153910D01*
X115284346Y-97195201D01*
X115346303Y-97238275D01*
X115411745Y-97283772D01*
X115481592Y-97332329D01*
X115556762Y-97384586D01*
X115638174Y-97441180D01*
X115726746Y-97502751D01*
X115823397Y-97569937D01*
X115929046Y-97643376D01*
X116044610Y-97723708D01*
X116076608Y-97745948D01*
X116140505Y-97790353D01*
X116209565Y-97838336D01*
X116280587Y-97887675D01*
X116350373Y-97936147D01*
X116415724Y-97981531D01*
X116473441Y-98021604D01*
X116511050Y-98047718D01*
X116567010Y-98086594D01*
X116624016Y-98126218D01*
X116679692Y-98164934D01*
X116731659Y-98201091D01*
X116777540Y-98233035D01*
X116814957Y-98259111D01*
X116841234Y-98277401D01*
X116875817Y-98301354D01*
X116905832Y-98322005D01*
X116929721Y-98338287D01*
X116945923Y-98349133D01*
X116952878Y-98353476D01*
X116953331Y-98353699D01*
X116961996Y-98359198D01*
X116979439Y-98370900D01*
X117003912Y-98387613D01*
X117033672Y-98408146D01*
X117066973Y-98431311D01*
X117072973Y-98435507D01*
X117105285Y-98458360D01*
X117133272Y-98478570D01*
X117155298Y-98494927D01*
X117169729Y-98506220D01*
X117174929Y-98511237D01*
X117172533Y-98517200D01*
X117164908Y-98533518D01*
X117152813Y-98558523D01*
X117137033Y-98590613D01*
X117118350Y-98628184D01*
X117097548Y-98669634D01*
X117087870Y-98688777D01*
X117064681Y-98733994D01*
X117046308Y-98768602D01*
X117032178Y-98793587D01*
X117021717Y-98809932D01*
X117014351Y-98818622D01*
X117009507Y-98820642D01*
X117006097Y-98818855D01*
X116992562Y-98810270D01*
X116970136Y-98795344D01*
X116939980Y-98774872D01*
X116903254Y-98749648D01*
X116861119Y-98720467D01*
X116814735Y-98688123D01*
X116765265Y-98653412D01*
X116745898Y-98639787D01*
X116693214Y-98602772D01*
X116641564Y-98566548D01*
X116592572Y-98532252D01*
X116547864Y-98501019D01*
X116509064Y-98473984D01*
X116477797Y-98452283D01*
X116455688Y-98437052D01*
X116442509Y-98428015D01*
X116412917Y-98407634D01*
X116375622Y-98381869D01*
X116332577Y-98352074D01*
X116285737Y-98319602D01*
X116237058Y-98285807D01*
X116188493Y-98252042D01*
X116133942Y-98214091D01*
X116057379Y-98160850D01*
X115982881Y-98109070D01*
X115911544Y-98059511D01*
X115844462Y-98012935D01*
X115782731Y-97970100D01*
X115727447Y-97931768D01*
X115679703Y-97898697D01*
X115640596Y-97871649D01*
X115611221Y-97851384D01*
X115606416Y-97848073D01*
X115582271Y-97831394D01*
X115549827Y-97808934D01*
X115511083Y-97782079D01*
X115468034Y-97752214D01*
X115422678Y-97720724D01*
X115377013Y-97688992D01*
X115333151Y-97658509D01*
X115273580Y-97617129D01*
X115209881Y-97572898D01*
X115145717Y-97528362D01*
X115084751Y-97486062D01*
X115030649Y-97448542D01*
X115010653Y-97434678D01*
X114957141Y-97397569D01*
X114897071Y-97355902D01*
X114833447Y-97311762D01*
X114769275Y-97267234D01*
X114707557Y-97224401D01*
X114651299Y-97185348D01*
X114623574Y-97166101D01*
X114531749Y-97102351D01*
X114449848Y-97045494D01*
X114377157Y-96995033D01*
X114312964Y-96950474D01*
X114256556Y-96911323D01*
X114207218Y-96877084D01*
X114164238Y-96847262D01*
X114126903Y-96821362D01*
X114094499Y-96798890D01*
X114066314Y-96779351D01*
X114041633Y-96762249D01*
X114019744Y-96747090D01*
X113999933Y-96733379D01*
X113972624Y-96714472D01*
X113935387Y-96688671D01*
X113892145Y-96658693D01*
X113845390Y-96626267D01*
X113797613Y-96593119D01*
X113751305Y-96560976D01*
X113590220Y-96449143D01*
X113548960Y-96255389D01*
X113540369Y-96215057D01*
X113526167Y-96148412D01*
X113511051Y-96077506D01*
X113495936Y-96006629D01*
X113481737Y-95940075D01*
X113469368Y-95882135D01*
X113431037Y-95702634D01*
X113232986Y-95564830D01*
X113216986Y-95553699D01*
X113159132Y-95513477D01*
X113096454Y-95469935D01*
X113032082Y-95425245D01*
X112969147Y-95381580D01*
X112910777Y-95341112D01*
X112860104Y-95306014D01*
X112795118Y-95261026D01*
X112732259Y-95217469D01*
X112678818Y-95180359D01*
X112634038Y-95149140D01*
X112597161Y-95123255D01*
X112567431Y-95102148D01*
X112544089Y-95085263D01*
X112526379Y-95072044D01*
X112513543Y-95061934D01*
X112504824Y-95054377D01*
X112499465Y-95048817D01*
X112496707Y-95044697D01*
X112495794Y-95041461D01*
X112495969Y-95038553D01*
X112495989Y-95038428D01*
X112498175Y-95013135D01*
X112498704Y-94979140D01*
X112497756Y-94940779D01*
X112495511Y-94902389D01*
X112492148Y-94868306D01*
X112487848Y-94842866D01*
X112477068Y-94805331D01*
X112451760Y-94742892D01*
X112418905Y-94683106D01*
X112380522Y-94629460D01*
X112338633Y-94585439D01*
X112303298Y-94558568D01*
X112258640Y-94532584D01*
X112212081Y-94512210D01*
X112168535Y-94499915D01*
X112152134Y-94497467D01*
X112096862Y-94497419D01*
X112043655Y-94509579D01*
X111994252Y-94533185D01*
X111950387Y-94567475D01*
X111913798Y-94611686D01*
X111895570Y-94639230D01*
X111815408Y-94583774D01*
X111788153Y-94564925D01*
X111737598Y-94529987D01*
X111678167Y-94488938D01*
X111611069Y-94442614D01*
X111537517Y-94391851D01*
X111458722Y-94337485D01*
X111375893Y-94280351D01*
X111290244Y-94221286D01*
X111271756Y-94208576D01*
X111231076Y-94180886D01*
X111194235Y-94156184D01*
X111162629Y-94135382D01*
X111137655Y-94119393D01*
X111120709Y-94109130D01*
X111113186Y-94105506D01*
X111113085Y-94105507D01*
X111102814Y-94108630D01*
X111084981Y-94116606D01*
X111063384Y-94127740D01*
X111052044Y-94133866D01*
X111026344Y-94147518D01*
X110993832Y-94164606D01*
X110957532Y-94183545D01*
X110920467Y-94202747D01*
X110901112Y-94212739D01*
X110854558Y-94236798D01*
X110803624Y-94263145D01*
X110753261Y-94289220D01*
X110708419Y-94312460D01*
X110673426Y-94330404D01*
X110642200Y-94346031D01*
X110616725Y-94358377D01*
X110598974Y-94366486D01*
X110590923Y-94369402D01*
X110585567Y-94367343D01*
X110570960Y-94358995D01*
X110550200Y-94345714D01*
X110525881Y-94329107D01*
X110519137Y-94324373D01*
X110494653Y-94307236D01*
X110461440Y-94284034D01*
X110421019Y-94255829D01*
X110374913Y-94223679D01*
X110324644Y-94188645D01*
X110271735Y-94151787D01*
X110217708Y-94114165D01*
X110164085Y-94076840D01*
X110112388Y-94040871D01*
X110064140Y-94007318D01*
X110020863Y-93977242D01*
X109984079Y-93951703D01*
X109955310Y-93931761D01*
X109930546Y-93914601D01*
X109892389Y-93888127D01*
X109848073Y-93857350D01*
X109799299Y-93823453D01*
X109747765Y-93787620D01*
X109695172Y-93751033D01*
X109643218Y-93714874D01*
X109593605Y-93680327D01*
X109548031Y-93648574D01*
X109508197Y-93620799D01*
X109475802Y-93598183D01*
X109452545Y-93581909D01*
X109443856Y-93575818D01*
X109405531Y-93549005D01*
X109360036Y-93517239D01*
X109309171Y-93481772D01*
X109254734Y-93443854D01*
X109198524Y-93404736D01*
X109142340Y-93365669D01*
X109087980Y-93327904D01*
X109037242Y-93292692D01*
X108991926Y-93261283D01*
X108953830Y-93234928D01*
X108924753Y-93214878D01*
X108913897Y-93207402D01*
X108877469Y-93182212D01*
X108834473Y-93152362D01*
X108788015Y-93120016D01*
X108741203Y-93087334D01*
X108697143Y-93056479D01*
X108678635Y-93043504D01*
X108629212Y-93008921D01*
X108574255Y-92970543D01*
X108517492Y-92930968D01*
X108462650Y-92892795D01*
X108413454Y-92858624D01*
X108395566Y-92846210D01*
X108342520Y-92809353D01*
X108284462Y-92768958D01*
X108225358Y-92727788D01*
X108169172Y-92688603D01*
X108119870Y-92654166D01*
X108073748Y-92621926D01*
X108005647Y-92574377D01*
X107942729Y-92530527D01*
X107881528Y-92487964D01*
X107818579Y-92444277D01*
X107750416Y-92397054D01*
X107737188Y-92387887D01*
X107707475Y-92367259D01*
X107669871Y-92341124D01*
X107626079Y-92310666D01*
X107577800Y-92277072D01*
X107526736Y-92241526D01*
X107474591Y-92205215D01*
X107423067Y-92169322D01*
X107373864Y-92135035D01*
X107328687Y-92103538D01*
X107289236Y-92076017D01*
X107257215Y-92053658D01*
X107234325Y-92037645D01*
X107216742Y-92025382D01*
X107188478Y-92005783D01*
X107154549Y-91982335D01*
X107117766Y-91956981D01*
X107080939Y-91931662D01*
X107077276Y-91929144D01*
X107044981Y-91906626D01*
X107016962Y-91886541D01*
X106994885Y-91870124D01*
X106980417Y-91858611D01*
X106975224Y-91853239D01*
X106976527Y-91849769D01*
X106985315Y-91837206D01*
X107001159Y-91817963D01*
X107022616Y-91793539D01*
X107048245Y-91765435D01*
X107076601Y-91735150D01*
X107106243Y-91704184D01*
X107135727Y-91674038D01*
X107163610Y-91646211D01*
X107188451Y-91622203D01*
X107208805Y-91603514D01*
X107223230Y-91591643D01*
X107230283Y-91588092D01*
X107231684Y-91588797D01*
G36*
X106333271Y-92748766D02*
G01*
X106347521Y-92756335D01*
X106368308Y-92769436D01*
X106396980Y-92788852D01*
X106434887Y-92815366D01*
X106461224Y-92833935D01*
X106507827Y-92866737D01*
X106563901Y-92906156D01*
X106628653Y-92951637D01*
X106701288Y-93002623D01*
X106781014Y-93058560D01*
X106867035Y-93118891D01*
X106958559Y-93183060D01*
X107054791Y-93250511D01*
X107154939Y-93320690D01*
X107258207Y-93393040D01*
X107363802Y-93467005D01*
X107470931Y-93542029D01*
X107578800Y-93617558D01*
X107686615Y-93693034D01*
X107793582Y-93767903D01*
X107898907Y-93841608D01*
X108001797Y-93913594D01*
X108101458Y-93983305D01*
X108197096Y-94050185D01*
X108287918Y-94113678D01*
X108373129Y-94173229D01*
X108451936Y-94228282D01*
X108523545Y-94278281D01*
X108587162Y-94322670D01*
X108641994Y-94360894D01*
X108687247Y-94392396D01*
X108701972Y-94402643D01*
X108741524Y-94430207D01*
X108789828Y-94463912D01*
X108845475Y-94502773D01*
X108907056Y-94545805D01*
X108973160Y-94592022D01*
X109042378Y-94640440D01*
X109113301Y-94690071D01*
X109184519Y-94739933D01*
X109254623Y-94789038D01*
X109289610Y-94813551D01*
X109365891Y-94866995D01*
X109432496Y-94913655D01*
X109490223Y-94954089D01*
X109539870Y-94988852D01*
X109582234Y-95018501D01*
X109618111Y-95043592D01*
X109648299Y-95064681D01*
X109673596Y-95082325D01*
X109694799Y-95097079D01*
X109712704Y-95109500D01*
X109728109Y-95120145D01*
X109741811Y-95129569D01*
X109754608Y-95138329D01*
X109767296Y-95146981D01*
X109780673Y-95156081D01*
X109792467Y-95164309D01*
X109813226Y-95179951D01*
X109828177Y-95192800D01*
X109834680Y-95200675D01*
X109834943Y-95201823D01*
X109836384Y-95214326D01*
X109838064Y-95236643D01*
X109839794Y-95266003D01*
X109841388Y-95299636D01*
X109841795Y-95309334D01*
X109843349Y-95346504D01*
X109845259Y-95392297D01*
X109847381Y-95443275D01*
X109849571Y-95496002D01*
X109851688Y-95547038D01*
X109851800Y-95549739D01*
X109854190Y-95607279D01*
X109856879Y-95671837D01*
X109859657Y-95738363D01*
X109862313Y-95801806D01*
X109864636Y-95857116D01*
X109864722Y-95859156D01*
X109866953Y-95913192D01*
X109869319Y-95972165D01*
X109871645Y-96031544D01*
X109873751Y-96086799D01*
X109875461Y-96133402D01*
X109875490Y-96134200D01*
X109877263Y-96178983D01*
X109879066Y-96212352D01*
X109881096Y-96236059D01*
X109883552Y-96251856D01*
X109886632Y-96261496D01*
X109890534Y-96266731D01*
X109895572Y-96270518D01*
X109910805Y-96281460D01*
X109934283Y-96298085D01*
X109964495Y-96319340D01*
X109999930Y-96344170D01*
X110039077Y-96371521D01*
X110080426Y-96400340D01*
X110122466Y-96429574D01*
X110163687Y-96458167D01*
X110202577Y-96485067D01*
X110237627Y-96509219D01*
X110267325Y-96529570D01*
X110269139Y-96530809D01*
X110297277Y-96550107D01*
X110332980Y-96574713D01*
X110373236Y-96602543D01*
X110415031Y-96631514D01*
X110455351Y-96659543D01*
X110468995Y-96669038D01*
X110513429Y-96699906D01*
X110563905Y-96734908D01*
X110616860Y-96771576D01*
X110668729Y-96807440D01*
X110715948Y-96840033D01*
X110738028Y-96855259D01*
X110784133Y-96887070D01*
X110831013Y-96919436D01*
X110875759Y-96950346D01*
X110915460Y-96977791D01*
X110947206Y-96999760D01*
X111036620Y-97061691D01*
X111044559Y-97124547D01*
X111051205Y-97163403D01*
X111068107Y-97226329D01*
X111091338Y-97287740D01*
X111118938Y-97341907D01*
X111124073Y-97349925D01*
X111142058Y-97374279D01*
X111164534Y-97401312D01*
X111187829Y-97426512D01*
X111215625Y-97452191D01*
X111266414Y-97488269D01*
X111319717Y-97513952D01*
X111374068Y-97529037D01*
X111428002Y-97533324D01*
X111480052Y-97526610D01*
X111528753Y-97508696D01*
X111572639Y-97479378D01*
X111584403Y-97470161D01*
X111599289Y-97461093D01*
X111608401Y-97458884D01*
X111611138Y-97460278D01*
X111618233Y-97464606D01*
X111629957Y-97472232D01*
X111647084Y-97483684D01*
X111670392Y-97499492D01*
X111700655Y-97520186D01*
X111738649Y-97546294D01*
X111785151Y-97578345D01*
X111840936Y-97616869D01*
X111906779Y-97662395D01*
X111933572Y-97680925D01*
X111984988Y-97716472D01*
X112046461Y-97758959D01*
X112117495Y-97808044D01*
X112197595Y-97863385D01*
X112286268Y-97924640D01*
X112383018Y-97991468D01*
X112487351Y-98063526D01*
X112492053Y-98066775D01*
X112538218Y-98098683D01*
X112590703Y-98134992D01*
X112645454Y-98172897D01*
X112698420Y-98209591D01*
X112745547Y-98242269D01*
X112772971Y-98261210D01*
X112807547Y-98284824D01*
X112837490Y-98304968D01*
X112861258Y-98320618D01*
X112877307Y-98330747D01*
X112884093Y-98334329D01*
X112884101Y-98334329D01*
X112891504Y-98330064D01*
X112905397Y-98319031D01*
X112922779Y-98303611D01*
X112929677Y-98297209D01*
X112949930Y-98278402D01*
X112975970Y-98254212D01*
X113005178Y-98227074D01*
X113034935Y-98199419D01*
X113052243Y-98183351D01*
X113088906Y-98149398D01*
X113129372Y-98112007D01*
X113169830Y-98074698D01*
X113206467Y-98040991D01*
X113231040Y-98018418D01*
X113272216Y-97980582D01*
X113307866Y-97947806D01*
X113340746Y-97917552D01*
X113373615Y-97887283D01*
X113409229Y-97854460D01*
X113450347Y-97816545D01*
X113461897Y-97805964D01*
X113486287Y-97784103D01*
X113506629Y-97766529D01*
X113521067Y-97754824D01*
X113527743Y-97750571D01*
X113528605Y-97750670D01*
X113531491Y-97751732D01*
X113536473Y-97754395D01*
X113544345Y-97759200D01*
X113555899Y-97766688D01*
X113571930Y-97777401D01*
X113593229Y-97791877D01*
X113620591Y-97810659D01*
X113654808Y-97834287D01*
X113696674Y-97863303D01*
X113746982Y-97898245D01*
X113806524Y-97939657D01*
X113876095Y-97988077D01*
X113908213Y-98010431D01*
X113971527Y-98054472D01*
X114039735Y-98101891D01*
X114109693Y-98150504D01*
X114178257Y-98198127D01*
X114242283Y-98242574D01*
X114298628Y-98281662D01*
X114321624Y-98297609D01*
X114420407Y-98366134D01*
X114522273Y-98436832D01*
X114625230Y-98508320D01*
X114727288Y-98579215D01*
X114826458Y-98648134D01*
X114920748Y-98713694D01*
X115008168Y-98774512D01*
X115086727Y-98829206D01*
X115088148Y-98830196D01*
X115131903Y-98860648D01*
X115175091Y-98890661D01*
X115215659Y-98918813D01*
X115251558Y-98943684D01*
X115280736Y-98963849D01*
X115301143Y-98977888D01*
X115312935Y-98985990D01*
X115338264Y-99003468D01*
X115371495Y-99026456D01*
X115410884Y-99053746D01*
X115454684Y-99084128D01*
X115501153Y-99116393D01*
X115548545Y-99149333D01*
X115570158Y-99164362D01*
X115664762Y-99230144D01*
X115749324Y-99288931D01*
X115824489Y-99341171D01*
X115890906Y-99387312D01*
X115949220Y-99427804D01*
X116000079Y-99463095D01*
X116044130Y-99493633D01*
X116082020Y-99519866D01*
X116114394Y-99542244D01*
X116141902Y-99561215D01*
X116165189Y-99577228D01*
X116184902Y-99590730D01*
X116201688Y-99602171D01*
X116237010Y-99626191D01*
X116289630Y-99662053D01*
X116331842Y-99690938D01*
X116363509Y-99712751D01*
X116384495Y-99727397D01*
X116394662Y-99734784D01*
X116398534Y-99738115D01*
X116402909Y-99743598D01*
X116400484Y-99748223D01*
X116390226Y-99762040D01*
X116372904Y-99783502D01*
X116349567Y-99811408D01*
X116321267Y-99844562D01*
X116289053Y-99881764D01*
X116253977Y-99921818D01*
X116217088Y-99963524D01*
X116179438Y-100005686D01*
X116142078Y-100047104D01*
X116106056Y-100086581D01*
X116072425Y-100122918D01*
X116042235Y-100154918D01*
X115970136Y-100230381D01*
X115861600Y-100154352D01*
X115779591Y-100096944D01*
X115664542Y-100016526D01*
X115546495Y-99934133D01*
X115428891Y-99852168D01*
X115315172Y-99773028D01*
X115208779Y-99699115D01*
X115095568Y-99620539D01*
X114969127Y-99532766D01*
X114834436Y-99439256D01*
X114692808Y-99340919D01*
X114545559Y-99238668D01*
X114394000Y-99133415D01*
X114364731Y-99113088D01*
X114302070Y-99069580D01*
X114233508Y-99021981D01*
X114162290Y-98972544D01*
X114091663Y-98923524D01*
X114024874Y-98877173D01*
X113965169Y-98835746D01*
X113921757Y-98805620D01*
X113863588Y-98765233D01*
X113804054Y-98723881D01*
X113745598Y-98683258D01*
X113690661Y-98645063D01*
X113641685Y-98610992D01*
X113601110Y-98582742D01*
X113454766Y-98480785D01*
X113399890Y-98544241D01*
X113377561Y-98570152D01*
X113355642Y-98595758D01*
X113337359Y-98617288D01*
X113325221Y-98631799D01*
X113322518Y-98635051D01*
X113310633Y-98649112D01*
X113292444Y-98670464D01*
X113269302Y-98697532D01*
X113242561Y-98728742D01*
X113213574Y-98762520D01*
X113183694Y-98797292D01*
X113154275Y-98831484D01*
X113126669Y-98863521D01*
X113102230Y-98891830D01*
X113082311Y-98914837D01*
X113068265Y-98930967D01*
X113061445Y-98938646D01*
X113060847Y-98939307D01*
X113053300Y-98947958D01*
X113038366Y-98965238D01*
X113017013Y-98990023D01*
X112990208Y-99021187D01*
X112958921Y-99057604D01*
X112924119Y-99098149D01*
X112886771Y-99141696D01*
X112876946Y-99153137D01*
X112840262Y-99195522D01*
X112806339Y-99234202D01*
X112776139Y-99268118D01*
X112750623Y-99296206D01*
X112730750Y-99317408D01*
X112717482Y-99330661D01*
X112711780Y-99334906D01*
X112709797Y-99333989D01*
X112705811Y-99331699D01*
X112699231Y-99327528D01*
X112689142Y-99320850D01*
X112674628Y-99311036D01*
X112654772Y-99297462D01*
X112628658Y-99279499D01*
X112595369Y-99256521D01*
X112553990Y-99227900D01*
X112503603Y-99193010D01*
X112443292Y-99151225D01*
X112435268Y-99145665D01*
X112389512Y-99113975D01*
X112336033Y-99076957D01*
X112276377Y-99035679D01*
X112212093Y-98991212D01*
X112144729Y-98944625D01*
X112075832Y-98896989D01*
X112006949Y-98849373D01*
X111939630Y-98802847D01*
X111875420Y-98758482D01*
X111815869Y-98717346D01*
X111762524Y-98680511D01*
X111716933Y-98649046D01*
X111680643Y-98624021D01*
X111675742Y-98620642D01*
X111649306Y-98602394D01*
X111615372Y-98578944D01*
X111576644Y-98552163D01*
X111535825Y-98523917D01*
X111495616Y-98496077D01*
X111482905Y-98487277D01*
X111444164Y-98460505D01*
X111406945Y-98434852D01*
X111373578Y-98411920D01*
X111346392Y-98393310D01*
X111327715Y-98380623D01*
X111312556Y-98370282D01*
X111296493Y-98358130D01*
X111287803Y-98348379D01*
X111284209Y-98338146D01*
X111283432Y-98324545D01*
X111283165Y-98313883D01*
X111277060Y-98258057D01*
X111263983Y-98198658D01*
X111245316Y-98140985D01*
X111222437Y-98090337D01*
X111192289Y-98041083D01*
X111149754Y-97987809D01*
X111102748Y-97943852D01*
X111052403Y-97909594D01*
X110999854Y-97885415D01*
X110946233Y-97871697D01*
X110892673Y-97868823D01*
X110840307Y-97877173D01*
X110790268Y-97897130D01*
X110743689Y-97929074D01*
X110733284Y-97937685D01*
X110719756Y-97947835D01*
X110712544Y-97951792D01*
X110712403Y-97951766D01*
X110705148Y-97947573D01*
X110688622Y-97936881D01*
X110664263Y-97920654D01*
X110633508Y-97899858D01*
X110597792Y-97875456D01*
X110558554Y-97848414D01*
X110531175Y-97829474D01*
X110482272Y-97795674D01*
X110432013Y-97760967D01*
X110383450Y-97727460D01*
X110339632Y-97697258D01*
X110303610Y-97672465D01*
X110303215Y-97672193D01*
X110227935Y-97620415D01*
X110162357Y-97575262D01*
X110106679Y-97536870D01*
X110061099Y-97505376D01*
X110025816Y-97480918D01*
X110001028Y-97463633D01*
X109986935Y-97453657D01*
X109985123Y-97452357D01*
X109970449Y-97442062D01*
X109948114Y-97426602D01*
X109920821Y-97407842D01*
X109891273Y-97387647D01*
X109889888Y-97386703D01*
X109853994Y-97362162D01*
X109812519Y-97333691D01*
X109770491Y-97304748D01*
X109732935Y-97278786D01*
X109710914Y-97263529D01*
X109671887Y-97236504D01*
X109628502Y-97206475D01*
X109584633Y-97176123D01*
X109544151Y-97148127D01*
X109534076Y-97141149D01*
X109499154Y-97116640D01*
X109473640Y-97097979D01*
X109456221Y-97084057D01*
X109445585Y-97073765D01*
X109440419Y-97065994D01*
X109439410Y-97059636D01*
X109439516Y-97058448D01*
X109440271Y-97045140D01*
X109441320Y-97021333D01*
X109442575Y-96989276D01*
X109443948Y-96951216D01*
X109445349Y-96909402D01*
X109445432Y-96906827D01*
X109446943Y-96862342D01*
X109448528Y-96819270D01*
X109450070Y-96780555D01*
X109451452Y-96749142D01*
X109452558Y-96727974D01*
X109452769Y-96724452D01*
X109454149Y-96698358D01*
X109455762Y-96663890D01*
X109457426Y-96625122D01*
X109458956Y-96586129D01*
X109461150Y-96527350D01*
X109463722Y-96459395D01*
X109465937Y-96402189D01*
X109467852Y-96354336D01*
X109469522Y-96314443D01*
X109471004Y-96281116D01*
X109472354Y-96252961D01*
X109473361Y-96231065D01*
X109474800Y-96196283D01*
X109476403Y-96154710D01*
X109478039Y-96109782D01*
X109479575Y-96064935D01*
X109479681Y-96061743D01*
X109481123Y-96021374D01*
X109482593Y-95985133D01*
X109483987Y-95955288D01*
X109485199Y-95934101D01*
X109486124Y-95923838D01*
X109486761Y-95918050D01*
X109487672Y-95900717D01*
X109488414Y-95876073D01*
X109488960Y-95847047D01*
X109489283Y-95816569D01*
X109489356Y-95787565D01*
X109489154Y-95762966D01*
X109488648Y-95745700D01*
X109487813Y-95738695D01*
X109487472Y-95738435D01*
X109479654Y-95732904D01*
X109462650Y-95721021D01*
X109437847Y-95703750D01*
X109406630Y-95682053D01*
X109370384Y-95656896D01*
X109330493Y-95629241D01*
X109330244Y-95629068D01*
X109288660Y-95600212D01*
X109238643Y-95565434D01*
X109182551Y-95526378D01*
X109122739Y-95484685D01*
X109061564Y-95441998D01*
X109001380Y-95399959D01*
X108944545Y-95360210D01*
X108924584Y-95346241D01*
X108873448Y-95310463D01*
X108824150Y-95275984D01*
X108778185Y-95243846D01*
X108737048Y-95215097D01*
X108702234Y-95190780D01*
X108675240Y-95171941D01*
X108657558Y-95159624D01*
X108646618Y-95152011D01*
X108622711Y-95135352D01*
X108590377Y-95112806D01*
X108551026Y-95085356D01*
X108506066Y-95053983D01*
X108456906Y-95019672D01*
X108404953Y-94983405D01*
X108351618Y-94946165D01*
X108309782Y-94916955D01*
X108259657Y-94881971D01*
X108212995Y-94849418D01*
X108171022Y-94820150D01*
X108134963Y-94795021D01*
X108106043Y-94774886D01*
X108085490Y-94760599D01*
X108074527Y-94753015D01*
X108050076Y-94736174D01*
X108015054Y-94711932D01*
X107970422Y-94680955D01*
X107916785Y-94643666D01*
X107854747Y-94600484D01*
X107784913Y-94551833D01*
X107707887Y-94498134D01*
X107624273Y-94439807D01*
X107534677Y-94377275D01*
X107439701Y-94310959D01*
X107339952Y-94241280D01*
X107236033Y-94168661D01*
X107128549Y-94093522D01*
X107018104Y-94016286D01*
X106993839Y-93999318D01*
X106941473Y-93962727D01*
X106890709Y-93927291D01*
X106843082Y-93894078D01*
X106800125Y-93864158D01*
X106763374Y-93838600D01*
X106734362Y-93818472D01*
X106714623Y-93804844D01*
X106693975Y-93790612D01*
X106664169Y-93770002D01*
X106626925Y-93744207D01*
X106583943Y-93714403D01*
X106536918Y-93681768D01*
X106487549Y-93647478D01*
X106437532Y-93612711D01*
X106393394Y-93582036D01*
X106340090Y-93545034D01*
X106287328Y-93508452D01*
X106237165Y-93473714D01*
X106191658Y-93442244D01*
X106152864Y-93415467D01*
X106122840Y-93394806D01*
X106094074Y-93374711D01*
X106063282Y-93352221D01*
X106039610Y-93333724D01*
X106024383Y-93320266D01*
X106018931Y-93312893D01*
X106021152Y-93304623D01*
X106029070Y-93285571D01*
X106041994Y-93257692D01*
X106059162Y-93222428D01*
X106079810Y-93181219D01*
X106103175Y-93135506D01*
X106128493Y-93086730D01*
X106155003Y-93036332D01*
X106181939Y-92985754D01*
X106208539Y-92936435D01*
X106234040Y-92889817D01*
X106257679Y-92847341D01*
X106278691Y-92810448D01*
X106296314Y-92780578D01*
X106309784Y-92759173D01*
X106318339Y-92747673D01*
X106318989Y-92747091D01*
X106324210Y-92745946D01*
X106333271Y-92748766D01*
G37*
X106333271Y-92748766D02*
X106347521Y-92756335D01*
X106368308Y-92769436D01*
X106396980Y-92788852D01*
X106434887Y-92815366D01*
X106461224Y-92833935D01*
X106507827Y-92866737D01*
X106563901Y-92906156D01*
X106628653Y-92951637D01*
X106701288Y-93002623D01*
X106781014Y-93058560D01*
X106867035Y-93118891D01*
X106958559Y-93183060D01*
X107054791Y-93250511D01*
X107154939Y-93320690D01*
X107258207Y-93393040D01*
X107363802Y-93467005D01*
X107470931Y-93542029D01*
X107578800Y-93617558D01*
X107686615Y-93693034D01*
X107793582Y-93767903D01*
X107898907Y-93841608D01*
X108001797Y-93913594D01*
X108101458Y-93983305D01*
X108197096Y-94050185D01*
X108287918Y-94113678D01*
X108373129Y-94173229D01*
X108451936Y-94228282D01*
X108523545Y-94278281D01*
X108587162Y-94322670D01*
X108641994Y-94360894D01*
X108687247Y-94392396D01*
X108701972Y-94402643D01*
X108741524Y-94430207D01*
X108789828Y-94463912D01*
X108845475Y-94502773D01*
X108907056Y-94545805D01*
X108973160Y-94592022D01*
X109042378Y-94640440D01*
X109113301Y-94690071D01*
X109184519Y-94739933D01*
X109254623Y-94789038D01*
X109289610Y-94813551D01*
X109365891Y-94866995D01*
X109432496Y-94913655D01*
X109490223Y-94954089D01*
X109539870Y-94988852D01*
X109582234Y-95018501D01*
X109618111Y-95043592D01*
X109648299Y-95064681D01*
X109673596Y-95082325D01*
X109694799Y-95097079D01*
X109712704Y-95109500D01*
X109728109Y-95120145D01*
X109741811Y-95129569D01*
X109754608Y-95138329D01*
X109767296Y-95146981D01*
X109780673Y-95156081D01*
X109792467Y-95164309D01*
X109813226Y-95179951D01*
X109828177Y-95192800D01*
X109834680Y-95200675D01*
X109834943Y-95201823D01*
X109836384Y-95214326D01*
X109838064Y-95236643D01*
X109839794Y-95266003D01*
X109841388Y-95299636D01*
X109841795Y-95309334D01*
X109843349Y-95346504D01*
X109845259Y-95392297D01*
X109847381Y-95443275D01*
X109849571Y-95496002D01*
X109851688Y-95547038D01*
X109851800Y-95549739D01*
X109854190Y-95607279D01*
X109856879Y-95671837D01*
X109859657Y-95738363D01*
X109862313Y-95801806D01*
X109864636Y-95857116D01*
X109864722Y-95859156D01*
X109866953Y-95913192D01*
X109869319Y-95972165D01*
X109871645Y-96031544D01*
X109873751Y-96086799D01*
X109875461Y-96133402D01*
X109875490Y-96134200D01*
X109877263Y-96178983D01*
X109879066Y-96212352D01*
X109881096Y-96236059D01*
X109883552Y-96251856D01*
X109886632Y-96261496D01*
X109890534Y-96266731D01*
X109895572Y-96270518D01*
X109910805Y-96281460D01*
X109934283Y-96298085D01*
X109964495Y-96319340D01*
X109999930Y-96344170D01*
X110039077Y-96371521D01*
X110080426Y-96400340D01*
X110122466Y-96429574D01*
X110163687Y-96458167D01*
X110202577Y-96485067D01*
X110237627Y-96509219D01*
X110267325Y-96529570D01*
X110269139Y-96530809D01*
X110297277Y-96550107D01*
X110332980Y-96574713D01*
X110373236Y-96602543D01*
X110415031Y-96631514D01*
X110455351Y-96659543D01*
X110468995Y-96669038D01*
X110513429Y-96699906D01*
X110563905Y-96734908D01*
X110616860Y-96771576D01*
X110668729Y-96807440D01*
X110715948Y-96840033D01*
X110738028Y-96855259D01*
X110784133Y-96887070D01*
X110831013Y-96919436D01*
X110875759Y-96950346D01*
X110915460Y-96977791D01*
X110947206Y-96999760D01*
X111036620Y-97061691D01*
X111044559Y-97124547D01*
X111051205Y-97163403D01*
X111068107Y-97226329D01*
X111091338Y-97287740D01*
X111118938Y-97341907D01*
X111124073Y-97349925D01*
X111142058Y-97374279D01*
X111164534Y-97401312D01*
X111187829Y-97426512D01*
X111215625Y-97452191D01*
X111266414Y-97488269D01*
X111319717Y-97513952D01*
X111374068Y-97529037D01*
X111428002Y-97533324D01*
X111480052Y-97526610D01*
X111528753Y-97508696D01*
X111572639Y-97479378D01*
X111584403Y-97470161D01*
X111599289Y-97461093D01*
X111608401Y-97458884D01*
X111611138Y-97460278D01*
X111618233Y-97464606D01*
X111629957Y-97472232D01*
X111647084Y-97483684D01*
X111670392Y-97499492D01*
X111700655Y-97520186D01*
X111738649Y-97546294D01*
X111785151Y-97578345D01*
X111840936Y-97616869D01*
X111906779Y-97662395D01*
X111933572Y-97680925D01*
X111984988Y-97716472D01*
X112046461Y-97758959D01*
X112117495Y-97808044D01*
X112197595Y-97863385D01*
X112286268Y-97924640D01*
X112383018Y-97991468D01*
X112487351Y-98063526D01*
X112492053Y-98066775D01*
X112538218Y-98098683D01*
X112590703Y-98134992D01*
X112645454Y-98172897D01*
X112698420Y-98209591D01*
X112745547Y-98242269D01*
X112772971Y-98261210D01*
X112807547Y-98284824D01*
X112837490Y-98304968D01*
X112861258Y-98320618D01*
X112877307Y-98330747D01*
X112884093Y-98334329D01*
X112884101Y-98334329D01*
X112891504Y-98330064D01*
X112905397Y-98319031D01*
X112922779Y-98303611D01*
X112929677Y-98297209D01*
X112949930Y-98278402D01*
X112975970Y-98254212D01*
X113005178Y-98227074D01*
X113034935Y-98199419D01*
X113052243Y-98183351D01*
X113088906Y-98149398D01*
X113129372Y-98112007D01*
X113169830Y-98074698D01*
X113206467Y-98040991D01*
X113231040Y-98018418D01*
X113272216Y-97980582D01*
X113307866Y-97947806D01*
X113340746Y-97917552D01*
X113373615Y-97887283D01*
X113409229Y-97854460D01*
X113450347Y-97816545D01*
X113461897Y-97805964D01*
X113486287Y-97784103D01*
X113506629Y-97766529D01*
X113521067Y-97754824D01*
X113527743Y-97750571D01*
X113528605Y-97750670D01*
X113531491Y-97751732D01*
X113536473Y-97754395D01*
X113544345Y-97759200D01*
X113555899Y-97766688D01*
X113571930Y-97777401D01*
X113593229Y-97791877D01*
X113620591Y-97810659D01*
X113654808Y-97834287D01*
X113696674Y-97863303D01*
X113746982Y-97898245D01*
X113806524Y-97939657D01*
X113876095Y-97988077D01*
X113908213Y-98010431D01*
X113971527Y-98054472D01*
X114039735Y-98101891D01*
X114109693Y-98150504D01*
X114178257Y-98198127D01*
X114242283Y-98242574D01*
X114298628Y-98281662D01*
X114321624Y-98297609D01*
X114420407Y-98366134D01*
X114522273Y-98436832D01*
X114625230Y-98508320D01*
X114727288Y-98579215D01*
X114826458Y-98648134D01*
X114920748Y-98713694D01*
X115008168Y-98774512D01*
X115086727Y-98829206D01*
X115088148Y-98830196D01*
X115131903Y-98860648D01*
X115175091Y-98890661D01*
X115215659Y-98918813D01*
X115251558Y-98943684D01*
X115280736Y-98963849D01*
X115301143Y-98977888D01*
X115312935Y-98985990D01*
X115338264Y-99003468D01*
X115371495Y-99026456D01*
X115410884Y-99053746D01*
X115454684Y-99084128D01*
X115501153Y-99116393D01*
X115548545Y-99149333D01*
X115570158Y-99164362D01*
X115664762Y-99230144D01*
X115749324Y-99288931D01*
X115824489Y-99341171D01*
X115890906Y-99387312D01*
X115949220Y-99427804D01*
X116000079Y-99463095D01*
X116044130Y-99493633D01*
X116082020Y-99519866D01*
X116114394Y-99542244D01*
X116141902Y-99561215D01*
X116165189Y-99577228D01*
X116184902Y-99590730D01*
X116201688Y-99602171D01*
X116237010Y-99626191D01*
X116289630Y-99662053D01*
X116331842Y-99690938D01*
X116363509Y-99712751D01*
X116384495Y-99727397D01*
X116394662Y-99734784D01*
X116398534Y-99738115D01*
X116402909Y-99743598D01*
X116400484Y-99748223D01*
X116390226Y-99762040D01*
X116372904Y-99783502D01*
X116349567Y-99811408D01*
X116321267Y-99844562D01*
X116289053Y-99881764D01*
X116253977Y-99921818D01*
X116217088Y-99963524D01*
X116179438Y-100005686D01*
X116142078Y-100047104D01*
X116106056Y-100086581D01*
X116072425Y-100122918D01*
X116042235Y-100154918D01*
X115970136Y-100230381D01*
X115861600Y-100154352D01*
X115779591Y-100096944D01*
X115664542Y-100016526D01*
X115546495Y-99934133D01*
X115428891Y-99852168D01*
X115315172Y-99773028D01*
X115208779Y-99699115D01*
X115095568Y-99620539D01*
X114969127Y-99532766D01*
X114834436Y-99439256D01*
X114692808Y-99340919D01*
X114545559Y-99238668D01*
X114394000Y-99133415D01*
X114364731Y-99113088D01*
X114302070Y-99069580D01*
X114233508Y-99021981D01*
X114162290Y-98972544D01*
X114091663Y-98923524D01*
X114024874Y-98877173D01*
X113965169Y-98835746D01*
X113921757Y-98805620D01*
X113863588Y-98765233D01*
X113804054Y-98723881D01*
X113745598Y-98683258D01*
X113690661Y-98645063D01*
X113641685Y-98610992D01*
X113601110Y-98582742D01*
X113454766Y-98480785D01*
X113399890Y-98544241D01*
X113377561Y-98570152D01*
X113355642Y-98595758D01*
X113337359Y-98617288D01*
X113325221Y-98631799D01*
X113322518Y-98635051D01*
X113310633Y-98649112D01*
X113292444Y-98670464D01*
X113269302Y-98697532D01*
X113242561Y-98728742D01*
X113213574Y-98762520D01*
X113183694Y-98797292D01*
X113154275Y-98831484D01*
X113126669Y-98863521D01*
X113102230Y-98891830D01*
X113082311Y-98914837D01*
X113068265Y-98930967D01*
X113061445Y-98938646D01*
X113060847Y-98939307D01*
X113053300Y-98947958D01*
X113038366Y-98965238D01*
X113017013Y-98990023D01*
X112990208Y-99021187D01*
X112958921Y-99057604D01*
X112924119Y-99098149D01*
X112886771Y-99141696D01*
X112876946Y-99153137D01*
X112840262Y-99195522D01*
X112806339Y-99234202D01*
X112776139Y-99268118D01*
X112750623Y-99296206D01*
X112730750Y-99317408D01*
X112717482Y-99330661D01*
X112711780Y-99334906D01*
X112709797Y-99333989D01*
X112705811Y-99331699D01*
X112699231Y-99327528D01*
X112689142Y-99320850D01*
X112674628Y-99311036D01*
X112654772Y-99297462D01*
X112628658Y-99279499D01*
X112595369Y-99256521D01*
X112553990Y-99227900D01*
X112503603Y-99193010D01*
X112443292Y-99151225D01*
X112435268Y-99145665D01*
X112389512Y-99113975D01*
X112336033Y-99076957D01*
X112276377Y-99035679D01*
X112212093Y-98991212D01*
X112144729Y-98944625D01*
X112075832Y-98896989D01*
X112006949Y-98849373D01*
X111939630Y-98802847D01*
X111875420Y-98758482D01*
X111815869Y-98717346D01*
X111762524Y-98680511D01*
X111716933Y-98649046D01*
X111680643Y-98624021D01*
X111675742Y-98620642D01*
X111649306Y-98602394D01*
X111615372Y-98578944D01*
X111576644Y-98552163D01*
X111535825Y-98523917D01*
X111495616Y-98496077D01*
X111482905Y-98487277D01*
X111444164Y-98460505D01*
X111406945Y-98434852D01*
X111373578Y-98411920D01*
X111346392Y-98393310D01*
X111327715Y-98380623D01*
X111312556Y-98370282D01*
X111296493Y-98358130D01*
X111287803Y-98348379D01*
X111284209Y-98338146D01*
X111283432Y-98324545D01*
X111283165Y-98313883D01*
X111277060Y-98258057D01*
X111263983Y-98198658D01*
X111245316Y-98140985D01*
X111222437Y-98090337D01*
X111192289Y-98041083D01*
X111149754Y-97987809D01*
X111102748Y-97943852D01*
X111052403Y-97909594D01*
X110999854Y-97885415D01*
X110946233Y-97871697D01*
X110892673Y-97868823D01*
X110840307Y-97877173D01*
X110790268Y-97897130D01*
X110743689Y-97929074D01*
X110733284Y-97937685D01*
X110719756Y-97947835D01*
X110712544Y-97951792D01*
X110712403Y-97951766D01*
X110705148Y-97947573D01*
X110688622Y-97936881D01*
X110664263Y-97920654D01*
X110633508Y-97899858D01*
X110597792Y-97875456D01*
X110558554Y-97848414D01*
X110531175Y-97829474D01*
X110482272Y-97795674D01*
X110432013Y-97760967D01*
X110383450Y-97727460D01*
X110339632Y-97697258D01*
X110303610Y-97672465D01*
X110303215Y-97672193D01*
X110227935Y-97620415D01*
X110162357Y-97575262D01*
X110106679Y-97536870D01*
X110061099Y-97505376D01*
X110025816Y-97480918D01*
X110001028Y-97463633D01*
X109986935Y-97453657D01*
X109985123Y-97452357D01*
X109970449Y-97442062D01*
X109948114Y-97426602D01*
X109920821Y-97407842D01*
X109891273Y-97387647D01*
X109889888Y-97386703D01*
X109853994Y-97362162D01*
X109812519Y-97333691D01*
X109770491Y-97304748D01*
X109732935Y-97278786D01*
X109710914Y-97263529D01*
X109671887Y-97236504D01*
X109628502Y-97206475D01*
X109584633Y-97176123D01*
X109544151Y-97148127D01*
X109534076Y-97141149D01*
X109499154Y-97116640D01*
X109473640Y-97097979D01*
X109456221Y-97084057D01*
X109445585Y-97073765D01*
X109440419Y-97065994D01*
X109439410Y-97059636D01*
X109439516Y-97058448D01*
X109440271Y-97045140D01*
X109441320Y-97021333D01*
X109442575Y-96989276D01*
X109443948Y-96951216D01*
X109445349Y-96909402D01*
X109445432Y-96906827D01*
X109446943Y-96862342D01*
X109448528Y-96819270D01*
X109450070Y-96780555D01*
X109451452Y-96749142D01*
X109452558Y-96727974D01*
X109452769Y-96724452D01*
X109454149Y-96698358D01*
X109455762Y-96663890D01*
X109457426Y-96625122D01*
X109458956Y-96586129D01*
X109461150Y-96527350D01*
X109463722Y-96459395D01*
X109465937Y-96402189D01*
X109467852Y-96354336D01*
X109469522Y-96314443D01*
X109471004Y-96281116D01*
X109472354Y-96252961D01*
X109473361Y-96231065D01*
X109474800Y-96196283D01*
X109476403Y-96154710D01*
X109478039Y-96109782D01*
X109479575Y-96064935D01*
X109479681Y-96061743D01*
X109481123Y-96021374D01*
X109482593Y-95985133D01*
X109483987Y-95955288D01*
X109485199Y-95934101D01*
X109486124Y-95923838D01*
X109486761Y-95918050D01*
X109487672Y-95900717D01*
X109488414Y-95876073D01*
X109488960Y-95847047D01*
X109489283Y-95816569D01*
X109489356Y-95787565D01*
X109489154Y-95762966D01*
X109488648Y-95745700D01*
X109487813Y-95738695D01*
X109487472Y-95738435D01*
X109479654Y-95732904D01*
X109462650Y-95721021D01*
X109437847Y-95703750D01*
X109406630Y-95682053D01*
X109370384Y-95656896D01*
X109330493Y-95629241D01*
X109330244Y-95629068D01*
X109288660Y-95600212D01*
X109238643Y-95565434D01*
X109182551Y-95526378D01*
X109122739Y-95484685D01*
X109061564Y-95441998D01*
X109001380Y-95399959D01*
X108944545Y-95360210D01*
X108924584Y-95346241D01*
X108873448Y-95310463D01*
X108824150Y-95275984D01*
X108778185Y-95243846D01*
X108737048Y-95215097D01*
X108702234Y-95190780D01*
X108675240Y-95171941D01*
X108657558Y-95159624D01*
X108646618Y-95152011D01*
X108622711Y-95135352D01*
X108590377Y-95112806D01*
X108551026Y-95085356D01*
X108506066Y-95053983D01*
X108456906Y-95019672D01*
X108404953Y-94983405D01*
X108351618Y-94946165D01*
X108309782Y-94916955D01*
X108259657Y-94881971D01*
X108212995Y-94849418D01*
X108171022Y-94820150D01*
X108134963Y-94795021D01*
X108106043Y-94774886D01*
X108085490Y-94760599D01*
X108074527Y-94753015D01*
X108050076Y-94736174D01*
X108015054Y-94711932D01*
X107970422Y-94680955D01*
X107916785Y-94643666D01*
X107854747Y-94600484D01*
X107784913Y-94551833D01*
X107707887Y-94498134D01*
X107624273Y-94439807D01*
X107534677Y-94377275D01*
X107439701Y-94310959D01*
X107339952Y-94241280D01*
X107236033Y-94168661D01*
X107128549Y-94093522D01*
X107018104Y-94016286D01*
X106993839Y-93999318D01*
X106941473Y-93962727D01*
X106890709Y-93927291D01*
X106843082Y-93894078D01*
X106800125Y-93864158D01*
X106763374Y-93838600D01*
X106734362Y-93818472D01*
X106714623Y-93804844D01*
X106693975Y-93790612D01*
X106664169Y-93770002D01*
X106626925Y-93744207D01*
X106583943Y-93714403D01*
X106536918Y-93681768D01*
X106487549Y-93647478D01*
X106437532Y-93612711D01*
X106393394Y-93582036D01*
X106340090Y-93545034D01*
X106287328Y-93508452D01*
X106237165Y-93473714D01*
X106191658Y-93442244D01*
X106152864Y-93415467D01*
X106122840Y-93394806D01*
X106094074Y-93374711D01*
X106063282Y-93352221D01*
X106039610Y-93333724D01*
X106024383Y-93320266D01*
X106018931Y-93312893D01*
X106021152Y-93304623D01*
X106029070Y-93285571D01*
X106041994Y-93257692D01*
X106059162Y-93222428D01*
X106079810Y-93181219D01*
X106103175Y-93135506D01*
X106128493Y-93086730D01*
X106155003Y-93036332D01*
X106181939Y-92985754D01*
X106208539Y-92936435D01*
X106234040Y-92889817D01*
X106257679Y-92847341D01*
X106278691Y-92810448D01*
X106296314Y-92780578D01*
X106309784Y-92759173D01*
X106318339Y-92747673D01*
X106318989Y-92747091D01*
X106324210Y-92745946D01*
X106333271Y-92748766D01*
G36*
X111541128Y-90419260D02*
G01*
X111554281Y-90426993D01*
X111575643Y-90440608D01*
X111603618Y-90459062D01*
X111636612Y-90481312D01*
X111673029Y-90506315D01*
X111692137Y-90519545D01*
X111739500Y-90552346D01*
X111792493Y-90589051D01*
X111847558Y-90627195D01*
X111901134Y-90664313D01*
X111949662Y-90697939D01*
X111976984Y-90716868D01*
X112030286Y-90753783D01*
X112088584Y-90794141D01*
X112148177Y-90835381D01*
X112205363Y-90874941D01*
X112256441Y-90910261D01*
X112257873Y-90911250D01*
X112306363Y-90944776D01*
X112362346Y-90983490D01*
X112422571Y-91025145D01*
X112483789Y-91067493D01*
X112542751Y-91108287D01*
X112596208Y-91145279D01*
X112602301Y-91149496D01*
X112654907Y-91185887D01*
X112711297Y-91224871D01*
X112768546Y-91264429D01*
X112823728Y-91302538D01*
X112873915Y-91337176D01*
X112916182Y-91366323D01*
X112947145Y-91387787D01*
X112983101Y-91413044D01*
X113014605Y-91435541D01*
X113040045Y-91454110D01*
X113057805Y-91467585D01*
X113066273Y-91474800D01*
X113074321Y-91490017D01*
X113077818Y-91509421D01*
X113079408Y-91526338D01*
X113085634Y-91556108D01*
X113095479Y-91591178D01*
X113107765Y-91627816D01*
X113121317Y-91662287D01*
X113134958Y-91690857D01*
X113136525Y-91693709D01*
X113175141Y-91753653D01*
X113219150Y-91804672D01*
X113267409Y-91846301D01*
X113318772Y-91878074D01*
X113372097Y-91899527D01*
X113426240Y-91910193D01*
X113480056Y-91909607D01*
X113532401Y-91897303D01*
X113582133Y-91872817D01*
X113617411Y-91850250D01*
X113768199Y-91954801D01*
X113777632Y-91961342D01*
X113860350Y-92018666D01*
X113953079Y-92082887D01*
X114055061Y-92153478D01*
X114165536Y-92229915D01*
X114283743Y-92311670D01*
X114408924Y-92398219D01*
X114414312Y-92401944D01*
X114500294Y-92461383D01*
X114576356Y-92513970D01*
X114643384Y-92560315D01*
X114702261Y-92601031D01*
X114753872Y-92636730D01*
X114799100Y-92668022D01*
X114838831Y-92695521D01*
X114873949Y-92719838D01*
X114905337Y-92741584D01*
X114933880Y-92761372D01*
X114960463Y-92779813D01*
X114977953Y-92791933D01*
X115022370Y-92822596D01*
X115070014Y-92855359D01*
X115116201Y-92887004D01*
X115156251Y-92914316D01*
X115181399Y-92931522D01*
X115211282Y-92952282D01*
X115236458Y-92970125D01*
X115254845Y-92983570D01*
X115264361Y-92991138D01*
X115265641Y-92992297D01*
X115268594Y-92994907D01*
X115270921Y-92997849D01*
X115272527Y-93002283D01*
X115273314Y-93009368D01*
X115273186Y-93020263D01*
X115272046Y-93036129D01*
X115269796Y-93058124D01*
X115266342Y-93087408D01*
X115261585Y-93125141D01*
X115255429Y-93172481D01*
X115247776Y-93230589D01*
X115238532Y-93300623D01*
X115235361Y-93324687D01*
X115228491Y-93376972D01*
X115221305Y-93431796D01*
X115214487Y-93483952D01*
X115208717Y-93528233D01*
X115205849Y-93550214D01*
X115201187Y-93585555D01*
X115197138Y-93615786D01*
X115194059Y-93638250D01*
X115192308Y-93650285D01*
X115192273Y-93650504D01*
X115190373Y-93663632D01*
X115187260Y-93686579D01*
X115183358Y-93716175D01*
X115179091Y-93749246D01*
X115178955Y-93750307D01*
X115174693Y-93783318D01*
X115170810Y-93812753D01*
X115167729Y-93835440D01*
X115165873Y-93848207D01*
X115165161Y-93852928D01*
X115162679Y-93870681D01*
X115159067Y-93897417D01*
X115154690Y-93930416D01*
X115149913Y-93966961D01*
X115149627Y-93969157D01*
X115143418Y-94016764D01*
X115136344Y-94070657D01*
X115129255Y-94124380D01*
X115123000Y-94171480D01*
X115120155Y-94192835D01*
X115113806Y-94240655D01*
X115106771Y-94293805D01*
X115099720Y-94347209D01*
X115093325Y-94395792D01*
X115089441Y-94425330D01*
X115081034Y-94489093D01*
X115072279Y-94555225D01*
X115062821Y-94626402D01*
X115052306Y-94705302D01*
X115040377Y-94794600D01*
X115029836Y-94873433D01*
X115045087Y-94885210D01*
X115055320Y-94892676D01*
X115074349Y-94906050D01*
X115098903Y-94923019D01*
X115126166Y-94941623D01*
X115137000Y-94948989D01*
X115166129Y-94968903D01*
X115202293Y-94993728D01*
X115242931Y-95021703D01*
X115285482Y-95051065D01*
X115327387Y-95080053D01*
X115386772Y-95121191D01*
X115462657Y-95173752D01*
X115530189Y-95220516D01*
X115590827Y-95262495D01*
X115646031Y-95300696D01*
X115697259Y-95336131D01*
X115745971Y-95369808D01*
X115793628Y-95402738D01*
X115841688Y-95435930D01*
X115891610Y-95470393D01*
X115902134Y-95477657D01*
X116045306Y-95576505D01*
X116194142Y-95679310D01*
X116343836Y-95782750D01*
X116489580Y-95883506D01*
X116528421Y-95910355D01*
X116575450Y-95942848D01*
X116627582Y-95978856D01*
X116681929Y-96016384D01*
X116735606Y-96053439D01*
X116785724Y-96088026D01*
X116835541Y-96122405D01*
X116889205Y-96159451D01*
X116943558Y-96196982D01*
X116995711Y-96233004D01*
X117042777Y-96265523D01*
X117081868Y-96292545D01*
X117083360Y-96293577D01*
X117129062Y-96325139D01*
X117181327Y-96361173D01*
X117235983Y-96398807D01*
X117288855Y-96435166D01*
X117335771Y-96467376D01*
X117384579Y-96500861D01*
X117443820Y-96541539D01*
X117499198Y-96579603D01*
X117549710Y-96614362D01*
X117594352Y-96645123D01*
X117632121Y-96671196D01*
X117662013Y-96691889D01*
X117683025Y-96706510D01*
X117694154Y-96714368D01*
X117704462Y-96725782D01*
X117705746Y-96742977D01*
X117703853Y-96754466D01*
X117700222Y-96776845D01*
X117695277Y-96807500D01*
X117689408Y-96844014D01*
X117683005Y-96883969D01*
X117679650Y-96904494D01*
X117670828Y-96955489D01*
X117660681Y-97010845D01*
X117649546Y-97068986D01*
X117637760Y-97128336D01*
X117625659Y-97187317D01*
X117613581Y-97244355D01*
X117601862Y-97297872D01*
X117590840Y-97346293D01*
X117580850Y-97388040D01*
X117572230Y-97421538D01*
X117565317Y-97445210D01*
X117560448Y-97457481D01*
X117556815Y-97456790D01*
X117543277Y-97449533D01*
X117520668Y-97435543D01*
X117489898Y-97415427D01*
X117451880Y-97389794D01*
X117407526Y-97359253D01*
X117357747Y-97324413D01*
X117303454Y-97285883D01*
X117302854Y-97285455D01*
X117282362Y-97270958D01*
X117253708Y-97250863D01*
X117219498Y-97226988D01*
X117182335Y-97201149D01*
X117144822Y-97175163D01*
X117104713Y-97147418D01*
X117055986Y-97113679D01*
X117004387Y-97077924D01*
X116953990Y-97042978D01*
X116908869Y-97011662D01*
X116908106Y-97011132D01*
X116869114Y-96984058D01*
X116822194Y-96951487D01*
X116770200Y-96915397D01*
X116715982Y-96877769D01*
X116662392Y-96840581D01*
X116612281Y-96805811D01*
X116561403Y-96770509D01*
X116501560Y-96728980D01*
X116437773Y-96684708D01*
X116373543Y-96640123D01*
X116312374Y-96597657D01*
X116257766Y-96559741D01*
X116232576Y-96542253D01*
X116177265Y-96503877D01*
X116115619Y-96461130D01*
X116050616Y-96416075D01*
X115985230Y-96370775D01*
X115922440Y-96327292D01*
X115865221Y-96287689D01*
X115835312Y-96266990D01*
X115775267Y-96225406D01*
X115711548Y-96181247D01*
X115647062Y-96136528D01*
X115584714Y-96093263D01*
X115527409Y-96053470D01*
X115478055Y-96019162D01*
X115466676Y-96011249D01*
X115413106Y-95974025D01*
X115352657Y-95932064D01*
X115288546Y-95887598D01*
X115223988Y-95842854D01*
X115162198Y-95800063D01*
X115106393Y-95761454D01*
X115078078Y-95741869D01*
X115026480Y-95706141D01*
X114974774Y-95670295D01*
X114925152Y-95635853D01*
X114879808Y-95604337D01*
X114840935Y-95577272D01*
X114810728Y-95556180D01*
X114710675Y-95486153D01*
X114711354Y-95444024D01*
X114711517Y-95435150D01*
X114712221Y-95405629D01*
X114713260Y-95369034D01*
X114714552Y-95327619D01*
X114716017Y-95283633D01*
X114717576Y-95239328D01*
X114719147Y-95196956D01*
X114720649Y-95158767D01*
X114722003Y-95127014D01*
X114723129Y-95103947D01*
X114723944Y-95091818D01*
X114724115Y-95089945D01*
X114725022Y-95074679D01*
X114726177Y-95049088D01*
X114727488Y-95015484D01*
X114728864Y-94976178D01*
X114730213Y-94933480D01*
X114730439Y-94926037D01*
X114731858Y-94882137D01*
X114733339Y-94840789D01*
X114734777Y-94804652D01*
X114736068Y-94776385D01*
X114737106Y-94758649D01*
X114738069Y-94742663D01*
X114739377Y-94714927D01*
X114740822Y-94679483D01*
X114742287Y-94639217D01*
X114743655Y-94597013D01*
X114744883Y-94558994D01*
X114746353Y-94518404D01*
X114747821Y-94482347D01*
X114749167Y-94453709D01*
X114750275Y-94435376D01*
X114751270Y-94419388D01*
X114752636Y-94391651D01*
X114754156Y-94356208D01*
X114755706Y-94315943D01*
X114757165Y-94273740D01*
X114761239Y-94148389D01*
X114745853Y-94139309D01*
X114745757Y-94139252D01*
X114736003Y-94132922D01*
X114716349Y-94119712D01*
X114687714Y-94100254D01*
X114651017Y-94075178D01*
X114607177Y-94045118D01*
X114557113Y-94010703D01*
X114501743Y-93972566D01*
X114441987Y-93931339D01*
X114378762Y-93887652D01*
X114312988Y-93842138D01*
X114245584Y-93795428D01*
X114223018Y-93779785D01*
X114172749Y-93744969D01*
X114117131Y-93706483D01*
X114059811Y-93666846D01*
X114004432Y-93628581D01*
X113954639Y-93594207D01*
X113944097Y-93586934D01*
X113865751Y-93532880D01*
X113797198Y-93485580D01*
X113737490Y-93444376D01*
X113685677Y-93408613D01*
X113640810Y-93377634D01*
X113601939Y-93350783D01*
X113568114Y-93327405D01*
X113538387Y-93306843D01*
X113511808Y-93288440D01*
X113487427Y-93271541D01*
X113464296Y-93255490D01*
X113441464Y-93239630D01*
X113417982Y-93223305D01*
X113380787Y-93197456D01*
X113328723Y-93161354D01*
X113286466Y-93132172D01*
X113253405Y-93109494D01*
X113228932Y-93092901D01*
X113212438Y-93081978D01*
X113203313Y-93076307D01*
X113200363Y-93073453D01*
X113195729Y-93061453D01*
X113192105Y-93039483D01*
X113189169Y-93005934D01*
X113188163Y-92993278D01*
X113184225Y-92958889D01*
X113179025Y-92926411D01*
X113173413Y-92901480D01*
X113160708Y-92865029D01*
X113141893Y-92822061D01*
X113120096Y-92779749D01*
X113098000Y-92743709D01*
X113096001Y-92740851D01*
X113064931Y-92703798D01*
X113025839Y-92667195D01*
X112983071Y-92634738D01*
X112940971Y-92610122D01*
X112934656Y-92607098D01*
X112908453Y-92595590D01*
X112886141Y-92588647D01*
X112862026Y-92584864D01*
X112830416Y-92582835D01*
X112784503Y-92583581D01*
X112739601Y-92592203D01*
X112698503Y-92610301D01*
X112657323Y-92639139D01*
X112620681Y-92668985D01*
X112600198Y-92656887D01*
X112593828Y-92652881D01*
X112575245Y-92640550D01*
X112546584Y-92621118D01*
X112508283Y-92594885D01*
X112460777Y-92562153D01*
X112404504Y-92523222D01*
X112339899Y-92478394D01*
X112267399Y-92427969D01*
X112187441Y-92372249D01*
X112165292Y-92356828D01*
X112122660Y-92327258D01*
X112078644Y-92296848D01*
X112037308Y-92268403D01*
X112002714Y-92244727D01*
X111987415Y-92234267D01*
X111957769Y-92213911D01*
X111919948Y-92187874D01*
X111875508Y-92157229D01*
X111826005Y-92123050D01*
X111772995Y-92086411D01*
X111718033Y-92048385D01*
X111662675Y-92010046D01*
X111620447Y-91980792D01*
X111566561Y-91943484D01*
X111514845Y-91907700D01*
X111466744Y-91874440D01*
X111423704Y-91844703D01*
X111387170Y-91819489D01*
X111358587Y-91799795D01*
X111339403Y-91786622D01*
X111315259Y-91770039D01*
X111286166Y-91749901D01*
X111260710Y-91732122D01*
X111242528Y-91719231D01*
X111211628Y-91696972D01*
X110883466Y-92078213D01*
X110883406Y-92078283D01*
X110829808Y-92140533D01*
X110777813Y-92200887D01*
X110728198Y-92258445D01*
X110681742Y-92312306D01*
X110639222Y-92361569D01*
X110601416Y-92405333D01*
X110569103Y-92442697D01*
X110543060Y-92472760D01*
X110524065Y-92494622D01*
X110512896Y-92507380D01*
X110470488Y-92555307D01*
X110429932Y-92526632D01*
X110421637Y-92520781D01*
X110401643Y-92506710D01*
X110372777Y-92486415D01*
X110336160Y-92460682D01*
X110292912Y-92430299D01*
X110244151Y-92396051D01*
X110191000Y-92358727D01*
X110134576Y-92319112D01*
X110076000Y-92277993D01*
X110047137Y-92257732D01*
X109985061Y-92214148D01*
X109923331Y-92170796D01*
X109863441Y-92128726D01*
X109806886Y-92088987D01*
X109755157Y-92052629D01*
X109709749Y-92020702D01*
X109672156Y-91994254D01*
X109643870Y-91974335D01*
X109643382Y-91973990D01*
X109602727Y-91945348D01*
X109552766Y-91910164D01*
X109494964Y-91869470D01*
X109430788Y-91824298D01*
X109361705Y-91775681D01*
X109289182Y-91724651D01*
X109214686Y-91672240D01*
X109139683Y-91619480D01*
X109065641Y-91567404D01*
X108994026Y-91517043D01*
X108984137Y-91510090D01*
X108944795Y-91482422D01*
X108906167Y-91455252D01*
X108870773Y-91430353D01*
X108841133Y-91409496D01*
X108819768Y-91394455D01*
X108803776Y-91383192D01*
X108771348Y-91360354D01*
X108736455Y-91335779D01*
X108704314Y-91313142D01*
X108686471Y-91300587D01*
X108651069Y-91275724D01*
X108615399Y-91250723D01*
X108584987Y-91229457D01*
X108562978Y-91214040D01*
X108528962Y-91190083D01*
X108492893Y-91164567D01*
X108459636Y-91140931D01*
X108432652Y-91121789D01*
X108399494Y-91098471D01*
X108368595Y-91076938D01*
X108344182Y-91060146D01*
X108310866Y-91037414D01*
X108264900Y-91005793D01*
X108220932Y-90975266D01*
X108180237Y-90946739D01*
X108144086Y-90921114D01*
X108113753Y-90899296D01*
X108090511Y-90882189D01*
X108075632Y-90870696D01*
X108070390Y-90865722D01*
X108070485Y-90865460D01*
X108077030Y-90859629D01*
X108092680Y-90847848D01*
X108115768Y-90831313D01*
X108144629Y-90811221D01*
X108177597Y-90788766D01*
X108189948Y-90780467D01*
X108243640Y-90744986D01*
X108299266Y-90709091D01*
X108355647Y-90673478D01*
X108411603Y-90638839D01*
X108465953Y-90605869D01*
X108517519Y-90575262D01*
X108565120Y-90547712D01*
X108607576Y-90523912D01*
X108643708Y-90504557D01*
X108672336Y-90490341D01*
X108692280Y-90481957D01*
X108702359Y-90480100D01*
X108704701Y-90481252D01*
X108717151Y-90488979D01*
X108737862Y-90502771D01*
X108765118Y-90521457D01*
X108797200Y-90543865D01*
X108832390Y-90568822D01*
X108839373Y-90573802D01*
X108864427Y-90591600D01*
X108899107Y-90616169D01*
X108942576Y-90646919D01*
X108993996Y-90683258D01*
X109052530Y-90724595D01*
X109117341Y-90770338D01*
X109187589Y-90819897D01*
X109262439Y-90872681D01*
X109341051Y-90928099D01*
X109422589Y-90985558D01*
X109506215Y-91044469D01*
X109591091Y-91104240D01*
X109613425Y-91119966D01*
X109699731Y-91180733D01*
X109785497Y-91241121D01*
X109869790Y-91300473D01*
X109951679Y-91358133D01*
X110030232Y-91413445D01*
X110104518Y-91465753D01*
X110173606Y-91514401D01*
X110236562Y-91558732D01*
X110292456Y-91598092D01*
X110340357Y-91631824D01*
X110379332Y-91659271D01*
X110408449Y-91679778D01*
X110435825Y-91699000D01*
X110477063Y-91727719D01*
X110514323Y-91753386D01*
X110546250Y-91775081D01*
X110571488Y-91791886D01*
X110588681Y-91802884D01*
X110596475Y-91807155D01*
X110596935Y-91807096D01*
X110601683Y-91802793D01*
X110610829Y-91791585D01*
X110624607Y-91773127D01*
X110643254Y-91747073D01*
X110667003Y-91713080D01*
X110696090Y-91670801D01*
X110730750Y-91619892D01*
X110771218Y-91560008D01*
X110817729Y-91490804D01*
X110870519Y-91411934D01*
X110929822Y-91323055D01*
X110995874Y-91223821D01*
X111068909Y-91113886D01*
X111072660Y-91108235D01*
X111130045Y-91021880D01*
X111185448Y-90938664D01*
X111238427Y-90859241D01*
X111288541Y-90784267D01*
X111335349Y-90714398D01*
X111378408Y-90650289D01*
X111417278Y-90592596D01*
X111451516Y-90541975D01*
X111480682Y-90499080D01*
X111504333Y-90464567D01*
X111522027Y-90439092D01*
X111533325Y-90423310D01*
X111537783Y-90417877D01*
X111541128Y-90419260D01*
G37*
X111541128Y-90419260D02*
X111554281Y-90426993D01*
X111575643Y-90440608D01*
X111603618Y-90459062D01*
X111636612Y-90481312D01*
X111673029Y-90506315D01*
X111692137Y-90519545D01*
X111739500Y-90552346D01*
X111792493Y-90589051D01*
X111847558Y-90627195D01*
X111901134Y-90664313D01*
X111949662Y-90697939D01*
X111976984Y-90716868D01*
X112030286Y-90753783D01*
X112088584Y-90794141D01*
X112148177Y-90835381D01*
X112205363Y-90874941D01*
X112256441Y-90910261D01*
X112257873Y-90911250D01*
X112306363Y-90944776D01*
X112362346Y-90983490D01*
X112422571Y-91025145D01*
X112483789Y-91067493D01*
X112542751Y-91108287D01*
X112596208Y-91145279D01*
X112602301Y-91149496D01*
X112654907Y-91185887D01*
X112711297Y-91224871D01*
X112768546Y-91264429D01*
X112823728Y-91302538D01*
X112873915Y-91337176D01*
X112916182Y-91366323D01*
X112947145Y-91387787D01*
X112983101Y-91413044D01*
X113014605Y-91435541D01*
X113040045Y-91454110D01*
X113057805Y-91467585D01*
X113066273Y-91474800D01*
X113074321Y-91490017D01*
X113077818Y-91509421D01*
X113079408Y-91526338D01*
X113085634Y-91556108D01*
X113095479Y-91591178D01*
X113107765Y-91627816D01*
X113121317Y-91662287D01*
X113134958Y-91690857D01*
X113136525Y-91693709D01*
X113175141Y-91753653D01*
X113219150Y-91804672D01*
X113267409Y-91846301D01*
X113318772Y-91878074D01*
X113372097Y-91899527D01*
X113426240Y-91910193D01*
X113480056Y-91909607D01*
X113532401Y-91897303D01*
X113582133Y-91872817D01*
X113617411Y-91850250D01*
X113768199Y-91954801D01*
X113777632Y-91961342D01*
X113860350Y-92018666D01*
X113953079Y-92082887D01*
X114055061Y-92153478D01*
X114165536Y-92229915D01*
X114283743Y-92311670D01*
X114408924Y-92398219D01*
X114414312Y-92401944D01*
X114500294Y-92461383D01*
X114576356Y-92513970D01*
X114643384Y-92560315D01*
X114702261Y-92601031D01*
X114753872Y-92636730D01*
X114799100Y-92668022D01*
X114838831Y-92695521D01*
X114873949Y-92719838D01*
X114905337Y-92741584D01*
X114933880Y-92761372D01*
X114960463Y-92779813D01*
X114977953Y-92791933D01*
X115022370Y-92822596D01*
X115070014Y-92855359D01*
X115116201Y-92887004D01*
X115156251Y-92914316D01*
X115181399Y-92931522D01*
X115211282Y-92952282D01*
X115236458Y-92970125D01*
X115254845Y-92983570D01*
X115264361Y-92991138D01*
X115265641Y-92992297D01*
X115268594Y-92994907D01*
X115270921Y-92997849D01*
X115272527Y-93002283D01*
X115273314Y-93009368D01*
X115273186Y-93020263D01*
X115272046Y-93036129D01*
X115269796Y-93058124D01*
X115266342Y-93087408D01*
X115261585Y-93125141D01*
X115255429Y-93172481D01*
X115247776Y-93230589D01*
X115238532Y-93300623D01*
X115235361Y-93324687D01*
X115228491Y-93376972D01*
X115221305Y-93431796D01*
X115214487Y-93483952D01*
X115208717Y-93528233D01*
X115205849Y-93550214D01*
X115201187Y-93585555D01*
X115197138Y-93615786D01*
X115194059Y-93638250D01*
X115192308Y-93650285D01*
X115192273Y-93650504D01*
X115190373Y-93663632D01*
X115187260Y-93686579D01*
X115183358Y-93716175D01*
X115179091Y-93749246D01*
X115178955Y-93750307D01*
X115174693Y-93783318D01*
X115170810Y-93812753D01*
X115167729Y-93835440D01*
X115165873Y-93848207D01*
X115165161Y-93852928D01*
X115162679Y-93870681D01*
X115159067Y-93897417D01*
X115154690Y-93930416D01*
X115149913Y-93966961D01*
X115149627Y-93969157D01*
X115143418Y-94016764D01*
X115136344Y-94070657D01*
X115129255Y-94124380D01*
X115123000Y-94171480D01*
X115120155Y-94192835D01*
X115113806Y-94240655D01*
X115106771Y-94293805D01*
X115099720Y-94347209D01*
X115093325Y-94395792D01*
X115089441Y-94425330D01*
X115081034Y-94489093D01*
X115072279Y-94555225D01*
X115062821Y-94626402D01*
X115052306Y-94705302D01*
X115040377Y-94794600D01*
X115029836Y-94873433D01*
X115045087Y-94885210D01*
X115055320Y-94892676D01*
X115074349Y-94906050D01*
X115098903Y-94923019D01*
X115126166Y-94941623D01*
X115137000Y-94948989D01*
X115166129Y-94968903D01*
X115202293Y-94993728D01*
X115242931Y-95021703D01*
X115285482Y-95051065D01*
X115327387Y-95080053D01*
X115386772Y-95121191D01*
X115462657Y-95173752D01*
X115530189Y-95220516D01*
X115590827Y-95262495D01*
X115646031Y-95300696D01*
X115697259Y-95336131D01*
X115745971Y-95369808D01*
X115793628Y-95402738D01*
X115841688Y-95435930D01*
X115891610Y-95470393D01*
X115902134Y-95477657D01*
X116045306Y-95576505D01*
X116194142Y-95679310D01*
X116343836Y-95782750D01*
X116489580Y-95883506D01*
X116528421Y-95910355D01*
X116575450Y-95942848D01*
X116627582Y-95978856D01*
X116681929Y-96016384D01*
X116735606Y-96053439D01*
X116785724Y-96088026D01*
X116835541Y-96122405D01*
X116889205Y-96159451D01*
X116943558Y-96196982D01*
X116995711Y-96233004D01*
X117042777Y-96265523D01*
X117081868Y-96292545D01*
X117083360Y-96293577D01*
X117129062Y-96325139D01*
X117181327Y-96361173D01*
X117235983Y-96398807D01*
X117288855Y-96435166D01*
X117335771Y-96467376D01*
X117384579Y-96500861D01*
X117443820Y-96541539D01*
X117499198Y-96579603D01*
X117549710Y-96614362D01*
X117594352Y-96645123D01*
X117632121Y-96671196D01*
X117662013Y-96691889D01*
X117683025Y-96706510D01*
X117694154Y-96714368D01*
X117704462Y-96725782D01*
X117705746Y-96742977D01*
X117703853Y-96754466D01*
X117700222Y-96776845D01*
X117695277Y-96807500D01*
X117689408Y-96844014D01*
X117683005Y-96883969D01*
X117679650Y-96904494D01*
X117670828Y-96955489D01*
X117660681Y-97010845D01*
X117649546Y-97068986D01*
X117637760Y-97128336D01*
X117625659Y-97187317D01*
X117613581Y-97244355D01*
X117601862Y-97297872D01*
X117590840Y-97346293D01*
X117580850Y-97388040D01*
X117572230Y-97421538D01*
X117565317Y-97445210D01*
X117560448Y-97457481D01*
X117556815Y-97456790D01*
X117543277Y-97449533D01*
X117520668Y-97435543D01*
X117489898Y-97415427D01*
X117451880Y-97389794D01*
X117407526Y-97359253D01*
X117357747Y-97324413D01*
X117303454Y-97285883D01*
X117302854Y-97285455D01*
X117282362Y-97270958D01*
X117253708Y-97250863D01*
X117219498Y-97226988D01*
X117182335Y-97201149D01*
X117144822Y-97175163D01*
X117104713Y-97147418D01*
X117055986Y-97113679D01*
X117004387Y-97077924D01*
X116953990Y-97042978D01*
X116908869Y-97011662D01*
X116908106Y-97011132D01*
X116869114Y-96984058D01*
X116822194Y-96951487D01*
X116770200Y-96915397D01*
X116715982Y-96877769D01*
X116662392Y-96840581D01*
X116612281Y-96805811D01*
X116561403Y-96770509D01*
X116501560Y-96728980D01*
X116437773Y-96684708D01*
X116373543Y-96640123D01*
X116312374Y-96597657D01*
X116257766Y-96559741D01*
X116232576Y-96542253D01*
X116177265Y-96503877D01*
X116115619Y-96461130D01*
X116050616Y-96416075D01*
X115985230Y-96370775D01*
X115922440Y-96327292D01*
X115865221Y-96287689D01*
X115835312Y-96266990D01*
X115775267Y-96225406D01*
X115711548Y-96181247D01*
X115647062Y-96136528D01*
X115584714Y-96093263D01*
X115527409Y-96053470D01*
X115478055Y-96019162D01*
X115466676Y-96011249D01*
X115413106Y-95974025D01*
X115352657Y-95932064D01*
X115288546Y-95887598D01*
X115223988Y-95842854D01*
X115162198Y-95800063D01*
X115106393Y-95761454D01*
X115078078Y-95741869D01*
X115026480Y-95706141D01*
X114974774Y-95670295D01*
X114925152Y-95635853D01*
X114879808Y-95604337D01*
X114840935Y-95577272D01*
X114810728Y-95556180D01*
X114710675Y-95486153D01*
X114711354Y-95444024D01*
X114711517Y-95435150D01*
X114712221Y-95405629D01*
X114713260Y-95369034D01*
X114714552Y-95327619D01*
X114716017Y-95283633D01*
X114717576Y-95239328D01*
X114719147Y-95196956D01*
X114720649Y-95158767D01*
X114722003Y-95127014D01*
X114723129Y-95103947D01*
X114723944Y-95091818D01*
X114724115Y-95089945D01*
X114725022Y-95074679D01*
X114726177Y-95049088D01*
X114727488Y-95015484D01*
X114728864Y-94976178D01*
X114730213Y-94933480D01*
X114730439Y-94926037D01*
X114731858Y-94882137D01*
X114733339Y-94840789D01*
X114734777Y-94804652D01*
X114736068Y-94776385D01*
X114737106Y-94758649D01*
X114738069Y-94742663D01*
X114739377Y-94714927D01*
X114740822Y-94679483D01*
X114742287Y-94639217D01*
X114743655Y-94597013D01*
X114744883Y-94558994D01*
X114746353Y-94518404D01*
X114747821Y-94482347D01*
X114749167Y-94453709D01*
X114750275Y-94435376D01*
X114751270Y-94419388D01*
X114752636Y-94391651D01*
X114754156Y-94356208D01*
X114755706Y-94315943D01*
X114757165Y-94273740D01*
X114761239Y-94148389D01*
X114745853Y-94139309D01*
X114745757Y-94139252D01*
X114736003Y-94132922D01*
X114716349Y-94119712D01*
X114687714Y-94100254D01*
X114651017Y-94075178D01*
X114607177Y-94045118D01*
X114557113Y-94010703D01*
X114501743Y-93972566D01*
X114441987Y-93931339D01*
X114378762Y-93887652D01*
X114312988Y-93842138D01*
X114245584Y-93795428D01*
X114223018Y-93779785D01*
X114172749Y-93744969D01*
X114117131Y-93706483D01*
X114059811Y-93666846D01*
X114004432Y-93628581D01*
X113954639Y-93594207D01*
X113944097Y-93586934D01*
X113865751Y-93532880D01*
X113797198Y-93485580D01*
X113737490Y-93444376D01*
X113685677Y-93408613D01*
X113640810Y-93377634D01*
X113601939Y-93350783D01*
X113568114Y-93327405D01*
X113538387Y-93306843D01*
X113511808Y-93288440D01*
X113487427Y-93271541D01*
X113464296Y-93255490D01*
X113441464Y-93239630D01*
X113417982Y-93223305D01*
X113380787Y-93197456D01*
X113328723Y-93161354D01*
X113286466Y-93132172D01*
X113253405Y-93109494D01*
X113228932Y-93092901D01*
X113212438Y-93081978D01*
X113203313Y-93076307D01*
X113200363Y-93073453D01*
X113195729Y-93061453D01*
X113192105Y-93039483D01*
X113189169Y-93005934D01*
X113188163Y-92993278D01*
X113184225Y-92958889D01*
X113179025Y-92926411D01*
X113173413Y-92901480D01*
X113160708Y-92865029D01*
X113141893Y-92822061D01*
X113120096Y-92779749D01*
X113098000Y-92743709D01*
X113096001Y-92740851D01*
X113064931Y-92703798D01*
X113025839Y-92667195D01*
X112983071Y-92634738D01*
X112940971Y-92610122D01*
X112934656Y-92607098D01*
X112908453Y-92595590D01*
X112886141Y-92588647D01*
X112862026Y-92584864D01*
X112830416Y-92582835D01*
X112784503Y-92583581D01*
X112739601Y-92592203D01*
X112698503Y-92610301D01*
X112657323Y-92639139D01*
X112620681Y-92668985D01*
X112600198Y-92656887D01*
X112593828Y-92652881D01*
X112575245Y-92640550D01*
X112546584Y-92621118D01*
X112508283Y-92594885D01*
X112460777Y-92562153D01*
X112404504Y-92523222D01*
X112339899Y-92478394D01*
X112267399Y-92427969D01*
X112187441Y-92372249D01*
X112165292Y-92356828D01*
X112122660Y-92327258D01*
X112078644Y-92296848D01*
X112037308Y-92268403D01*
X112002714Y-92244727D01*
X111987415Y-92234267D01*
X111957769Y-92213911D01*
X111919948Y-92187874D01*
X111875508Y-92157229D01*
X111826005Y-92123050D01*
X111772995Y-92086411D01*
X111718033Y-92048385D01*
X111662675Y-92010046D01*
X111620447Y-91980792D01*
X111566561Y-91943484D01*
X111514845Y-91907700D01*
X111466744Y-91874440D01*
X111423704Y-91844703D01*
X111387170Y-91819489D01*
X111358587Y-91799795D01*
X111339403Y-91786622D01*
X111315259Y-91770039D01*
X111286166Y-91749901D01*
X111260710Y-91732122D01*
X111242528Y-91719231D01*
X111211628Y-91696972D01*
X110883466Y-92078213D01*
X110883406Y-92078283D01*
X110829808Y-92140533D01*
X110777813Y-92200887D01*
X110728198Y-92258445D01*
X110681742Y-92312306D01*
X110639222Y-92361569D01*
X110601416Y-92405333D01*
X110569103Y-92442697D01*
X110543060Y-92472760D01*
X110524065Y-92494622D01*
X110512896Y-92507380D01*
X110470488Y-92555307D01*
X110429932Y-92526632D01*
X110421637Y-92520781D01*
X110401643Y-92506710D01*
X110372777Y-92486415D01*
X110336160Y-92460682D01*
X110292912Y-92430299D01*
X110244151Y-92396051D01*
X110191000Y-92358727D01*
X110134576Y-92319112D01*
X110076000Y-92277993D01*
X110047137Y-92257732D01*
X109985061Y-92214148D01*
X109923331Y-92170796D01*
X109863441Y-92128726D01*
X109806886Y-92088987D01*
X109755157Y-92052629D01*
X109709749Y-92020702D01*
X109672156Y-91994254D01*
X109643870Y-91974335D01*
X109643382Y-91973990D01*
X109602727Y-91945348D01*
X109552766Y-91910164D01*
X109494964Y-91869470D01*
X109430788Y-91824298D01*
X109361705Y-91775681D01*
X109289182Y-91724651D01*
X109214686Y-91672240D01*
X109139683Y-91619480D01*
X109065641Y-91567404D01*
X108994026Y-91517043D01*
X108984137Y-91510090D01*
X108944795Y-91482422D01*
X108906167Y-91455252D01*
X108870773Y-91430353D01*
X108841133Y-91409496D01*
X108819768Y-91394455D01*
X108803776Y-91383192D01*
X108771348Y-91360354D01*
X108736455Y-91335779D01*
X108704314Y-91313142D01*
X108686471Y-91300587D01*
X108651069Y-91275724D01*
X108615399Y-91250723D01*
X108584987Y-91229457D01*
X108562978Y-91214040D01*
X108528962Y-91190083D01*
X108492893Y-91164567D01*
X108459636Y-91140931D01*
X108432652Y-91121789D01*
X108399494Y-91098471D01*
X108368595Y-91076938D01*
X108344182Y-91060146D01*
X108310866Y-91037414D01*
X108264900Y-91005793D01*
X108220932Y-90975266D01*
X108180237Y-90946739D01*
X108144086Y-90921114D01*
X108113753Y-90899296D01*
X108090511Y-90882189D01*
X108075632Y-90870696D01*
X108070390Y-90865722D01*
X108070485Y-90865460D01*
X108077030Y-90859629D01*
X108092680Y-90847848D01*
X108115768Y-90831313D01*
X108144629Y-90811221D01*
X108177597Y-90788766D01*
X108189948Y-90780467D01*
X108243640Y-90744986D01*
X108299266Y-90709091D01*
X108355647Y-90673478D01*
X108411603Y-90638839D01*
X108465953Y-90605869D01*
X108517519Y-90575262D01*
X108565120Y-90547712D01*
X108607576Y-90523912D01*
X108643708Y-90504557D01*
X108672336Y-90490341D01*
X108692280Y-90481957D01*
X108702359Y-90480100D01*
X108704701Y-90481252D01*
X108717151Y-90488979D01*
X108737862Y-90502771D01*
X108765118Y-90521457D01*
X108797200Y-90543865D01*
X108832390Y-90568822D01*
X108839373Y-90573802D01*
X108864427Y-90591600D01*
X108899107Y-90616169D01*
X108942576Y-90646919D01*
X108993996Y-90683258D01*
X109052530Y-90724595D01*
X109117341Y-90770338D01*
X109187589Y-90819897D01*
X109262439Y-90872681D01*
X109341051Y-90928099D01*
X109422589Y-90985558D01*
X109506215Y-91044469D01*
X109591091Y-91104240D01*
X109613425Y-91119966D01*
X109699731Y-91180733D01*
X109785497Y-91241121D01*
X109869790Y-91300473D01*
X109951679Y-91358133D01*
X110030232Y-91413445D01*
X110104518Y-91465753D01*
X110173606Y-91514401D01*
X110236562Y-91558732D01*
X110292456Y-91598092D01*
X110340357Y-91631824D01*
X110379332Y-91659271D01*
X110408449Y-91679778D01*
X110435825Y-91699000D01*
X110477063Y-91727719D01*
X110514323Y-91753386D01*
X110546250Y-91775081D01*
X110571488Y-91791886D01*
X110588681Y-91802884D01*
X110596475Y-91807155D01*
X110596935Y-91807096D01*
X110601683Y-91802793D01*
X110610829Y-91791585D01*
X110624607Y-91773127D01*
X110643254Y-91747073D01*
X110667003Y-91713080D01*
X110696090Y-91670801D01*
X110730750Y-91619892D01*
X110771218Y-91560008D01*
X110817729Y-91490804D01*
X110870519Y-91411934D01*
X110929822Y-91323055D01*
X110995874Y-91223821D01*
X111068909Y-91113886D01*
X111072660Y-91108235D01*
X111130045Y-91021880D01*
X111185448Y-90938664D01*
X111238427Y-90859241D01*
X111288541Y-90784267D01*
X111335349Y-90714398D01*
X111378408Y-90650289D01*
X111417278Y-90592596D01*
X111451516Y-90541975D01*
X111480682Y-90499080D01*
X111504333Y-90464567D01*
X111522027Y-90439092D01*
X111533325Y-90423310D01*
X111537783Y-90417877D01*
X111541128Y-90419260D01*
D11*
X131350000Y-87150000D03*
X131350000Y-93650000D03*
X135850000Y-93650000D03*
X135850000Y-87150000D03*
D12*
X109875000Y-84200000D03*
D13*
X108000000Y-84200000D03*
D12*
X106125000Y-84200000D03*
X106674175Y-85525825D03*
X108000000Y-82325000D03*
X109325825Y-85525825D03*
X108000000Y-86075000D03*
X109325825Y-82874175D03*
X106674175Y-82874175D03*
D11*
X131350000Y-103350000D03*
X131350000Y-96850000D03*
X135850000Y-103350000D03*
X135850000Y-96850000D03*
D14*
X132250000Y-78100000D03*
X132250000Y-80600000D03*
X132250000Y-83100000D03*
D11*
X82580000Y-106700000D03*
X82580000Y-111700000D03*
X87660000Y-111700000D03*
X87660000Y-106700000D03*
X92740000Y-106700000D03*
X92740000Y-111700000D03*
X97820000Y-106700000D03*
X97820000Y-111700000D03*
D15*
X86400000Y-101200000D03*
D16*
X88940000Y-101200000D03*
X91480000Y-101200000D03*
X94020000Y-101200000D03*
D17*
X125545000Y-106340000D03*
D18*
X125545000Y-103800000D03*
X125545000Y-101260000D03*
X125545000Y-98720000D03*
X125545000Y-96180000D03*
X125545000Y-93640000D03*
X125545000Y-91100000D03*
X125545000Y-88560000D03*
X102685000Y-88560000D03*
X102685000Y-91100000D03*
X102685000Y-93640000D03*
X102685000Y-96180000D03*
X102685000Y-98720000D03*
X102685000Y-101260000D03*
X102685000Y-103800000D03*
X102685000Y-106340000D03*
D15*
X83750000Y-97425000D03*
D16*
X83750000Y-94885000D03*
X83750000Y-92345000D03*
X83750000Y-89805000D03*
X83750000Y-87265000D03*
X83750000Y-84725000D03*
X83750000Y-82185000D03*
X83750000Y-79645000D03*
X96450000Y-79645000D03*
X96450000Y-82185000D03*
X96450000Y-84725000D03*
X96450000Y-87265000D03*
X96450000Y-89805000D03*
X96450000Y-92345000D03*
X96450000Y-94885000D03*
D15*
X96450000Y-97425000D03*
D12*
X118674175Y-85525825D03*
D13*
X120000000Y-84200000D03*
D12*
X118674175Y-82874175D03*
X120000000Y-86075000D03*
X120000000Y-82325000D03*
X121325825Y-82874175D03*
X121875000Y-84200000D03*
X118125000Y-84200000D03*
X121325825Y-85525825D03*
D11*
X131350000Y-113050000D03*
X131350000Y-106550000D03*
X135850000Y-106550000D03*
X135850000Y-113050000D03*
D19*
X134262500Y-109900000D03*
X131337500Y-109900000D03*
X134262500Y-100200000D03*
X131337500Y-100200000D03*
X134262500Y-90500000D03*
X131337500Y-90500000D03*
M02*
