%TF.GenerationSoftware,KiCad,Pcbnew,(6.0.5)*%
%TF.CreationDate,2023-01-03T16:46:16+01:00*%
%TF.ProjectId,Photo_table,50686f74-6f5f-4746-9162-6c652e6b6963,rev?*%
%TF.SameCoordinates,Original*%
%TF.FileFunction,Soldermask,Top*%
%TF.FilePolarity,Negative*%
%FSLAX46Y46*%
G04 Gerber Fmt 4.6, Leading zero omitted, Abs format (unit mm)*
G04 Created by KiCad (PCBNEW (6.0.5)) date 2023-01-03 16:46:16*
%MOMM*%
%LPD*%
G01*
G04 APERTURE LIST*
G04 Aperture macros list*
%AMRoundRect*
0 Rectangle with rounded corners*
0 $1 Rounding radius*
0 $2 $3 $4 $5 $6 $7 $8 $9 X,Y pos of 4 corners*
0 Add a 4 corners polygon primitive as box body*
4,1,4,$2,$3,$4,$5,$6,$7,$8,$9,$2,$3,0*
0 Add four circle primitives for the rounded corners*
1,1,$1+$1,$2,$3*
1,1,$1+$1,$4,$5*
1,1,$1+$1,$6,$7*
1,1,$1+$1,$8,$9*
0 Add four rect primitives between the rounded corners*
20,1,$1+$1,$2,$3,$4,$5,0*
20,1,$1+$1,$4,$5,$6,$7,0*
20,1,$1+$1,$6,$7,$8,$9,0*
20,1,$1+$1,$8,$9,$2,$3,0*%
G04 Aperture macros list end*
%ADD10C,2.000000*%
%ADD11C,0.800000*%
%ADD12C,5.000000*%
%ADD13RoundRect,0.250000X-1.137500X-0.550000X1.137500X-0.550000X1.137500X0.550000X-1.137500X0.550000X0*%
%ADD14O,3.500000X1.500000*%
%ADD15RoundRect,0.250000X0.550000X-1.712500X0.550000X1.712500X-0.550000X1.712500X-0.550000X-1.712500X0*%
%ADD16RoundRect,0.250000X-0.550000X1.137500X-0.550000X-1.137500X0.550000X-1.137500X0.550000X1.137500X0*%
%ADD17R,1.700000X1.700000*%
%ADD18O,1.700000X1.700000*%
%ADD19R,2.000000X2.000000*%
%ADD20O,2.000000X1.600000*%
G04 APERTURE END LIST*
D10*
X131350000Y-87150000D03*
X131350000Y-93650000D03*
X135850000Y-93650000D03*
X135850000Y-87150000D03*
D11*
X109875000Y-84200000D03*
D12*
X108000000Y-84200000D03*
D11*
X106125000Y-84200000D03*
X106674175Y-85525825D03*
X108000000Y-82325000D03*
X109325825Y-85525825D03*
X108000000Y-86075000D03*
X109325825Y-82874175D03*
X106674175Y-82874175D03*
D10*
X131350000Y-103350000D03*
X131350000Y-96850000D03*
X135850000Y-103350000D03*
X135850000Y-96850000D03*
D13*
X107037500Y-90600000D03*
X111162500Y-90600000D03*
D14*
X132250000Y-78100000D03*
X132250000Y-80600000D03*
X132250000Y-83100000D03*
D15*
X90100000Y-93537500D03*
X90100000Y-87362500D03*
D16*
X90100000Y-78887500D03*
X90100000Y-83012500D03*
D10*
X82580000Y-106700000D03*
X82580000Y-111700000D03*
X87660000Y-111700000D03*
X87660000Y-106700000D03*
X92740000Y-106700000D03*
X92740000Y-111700000D03*
X97820000Y-106700000D03*
X97820000Y-111700000D03*
D17*
X86400000Y-101200000D03*
D18*
X88940000Y-101200000D03*
X91480000Y-101200000D03*
X94020000Y-101200000D03*
D19*
X125545000Y-106340000D03*
D20*
X125545000Y-103800000D03*
X125545000Y-101260000D03*
X125545000Y-98720000D03*
X125545000Y-96180000D03*
X125545000Y-93640000D03*
X125545000Y-91100000D03*
X125545000Y-88560000D03*
X102685000Y-88560000D03*
X102685000Y-91100000D03*
X102685000Y-93640000D03*
X102685000Y-96180000D03*
X102685000Y-98720000D03*
X102685000Y-101260000D03*
X102685000Y-103800000D03*
X102685000Y-106340000D03*
D17*
X83750000Y-97425000D03*
D18*
X83750000Y-94885000D03*
X83750000Y-92345000D03*
X83750000Y-89805000D03*
X83750000Y-87265000D03*
X83750000Y-84725000D03*
X83750000Y-82185000D03*
X83750000Y-79645000D03*
X96450000Y-79645000D03*
X96450000Y-82185000D03*
X96450000Y-84725000D03*
X96450000Y-87265000D03*
X96450000Y-89805000D03*
X96450000Y-92345000D03*
X96450000Y-94885000D03*
D17*
X96450000Y-97425000D03*
D11*
X118674175Y-85525825D03*
D12*
X120000000Y-84200000D03*
D11*
X118674175Y-82874175D03*
X120000000Y-86075000D03*
X120000000Y-82325000D03*
X121325825Y-82874175D03*
X121875000Y-84200000D03*
X118125000Y-84200000D03*
X121325825Y-85525825D03*
D10*
X131350000Y-113050000D03*
X131350000Y-106550000D03*
X135850000Y-106550000D03*
X135850000Y-113050000D03*
M02*
